<svg width="525" height="525" viewBox="0 0 525 525" fill="none" xmlns="http://www.w3.org/2000/svg">
<path d="M525 262.5C525 407.475 407.475 525 262.5 525C117.525 525 0 407.475 0 262.5C0 117.525 117.525 0 262.5 0C407.475 0 525 117.525 525 262.5Z" fill="#F49F0A"/>
<path d="M163.486 384.206L166.5 508C204.336 528.41 300.486 532 362.893 508V384.206C377.891 375.557 377.38 292.388 375.25 251.885L389.737 235.885L386.754 224.643L393.997 201.724L386.754 179.238C427.999 82.0302 399.963 52.2509 380.789 49.5122L368.006 96.646C355.735 96.646 341.021 120.862 335.198 132.969L297.702 117.402H228.677L188.625 132.969C186.58 121.208 167.321 103.853 157.947 96.646L140.477 49.5122C97.8691 55.3931 122.724 138.447 140.477 179.238L134.086 201.724V218.156L140.477 238.048L152.834 257.939C144.312 337.504 156.385 375.269 163.486 384.206Z" fill="#FFEBC8"/>
<path fill-rule="evenodd" clip-rule="evenodd" d="M230.826 292.917C231.235 290.746 233.327 289.318 235.498 289.728C241.619 290.882 250.323 294.657 257.176 302.272C264.143 310.014 268.989 321.505 267.516 337.56C267.315 339.76 265.368 341.38 263.168 341.178C260.968 340.977 259.348 339.03 259.55 336.83C260.826 322.916 256.653 313.651 251.229 307.623C245.69 301.468 238.632 298.46 234.015 297.589C231.844 297.18 230.416 295.088 230.826 292.917Z" fill="black"/>
<path fill-rule="evenodd" clip-rule="evenodd" d="M177.928 245.689C178.86 246.691 179.216 248.1 178.871 249.424C178.01 252.725 176.662 257.429 175.447 260.587C175.14 261.383 174.81 262.164 174.468 262.834C174.223 263.311 173.662 264.385 172.715 265.14C172.209 265.544 170.871 266.419 169.057 266.007C167.269 265.6 166.438 264.26 166.151 263.696C165.6 262.609 165.5 261.345 165.458 260.588C165.402 259.594 164.747 258.518 162.67 257.472C160.63 256.446 158.069 255.937 156.371 255.82C154.362 255.681 152.769 254.07 152.653 252.059C152.537 250.048 153.935 248.265 155.915 247.897L174.269 244.482C175.614 244.232 176.995 244.687 177.928 245.689ZM167.239 259.385C167.219 259.418 167.209 259.432 167.209 259.431C167.209 259.43 167.219 259.414 167.239 259.385Z" fill="black"/>
<path fill-rule="evenodd" clip-rule="evenodd" d="M189.168 251.616C175.25 249.617 159.332 250.068 148.938 251.114C146.74 251.335 144.779 249.733 144.558 247.535C144.336 245.337 145.939 243.376 148.137 243.154C158.942 242.066 175.548 241.578 190.306 243.698C197.672 244.756 204.811 246.495 210.59 249.281C216.337 252.053 221.276 256.133 223.2 262.132C223.875 264.236 222.716 266.488 220.613 267.162C218.509 267.837 216.257 266.679 215.582 264.575C214.604 261.526 211.885 258.787 207.115 256.487C202.377 254.202 196.14 252.618 189.168 251.616Z" fill="black"/>
<path fill-rule="evenodd" clip-rule="evenodd" d="M136.108 73.5382C139.105 73.0388 141.938 75.063 142.438 78.0592C143.473 84.2736 145.53 93.8757 148.294 102.383C149.679 106.646 151.187 110.465 152.752 113.395C154.438 116.551 155.734 117.796 156.278 118.091C162.216 121.307 165.516 127.601 167.368 132.92C168.152 135.169 168.749 137.454 169.192 139.623L186.986 130.42C189.684 129.024 193.002 130.08 194.398 132.778C195.793 135.476 194.737 138.795 192.039 140.19L167.283 152.995C165.616 153.857 163.624 153.81 162 152.869C160.376 151.928 159.343 150.224 159.262 148.349C159.138 145.511 158.488 140.868 156.98 136.538C155.404 132.011 153.297 128.986 151.039 127.763C147.487 125.838 144.919 122.078 143.049 118.576C141.058 114.848 139.317 110.354 137.832 105.782C134.855 96.6182 132.686 86.458 131.587 79.8676C131.088 76.8713 133.112 74.0376 136.108 73.5382Z" fill="black"/>
<path fill-rule="evenodd" clip-rule="evenodd" d="M267.778 238.503C267.83 240.712 266.082 242.544 263.874 242.596C255.644 242.791 243.092 246.082 232.739 255.353C222.526 264.499 214.097 279.779 214.425 304.703C214.754 329.676 223.32 343.884 233.278 351.761C243.396 359.765 255.494 361.664 263.423 360.955C265.623 360.758 267.567 362.382 267.763 364.583C267.96 366.783 266.336 368.726 264.136 368.923C254.565 369.779 240.327 367.538 228.314 358.035C216.141 348.405 206.78 331.739 206.426 304.809C206.071 277.83 215.284 260.245 227.402 249.394C239.379 238.668 253.845 234.831 263.685 234.599C265.893 234.547 267.726 236.295 267.778 238.503Z" fill="black"/>
<path d="M197.195 258.659C197.195 265.73 190.124 271.463 181.402 271.463C172.68 271.463 165.609 265.73 165.609 258.659C165.609 251.587 172.68 245.854 181.402 245.854C190.124 245.854 197.195 251.587 197.195 258.659Z" fill="black"/>
<path d="M178.415 257.378C178.415 259.028 177.077 260.366 175.427 260.366C173.777 260.366 172.439 259.028 172.439 257.378C172.439 255.728 173.777 254.39 175.427 254.39C177.077 254.39 178.415 255.728 178.415 257.378Z" fill="#FCFCFC"/>
<path fill-rule="evenodd" clip-rule="evenodd" d="M231.73 318.479C233.816 317.752 236.097 318.853 236.825 320.938C238.516 325.786 245.908 336.111 261.771 334.914C263.974 334.747 265.895 336.398 266.061 338.601C266.227 340.804 264.576 342.725 262.373 342.891C242.041 344.425 231.849 330.962 229.271 323.573C228.544 321.488 229.645 319.207 231.73 318.479Z" fill="black"/>
<path fill-rule="evenodd" clip-rule="evenodd" d="M347.926 245.689C346.993 246.691 346.637 248.1 346.983 249.424C347.844 252.725 349.191 257.429 350.407 260.587C350.713 261.383 351.043 262.164 351.386 262.834C351.63 263.311 352.191 264.385 353.138 265.14C353.645 265.544 354.983 266.419 356.797 266.007C358.584 265.6 359.416 264.26 359.703 263.696C360.254 262.609 360.354 261.345 360.396 260.588C360.451 259.594 361.106 258.518 363.184 257.472C365.223 256.446 367.785 255.937 369.482 255.82C371.492 255.681 373.084 254.07 373.2 252.059C373.316 250.048 371.919 248.265 369.939 247.897L351.585 244.482C350.239 244.232 348.859 244.687 347.926 245.689ZM358.615 259.385C358.634 259.418 358.644 259.432 358.644 259.431C358.644 259.43 358.635 259.414 358.615 259.385Z" fill="black"/>
<path fill-rule="evenodd" clip-rule="evenodd" d="M336.685 251.616C350.603 249.617 366.521 250.068 376.915 251.114C379.113 251.335 381.075 249.733 381.296 247.535C381.517 245.337 379.915 243.376 377.717 243.154C366.912 242.066 350.305 241.578 335.548 243.698C328.182 244.756 321.042 246.495 315.264 249.281C309.517 252.053 304.578 256.133 302.654 262.132C301.979 264.236 303.137 266.488 305.241 267.162C307.344 267.837 309.597 266.679 310.271 264.575C311.25 261.526 313.969 258.787 318.738 256.487C323.477 254.202 329.713 252.618 336.685 251.616Z" fill="#00A6A6"/>
<path fill-rule="evenodd" clip-rule="evenodd" d="M147.568 43.4042C148.767 44.3029 149.547 45.6518 149.729 47.139C150.775 55.7168 152.949 68.5745 156.031 79.2643C157.583 84.6454 159.282 89.1814 161.034 92.3028C161.911 93.8654 162.671 94.8356 163.241 95.3681C163.43 95.5443 163.561 95.6397 163.636 95.6876C167.894 96.0527 171.576 98.5582 174.421 101.169C177.437 103.937 180.269 107.527 182.786 111.239C185.427 115.133 187.863 119.372 189.937 123.357C191.174 123.082 192.473 122.976 193.782 122.976C194.84 122.976 196.81 122.634 199.676 121.796C202.421 120.994 205.59 119.858 208.874 118.559C215.439 115.963 222.163 112.831 226.322 110.751C227.086 110.369 227.928 110.171 228.782 110.171H262.928C265.965 110.171 268.428 112.633 268.428 115.671C268.428 118.708 265.965 121.171 262.928 121.171H230.069C225.671 123.331 219.255 126.282 212.921 128.788C209.461 130.157 205.95 131.423 202.762 132.354C200.088 133.136 197.3 133.787 194.842 133.941C195.448 136.3 194.423 138.826 192.255 140.073C189.846 141.458 186.781 140.828 185.113 138.605C184.426 137.688 183.712 136.494 183.224 135.127C183.091 134.754 182.962 134.332 182.856 133.871C180.542 128.893 177.288 122.729 173.682 117.413C171.409 114.061 169.124 111.238 166.983 109.274C164.718 107.195 163.276 106.687 162.671 106.645C159.767 106.445 157.443 105.005 155.733 103.407C154.031 101.817 152.623 99.7909 151.442 97.6869C149.078 93.4748 147.101 87.9962 145.462 82.3118C142.89 73.3917 140.946 63.2336 139.699 54.9617C133.193 58.0311 126.189 65.1268 123.229 79.0706C119.33 97.4301 122.504 127.755 144.153 175.281C144.751 176.595 144.809 178.092 144.313 179.449L138.903 194.256H139.147C141.054 194.256 142.824 195.243 143.826 196.865C144.828 198.486 144.919 200.511 144.067 202.216L139.91 210.529C141.406 210.738 142.763 211.557 143.645 212.81C144.675 214.274 144.929 216.147 144.325 217.832L141.109 226.802L141.625 226.519C143.556 225.46 145.933 225.655 147.666 227.016C149.399 228.376 150.152 230.639 149.581 232.767C148.955 235.1 148.639 238.542 149.376 241.272C149.725 242.564 150.25 243.481 150.878 244.106C151.461 244.685 152.394 245.278 154.082 245.542C157.01 245.999 159.049 248.695 158.693 251.637C156.437 270.247 154.223 298.86 154.889 324.16C155.223 336.834 156.275 348.44 158.317 357.467C159.338 361.98 160.565 365.661 161.963 368.442C163.381 371.263 164.781 372.775 165.942 373.492C167.563 374.495 168.55 376.265 168.55 378.171V493.841C168.55 496.879 166.087 499.341 163.05 499.341C160.012 499.341 157.55 496.879 157.55 493.841V380.864C155.309 378.806 153.546 376.189 152.135 373.383C150.197 369.528 148.724 364.915 147.588 359.894C145.317 349.852 144.235 337.429 143.893 324.45C143.26 300.432 145.146 273.705 147.248 254.831C145.692 254.072 144.315 253.091 143.126 251.91C140.805 249.604 139.478 246.814 138.756 244.139C138.473 243.09 138.274 242.028 138.145 240.973L133.682 243.42C131.678 244.519 129.204 244.264 127.466 242.78C125.728 241.296 125.089 238.893 125.86 236.741L131.333 221.476H131.037C129.131 221.476 127.361 220.489 126.359 218.867C125.357 217.246 125.266 215.221 126.118 213.516L130.275 205.203C128.773 204.993 127.412 204.169 126.53 202.908C125.501 201.436 125.255 199.555 125.871 197.868L133.211 177.782C111.965 130.481 107.924 98.1896 112.468 76.786C117.151 54.7321 130.988 44.413 143.378 42.3776C144.856 42.1347 146.37 42.5055 147.568 43.4042ZM163.712 95.73C163.712 95.7303 163.707 95.7285 163.699 95.724C163.707 95.7275 163.712 95.7297 163.712 95.73Z" fill="black"/>
<path fill-rule="evenodd" clip-rule="evenodd" d="M295.03 292.917C294.62 290.746 292.528 289.318 290.358 289.728C284.237 290.882 275.532 294.657 268.68 302.272C261.713 310.014 256.866 321.505 258.339 337.56C258.541 339.76 260.488 341.38 262.688 341.178C264.888 340.977 266.507 339.03 266.306 336.83C265.03 322.916 269.203 313.651 274.627 307.623C280.165 301.468 287.223 298.46 291.84 297.589C294.011 297.18 295.439 295.088 295.03 292.917Z" fill="black"/>
<path fill-rule="evenodd" clip-rule="evenodd" d="M230.826 292.917C231.235 290.746 233.327 289.318 235.498 289.728C241.619 290.882 250.323 294.657 257.176 302.272C264.143 310.014 268.989 321.505 267.516 337.56C267.315 339.76 265.368 341.38 263.168 341.178C260.968 340.977 259.348 339.03 259.55 336.83C260.826 322.916 256.653 313.651 251.229 307.623C245.69 301.468 238.632 298.46 234.015 297.589C231.844 297.18 230.416 295.088 230.826 292.917Z" fill="black"/>
<path fill-rule="evenodd" clip-rule="evenodd" d="M177.928 245.689C178.86 246.691 179.216 248.1 178.871 249.424C178.01 252.725 176.662 257.429 175.447 260.587C175.14 261.383 174.81 262.164 174.468 262.834C174.223 263.311 173.662 264.385 172.715 265.14C172.209 265.544 170.871 266.419 169.057 266.007C167.269 265.6 166.438 264.26 166.151 263.696C165.6 262.609 165.5 261.345 165.458 260.588C165.402 259.594 164.747 258.518 162.67 257.472C160.63 256.446 158.069 255.937 156.371 255.82C154.362 255.681 152.769 254.07 152.653 252.059C152.537 250.048 153.935 248.265 155.915 247.897L174.269 244.482C175.614 244.232 176.995 244.687 177.928 245.689ZM167.239 259.385C167.219 259.418 167.209 259.432 167.209 259.431C167.209 259.43 167.219 259.414 167.239 259.385Z" fill="black"/>
<path fill-rule="evenodd" clip-rule="evenodd" d="M189.168 251.616C175.25 249.617 159.332 250.068 148.938 251.114C146.74 251.335 144.779 249.733 144.558 247.535C144.336 245.337 145.939 243.376 148.137 243.154C158.942 242.066 175.548 241.578 190.306 243.698C197.672 244.756 204.811 246.495 210.59 249.281C216.337 252.053 221.276 256.133 223.2 262.132C223.875 264.236 222.716 266.488 220.613 267.162C218.509 267.837 216.257 266.679 215.582 264.575C214.604 261.526 211.885 258.787 207.115 256.487C202.377 254.202 196.14 252.618 189.168 251.616Z" fill="#00A6A6"/>
<path fill-rule="evenodd" clip-rule="evenodd" d="M378.287 43.4042C377.088 44.3029 376.308 45.6518 376.127 47.139C375.081 55.7168 372.907 68.5745 369.824 79.2643C368.273 84.6454 366.574 89.1814 364.822 92.3028C363.944 93.8654 363.184 94.8356 362.614 95.3681C362.426 95.5443 362.294 95.6397 362.219 95.6876C357.961 96.0527 354.28 98.5582 351.435 101.169C348.418 103.937 345.587 107.527 343.069 111.239C340.429 115.133 337.992 119.372 335.919 123.357C334.681 123.082 333.382 122.976 332.074 122.976C331.015 122.976 329.046 122.634 326.179 121.796C323.434 120.994 320.265 119.858 316.981 118.559C310.417 115.963 303.693 112.831 299.534 110.751C298.77 110.369 297.928 110.171 297.074 110.171H262.928C259.89 110.171 257.428 112.633 257.428 115.671C257.428 118.708 259.89 121.171 262.928 121.171H295.786C300.184 123.331 306.6 126.282 312.935 128.788C316.395 130.157 319.906 131.423 323.094 132.354C325.767 133.136 328.555 133.787 331.013 133.941C330.408 136.3 331.432 138.826 333.6 140.073C336.01 141.458 339.075 140.828 340.742 138.605C341.43 137.688 342.143 136.494 342.632 135.127C342.765 134.754 342.894 134.332 342.999 133.871C345.313 128.893 348.567 122.729 352.173 117.413C354.447 114.061 356.732 111.238 358.872 109.274C361.138 107.195 362.579 106.687 363.184 106.645C366.088 106.445 368.412 105.005 370.122 103.407C371.825 101.817 373.233 99.7909 374.414 97.6869C376.778 93.4748 378.755 87.9962 380.394 82.3118C382.966 73.3917 384.909 63.2336 386.157 54.9617C392.662 58.0311 399.666 65.1268 402.627 79.0706C406.525 97.4301 403.352 127.755 381.703 175.281C381.104 176.595 381.047 178.092 381.542 179.449L386.953 194.256H386.708C384.802 194.256 383.032 195.243 382.03 196.865C381.027 198.486 380.936 200.511 381.789 202.216L385.945 210.529C384.45 210.738 383.093 211.557 382.21 212.81C381.18 214.274 380.927 216.147 381.531 217.832L384.747 226.802L384.231 226.519C382.299 225.46 379.922 225.655 378.189 227.016C376.457 228.376 375.703 230.639 376.274 232.767C376.9 235.1 377.216 238.542 376.479 241.272C376.13 242.564 375.606 243.481 374.977 244.106C374.394 244.685 373.461 245.278 371.774 245.542C368.845 245.999 366.806 248.695 367.163 251.637C369.419 270.247 371.633 298.86 370.966 324.16C370.632 336.834 369.58 348.44 367.539 357.467C366.518 361.98 365.29 365.661 363.892 368.442C362.475 371.263 361.074 372.775 359.914 373.492C358.293 374.495 357.306 376.265 357.306 378.171V493.841C357.306 496.879 359.768 499.341 362.806 499.341C365.843 499.341 368.306 496.879 368.306 493.841V380.864C370.546 378.806 372.31 376.189 373.721 373.383C375.658 369.528 377.132 364.915 378.268 359.894C380.539 349.852 381.621 337.429 381.963 324.45C382.595 300.432 380.709 273.705 378.608 254.831C380.163 254.072 381.541 253.091 382.729 251.91C385.05 249.604 386.377 246.814 387.099 244.139C387.382 243.09 387.581 242.028 387.711 240.973L392.174 243.42C394.177 244.519 396.652 244.264 398.389 242.78C400.127 241.296 400.767 238.893 399.995 236.741L394.523 221.476H394.818C396.724 221.476 398.495 220.489 399.497 218.867C400.499 217.246 400.59 215.221 399.737 213.516L395.581 205.203C397.082 204.993 398.444 204.169 399.325 202.908C400.354 201.436 400.6 199.555 399.984 197.868L392.645 177.782C413.89 130.481 417.931 98.1896 413.387 76.786C408.705 54.7321 394.867 44.413 382.478 42.3776C380.999 42.1347 379.486 42.5055 378.287 43.4042ZM362.144 95.73C362.144 95.7303 362.148 95.7285 362.157 95.724C362.148 95.7275 362.144 95.7297 362.144 95.73Z" fill="black"/>
<path fill-rule="evenodd" clip-rule="evenodd" d="M147.568 43.4042C148.767 44.3029 149.547 45.6518 149.729 47.139C150.775 55.7168 152.949 68.5745 156.031 79.2643C157.583 84.6454 159.282 89.1814 161.034 92.3028C161.911 93.8654 162.671 94.8356 163.241 95.3681C163.43 95.5443 163.561 95.6397 163.636 95.6876C167.894 96.0527 171.576 98.5582 174.421 101.169C177.437 103.937 180.269 107.527 182.786 111.239C185.427 115.133 187.863 119.372 189.937 123.357C191.174 123.082 192.473 122.976 193.782 122.976C194.84 122.976 196.81 122.634 199.676 121.796C202.421 120.994 205.59 119.858 208.874 118.559C215.439 115.963 222.163 112.831 226.322 110.751C227.086 110.369 227.928 110.171 228.782 110.171H262.928C265.965 110.171 268.428 112.633 268.428 115.671C268.428 118.708 265.965 121.171 262.928 121.171H230.069C225.671 123.331 219.255 126.282 212.921 128.788C209.461 130.157 205.95 131.423 202.762 132.354C200.088 133.136 197.3 133.787 194.842 133.941C195.448 136.3 194.423 138.826 192.255 140.073C189.846 141.458 186.781 140.828 185.113 138.605C184.426 137.688 183.712 136.494 183.224 135.127C183.091 134.754 182.962 134.332 182.856 133.871C180.542 128.893 177.288 122.729 173.682 117.413C171.409 114.061 169.124 111.238 166.983 109.274C164.718 107.195 163.276 106.687 162.671 106.645C159.767 106.445 157.443 105.005 155.733 103.407C154.031 101.817 152.623 99.7909 151.442 97.6869C149.078 93.4748 147.101 87.9962 145.462 82.3118C142.89 73.3917 140.946 63.2336 139.699 54.9617C133.193 58.0311 126.189 65.1268 123.229 79.0706C119.33 97.4301 122.504 127.755 144.153 175.281C144.751 176.595 144.809 178.092 144.313 179.449L138.903 194.256H139.147C141.054 194.256 142.824 195.243 143.826 196.865C144.828 198.486 144.919 200.511 144.067 202.216L139.91 210.529C141.406 210.738 142.763 211.557 143.645 212.81C144.675 214.274 144.929 216.147 144.325 217.832L141.109 226.802L141.625 226.519C143.556 225.46 145.933 225.655 147.666 227.016C149.399 228.376 150.152 230.639 149.581 232.767C148.955 235.1 148.639 238.542 149.376 241.272C149.725 242.564 150.25 243.481 150.878 244.106C151.461 244.685 152.394 245.278 154.082 245.542C157.01 245.999 159.049 248.695 158.693 251.637C156.437 270.247 154.223 298.86 154.889 324.16C155.223 336.834 156.275 348.44 158.317 357.467C159.338 361.98 160.565 365.661 161.963 368.442C163.381 371.263 164.781 372.775 165.942 373.492C167.563 374.495 168.55 376.265 168.55 378.171V493.841C168.55 496.879 166.087 499.341 163.05 499.341C160.012 499.341 157.55 496.879 157.55 493.841V380.864C155.309 378.806 153.546 376.189 152.135 373.383C150.197 369.528 148.724 364.915 147.588 359.894C145.317 349.852 144.235 337.429 143.893 324.45C143.26 300.432 145.146 273.705 147.248 254.831C145.692 254.072 144.315 253.091 143.126 251.91C140.805 249.604 139.478 246.814 138.756 244.139C138.473 243.09 138.274 242.028 138.145 240.973L133.682 243.42C131.678 244.519 129.204 244.264 127.466 242.78C125.728 241.296 125.089 238.893 125.86 236.741L131.333 221.476H131.037C129.131 221.476 127.361 220.489 126.359 218.867C125.357 217.246 125.266 215.221 126.118 213.516L130.275 205.203C128.773 204.993 127.412 204.169 126.53 202.908C125.501 201.436 125.255 199.555 125.871 197.868L133.211 177.782C111.965 130.481 107.924 98.1896 112.468 76.786C117.151 54.7321 130.988 44.413 143.378 42.3776C144.856 42.1347 146.37 42.5055 147.568 43.4042ZM163.712 95.73C163.712 95.7303 163.707 95.7285 163.699 95.724C163.707 95.7275 163.712 95.7297 163.712 95.73Z" fill="black"/>
<path fill-rule="evenodd" clip-rule="evenodd" d="M389.745 73.5382C386.749 73.0388 383.915 75.063 383.416 78.0592C382.38 84.2736 380.324 93.8757 377.56 102.383C376.175 106.646 374.666 110.465 373.101 113.395C371.416 116.551 370.12 117.796 369.575 118.091C363.638 121.307 360.338 127.601 358.485 132.92C357.702 135.169 357.105 137.454 356.661 139.623L338.868 130.42C336.17 129.024 332.851 130.08 331.456 132.778C330.06 135.476 331.116 138.795 333.814 140.19L358.57 152.995C360.237 153.857 362.229 153.81 363.854 152.869C365.478 151.928 366.51 150.224 366.592 148.349C366.715 145.511 367.365 140.868 368.873 136.538C370.45 132.011 372.556 128.986 374.814 127.763C378.367 125.838 380.934 122.078 382.804 118.576C384.796 114.848 386.536 110.354 388.022 105.782C390.999 96.6182 393.168 86.458 394.266 79.8676C394.765 76.8713 392.741 74.0376 389.745 73.5382Z" fill="black"/>
<path fill-rule="evenodd" clip-rule="evenodd" d="M136.108 73.5382C139.105 73.0388 141.938 75.063 142.438 78.0592C143.473 84.2736 145.53 93.8757 148.294 102.383C149.679 106.646 151.187 110.465 152.752 113.395C154.438 116.551 155.734 117.796 156.278 118.091C162.216 121.307 165.516 127.601 167.368 132.92C168.152 135.169 168.749 137.454 169.192 139.623L186.986 130.42C189.684 129.024 193.002 130.08 194.398 132.778C195.793 135.476 194.737 138.795 192.039 140.19L167.283 152.995C165.616 153.857 163.624 153.81 162 152.869C160.376 151.928 159.343 150.224 159.262 148.349C159.138 145.511 158.488 140.868 156.98 136.538C155.404 132.011 153.297 128.986 151.039 127.763C147.487 125.838 144.919 122.078 143.049 118.576C141.058 114.848 139.317 110.354 137.832 105.782C134.855 96.6182 132.686 86.458 131.587 79.8676C131.088 76.8713 133.112 74.0376 136.108 73.5382Z" fill="black"/>
<path fill-rule="evenodd" clip-rule="evenodd" d="M258.073 238.503C258.021 240.712 259.769 242.544 261.978 242.596C270.208 242.791 282.759 246.082 293.113 255.353C303.326 264.499 311.754 279.779 311.426 304.703C311.098 329.676 302.531 343.884 292.574 351.761C282.455 359.765 270.358 361.664 262.429 360.955C260.228 360.758 258.285 362.382 258.088 364.583C257.891 366.783 259.516 368.726 261.716 368.923C271.287 369.779 285.525 367.538 297.537 358.035C309.711 348.405 319.071 331.739 319.426 304.809C319.781 277.83 310.567 260.245 298.45 249.394C286.473 238.668 272.006 234.831 262.167 234.599C259.958 234.547 258.126 236.295 258.073 238.503Z" fill="black"/>
<path fill-rule="evenodd" clip-rule="evenodd" d="M267.778 238.503C267.83 240.712 266.082 242.544 263.874 242.596C255.644 242.791 243.092 246.082 232.739 255.353C222.526 264.499 214.097 279.779 214.425 304.703C214.754 329.676 223.32 343.884 233.278 351.761C243.396 359.765 255.494 361.664 263.423 360.955C265.623 360.758 267.567 362.382 267.763 364.583C267.96 366.783 266.336 368.726 264.136 368.923C254.565 369.779 240.327 367.538 228.314 358.035C216.141 348.405 206.78 331.739 206.426 304.809C206.071 277.83 215.284 260.245 227.402 249.394C239.379 238.668 253.845 234.831 263.685 234.599C265.893 234.547 267.726 236.295 267.778 238.503Z" fill="black"/>
<path d="M210 258.659C210 268.559 200.063 276.585 187.804 276.585C175.546 276.585 165.609 268.559 165.609 258.659C165.609 248.758 175.546 240.732 187.804 240.732C200.063 240.732 210 248.758 210 258.659Z" fill="black"/>
<path d="M186.098 256.951C186.098 260.723 183.04 263.78 179.269 263.78C175.497 263.78 172.439 260.723 172.439 256.951C172.439 253.18 175.497 250.122 179.269 250.122C183.04 250.122 186.098 253.18 186.098 256.951Z" fill="#FCFCFC"/>
<path d="M219.39 258.659C219.39 270.445 207.351 280 192.5 280C177.649 280 165.609 270.445 165.609 258.659C165.609 246.872 177.649 237.317 192.5 237.317C207.351 237.317 219.39 246.872 219.39 258.659Z" fill="black"/>
<path d="M188.659 253.963C188.659 258.442 185.028 262.073 180.549 262.073C176.07 262.073 172.439 258.442 172.439 253.963C172.439 249.484 176.07 245.854 180.549 245.854C185.028 245.854 188.659 249.484 188.659 253.963Z" fill="#FCFCFC"/>
<path d="M358.964 256.912C358.964 268.699 346.925 278.254 332.074 278.254C317.223 278.254 305.184 268.699 305.184 256.912C305.184 245.126 317.223 235.571 332.074 235.571C346.925 235.571 358.964 245.126 358.964 256.912Z" fill="black"/>
<path d="M326.952 253.537C326.952 257.78 323.512 261.219 319.269 261.219C315.026 261.219 311.586 257.78 311.586 253.537C311.586 249.293 315.026 245.854 319.269 245.854C323.512 245.854 326.952 249.293 326.952 253.537Z" fill="#FCFCFC"/>
<path fill-rule="evenodd" clip-rule="evenodd" d="M231.73 318.479C233.816 317.752 236.097 318.853 236.825 320.938C238.516 325.786 245.908 336.111 261.771 334.914C263.974 334.747 265.895 336.398 266.061 338.601C266.227 340.804 264.576 342.725 262.373 342.891C242.041 344.425 231.849 330.962 229.271 323.573C228.544 321.488 229.645 319.207 231.73 318.479Z" fill="black"/>
<path fill-rule="evenodd" clip-rule="evenodd" d="M294.121 318.479C292.035 317.752 289.754 318.853 289.027 320.938C287.336 325.786 279.943 336.111 264.08 334.914C261.877 334.747 259.957 336.398 259.791 338.601C259.624 340.804 261.275 342.725 263.478 342.891C283.81 344.425 294.003 330.962 296.58 323.573C297.308 321.488 296.207 319.207 294.121 318.479Z" fill="black"/>
</svg>
