<svg width="131" height="129" viewBox="0 0 131 129" fill="none" xmlns="http://www.w3.org/2000/svg">
<ellipse cx="67.5848" cy="56.1444" rx="55.9012" ry="56.1444" fill="#00A6A6"/>
<path d="M33.9037 88.5654L42.4912 107.774C53.1749 111.636 82.2611 116.616 88.9257 106.413L67.6838 73.3323C69.574 70.7313 63.2311 56.7759 59.8234 50.1233L61.074 46.3244L59.723 44.6604L59.226 40.2507L56.3075 37.0205C55.9822 17.5129 48.9926 14.6438 45.5385 15.6477L46.9187 24.5552C44.8399 25.4926 44.1689 30.6913 44.0933 33.1734L36.5704 33.4184L24.8773 38.6914L19.2634 44.3704C18.0322 42.5476 13.4642 41.0986 11.3341 40.602L4.82917 34.0055C-1.94643 38.25 8.51165 50.3264 14.5876 55.834L15.1964 60.1059L16.4325 62.8708L19.0115 65.7296L22.601 68.1327C27.1426 82.1718 32.0285 87.6041 33.9037 88.5654Z" fill="#FFEBC8"/>
<path fill-rule="evenodd" clip-rule="evenodd" d="M39.5823 66.371C39.5138 66.0687 39.7157 65.7586 40.0331 65.6782C41.0628 65.4177 42.6739 65.3598 44.2482 65.9996C45.8454 66.6486 47.3643 68.0001 48.1963 70.4832C48.2946 70.7765 48.1233 71.1023 47.8138 71.2109C47.5042 71.3196 47.1736 71.1699 47.0753 70.8766C46.339 68.6791 45.0384 67.5707 43.7481 67.0463C42.4351 66.5127 41.0909 66.568 40.2811 66.7729C39.9637 66.8532 39.6508 66.6733 39.5823 66.371Z" fill="black"/>
<path fill-rule="evenodd" clip-rule="evenodd" d="M22.8944 64.7207C22.5423 64.0274 22.6851 63.2072 23.228 62.8063L26.1749 60.6299C26.5438 60.3574 27.0344 60.3291 27.4754 60.5547C27.9165 60.7803 28.2466 61.2287 28.3506 61.7431C28.5033 62.4985 28.7042 63.607 28.7834 64.3935C28.8035 64.5929 28.8193 64.8053 28.8204 65.0022C28.8204 65.0045 28.8204 65.0068 28.8205 65.0093C28.8212 65.133 28.8235 65.5165 28.673 65.8703C28.5903 66.0646 28.3319 66.5462 27.7283 66.647C27.1335 66.7463 26.6842 66.3938 26.5249 66.2491C26.2333 65.9841 26.0504 65.6382 25.968 65.476C25.9293 65.4549 25.8355 65.4176 25.6689 65.3999C25.3072 65.3615 24.8805 65.4432 24.6156 65.5381C23.984 65.7642 23.2466 65.414 22.8944 64.7207ZM27.3253 63.6404C27.3847 64.0312 27.4298 64.3931 27.446 64.6646C27.4766 65.1746 27.4051 65.3656 27.1343 64.8301C26.9859 64.5366 26.779 64.3255 26.5395 64.1778C26.4742 64.1376 26.4065 64.102 26.3369 64.0708C26.2317 64.0236 26.1221 63.9862 26.0101 63.9575C25.3169 63.7796 24.5273 63.9293 24.07 64.0931L27.0169 61.9166C27.0789 62.2236 27.1471 62.5808 27.2107 62.9434C27.2495 63.1642 27.2865 63.387 27.3195 63.6018C27.3214 63.6147 27.3234 63.6276 27.3253 63.6404ZM26.0834 64.7296C26.0829 64.7288 26.0829 64.7158 26.0847 64.6934C26.0848 64.7193 26.0839 64.7305 26.0834 64.7296ZM28.3451 64.2669C28.3451 64.2677 28.3398 64.2594 28.3293 64.24C28.3399 64.2565 28.3451 64.2662 28.3451 64.2669Z" fill="black"/>
<path fill-rule="evenodd" clip-rule="evenodd" d="M28.9679 63.1537C26.4376 63.9153 23.7404 65.2173 22.0327 66.1857C21.7253 66.36 21.343 66.2739 21.1788 65.9934C21.0146 65.7129 21.1307 65.3442 21.4381 65.1699C23.2033 64.1689 25.9986 62.8166 28.6587 62.0159C29.9867 61.6161 31.317 61.3427 32.4849 61.3356C33.6473 61.3286 34.7435 61.5866 35.4671 62.3531C35.6918 62.591 35.6579 62.9696 35.3915 63.1986C35.1251 63.4275 34.727 63.4202 34.5023 63.1822C34.0938 62.7495 33.4019 62.5255 32.4104 62.5315C31.4244 62.5375 30.2351 62.7723 28.9679 63.1537Z" fill="black"/>
<path fill-rule="evenodd" clip-rule="evenodd" d="M7.04275 37.5449C7.48103 37.2612 8.05552 37.3508 8.3259 37.7449C8.98573 38.7067 10.0892 40.1547 11.2424 41.3607C11.8202 41.965 12.391 42.4879 12.9088 42.8574C13.4601 43.2507 13.8227 43.3755 13.9944 43.3816C15.267 43.4272 16.3122 44.1775 17.044 44.9089C17.4027 45.2675 17.7195 45.655 17.9857 46.0272L20.7049 42.8444C21.039 42.4534 21.6275 42.3699 22.0194 42.6579C22.4113 42.9458 22.4583 43.4962 22.1242 43.8872L18.5336 48.0899C18.3272 48.3316 18.0115 48.4657 17.6962 48.4459C17.381 48.426 17.1098 48.2548 16.9768 47.9917C16.7358 47.515 16.2597 46.7768 15.6453 46.1628C15.0076 45.5253 14.3593 45.1591 13.7918 45.1388C13.0436 45.112 12.3202 44.7167 11.7179 44.2869C11.082 43.8332 10.4314 43.2297 9.81817 42.5884C8.58941 41.3034 7.43248 39.7834 6.73872 38.7721C6.46834 38.378 6.60446 37.8285 7.04275 37.5449Z" fill="black"/>
<path fill-rule="evenodd" clip-rule="evenodd" d="M41.1225 54.537C41.2724 54.8535 41.1559 55.2248 40.8622 55.3663C39.5621 55.9928 37.815 57.4593 36.876 59.7935C35.9478 62.1009 35.7819 65.3234 37.7346 69.5517C39.6905 73.7869 42.14 75.6138 44.3411 76.2523C46.5722 76.8994 48.6486 76.355 49.8622 75.6611C50.1454 75.4992 50.5119 75.6164 50.6807 75.923C50.8496 76.2295 50.7569 76.6093 50.4737 76.7713C49.0488 77.586 46.6623 78.2106 44.0796 77.4615C41.4669 76.7037 38.7517 74.5691 36.6656 70.0521C34.5763 65.5281 34.6986 61.9243 35.7726 59.2545C36.8358 56.6114 38.8051 54.9497 40.3193 54.2201C40.613 54.0786 40.9725 54.2205 41.1225 54.537Z" fill="black"/>
<path d="M31.1728 62.8727C31.6379 63.9132 30.7412 65.331 29.17 66.0395C27.5988 66.7481 25.948 66.479 25.4828 65.4386C25.0177 64.3981 25.9144 62.9803 27.4856 62.2718C29.0568 61.5632 30.7076 61.8323 31.1728 62.8727Z" fill="black"/>
<path fill-rule="evenodd" clip-rule="evenodd" d="M41.4593 69.5893C41.6975 69.3626 42.0736 69.3735 42.2993 69.6135C42.9374 70.2919 44.8968 71.4343 47.3788 70.0805C47.6671 69.9232 48.028 70.031 48.1848 70.3213C48.3416 70.6115 48.235 70.9743 47.9467 71.1316C44.8799 72.8044 42.3498 71.405 41.4367 70.4343C41.2109 70.1943 41.221 69.816 41.4593 69.5893Z" fill="black"/>
<path fill-rule="evenodd" clip-rule="evenodd" d="M54.0286 52.2087C54.8951 51.4152 56.288 50.7338 57.935 50.181C58.2663 50.0698 58.4466 49.7127 58.3379 49.3833C58.2291 49.054 57.8723 48.8771 57.5411 48.9883C55.8381 49.5599 54.2428 50.3103 53.1786 51.2848C52.641 51.7771 52.2146 52.3488 51.9964 53.0077C51.7748 53.6769 51.783 54.3922 52.0469 55.1323C52.1634 55.459 52.5242 55.6275 52.8529 55.5086C53.1815 55.3898 53.3535 55.0286 53.237 54.702C53.0607 54.2076 53.0671 53.7797 53.1951 53.3934C53.3264 52.9967 53.6009 52.6003 54.0286 52.2087Z" fill="black"/>
<path fill-rule="evenodd" clip-rule="evenodd" d="M58.9257 52.0885C58.6955 52.0277 58.4577 51.9648 58.2291 51.9023C58.0194 51.8449 57.8975 51.6285 57.9567 51.419C58.016 51.2094 58.2341 51.0861 58.4438 51.1434C58.6685 51.2049 58.9031 51.267 59.1336 51.3278C59.1469 51.3313 59.1603 51.3349 59.1736 51.3384C59.3895 51.3954 59.6013 51.4513 59.7942 51.5039C59.9984 51.5595 60.1857 51.6125 60.3376 51.6603C60.4765 51.7039 60.6236 51.7543 60.7204 51.8091C60.9092 51.9161 60.974 52.1561 60.8652 52.3452C60.7564 52.5343 60.5151 52.6009 60.3263 52.494C60.3265 52.4941 60.3267 52.4942 60.3267 52.4942C60.3267 52.4942 60.3221 52.4918 60.3113 52.4871C60.2994 52.4818 60.2831 52.4752 60.2618 52.4673C60.219 52.4512 60.1633 52.4324 60.0947 52.4108C59.9576 52.3677 59.782 52.3179 59.5803 52.2629C59.3905 52.2112 59.1816 52.1561 58.9647 52.0988C58.9517 52.0954 58.9387 52.0919 58.9257 52.0885Z" fill="black"/>
<path fill-rule="evenodd" clip-rule="evenodd" d="M58.9257 52.0885C58.6955 52.0277 58.4577 51.9648 58.2291 51.9023C58.0194 51.8449 57.8975 51.6285 57.9567 51.419C58.016 51.2094 58.2341 51.0861 58.4438 51.1434C58.6685 51.2049 58.9031 51.267 59.1336 51.3278C59.1469 51.3313 59.1603 51.3349 59.1736 51.3384C59.3895 51.3954 59.6013 51.4513 59.7942 51.5039C59.9984 51.5595 60.1857 51.6125 60.3376 51.6603C60.4765 51.7039 60.6236 51.7543 60.7204 51.8091C60.9092 51.9161 60.974 52.1561 60.8652 52.3452C60.7564 52.5343 60.5151 52.6009 60.3263 52.494C60.3265 52.4941 60.3267 52.4942 60.3267 52.4942C60.3267 52.4942 60.3221 52.4918 60.3113 52.4871C60.2994 52.4818 60.2831 52.4752 60.2618 52.4673C60.219 52.4512 60.1633 52.4324 60.0947 52.4108C59.9576 52.3677 59.782 52.3179 59.5803 52.2629C59.3905 52.2112 59.1816 52.1561 58.9647 52.0988C58.9517 52.0954 58.9387 52.0919 58.9257 52.0885Z" fill="black"/>
<path fill-rule="evenodd" clip-rule="evenodd" d="M58.6521 53.3855C58.4596 53.335 58.247 53.2789 58.0183 53.2164C57.8086 53.159 57.6866 52.9426 57.7459 52.7331C57.8052 52.5235 58.0232 52.4001 58.2329 52.4575C58.4575 52.5189 58.6669 52.5741 58.859 52.6246C58.8815 52.6305 58.9037 52.6363 58.9257 52.6421C59.0914 52.6856 59.2447 52.7258 59.3812 52.763C59.6699 52.8418 59.943 52.9215 60.105 53.0133C60.2938 53.1203 60.3586 53.3603 60.2498 53.5494C60.141 53.7385 59.8997 53.8051 59.7109 53.6982C59.6526 53.6652 59.4878 53.6095 59.1671 53.522C59.0345 53.4859 58.8852 53.4467 58.7189 53.403C58.6969 53.3973 58.6747 53.3915 58.6521 53.3855Z" fill="black"/>
<path fill-rule="evenodd" clip-rule="evenodd" d="M57.8558 47.6693C57.7266 47.7919 57.5921 47.9199 57.464 48.0451C57.3077 48.1978 57.3041 48.4469 57.456 48.6014C57.6079 48.756 57.8577 48.7575 58.014 48.6047C58.1375 48.4841 58.2681 48.3598 58.3976 48.2368C58.4052 48.2296 58.4128 48.2224 58.4204 48.2152C58.5413 48.1004 58.6612 47.9865 58.7694 47.8811C58.8838 47.7697 58.9904 47.6626 59.0752 47.5691C59.1464 47.4906 59.2449 47.377 59.2946 47.2625C59.3813 47.0625 59.2896 46.8316 59.0897 46.7467C58.8898 46.6619 58.6574 46.7552 58.5707 46.9552C58.573 46.9498 58.5744 46.9468 58.5741 46.9467C58.5732 46.9461 58.5542 46.9754 58.4918 47.0441C58.424 47.1189 58.3316 47.2122 58.2203 47.3205C58.1159 47.4223 57.9995 47.5328 57.8773 47.6488C57.8702 47.6556 57.863 47.6624 57.8558 47.6693Z" fill="black"/>
<path fill-rule="evenodd" clip-rule="evenodd" d="M57.8558 47.6693C57.7266 47.7919 57.5921 47.9199 57.464 48.0451C57.3077 48.1978 57.3041 48.4469 57.456 48.6014C57.6079 48.756 57.8577 48.7575 58.014 48.6047C58.1375 48.4841 58.2681 48.3598 58.3976 48.2368C58.4052 48.2296 58.4128 48.2224 58.4204 48.2152C58.5413 48.1004 58.6612 47.9865 58.7694 47.8811C58.8838 47.7697 58.9904 47.6626 59.0752 47.5691C59.1464 47.4906 59.2449 47.377 59.2946 47.2625C59.3813 47.0625 59.2896 46.8316 59.0897 46.7467C58.8898 46.6619 58.6574 46.7552 58.5707 46.9552C58.573 46.9498 58.5744 46.9468 58.5741 46.9467C58.5732 46.9461 58.5542 46.9754 58.4918 47.0441C58.424 47.1189 58.3316 47.2122 58.2203 47.3205C58.1159 47.4223 57.9995 47.5328 57.8773 47.6488C57.8702 47.6556 57.863 47.6624 57.8558 47.6693Z" fill="black"/>
<path fill-rule="evenodd" clip-rule="evenodd" d="M57.0219 46.8854C56.9251 47.0346 56.8242 47.1903 56.729 47.3418C56.6129 47.5266 56.6682 47.769 56.8526 47.8833C57.037 47.9976 57.2806 47.9404 57.3968 47.7556C57.4886 47.6096 57.5864 47.4584 57.6835 47.3087C57.6892 47.3 57.6949 47.2912 57.7006 47.2824C57.7913 47.1426 57.8811 47.0041 57.9616 46.8764C58.0467 46.7416 58.1253 46.6127 58.1858 46.5021C58.2366 46.4092 58.3057 46.2759 58.327 46.1532C58.3643 45.9388 58.2205 45.7364 58.0058 45.701C57.7911 45.6656 57.5868 45.8107 57.5495 46.025C57.5505 46.0192 57.5512 46.016 57.5509 46.0159C57.5498 46.0156 57.5382 46.0484 57.4937 46.1298C57.4453 46.2182 57.3774 46.3303 57.2946 46.4616C57.2169 46.5848 57.1296 46.7193 57.038 46.8605C57.0327 46.8687 57.0273 46.8771 57.0219 46.8854Z" fill="black"/>
<path fill-rule="evenodd" clip-rule="evenodd" d="M50.943 61.2472C50.7451 61.0033 50.2857 60.9913 49.917 61.2204C48.721 61.9635 47.1533 63.339 46.2259 65.107C45.2851 66.9006 45.0277 69.0531 46.3997 71.2927C46.5617 71.5572 47.0059 71.6055 47.3917 71.4005C47.7776 71.1956 47.959 70.815 47.7969 70.5504C46.5828 68.5685 46.8456 66.755 47.6056 65.3061C48.3791 63.8315 49.6931 62.6881 50.6336 62.1037C51.0024 61.8746 51.1409 61.4911 50.943 61.2472Z" fill="black"/>
<path fill-rule="evenodd" clip-rule="evenodd" d="M39.5823 66.3671C39.5138 66.0648 39.7157 65.7547 40.0331 65.6743C41.0628 65.4138 42.6739 65.3559 44.2482 65.9957C45.8454 66.6447 47.3643 67.9962 48.1963 70.4793C48.2946 70.7726 48.1233 71.0984 47.8138 71.207C47.5042 71.3157 47.1736 71.1659 47.0753 70.8727C46.339 68.6752 45.0384 67.5668 43.7481 67.0424C42.4351 66.5088 41.0909 66.5641 40.2811 66.769C39.9637 66.8493 39.6508 66.6694 39.5823 66.3671Z" fill="black"/>
<path fill-rule="evenodd" clip-rule="evenodd" d="M22.8944 64.7207C22.5423 64.0274 22.6851 63.2072 23.228 62.8063L26.1749 60.6299C26.5438 60.3574 27.0344 60.3291 27.4754 60.5547C27.9165 60.7803 28.2466 61.2287 28.3506 61.7431C28.5033 62.4985 28.7042 63.607 28.7834 64.3935C28.8035 64.5929 28.8193 64.8053 28.8204 65.0022C28.8204 65.0045 28.8204 65.0068 28.8205 65.0093C28.8212 65.133 28.8235 65.5165 28.673 65.8703C28.5903 66.0646 28.3319 66.5462 27.7283 66.647C27.1335 66.7463 26.6842 66.3938 26.5249 66.2491C26.2333 65.9841 26.0504 65.6382 25.968 65.476C25.9293 65.4549 25.8355 65.4176 25.6689 65.3999C25.3072 65.3615 24.8805 65.4432 24.6156 65.5381C23.984 65.7642 23.2466 65.414 22.8944 64.7207ZM27.3253 63.6404C27.3847 64.0312 27.4298 64.3931 27.446 64.6646C27.4766 65.1746 27.4051 65.3656 27.1343 64.8301C26.9859 64.5366 26.779 64.3255 26.5395 64.1778C26.4742 64.1376 26.4065 64.102 26.3369 64.0708C26.2317 64.0236 26.1221 63.9862 26.0101 63.9575C25.3169 63.7796 24.5273 63.9293 24.07 64.0931L27.0169 61.9166C27.0789 62.2236 27.1471 62.5808 27.2107 62.9434C27.2495 63.1642 27.2865 63.387 27.3195 63.6018C27.3214 63.6147 27.3234 63.6276 27.3253 63.6404ZM26.0834 64.7296C26.0829 64.7288 26.0829 64.7158 26.0847 64.6934C26.0848 64.7193 26.0839 64.7305 26.0834 64.7296ZM28.3451 64.2669C28.3451 64.2677 28.3398 64.2594 28.3293 64.24C28.3399 64.2565 28.3451 64.2662 28.3451 64.2669Z" fill="black"/>
<path fill-rule="evenodd" clip-rule="evenodd" d="M28.9679 63.1537C26.4376 63.9153 23.7404 65.2173 22.0327 66.1857C21.7253 66.36 21.343 66.2739 21.1788 65.9934C21.0146 65.7129 21.1307 65.3442 21.4381 65.1699C23.2033 64.1689 25.9986 62.8166 28.6587 62.0159C29.9867 61.6161 31.317 61.3427 32.4849 61.3356C33.6473 61.3286 34.7435 61.5866 35.4671 62.3531C35.6918 62.591 35.6579 62.9696 35.3915 63.1986C35.1251 63.4275 34.727 63.4202 34.5023 63.1822C34.0938 62.7495 33.4019 62.5255 32.4104 62.5315C31.4244 62.5375 30.2351 62.7723 28.9679 63.1537Z" fill="#00A6A6"/>
<path fill-rule="evenodd" clip-rule="evenodd" d="M49.345 18.4636C48.9211 18.5688 48.6802 19.026 48.8068 19.485C49.116 20.6049 49.5235 22.3668 49.7398 23.9953C49.8482 24.8112 49.9048 25.566 49.8845 26.1781C49.863 26.8298 49.7575 27.1656 49.6714 27.288C49.0334 28.1952 48.9956 29.4338 49.1098 30.4438C49.1658 30.9389 49.2635 31.4252 49.3775 31.866L45.777 31.5332C45.3346 31.4923 44.9682 31.8393 44.9586 32.3084C44.9489 32.7774 45.2997 33.1908 45.742 33.2317L50.4964 33.6713C50.7697 33.6965 51.0272 33.5722 51.1794 33.3416C51.3316 33.1109 51.3574 32.8057 51.2479 32.5321C51.0494 32.0363 50.7962 31.1975 50.7004 30.3496C50.6009 29.4695 50.692 28.7699 50.9764 28.3654C51.3516 27.832 51.4622 27.0606 51.4857 26.3485C51.5106 25.5969 51.441 24.7314 51.326 23.8654C51.0955 22.1302 50.667 20.2818 50.3419 19.1042C50.2153 18.6453 49.7689 18.3585 49.345 18.4636Z" fill="black"/>
<path fill-rule="evenodd" clip-rule="evenodd" d="M7.04275 37.541C7.48103 37.2573 8.05552 37.3469 8.3259 37.741C8.98573 38.7028 10.0892 40.1508 11.2424 41.3568C11.8202 41.9611 12.391 42.484 12.9088 42.8534C13.4601 43.2468 13.8227 43.3715 13.9944 43.3777C15.267 43.4232 16.3122 44.1736 17.044 44.905C17.4027 45.2636 17.7195 45.6511 17.9857 46.0233L20.7049 42.8405C21.039 42.4495 21.6275 42.366 22.0194 42.654C22.4113 42.9419 22.4583 43.4923 22.1242 43.8833L18.5336 48.086C18.3272 48.3276 18.0115 48.4618 17.6962 48.4419C17.381 48.4221 17.1098 48.2508 16.9768 47.9878C16.7358 47.5111 16.2597 46.7729 15.6453 46.1588C15.0076 45.5214 14.3593 45.1552 13.7918 45.1349C13.0436 45.1081 12.3202 44.7128 11.7179 44.283C11.082 43.8293 10.4314 43.2258 9.81817 42.5845C8.58941 41.2995 7.43248 39.7795 6.73872 38.7682C6.46834 38.3741 6.60446 37.8246 7.04275 37.541Z" fill="black"/>
<path fill-rule="evenodd" clip-rule="evenodd" d="M39.2129 55.3933C39.3474 55.7167 39.7481 55.8548 40.108 55.7016C41.701 55.0234 44.353 54.5061 47.0438 55.2035C49.7036 55.8928 52.4791 57.789 54.3175 62.0688C56.1589 66.3557 55.619 69.5306 54.3126 71.7508C52.9885 74.0011 50.8177 75.372 49.2413 75.9362C48.8734 76.0679 48.6649 76.4444 48.7756 76.7773C48.8862 77.1101 49.2741 77.2732 49.6419 77.1415C51.4927 76.4791 53.9869 74.9028 55.5197 72.2977C57.0703 69.6625 57.5792 66.074 55.6153 61.5019C53.6484 56.9227 50.5971 54.75 47.5194 53.9524C44.4726 53.1628 41.4763 53.7403 39.6209 54.5302C39.2611 54.6834 39.0784 55.0698 39.2129 55.3933Z" fill="black"/>
<path fill-rule="evenodd" clip-rule="evenodd" d="M41.1147 54.5351C41.2646 54.8516 41.1481 55.2229 40.8544 55.3644C39.5543 55.9909 37.8072 57.4574 36.8682 59.7915C35.94 62.0989 35.7741 65.3215 37.7268 69.5497C39.6827 73.7849 42.1322 75.6119 44.3333 76.2503C46.5644 76.8975 48.6408 76.3531 49.8544 75.6591C50.1376 75.4972 50.5041 75.6145 50.6729 75.921C50.8418 76.2276 50.7491 76.6074 50.4659 76.7693C49.041 77.5841 46.6545 78.2087 44.0718 77.4595C41.4591 76.7017 38.7439 74.5672 36.6578 70.0501C34.5685 65.5261 34.6908 61.9224 35.7648 59.2525C36.828 56.6095 38.7973 54.9478 40.3115 54.2182C40.6051 54.0767 40.9647 54.2185 41.1147 54.5351Z" fill="black"/>
<path d="M33.0678 62.0166C33.9981 64.0974 33.0539 66.5502 30.959 67.4949C28.864 68.4396 26.4115 67.5186 25.4813 65.4377C24.551 63.3568 25.4952 60.9041 27.5902 59.9593C29.6851 59.0146 32.1376 59.9357 33.0678 62.0166Z" fill="black"/>
<path d="M28.8607 62.7829C29.0933 63.3032 28.8572 63.9164 28.3335 64.1525C27.8097 64.3887 27.1966 64.1585 26.9641 63.6382C26.7315 63.118 26.9675 62.5048 27.4913 62.2686C28.015 62.0325 28.6281 62.2627 28.8607 62.7829Z" fill="#FCFCFC"/>
<path d="M34.9762 61.1622C35.9065 63.2431 34.5377 65.8873 31.919 67.0683C29.3003 68.2492 26.4233 67.5196 25.493 65.4387C24.5627 63.3578 25.9315 60.7136 28.5502 59.5327C31.1689 58.3518 34.0459 59.0813 34.9762 61.1622Z" fill="black"/>
<path d="M28.8607 62.7829C29.0933 63.3032 28.8572 63.9164 28.3335 64.1525C27.8097 64.3887 27.1966 64.1585 26.9641 63.6382C26.7315 63.118 26.9675 62.5048 27.4913 62.2686C28.015 62.0325 28.6281 62.2627 28.8607 62.7829Z" fill="#FCFCFC"/>
<path fill-rule="evenodd" clip-rule="evenodd" d="M41.4475 69.5942C41.6857 69.3675 42.0619 69.3783 42.2876 69.6184C42.9257 70.2968 44.8851 71.4392 47.3671 70.0854C47.6554 69.9281 48.0162 70.0359 48.1731 70.3262C48.3299 70.6164 48.2233 70.9792 47.935 71.1364C44.8682 72.8093 42.338 71.4099 41.4249 70.4391C41.1992 70.1991 41.2093 69.8208 41.4475 69.5942Z" fill="black"/>
<path fill-rule="evenodd" clip-rule="evenodd" d="M52.1033 64.7941C51.7763 64.8223 51.5345 65.1118 51.5631 65.4407C51.6439 66.3704 51.192 68.6002 48.5355 69.5636C48.2269 69.6755 48.0674 70.018 48.1791 70.3286C48.2909 70.6391 48.6317 70.8002 48.9402 70.6883C52.2227 69.4979 52.8626 66.669 52.747 65.3386C52.7184 65.0097 52.4302 64.7659 52.1033 64.7941Z" fill="black"/>
<path fill-rule="evenodd" clip-rule="evenodd" d="M6.99726 33.2456C7.26148 33.3045 7.48977 33.4688 7.62934 33.7005C8.43436 35.0369 9.74113 36.995 11.0381 38.528C11.691 39.2996 12.3059 39.921 12.8254 40.3051C13.0854 40.4975 13.2825 40.6008 13.4159 40.6462C13.46 40.6612 13.4887 40.6671 13.5046 40.6694C14.2348 40.4125 15.0274 40.5514 15.6898 40.7701C16.3919 41.0018 17.1241 41.3828 17.8135 41.8074C18.5366 42.2526 19.2515 42.7702 19.8876 43.2728C20.0717 43.1353 20.2785 43.021 20.4945 42.9236C20.6693 42.8448 20.9694 42.6417 21.381 42.2901C21.7753 41.9534 22.2149 41.5302 22.6615 41.0714C23.5542 40.1544 24.4339 39.1373 24.9675 38.4847C25.0654 38.3648 25.1899 38.2693 25.3309 38.2058L30.9701 35.6627C31.9213 35.3489 32.5858 35.4361 32.8097 35.9369C33.0336 36.4377 32.2826 37.2502 31.7809 37.4764L26.3543 39.9235C25.7872 40.6073 24.9452 41.5717 24.0837 42.4566C23.6132 42.9399 23.1267 43.4101 22.6689 43.8011C22.2849 44.1291 21.8725 44.4441 21.4779 44.6526C21.7518 44.9964 21.7688 45.4892 21.5026 45.8562C21.2068 46.2641 20.6543 46.3885 20.215 46.1461C20.0338 46.0461 19.8279 45.9024 19.6466 45.7134C19.5971 45.6619 19.5447 45.6019 19.4933 45.5336C18.7442 44.8852 17.7525 44.1114 16.7652 43.5034C16.1426 43.12 15.5571 42.8247 15.0588 42.6602C14.5314 42.4861 14.2559 42.5098 14.153 42.548C13.6586 42.7313 13.1687 42.6668 12.7684 42.5308C12.3701 42.3954 11.9882 42.1662 11.6381 41.9072C10.9372 41.3888 10.2069 40.6327 9.5172 39.8176C8.43494 38.5384 7.36522 37.0083 6.54951 35.7373C5.70133 36.7279 5.06765 38.4194 5.6065 40.939C6.316 44.2564 9.07524 49.02 16.1537 55.2437C16.3494 55.4158 16.4693 55.6584 16.4874 55.9189L16.6853 58.7633L16.7257 58.7451C17.0405 58.6031 17.4056 58.634 17.6907 58.8267C17.9757 59.0195 18.14 59.3465 18.1249 59.6911L18.0511 61.3713C18.3136 61.2944 18.5981 61.3283 18.8361 61.4693C19.1141 61.6339 19.2941 61.9239 19.3185 62.2466L19.4486 63.9651L19.5129 63.8801C19.7539 63.5616 20.1609 63.4168 20.5473 63.512C20.9337 63.6073 21.225 63.9243 21.2875 64.3176C21.3561 64.749 21.5576 65.34 21.8806 65.7353C22.0334 65.9223 22.1876 66.0345 22.3375 66.0906C22.4764 66.1427 22.6742 66.171 22.9723 66.0888C23.4897 65.9461 24.0252 66.2387 24.1832 66.7505C25.1824 69.9869 26.9257 74.8693 28.9006 78.9912C29.8899 81.0559 30.9192 82.8913 31.9218 84.2276C32.423 84.8957 32.897 85.4112 33.3329 85.7656C33.7749 86.125 34.1177 86.2701 34.3622 86.3019C34.7038 86.3464 34.9973 86.5648 35.1377 86.8791L43.6638 105.951C43.8877 106.452 43.6625 107.041 43.1608 107.267C42.6592 107.493 42.071 107.271 41.8471 106.77L33.5196 88.1423C32.9979 87.9699 32.5138 87.6698 32.0739 87.3121C31.4698 86.8208 30.8864 86.17 30.3288 85.4267C29.2135 83.9402 28.1191 81.9723 27.106 79.8579C25.2311 75.945 23.5726 71.3978 22.5284 68.1293C22.2156 68.12 21.9158 68.0609 21.6324 67.9547C21.0792 67.7474 20.6544 67.3861 20.338 66.9989C20.214 66.847 20.1028 66.6868 20.0036 66.5223L19.447 67.2582C19.1971 67.5886 18.7696 67.7309 18.3733 67.6157C17.9769 67.5004 17.6941 67.1517 17.6629 66.7396L17.4415 63.815L17.3927 63.837C17.0779 63.979 16.7128 63.9481 16.4278 63.7553C16.1428 63.5626 15.9785 63.2356 15.9936 62.891L16.0673 61.2108C15.8039 61.288 15.5183 61.2535 15.2797 61.1113C15.0013 60.9453 14.822 60.6534 14.7995 60.3294L14.531 56.471C7.53579 50.2543 4.48821 45.2311 3.66108 41.3636C2.8088 37.3787 4.33344 34.6467 6.22949 33.3885C6.45575 33.2383 6.73304 33.1867 6.99726 33.2456ZM13.5202 40.6708C13.5202 40.6708 13.5194 40.6709 13.5176 40.6708C13.5193 40.6707 13.5202 40.6708 13.5202 40.6708Z" fill="black"/>
<path fill-rule="evenodd" clip-rule="evenodd" d="M45.2424 13.7407C45.1129 13.9817 45.0863 14.2676 45.1688 14.5324C45.6446 16.0597 46.258 18.3941 46.558 20.4296C46.709 21.4543 46.7719 22.347 46.7192 23.0047C46.6928 23.3339 46.6409 23.5543 46.5872 23.6867C46.5695 23.7304 46.5551 23.7563 46.5463 23.77C45.8726 24.1479 45.4557 24.8448 45.1844 25.4973C44.8968 26.1891 44.7017 27.0061 44.5675 27.8204C44.4268 28.6745 44.3458 29.5719 44.3054 30.3993C44.0808 30.4447 43.8589 30.5233 43.6434 30.6204C43.4691 30.6991 43.1189 30.7876 42.5835 30.8589C42.0708 30.9271 41.4632 30.9706 40.8242 30.995C39.5469 31.0437 38.2029 31.0137 37.3609 30.9712C37.2062 30.9634 37.0525 30.9923 36.9119 31.0557L30.3148 33.8485C29.8146 34.0741 30.1936 35.172 30.423 35.6854C30.6525 36.1987 31.6192 35.6762 32.1195 35.4506L37.5309 33.0104C38.4185 33.0488 39.698 33.0711 40.9306 33.0242C41.6038 32.9985 42.2777 32.9517 42.873 32.8724C43.3724 32.8059 43.8807 32.7089 44.2972 32.5524C44.3757 32.996 44.7353 33.3468 45.1866 33.3965C45.6881 33.4517 46.1452 33.1177 46.2518 32.6181C46.2958 32.412 46.3231 32.1572 46.3002 31.89C46.294 31.8171 46.2834 31.7362 46.2658 31.6504C46.2708 30.6373 46.3411 29.3539 46.5333 28.1878C46.6545 27.4524 46.8175 26.8055 47.0216 26.3146C47.2376 25.795 47.4367 25.6022 47.5331 25.5502C47.9963 25.3007 48.2701 24.8847 48.4311 24.4877C48.5914 24.0925 48.6701 23.6455 48.7057 23.2022C48.7768 22.3148 48.6884 21.2421 48.5289 20.1597C48.2785 18.4612 47.8311 16.6001 47.4116 15.1095C48.7149 15.1451 50.4045 15.8241 51.9455 17.9608C53.9746 20.7741 55.7431 26.1346 55.7685 35.7744C55.7692 36.0409 55.8728 36.2982 56.0569 36.4906L58.0667 38.5913L58.0264 38.6095C57.7125 38.751 57.4955 39.0493 57.453 39.3978C57.4105 39.7462 57.5484 40.0952 57.8176 40.32L59.1302 41.4162C58.8997 41.5627 58.7381 41.8018 58.6875 42.0791C58.6284 42.403 58.7282 42.7384 58.955 42.9783L60.1623 44.2554L60.056 44.2459C59.6578 44.2104 59.2811 44.4199 59.0986 44.7785C58.916 45.1371 58.9629 45.5755 59.2176 45.8927C59.4971 46.2406 59.8091 46.7987 59.894 47.3149C59.9342 47.5591 59.9171 47.7531 59.8607 47.9053C59.8085 48.0464 59.6996 48.216 59.4417 48.3859C58.9939 48.6807 58.8618 49.2877 59.1428 49.7585C60.9204 52.7361 63.4467 57.4072 65.2485 61.7324C66.151 63.8991 66.8546 65.9388 67.2004 67.616C67.3733 68.4545 67.4492 69.1677 67.4291 69.7416C67.4087 70.3235 67.2923 70.6831 67.1554 70.8905C66.9641 71.1803 66.9354 71.5527 67.0794 71.8748L75.8185 91.4233C76.048 91.9366 76.6396 92.1699 77.1399 91.9443C77.6401 91.7187 77.8596 91.1197 77.6301 90.6064L69.0944 71.513C69.308 70.9989 69.4006 70.4257 69.4209 69.8466C69.4488 69.0512 69.343 68.1622 69.1507 67.2293C68.766 65.3635 68.0056 63.1836 67.0813 60.9648C65.3709 56.8587 63.041 52.4819 61.2689 49.4482C61.4677 49.2045 61.6205 48.9364 61.727 48.6485C61.9351 48.0865 61.9427 47.5163 61.8596 47.0107C61.827 46.8124 61.7795 46.6182 61.7211 46.4302L62.641 46.5123C63.0539 46.5492 63.4422 46.3224 63.6163 45.9426C63.7904 45.5627 63.7141 45.109 63.4246 44.8027L61.3699 42.6292L61.4185 42.6073C61.7325 42.4657 61.9494 42.1675 61.992 41.819C62.0345 41.4705 61.8965 41.1216 61.6273 40.8968L60.3147 39.8006C60.5461 39.6535 60.7081 39.4132 60.758 39.1346C60.8163 38.8095 60.7147 38.4733 60.4857 38.234L57.7594 35.3845C57.6846 25.8127 55.9105 20.0553 53.545 16.7756C51.1076 13.3962 48.0491 12.6799 45.855 13.256C45.5932 13.3248 45.3719 13.4998 45.2424 13.7407ZM46.5371 23.7828C46.5371 23.7828 46.5377 23.7822 46.5388 23.7808C46.5376 23.782 46.5371 23.7828 46.5371 23.7828Z" fill="black"/>
<path d="M67.0294 74.8679L59.9074 93.9069C64.8081 99.6405 83.6417 104.481 92.4459 106.185L99.5679 87.1458C102.555 86.6269 107.66 72.7248 109.839 65.8386L113.201 64.0622L113.416 62.0035L116.028 58.6273L116.249 54.4312C129.043 40.7586 126.326 34.0659 123.368 32.4286L118.342 39.5024C116.34 38.7468 112.428 41.8794 110.722 43.5402L105.575 38.6353L94.3119 34.3852L86.8052 34.5154C87.2053 32.4279 85.1454 28.3477 84.0654 26.5686L84.1553 17.6322C76.8358 15.9895 75.7101 31.3712 76.0622 39.2674L73.6164 42.624L72.5913 45.3645L72.3933 49.0754L73.1686 53.1537C66.8142 65.8986 66.4281 72.9402 67.0294 74.8679Z" fill="#FFEBC8"/>
<path d="M67.4049 75.0224L60.2814 94.0653C59.655 98.4116 81.5013 111.4 94.2763 107.413L101.57 87.9142C104.68 87.4412 109.782 73.5347 111.944 66.6406L115.425 64.9083L115.615 62.84L118.286 59.4853L118.448 55.2661C131.581 41.7173 128.635 34.9373 125.521 33.2408L120.39 40.2768C118.287 39.4835 114.255 42.5716 112.502 44.2149L107.049 39.194L95.2226 34.7315L87.389 34.7388C87.7725 32.6446 85.5556 28.5046 84.3993 26.6964L84.3473 17.7046C76.68 15.9309 75.7561 31.392 76.2525 39.3442L73.7543 42.6819L72.729 45.4229L72.5828 49.1542L73.4587 53.2711C67.0338 65.9925 66.7458 73.0726 67.4049 75.0224Z" fill="#FFEBC8"/>
<path fill-rule="evenodd" clip-rule="evenodd" d="M83.2862 64.6128C83.4469 64.3401 83.7816 64.2471 84.0338 64.4052C84.8517 64.9177 85.8961 65.9807 86.4479 67.5393C87.0078 69.1204 87.0461 71.1723 85.894 73.5971C85.758 73.8836 85.4318 74.0092 85.1655 73.8777C84.8992 73.7463 84.7937 73.4075 84.9297 73.1211C85.9493 70.9751 85.8836 69.2546 85.4313 67.9773C84.971 66.6774 84.095 65.7956 83.4518 65.3926C83.1996 65.2346 83.1255 64.8854 83.2862 64.6128Z" fill="black"/>
<path fill-rule="evenodd" clip-rule="evenodd" d="M76.9768 52.8324C77.0607 52.9899 77.0505 53.163 76.9496 53.2912C76.6555 53.6652 76.2192 54.1886 75.8793 54.5201C75.7938 54.6036 75.7066 54.6825 75.6238 54.7459C75.5621 54.7931 75.4348 54.8875 75.2709 54.9239C75.1834 54.9433 74.9655 54.9717 74.7373 54.8334C74.5124 54.697 74.4547 54.5055 74.4389 54.4258C74.4084 54.2724 74.4484 54.1181 74.4784 54.0178C74.5296 53.8461 74.4506 53.6368 74.1635 53.3686C73.8807 53.1043 73.4905 52.8803 73.2211 52.7609C72.9572 52.6439 72.8098 52.386 72.877 52.1589C72.9442 51.9317 73.2051 51.8063 73.486 51.866L76.5355 52.5144C76.7264 52.555 76.8929 52.675 76.9768 52.8324ZM75.3407 53.227C75.3707 53.2717 75.3991 53.3176 75.4254 53.3645C75.4545 53.3312 75.4836 53.2975 75.5127 53.2635L75.3407 53.227ZM74.7802 54.0107C74.7802 54.0107 74.7812 54.0101 74.783 54.0092C74.7811 54.0103 74.7802 54.0108 74.7802 54.0107Z" fill="black"/>
<path fill-rule="evenodd" clip-rule="evenodd" d="M78.8838 54.9462C76.6338 53.7176 73.8935 52.7693 72.058 52.275C71.7276 52.1861 71.528 51.8522 71.6122 51.5292C71.6963 51.2063 72.0324 51.0166 72.3628 51.1056C74.2602 51.6165 77.1023 52.5971 79.4676 53.8886C80.6485 54.5334 81.7428 55.273 82.541 56.094C83.3354 56.9111 83.8999 57.8768 83.8566 58.9537C83.8431 59.2881 83.556 59.5432 83.2153 59.5236C82.8747 59.5039 82.6094 59.2169 82.6228 58.8825C82.6473 58.2744 82.3336 57.6198 81.656 56.9229C80.9821 56.2297 80.0106 55.5614 78.8838 54.9462Z" fill="black"/>
<path fill-rule="evenodd" clip-rule="evenodd" d="M80.8019 20.9167C81.265 21.0095 81.5686 21.4563 81.4802 21.9146C81.2642 23.0331 81.0087 24.7904 80.9436 26.4105C80.911 27.2222 80.9274 27.9719 81.0113 28.5781C81.1006 29.2234 81.2474 29.5535 81.3518 29.6725C82.125 30.5544 82.2913 31.7812 82.2723 32.7854C82.2629 33.2777 82.2081 33.7623 82.1314 34.2024L85.9399 33.7753C86.4078 33.7228 86.8341 34.0569 86.8922 34.5216C86.9502 34.9863 86.6179 35.4055 86.1501 35.458L81.121 36.022C80.8319 36.0544 80.5444 35.9381 80.3586 35.7136C80.1727 35.4891 80.1141 35.1873 80.2031 34.9131C80.3644 34.4162 80.5493 33.5781 80.5653 32.735C80.5819 31.8599 80.4134 31.1689 80.0687 30.7756C79.6141 30.257 79.4175 29.4954 79.3199 28.7902C79.2169 28.0458 79.203 27.1861 79.2376 26.3246C79.307 24.5984 79.5761 22.7546 79.8032 21.5786C79.8917 21.1203 80.3388 20.8239 80.8019 20.9167Z" fill="black"/>
<path fill-rule="evenodd" clip-rule="evenodd" d="M91.9833 57.4285C91.8781 57.7304 91.5562 57.8924 91.2643 57.7903C89.9717 57.3383 87.8264 57.1324 85.6625 58.0151C83.5234 58.8876 81.3037 60.8493 79.865 64.8497C78.4239 68.8567 78.8927 71.6406 79.97 73.4976C81.062 75.3798 82.828 76.3948 84.1059 76.7465C84.4041 76.8286 84.5763 77.1448 84.4905 77.4528C84.4047 77.7608 84.0934 77.9439 83.7952 77.8618C82.2949 77.4488 80.2658 76.2816 79.0018 74.1027C77.7231 71.8985 77.2749 68.7423 78.8118 64.4686C80.3511 60.1884 82.7905 57.9531 85.2656 56.9435C87.7159 55.944 90.1397 56.1705 91.645 56.6969C91.937 56.799 92.0884 57.1266 91.9833 57.4285Z" fill="black"/>
<path d="M80.3948 56.2241C79.9848 57.3202 78.4709 57.7629 77.0135 57.213C75.5561 56.663 74.707 55.3287 75.117 54.2326C75.527 53.1366 77.0409 52.6939 78.4983 53.2438C79.9557 53.7937 80.8048 55.1281 80.3948 56.2241Z" fill="black"/>
<path fill-rule="evenodd" clip-rule="evenodd" d="M106.289 63.8952C106.123 63.9582 106.017 64.0953 106.009 64.2585C105.985 64.7345 105.971 65.417 106.009 65.8912C106.019 66.0106 106.032 66.1276 106.053 66.2301C106.069 66.3064 106.103 66.4616 106.202 66.5974C106.255 66.6699 106.401 66.8354 106.663 66.8822C106.922 66.9283 107.091 66.8224 107.155 66.7728C107.278 66.6775 107.349 66.5349 107.393 66.4396C107.467 66.2765 107.663 66.1713 108.055 66.1592C108.441 66.1474 108.882 66.2369 109.163 66.3251C109.438 66.4116 109.718 66.315 109.817 66.0996C109.915 65.8842 109.801 65.6172 109.55 65.4764L106.83 63.9477C106.66 63.852 106.456 63.8322 106.289 63.8952ZM107.262 65.2742C107.21 65.288 107.159 65.3037 107.108 65.3217C107.108 65.2774 107.108 65.2327 107.109 65.1879L107.262 65.2742ZM107.17 66.2347C107.17 66.2346 107.17 66.2336 107.169 66.2317C107.17 66.2337 107.17 66.2347 107.17 66.2347Z" fill="black"/>
<path fill-rule="evenodd" clip-rule="evenodd" d="M103.475 64.2253C105.974 64.7886 108.658 65.8871 110.364 66.729C110.671 66.8806 111.04 66.7613 111.188 66.4625C111.337 66.1638 111.208 65.7988 110.901 65.6473C109.138 64.777 106.356 63.6355 103.729 63.0433C102.418 62.7476 101.109 62.5805 99.9704 62.6706C98.8368 62.7602 97.7788 63.1137 97.1054 63.9528C96.8963 64.2134 96.9451 64.5953 97.2144 64.8058C97.4837 65.0163 97.8715 64.9757 98.0806 64.7151C98.4609 64.2413 99.1261 63.9561 100.093 63.8797C101.055 63.8037 102.224 63.9432 103.475 64.2253Z" fill="#00A6A6"/>
<path fill-rule="evenodd" clip-rule="evenodd" d="M85.4305 16.785C85.5552 16.9795 85.5953 17.2161 85.5415 17.4399C85.1767 18.9564 84.7322 21.2697 84.579 23.2779C84.502 24.2877 84.5026 25.1734 84.6047 25.8275C84.6558 26.1548 84.7264 26.3829 84.7984 26.5273C84.8442 26.6191 84.8777 26.6527 84.8878 26.6613C85.5552 26.9697 86.0086 27.5999 86.3242 28.2194C86.6528 28.8643 86.9022 29.6379 87.0927 30.4184C87.3019 31.2758 87.45 32.1833 87.5491 33.0133C87.7975 33.0364 88.0509 33.1046 88.3031 33.1998C88.5024 33.275 88.8743 33.3442 89.4147 33.3862C89.9357 33.4266 90.548 33.4376 91.1879 33.4283C92.4669 33.4096 93.8059 33.3107 94.6437 33.2255C94.7745 33.2122 94.9068 33.2294 95.0301 33.276L100.806 35.4552C101.244 35.6207 101.467 36.1091 101.304 36.546C101.14 36.9829 100.652 37.203 100.214 37.0375L94.6243 34.9284C93.7463 35.0123 92.4623 35.1019 91.2217 35.12C90.5528 35.1298 89.884 35.119 89.2922 35.073C88.7198 35.0285 88.1472 34.9465 87.7112 34.782C87.7071 34.7804 87.7029 34.7788 87.6988 34.7773C87.6997 34.7973 87.7006 34.8172 87.7015 34.8369C87.7201 35.2641 87.4166 35.6363 86.9941 35.7043C86.5717 35.7724 86.1631 35.5148 86.0419 35.1041C85.9867 34.9167 85.9441 34.6847 85.9475 34.4406C85.9485 34.3696 85.9534 34.291 85.9653 34.2077C85.8877 33.2127 85.7245 31.9514 85.446 30.8106C85.2714 30.095 85.0596 29.4615 84.8142 28.9799C84.557 28.475 84.3259 28.2616 84.1811 28.1953C83.7427 27.9946 83.4611 27.6343 83.2817 27.2746C83.1032 26.9163 82.9959 26.5011 82.93 26.0793C82.7982 25.235 82.8082 24.1986 82.8889 23.1404C83.021 21.4102 83.3528 19.4954 83.675 17.997C82.3046 18.0411 80.5367 18.7808 79.0653 21.0851C77.2245 23.9678 75.8509 29.3168 76.5179 38.7194C76.5336 38.9411 76.4614 39.1595 76.3169 39.3276L74.3335 41.6343L74.5695 41.7234C74.8448 41.8272 75.0473 42.0656 75.1047 42.3535C75.1622 42.6413 75.0664 42.9375 74.8515 43.1363L73.4604 44.4235L73.5472 44.4563C73.8056 44.5538 74.001 44.7705 74.071 45.0371C74.141 45.3038 74.0768 45.587 73.899 45.7964L72.5426 47.3936L73.0267 47.3256C73.3626 47.2785 73.6953 47.4361 73.8723 47.7262C74.0493 48.0163 74.0363 48.3829 73.8394 48.6578C73.5772 49.024 73.2929 49.6077 73.2423 50.1484C73.2181 50.4071 73.2503 50.6219 73.3305 50.7959C73.4065 50.9608 73.5494 51.1424 73.8426 51.3083C74.2408 51.5337 74.3902 52.0326 74.1803 52.4364C72.6237 55.4321 70.4425 60.1186 68.9576 64.4329C68.2139 66.5935 67.6569 68.6266 67.4314 70.2914C67.3187 71.1238 67.2931 71.835 67.356 72.4086C67.4196 72.9889 67.5666 73.3627 67.7403 73.5868C67.9204 73.8193 67.9677 74.1276 67.8651 74.4018L60.5744 93.8918C60.411 94.3287 59.9229 94.5488 59.4843 94.3833C59.0458 94.2178 58.8227 93.7294 58.9861 93.2925L66.1297 74.1958C65.8723 73.7137 65.7341 73.1582 65.6711 72.5838C65.588 71.8263 65.6283 70.9677 65.7518 70.0559C65.9987 68.2326 66.5954 66.0804 67.3543 63.8755C68.7727 59.7546 70.7999 55.3301 72.3491 52.2847C72.1103 52.0502 71.9245 51.7853 71.7912 51.4961C71.5572 50.9881 71.51 50.4601 71.5547 49.9822C71.5791 49.7211 71.6317 49.4654 71.7029 49.2212L70.5761 49.3793C70.2277 49.4281 69.8841 49.2567 69.713 48.9486C69.5419 48.6405 69.579 48.2599 69.806 47.9925L71.827 45.6128L71.5836 45.5209C71.3084 45.4171 71.1059 45.1786 71.0485 44.8908C70.991 44.603 71.0868 44.3068 71.3016 44.108L72.6927 42.8207L72.606 42.788C72.3467 42.6902 72.1509 42.4724 72.0815 42.2047C72.0121 41.9369 72.0778 41.6529 72.2576 41.4439L74.8034 38.4832C74.1826 29.1356 75.5364 23.4561 77.6346 20.1702C79.7874 16.7988 82.7207 15.9741 84.8806 16.409C85.1072 16.4546 85.3058 16.5904 85.4305 16.785ZM84.891 26.6637C84.891 26.6637 84.8904 26.6634 84.8894 26.6626C84.8905 26.6632 84.891 26.6636 84.891 26.6637Z" fill="black"/>
<path fill-rule="evenodd" clip-rule="evenodd" d="M93.817 68.5995C93.8718 68.2906 93.6247 67.9717 93.265 67.8871C92.1301 67.6204 90.3816 67.4948 88.7707 67.9868C87.1259 68.4891 85.6521 69.6307 85.1459 71.8282C85.0757 72.1332 85.3081 72.4597 85.6651 72.5575C86.022 72.6553 86.3684 72.4873 86.4386 72.1823C86.8575 70.3639 88.0343 69.4825 89.3269 69.0877C90.6534 68.6826 92.1292 68.7855 93.0666 69.0058C93.4263 69.0903 93.7623 68.9084 93.817 68.5995Z" fill="black"/>
<path fill-rule="evenodd" clip-rule="evenodd" d="M83.2798 64.6212C83.4305 64.3485 83.7613 64.2477 84.0189 64.396C84.8315 64.8642 85.9152 65.8072 86.5549 67.1485C87.2081 68.5179 87.3855 70.2825 86.3811 72.2921C86.2417 72.571 85.9148 72.6864 85.651 72.55C85.3873 72.4135 85.2864 72.0768 85.4258 71.7979C86.2569 70.135 86.0975 68.7495 85.5842 67.6732C85.0574 66.5687 84.1446 65.7704 83.4734 65.3837C83.2158 65.2354 83.1292 64.894 83.2798 64.6212Z" fill="black"/>
<path fill-rule="evenodd" clip-rule="evenodd" d="M76.9768 52.8324C77.0607 52.9899 77.0505 53.163 76.9496 53.2912C76.6555 53.6652 76.2192 54.1886 75.8793 54.5201C75.7938 54.6036 75.7066 54.6825 75.6238 54.7459C75.5621 54.7931 75.4348 54.8875 75.2709 54.9239C75.1834 54.9433 74.9655 54.9717 74.7373 54.8334C74.5124 54.697 74.4547 54.5055 74.4389 54.4258C74.4084 54.2724 74.4484 54.1181 74.4784 54.0178C74.5296 53.8461 74.4506 53.6368 74.1635 53.3686C73.8807 53.1043 73.4905 52.8803 73.2211 52.7609C72.9572 52.6439 72.8098 52.386 72.877 52.1589C72.9442 51.9317 73.2051 51.8063 73.486 51.866L76.5355 52.5144C76.7264 52.555 76.8929 52.675 76.9768 52.8324ZM75.3407 53.227C75.3707 53.2717 75.3991 53.3176 75.4254 53.3645C75.4545 53.3312 75.4836 53.2975 75.5127 53.2635L75.3407 53.227ZM74.7802 54.0107C74.7802 54.0107 74.7812 54.0101 74.783 54.0092C74.7811 54.0103 74.7802 54.0108 74.7802 54.0107Z" fill="black"/>
<path fill-rule="evenodd" clip-rule="evenodd" d="M78.8838 54.9462C76.6338 53.7176 73.8935 52.7693 72.058 52.275C71.7276 52.1861 71.528 51.8522 71.6122 51.5292C71.6963 51.2063 72.0324 51.0166 72.3628 51.1056C74.2602 51.6165 77.1023 52.5971 79.4676 53.8886C80.6485 54.5334 81.7428 55.273 82.541 56.094C83.3354 56.9111 83.8999 57.8768 83.8566 58.9537C83.8431 59.2881 83.556 59.5432 83.2153 59.5236C82.8747 59.5039 82.6094 59.2169 82.6228 58.8825C82.6473 58.2744 82.3336 57.6198 81.656 56.9229C80.9821 56.2297 80.0106 55.5614 78.8838 54.9462Z" fill="#00A6A6"/>
<path fill-rule="evenodd" clip-rule="evenodd" d="M123.564 31.1749C123.343 31.2388 123.158 31.3903 123.052 31.5944C122.332 32.977 121.15 35.0119 119.949 36.6246C119.344 37.4357 118.763 38.1018 118.258 38.5265C118.005 38.7391 117.802 38.8641 117.653 38.9251C117.558 38.964 117.511 38.967 117.498 38.9668C116.793 38.7576 116.039 38.9321 115.395 39.1896C114.725 39.4577 114.03 39.8749 113.375 40.3364C112.656 40.8433 111.949 41.4284 111.331 41.9875C111.128 41.8406 110.893 41.7244 110.641 41.6292C110.442 41.554 110.116 41.3601 109.682 41.0344C109.263 40.7203 108.795 40.3236 108.32 39.8934C107.369 39.0335 106.427 38.0736 105.852 37.4554C105.762 37.3589 105.651 37.2844 105.528 37.2379L99.7526 35.0586C99.314 34.8931 98.826 35.1131 98.6625 35.55C98.4991 35.9869 98.7221 36.4753 99.1607 36.6408L104.75 38.7498C105.356 39.3937 106.264 40.3103 107.185 41.1443C107.682 41.594 108.193 42.0282 108.668 42.3849C109.128 42.73 109.613 43.0469 110.049 43.2114C110.053 43.213 110.057 43.2146 110.061 43.2162C110.048 43.2306 110.034 43.245 110.02 43.2592C109.726 43.5684 109.711 44.0493 109.984 44.3798C110.257 44.7104 110.734 44.7868 111.094 44.5578C111.259 44.4533 111.443 44.3068 111.6 44.1209C111.646 44.0669 111.694 44.0044 111.74 43.9338C112.45 43.2363 113.4 42.395 114.358 41.7205C114.958 41.2975 115.533 40.9607 116.033 40.7605C116.558 40.5506 116.872 40.5428 117.024 40.5887C117.486 40.7276 117.934 40.6427 118.305 40.4905C118.674 40.339 119.027 40.0975 119.353 39.8236C120.006 39.2753 120.678 38.4887 121.311 37.6388C122.346 36.2494 123.351 34.5888 124.091 33.248C125.094 34.1875 125.939 35.9134 125.536 38.6207C125.031 42.0076 122.558 46.9418 115.892 53.5772C115.735 53.7336 115.646 53.9458 115.644 54.1679L115.625 57.2156L115.389 57.1265C115.114 57.0227 114.805 57.0682 114.573 57.2468C114.341 57.4255 114.219 57.7118 114.25 58.0034L114.453 59.8922L114.367 59.8595C114.108 59.762 113.819 59.7958 113.592 59.9502C113.364 60.1046 113.227 60.3602 113.223 60.6355L113.197 62.7345L112.877 62.3632C112.655 62.1056 112.301 62.0042 111.978 62.1055C111.655 62.2068 111.424 62.4912 111.392 62.8284C111.349 63.2774 111.181 63.9047 110.864 64.3451C110.713 64.5558 110.548 64.6962 110.373 64.7741C110.208 64.848 109.981 64.8901 109.652 64.8211C109.205 64.7274 108.765 65.004 108.658 65.4467C107.866 68.7308 106.435 73.7004 104.724 77.9295C103.867 80.0473 102.953 81.9458 102.032 83.3479C101.571 84.049 101.124 84.6012 100.7 84.9913C100.272 85.3859 99.9165 85.57 99.6388 85.6238C99.3508 85.6797 99.1131 85.8805 99.0105 86.1547L91.7199 105.645C91.5564 106.082 91.7795 106.57 92.2181 106.735C92.6566 106.901 93.1447 106.681 93.3081 106.244L100.452 87.1473C100.962 86.9547 101.43 86.628 101.854 86.2374C102.413 85.7222 102.945 85.0494 103.45 84.2815C104.46 82.7459 105.422 80.7316 106.296 78.5702C107.93 74.5307 109.305 69.8602 110.136 66.5436C110.469 66.5251 110.783 66.4485 111.073 66.319C111.582 66.0915 111.964 65.7253 112.243 65.336C112.396 65.1234 112.524 64.8962 112.631 64.6653L113.375 65.5294C113.605 65.7967 113.976 65.8948 114.307 65.7761C114.638 65.6573 114.859 65.3464 114.864 64.995L114.903 61.8674L115.146 61.9593C115.422 62.0631 115.73 62.0176 115.962 61.839C116.194 61.6603 116.316 61.3741 116.285 61.0824L116.082 59.1936L116.169 59.2264C116.428 59.3242 116.718 59.2898 116.946 59.1342C117.174 58.9786 117.31 58.7214 117.312 58.4452L117.337 54.5333C123.933 47.9086 126.637 42.7389 127.212 38.8783C127.802 34.9172 126.136 32.3566 124.225 31.2555C124.024 31.14 123.786 31.1109 123.564 31.1749ZM117.494 38.9665C117.494 38.9666 117.495 38.9667 117.496 38.9667C117.495 38.9666 117.494 38.9665 117.494 38.9665Z" fill="black"/>
<path fill-rule="evenodd" clip-rule="evenodd" d="M85.4299 16.7864C85.5542 16.9822 85.5936 17.2206 85.539 17.4464C85.1692 18.9765 84.7171 21.3101 84.5575 23.3353C84.4773 24.3537 84.4752 25.2466 84.5754 25.9057C84.6256 26.2357 84.6955 26.4653 84.7672 26.6107C84.8127 26.7032 84.8462 26.7369 84.8563 26.7455C85.5235 27.0544 85.9755 27.6884 86.2896 28.312C86.6165 28.9612 86.8639 29.7403 87.0522 30.5267C87.2591 31.3904 87.4045 32.305 87.5012 33.1415C87.7498 33.164 88.0033 33.2319 88.2555 33.3271C88.4548 33.4023 88.8269 33.4709 89.3678 33.5116C89.8892 33.5508 90.5023 33.56 91.1429 33.5486C92.4235 33.5258 93.7643 33.422 94.6033 33.3334C94.7343 33.3196 94.8667 33.3366 94.99 33.3831L100.765 35.5624C101.204 35.7279 101.426 36.2195 101.261 36.6606C101.096 37.1016 100.607 37.3249 100.168 37.1594L94.5787 35.0504C93.6994 35.1377 92.4136 35.232 91.1716 35.2541C90.5018 35.266 89.8323 35.2572 89.2399 35.2126C88.667 35.1696 88.094 35.0887 87.6581 34.9242C87.6539 34.9226 87.6497 34.921 87.6456 34.9195C87.6465 34.9397 87.6473 34.9597 87.6481 34.9795C87.6655 35.4102 87.3604 35.7864 86.9373 35.8563C86.5141 35.9262 86.1059 35.6678 85.9858 35.2541C85.9311 35.0654 85.8892 34.8315 85.8933 34.5854C85.8945 34.5139 85.8997 34.4346 85.9119 34.3506C85.8372 33.3477 85.6777 32.0765 85.4024 30.9271C85.2298 30.2063 85.0197 29.5682 84.7755 29.0834C84.5196 28.5752 84.2889 28.3607 84.1441 28.2943C83.7058 28.0933 83.4249 27.731 83.2465 27.3688C83.0688 27.0082 82.9627 26.5899 82.898 26.1648C82.7686 25.314 82.7818 24.2691 82.8659 23.2019C83.0034 21.4571 83.3415 19.5256 83.6687 18.0139C82.2965 18.0625 80.5243 18.8138 79.0441 21.1416C77.1923 24.0537 75.8007 29.4508 76.4397 38.9286C76.4547 39.152 76.3818 39.3725 76.2365 39.5424L74.2437 41.8742L74.4798 41.9632C74.755 42.0671 74.957 42.3068 75.0137 42.5969C75.0703 42.8869 74.9735 43.1858 74.7578 43.3869L73.3611 44.689L73.4479 44.7218C73.7063 44.8193 73.9013 45.0371 73.9705 45.3057C74.0398 45.5744 73.9746 45.8601 73.7959 46.0718L72.4331 47.6863L72.918 47.6163C73.2544 47.5677 73.587 47.7256 73.7633 48.0176C73.9396 48.3095 73.9255 48.6791 73.7275 48.9569C73.4639 49.3269 73.1775 49.9162 73.1252 50.4616C73.1001 50.7224 73.1317 50.939 73.2114 51.1141C73.287 51.2802 73.4296 51.4628 73.7226 51.6292C74.1205 51.8552 74.2686 52.3576 74.0573 52.7654C72.4896 55.7906 70.2915 60.5223 68.7916 64.8767C68.0405 67.0573 67.4766 69.1088 67.2457 70.788C67.1303 71.6276 67.1024 72.3447 67.1636 72.9228C67.2255 73.5076 67.3716 73.884 67.5448 74.1094C67.7244 74.3433 67.7708 74.654 67.6672 74.9307L60.3281 94.6605C60.1631 95.1015 52.3165 110.494 51.8779 110.329C50.5779 110.329 57.7281 95.3134 58.72 94.0041L65.9304 74.7285C65.6742 74.2432 65.5375 73.6835 65.4762 73.1046C65.3954 72.3412 65.4384 71.4753 65.5648 70.5558C65.8176 68.7167 66.4216 66.545 67.1882 64.3196C68.6209 60.1605 70.664 55.6934 72.2244 52.6182C71.986 52.3825 71.8008 52.116 71.6683 51.8248C71.4355 51.3134 71.3899 50.7811 71.4361 50.2992C71.4613 50.0359 71.5148 49.7779 71.5868 49.5315L70.4582 49.6944C70.1092 49.7447 69.7658 49.5729 69.5955 49.2628C69.4251 48.9527 69.4634 48.5689 69.6915 48.2986L71.7222 45.8931L71.4788 45.8012C71.2036 45.6974 71.0016 45.4576 70.9449 45.1676C70.8883 44.8776 70.9851 44.5787 71.2008 44.3776L72.5974 43.0754L72.5107 43.0427C72.2514 42.9449 72.0561 42.7259 71.9874 42.4562C71.9187 42.1865 71.9854 41.9 72.166 41.6887L74.7239 38.6958C74.1311 29.2733 75.5039 23.543 77.6146 20.2237C79.7802 16.8179 82.7195 15.9773 84.8806 16.4091C85.1073 16.4544 85.3057 16.5906 85.4299 16.7864Z" fill="black"/>
<path fill-rule="evenodd" clip-rule="evenodd" d="M123.094 36.87C122.739 36.6542 122.269 36.809 122.044 37.2159C121.496 38.2089 120.58 39.7171 119.626 41.0018C119.148 41.6454 118.677 42.2111 118.25 42.6247C117.796 43.065 117.499 43.2275 117.359 43.2542C116.319 43.4522 115.458 44.2914 114.854 45.0745C114.557 45.4583 114.294 45.8646 114.073 46.2501L111.887 43.5608C111.618 43.2305 111.138 43.2228 110.815 43.5437C110.493 43.8646 110.449 44.3926 110.717 44.723L113.605 48.2741C113.771 48.4783 114.027 48.5672 114.284 48.51C114.542 48.4528 114.765 48.2573 114.876 47.9916C115.078 47.5099 115.474 46.7515 115.982 46.0941C116.509 45.4116 117.042 44.9853 117.506 44.897C118.117 44.7805 118.712 44.3174 119.208 43.8363C119.731 43.3284 120.269 42.6766 120.776 41.9935C121.792 40.6246 122.753 39.0416 123.329 37.9975C123.554 37.5907 123.449 37.0858 123.094 36.87Z" fill="black"/>
<path fill-rule="evenodd" clip-rule="evenodd" d="M80.8019 20.9167C81.265 21.0095 81.5686 21.4563 81.4802 21.9146C81.2642 23.0331 81.0087 24.7904 80.9436 26.4105C80.911 27.2222 80.9274 27.9719 81.0113 28.5781C81.1006 29.2234 81.2474 29.5535 81.3518 29.6725C82.125 30.5544 82.2913 31.7812 82.2723 32.7854C82.2629 33.2777 82.2081 33.7623 82.1314 34.2024L85.9399 33.7753C86.4078 33.7228 86.8341 34.0569 86.8922 34.5216C86.9502 34.9863 86.6179 35.4055 86.1501 35.458L81.121 36.022C80.8319 36.0544 80.5444 35.9381 80.3586 35.7136C80.1727 35.4891 80.1141 35.1873 80.2031 34.9131C80.3644 34.4162 80.5493 33.5781 80.5653 32.735C80.5819 31.8599 80.4134 31.1689 80.0687 30.7756C79.6141 30.257 79.4175 29.4954 79.3199 28.7902C79.2169 28.0458 79.203 27.1861 79.2376 26.3246C79.307 24.5984 79.5761 22.7546 79.8032 21.5786C79.8917 21.1203 80.3388 20.8239 80.8019 20.9167Z" fill="black"/>
<path fill-rule="evenodd" clip-rule="evenodd" d="M90.6646 56.9322C90.5448 57.2286 90.7135 57.5758 91.0415 57.7076C92.4936 58.2913 94.5215 59.66 95.8009 61.8419C97.0657 63.9989 97.6362 67.0135 96.0891 70.9729C94.5394 74.9389 92.1724 76.6527 89.9223 77.2542C87.6416 77.8638 85.3785 77.3585 84.0097 76.7115C83.6902 76.5606 83.317 76.6709 83.176 76.9581C83.0349 77.2452 83.1795 77.6004 83.499 77.7513C85.106 78.5109 87.7071 79.0907 90.3472 78.385C93.0179 77.6711 95.6284 75.669 97.2812 71.4391C98.9366 67.2027 98.3654 63.8314 96.902 61.3356C95.4533 58.8649 93.1665 57.314 91.4753 56.6342C91.1473 56.5024 90.7843 56.6358 90.6646 56.9322Z" fill="black"/>
<path fill-rule="evenodd" clip-rule="evenodd" d="M91.9833 57.4285C91.8781 57.7304 91.5562 57.8924 91.2643 57.7903C89.9717 57.3383 87.8264 57.1324 85.6625 58.0151C83.5234 58.8876 81.3037 60.8493 79.865 64.8497C78.4239 68.8567 78.8927 71.6406 79.97 73.4976C81.062 75.3798 82.828 76.3948 84.1059 76.7465C84.4041 76.8286 84.5763 77.1448 84.4905 77.4528C84.4047 77.7608 84.0934 77.9439 83.7952 77.8618C82.2949 77.4488 80.2658 76.2816 79.0018 74.1027C77.7231 71.8985 77.2749 68.7423 78.8118 64.4686C80.3511 60.1884 82.7905 57.9531 85.2656 56.9435C87.7159 55.944 90.1397 56.1705 91.645 56.6969C91.937 56.799 92.0884 57.1266 91.9833 57.4285Z" fill="black"/>
<path d="M81.7154 56.7208C81.0321 58.5476 79.0013 59.4712 77.1795 58.7838C75.3577 58.0964 74.4348 56.0582 75.1182 54.2315C75.8015 52.4047 77.8323 51.4811 79.6541 52.1685C81.4759 52.8559 82.3988 54.8941 81.7154 56.7208Z" fill="black"/>
<path d="M77.7478 55.2287C77.6111 55.5941 77.2049 55.7788 76.8406 55.6413C76.4762 55.5039 76.2917 55.0962 76.4283 54.7309C76.565 54.3655 76.9712 54.1808 77.3355 54.3183C77.6999 54.4558 77.8844 54.8634 77.7478 55.2287Z" fill="#FCFCFC"/>
<path d="M83.0349 57.2187C82.3515 59.0455 80.0253 59.8577 77.8392 59.0328C75.6531 58.2079 74.4348 56.0582 75.1182 54.2315C75.8015 52.4047 78.1277 51.5925 80.3138 52.4174C82.5 53.2424 83.7182 55.392 83.0349 57.2187Z" fill="black"/>
<path d="M79.3119 55.0639C79.0386 55.7946 78.2263 56.1641 77.4976 55.8891C76.7689 55.6141 76.3997 54.7989 76.673 54.0682C76.9464 53.3375 77.7587 52.968 78.4874 53.243C79.2161 53.518 79.5853 54.3332 79.3119 55.0639Z" fill="#FCFCFC"/>
<path d="M106.784 66.1824C106.101 68.0092 103.479 68.7099 100.929 67.7475C98.3781 66.7851 96.8645 64.5241 97.5479 62.6973C98.2312 60.8705 100.853 60.1698 103.403 61.1322C105.954 62.0946 107.467 64.3556 106.784 66.1824Z" fill="black"/>
<path d="M101.749 63.5288C101.476 64.2595 100.664 64.6289 99.9351 64.354C99.2064 64.079 98.8372 63.2637 99.1105 62.533C99.3839 61.8023 100.196 61.4329 100.925 61.7078C101.654 61.9828 102.023 62.7981 101.749 63.5288Z" fill="#FCFCFC"/>
<path fill-rule="evenodd" clip-rule="evenodd" d="M88.0676 77.6763C87.7377 77.6183 87.5169 77.303 87.5744 76.9721C87.6523 76.5241 87.6687 75.8216 87.4787 75.2014C87.2943 74.5995 86.9429 74.1396 86.3057 73.9689C85.9821 73.8821 85.7896 73.5488 85.8757 73.2242C85.9618 72.8997 86.2939 72.7069 86.6175 72.7936C87.7786 73.1047 88.3719 73.9773 88.6378 74.8451C88.8981 75.6946 88.8705 76.5991 88.7691 77.1823C88.7116 77.5132 88.3975 77.7343 88.0676 77.6763Z" fill="black"/>
<path fill-rule="evenodd" clip-rule="evenodd" d="M81.751 75.1395C82.0287 75.3275 82.4056 75.2543 82.5927 74.9759C82.8461 74.599 83.3196 74.0816 83.8849 73.7673C84.4335 73.4623 85.0043 73.3759 85.5812 73.6968C85.8742 73.8599 86.2431 73.7539 86.4053 73.4602C86.5675 73.1664 86.4615 72.7962 86.1685 72.6332C85.1173 72.0483 84.0872 72.2634 83.2962 72.7031C82.5219 73.1336 81.917 73.8043 81.5871 74.295C81.3999 74.5733 81.4733 74.9514 81.751 75.1395Z" fill="black"/>
<path d="M102.26 68.2472L101.961 71.0266L101.337 72.1008L100.841 72.2408L100.385 71.7417L100.642 70.5287L102.26 68.2472Z" fill="#00A6A6"/>
<path d="M76.0403 59.8674L76.706 62.0468L76.0305 62.665L75.1802 62.5625L74.127 61.9468L74.0672 61.051L76.0403 59.8674Z" fill="#00A6A6"/>
<path d="M75.2057 64.0811L74.9065 66.8605L74.2825 67.9348L73.7858 68.0748L73.3308 67.5757L73.5871 66.3627L75.2057 64.0811Z" fill="#00A6A6"/>
<path d="M100.95 73.7951L101.3 76.8193L100.481 77.8202L99.5955 77.8133L98.578 77.1019L98.6613 75.8236L100.95 73.7951Z" fill="#00A6A6"/>
</svg>
