<svg width="615" height="615" viewBox="0 0 615 615" fill="none" xmlns="http://www.w3.org/2000/svg">
<path d="M615 307.5C615 477.328 477.328 615 307.5 615C137.672 615 0 477.328 0 307.5C0 137.672 137.672 0 307.5 0C477.328 0 615 137.672 615 307.5Z" fill="#F08700"/>
<path d="M191.512 450.069L195.043 595.086C239.366 618.995 351.998 623.2 425.104 595.086V450.069C442.673 439.938 442.074 342.512 439.578 295.065L456.549 276.323L453.055 263.153L461.54 236.305L453.055 209.965C501.37 96.0925 468.528 61.2081 446.067 58L431.093 113.214C416.718 113.214 399.482 141.581 392.66 155.764L348.737 137.528H267.879L220.961 155.764C218.565 141.986 196.004 121.656 185.023 113.214L164.559 58C114.647 64.8891 143.762 162.18 164.559 209.965L157.072 236.305V255.554L164.559 278.856L179.034 302.157C169.052 395.362 183.193 439.601 191.512 450.069Z" fill="#FFEBC8"/>
<path fill-rule="evenodd" clip-rule="evenodd" d="M270.396 343.131C270.876 340.588 273.326 338.916 275.869 339.395C283.039 340.747 293.236 345.17 301.263 354.09C309.425 363.159 315.102 376.62 313.377 395.428C313.14 398.005 310.86 399.902 308.283 399.666C305.706 399.43 303.808 397.149 304.044 394.572C305.539 378.273 300.651 367.419 294.297 360.359C287.809 353.148 279.541 349.624 274.133 348.604C271.59 348.125 269.917 345.674 270.396 343.131Z" fill="black"/>
<path fill-rule="evenodd" clip-rule="evenodd" d="M208.429 287.807C209.522 288.98 209.939 290.631 209.534 292.183C208.526 296.049 206.947 301.56 205.523 305.258C205.164 306.191 204.778 307.106 204.376 307.891C204.09 308.45 203.433 309.708 202.324 310.593C201.73 311.066 200.163 312.091 198.038 311.608C195.944 311.131 194.97 309.562 194.634 308.901C193.988 307.628 193.871 306.147 193.822 305.26C193.757 304.095 192.989 302.835 190.556 301.61C188.167 300.408 185.166 299.812 183.178 299.675C180.824 299.512 178.958 297.625 178.822 295.269C178.687 292.914 180.324 290.825 182.643 290.393L204.143 286.393C205.72 286.1 207.337 286.633 208.429 287.807ZM195.909 303.851C195.886 303.89 195.874 303.906 195.874 303.905C195.874 303.904 195.885 303.884 195.909 303.851Z" fill="black"/>
<path fill-rule="evenodd" clip-rule="evenodd" d="M221.597 294.751C205.293 292.409 186.646 292.936 174.47 294.162C171.895 294.421 169.598 292.544 169.338 289.969C169.079 287.395 170.956 285.097 173.531 284.838C186.189 283.564 205.642 282.991 222.929 285.474C231.558 286.714 239.921 288.751 246.69 292.015C253.423 295.262 259.208 300.041 261.462 307.069C262.253 309.533 260.896 312.171 258.432 312.962C255.967 313.752 253.329 312.395 252.539 309.931C251.393 306.359 248.207 303.151 242.62 300.457C237.069 297.78 229.764 295.924 221.597 294.751Z" fill="black"/>
<path fill-rule="evenodd" clip-rule="evenodd" d="M159.441 86.1448C162.951 85.5598 166.271 87.9309 166.856 91.4408C168.069 98.7206 170.478 109.969 173.716 119.934C175.338 124.929 177.105 129.401 178.938 132.834C180.913 136.531 182.431 137.989 183.069 138.335C190.024 142.102 193.89 149.475 196.06 155.706C196.978 158.341 197.677 161.018 198.197 163.559L219.041 152.777C222.201 151.143 226.088 152.379 227.723 155.54C229.358 158.701 228.121 162.588 224.961 164.223L195.96 179.223C194.007 180.233 191.674 180.177 189.771 179.075C187.869 177.973 186.659 175.977 186.564 173.78C186.419 170.456 185.658 165.016 183.891 159.944C182.044 154.641 179.577 151.098 176.932 149.665C172.77 147.411 169.763 143.006 167.572 138.904C165.239 134.536 163.2 129.271 161.46 123.916C157.973 113.181 155.432 101.279 154.145 93.5592C153.56 90.0493 155.931 86.7298 159.441 86.1448Z" fill="black"/>
<path fill-rule="evenodd" clip-rule="evenodd" d="M313.682 279.39C313.743 281.977 311.695 284.123 309.108 284.185C299.468 284.412 284.764 288.267 272.636 299.128C260.673 309.842 250.799 327.742 251.183 356.939C251.568 386.192 261.603 402.835 273.267 412.063C285.121 421.44 299.292 423.664 308.58 422.833C311.158 422.603 313.434 424.505 313.665 427.083C313.895 429.66 311.993 431.937 309.415 432.167C298.204 433.17 281.525 430.544 267.453 419.413C253.193 408.132 242.227 388.609 241.812 357.062C241.397 325.459 252.19 304.859 266.384 292.147C280.414 279.583 297.361 275.088 308.887 274.816C311.474 274.755 313.621 276.802 313.682 279.39Z" fill="black"/>
<path d="M231 303C231 311.284 222.717 318 212.5 318C202.283 318 194 311.284 194 303C194 294.715 202.283 288 212.5 288C222.717 288 231 294.715 231 303Z" fill="black"/>
<path d="M209 301.5C209 303.433 207.433 305 205.5 305C203.567 305 202 303.433 202 301.5C202 299.567 203.567 298 205.5 298C207.433 298 209 299.567 209 301.5Z" fill="#FCFCFC"/>
<path fill-rule="evenodd" clip-rule="evenodd" d="M271.456 373.076C273.9 372.223 276.571 373.513 277.424 375.957C279.405 381.635 288.064 393.73 306.647 392.328C309.227 392.133 311.477 394.067 311.672 396.647C311.867 399.228 309.933 401.478 307.352 401.672C283.535 403.47 271.594 387.698 268.575 379.043C267.723 376.6 269.013 373.928 271.456 373.076Z" fill="black"/>
<path fill-rule="evenodd" clip-rule="evenodd" d="M407.571 287.807C406.478 288.98 406.061 290.631 406.466 292.183C407.474 296.049 409.053 301.56 410.477 305.258C410.836 306.191 411.222 307.106 411.624 307.891C411.91 308.45 412.567 309.708 413.676 310.593C414.27 311.066 415.837 312.091 417.962 311.608C420.056 311.131 421.03 309.562 421.366 308.901C422.012 307.628 422.129 306.147 422.178 305.26C422.243 304.095 423.011 302.835 425.444 301.61C427.833 300.408 430.834 299.812 432.822 299.675C435.176 299.512 437.042 297.625 437.178 295.269C437.313 292.914 435.676 290.825 433.357 290.393L411.857 286.393C410.28 286.1 408.663 286.633 407.571 287.807ZM420.091 303.851C420.114 303.89 420.126 303.906 420.126 303.905C420.126 303.904 420.115 303.884 420.091 303.851Z" fill="black"/>
<path fill-rule="evenodd" clip-rule="evenodd" d="M394.403 294.751C410.707 292.409 429.354 292.936 441.53 294.162C444.105 294.421 446.402 292.544 446.662 289.969C446.921 287.395 445.044 285.097 442.469 284.838C429.811 283.564 410.358 282.991 393.071 285.474C384.442 286.714 376.079 288.751 369.31 292.015C362.577 295.262 356.792 300.041 354.538 307.069C353.747 309.533 355.104 312.171 357.568 312.962C360.033 313.752 362.671 312.395 363.461 309.931C364.607 306.359 367.793 303.151 373.38 300.457C378.931 297.78 386.236 295.924 394.403 294.751Z" fill="#00A6A6"/>
<path fill-rule="evenodd" clip-rule="evenodd" d="M172.866 50.845C174.27 51.8978 175.184 53.4779 175.397 55.2201C176.622 65.2683 179.169 80.3301 182.779 92.8526C184.597 99.1562 186.587 104.47 188.64 108.126C189.667 109.957 190.558 111.093 191.226 111.717C191.447 111.923 191.6 112.035 191.688 112.091C196.676 112.519 200.989 115.454 204.322 118.513C207.855 121.755 211.172 125.96 214.121 130.309C217.214 134.87 220.069 139.836 222.497 144.503C223.947 144.181 225.469 144.057 227.001 144.057C228.241 144.057 230.548 143.657 233.906 142.675C237.122 141.735 240.834 140.406 244.681 138.884C252.371 135.842 260.248 132.173 265.12 129.737C266.015 129.29 267.001 129.057 268.001 129.057H308.001C311.56 129.057 314.444 131.942 314.444 135.5C314.444 139.058 311.56 141.943 308.001 141.943H269.51C264.358 144.474 256.842 147.931 249.421 150.866C245.368 152.469 241.255 153.952 237.521 155.044C234.389 155.959 231.123 156.722 228.244 156.902C228.953 159.665 227.753 162.625 225.213 164.085C222.391 165.708 218.801 164.971 216.847 162.366C216.041 161.292 215.206 159.893 214.634 158.292C214.478 157.855 214.326 157.361 214.203 156.82C211.492 150.989 207.68 143.769 203.457 137.542C200.793 133.615 198.116 130.307 195.609 128.006C192.955 125.571 191.266 124.976 190.558 124.928C187.156 124.693 184.434 123.005 182.43 121.134C180.436 119.272 178.787 116.898 177.403 114.433C174.634 109.499 172.318 103.081 170.398 96.4225C167.385 85.9732 165.108 74.0738 163.647 64.3838C156.026 67.9793 147.822 76.2914 144.354 92.6256C139.787 114.132 143.504 149.656 168.864 205.329C169.566 206.869 169.633 208.622 169.053 210.211L162.715 227.557H163.001C165.234 227.557 167.308 228.713 168.482 230.613C169.656 232.512 169.762 234.884 168.764 236.881L163.895 246.619C165.647 246.865 167.237 247.824 168.27 249.292C169.477 251.006 169.774 253.201 169.066 255.174L165.299 265.682L165.903 265.351C168.166 264.11 170.951 264.339 172.98 265.933C175.01 267.526 175.893 270.177 175.224 272.67C174.491 275.403 174.12 279.435 174.984 282.633C175.392 284.146 176.007 285.221 176.743 285.953C177.426 286.631 178.519 287.326 180.496 287.634C183.926 288.17 186.315 291.328 185.897 294.775C183.255 316.576 180.661 350.093 181.442 379.73C181.833 394.577 183.065 408.173 185.457 418.747C186.653 424.034 188.091 428.346 189.728 431.604C191.389 434.908 193.03 436.679 194.389 437.52C196.288 438.694 197.444 440.767 197.444 443V578.5C197.444 582.058 194.559 584.943 191.001 584.943C187.443 584.943 184.558 582.058 184.558 578.5V446.155C181.933 443.745 179.868 440.679 178.215 437.391C175.945 432.876 174.219 427.472 172.889 421.59C170.228 409.827 168.961 395.274 168.56 380.07C167.819 351.935 170.028 320.626 172.49 298.516C170.668 297.627 169.055 296.478 167.662 295.094C164.943 292.394 163.389 289.124 162.543 285.992C162.212 284.763 161.979 283.519 161.827 282.282L156.599 285.149C154.252 286.436 151.353 286.138 149.317 284.4C147.282 282.662 146.533 279.846 147.436 277.326L153.847 259.443H153.501C151.268 259.443 149.194 258.287 148.02 256.387C146.846 254.488 146.74 252.116 147.738 250.119L152.607 240.381C150.849 240.135 149.254 239.169 148.221 237.692C147.016 235.968 146.728 233.765 147.449 231.789L156.047 208.259C131.159 152.849 126.425 115.022 131.749 89.9494C137.234 64.1148 153.444 52.0267 167.957 49.6424C169.689 49.3579 171.462 49.7922 172.866 50.845ZM191.777 112.141C191.777 112.141 191.772 112.139 191.761 112.134C191.771 112.138 191.777 112.141 191.777 112.141Z" fill="black"/>
<path fill-rule="evenodd" clip-rule="evenodd" d="M345.607 343.131C345.128 340.588 342.678 338.916 340.135 339.395C332.964 340.747 322.768 345.17 314.741 354.09C306.579 363.159 300.902 376.62 302.627 395.428C302.864 398.005 305.144 399.902 307.721 399.666C310.298 399.43 312.196 397.149 311.959 394.572C310.465 378.273 315.353 367.419 321.707 360.359C328.195 353.148 336.463 349.624 341.871 348.604C344.414 348.125 346.087 345.674 345.607 343.131Z" fill="black"/>
<path fill-rule="evenodd" clip-rule="evenodd" d="M270.396 343.131C270.876 340.588 273.326 338.916 275.869 339.395C283.039 340.747 293.236 345.17 301.263 354.09C309.425 363.159 315.102 376.62 313.377 395.428C313.14 398.005 310.86 399.902 308.283 399.666C305.706 399.43 303.808 397.149 304.044 394.572C305.539 378.273 300.651 367.419 294.297 360.359C287.809 353.148 279.541 349.624 274.133 348.604C271.59 348.125 269.917 345.674 270.396 343.131Z" fill="black"/>
<path fill-rule="evenodd" clip-rule="evenodd" d="M208.429 287.807C209.522 288.98 209.939 290.631 209.534 292.183C208.526 296.049 206.947 301.56 205.523 305.258C205.164 306.191 204.778 307.106 204.376 307.891C204.09 308.45 203.433 309.708 202.324 310.593C201.73 311.066 200.163 312.091 198.038 311.608C195.944 311.131 194.97 309.562 194.634 308.901C193.988 307.628 193.871 306.147 193.822 305.26C193.757 304.095 192.989 302.835 190.556 301.61C188.167 300.408 185.166 299.812 183.178 299.675C180.824 299.512 178.958 297.625 178.822 295.269C178.687 292.914 180.324 290.825 182.643 290.393L204.143 286.393C205.72 286.1 207.337 286.633 208.429 287.807ZM195.909 303.851C195.886 303.89 195.874 303.906 195.874 303.905C195.874 303.904 195.885 303.884 195.909 303.851Z" fill="black"/>
<path fill-rule="evenodd" clip-rule="evenodd" d="M221.597 294.751C205.293 292.409 186.646 292.936 174.47 294.162C171.895 294.421 169.598 292.544 169.338 289.969C169.079 287.395 170.956 285.097 173.531 284.838C186.189 283.564 205.642 282.991 222.929 285.474C231.558 286.714 239.921 288.751 246.69 292.015C253.423 295.262 259.208 300.041 261.462 307.069C262.253 309.533 260.896 312.171 258.432 312.962C255.967 313.752 253.329 312.395 252.539 309.931C251.393 306.359 248.207 303.151 242.62 300.457C237.069 297.78 229.764 295.924 221.597 294.751Z" fill="#00A6A6"/>
<path fill-rule="evenodd" clip-rule="evenodd" d="M443.136 50.845C441.732 51.8978 440.818 53.4779 440.605 55.2201C439.38 65.2683 436.833 80.3301 433.223 92.8526C431.405 99.1562 429.414 104.47 427.362 108.126C426.335 109.957 425.444 111.093 424.776 111.717C424.555 111.923 424.402 112.035 424.314 112.091C419.326 112.519 415.013 115.454 411.68 118.513C408.147 121.755 404.83 125.96 401.881 130.309C398.788 134.87 395.933 139.836 393.505 144.503C392.055 144.181 390.533 144.057 389.001 144.057C387.761 144.057 385.454 143.657 382.096 142.675C378.88 141.735 375.168 140.406 371.321 138.884C363.631 135.842 355.754 132.173 350.882 129.737C349.987 129.29 349.001 129.057 348.001 129.057H308.001C304.442 129.057 301.558 131.942 301.558 135.5C301.558 139.058 304.442 141.943 308.001 141.943H346.492C351.644 144.474 359.16 147.931 366.581 150.866C370.634 152.469 374.747 153.952 378.481 155.044C381.613 155.959 384.878 156.722 387.758 156.902C387.049 159.665 388.249 162.625 390.789 164.085C393.611 165.708 397.201 164.971 399.155 162.366C399.961 161.292 400.796 159.893 401.368 158.292C401.524 157.855 401.675 157.361 401.799 156.82C404.509 150.989 408.322 143.769 412.545 137.542C415.209 133.615 417.886 130.307 420.393 128.006C423.047 125.571 424.736 124.976 425.444 124.928C428.846 124.693 431.568 123.005 433.572 121.134C435.566 119.272 437.215 116.898 438.599 114.433C441.368 109.499 443.684 103.081 445.604 96.4225C448.617 85.9732 450.893 74.0738 452.355 64.3838C459.976 67.9793 468.18 76.2914 471.648 92.6256C476.215 114.132 472.498 149.656 447.138 205.329C446.436 206.869 446.369 208.622 446.949 210.211L453.287 227.557H453.001C450.768 227.557 448.694 228.713 447.52 230.613C446.346 232.512 446.239 234.884 447.238 236.881L452.107 246.619C450.355 246.865 448.765 247.824 447.732 249.292C446.525 251.006 446.228 253.201 446.936 255.174L450.703 265.682L450.099 265.351C447.836 264.11 445.051 264.339 443.022 265.933C440.992 267.526 440.109 270.177 440.778 272.67C441.511 275.403 441.882 279.435 441.018 282.633C440.61 284.146 439.995 285.221 439.259 285.953C438.576 286.631 437.483 287.326 435.506 287.634C432.076 288.17 429.687 291.328 430.105 294.775C432.747 316.576 435.341 350.093 434.56 379.73C434.169 394.577 432.937 408.173 430.545 418.747C429.349 424.034 427.911 428.346 426.274 431.604C424.613 434.908 422.972 436.679 421.613 437.52C419.714 438.694 418.558 440.767 418.558 443V578.5C418.558 582.058 421.443 584.943 425.001 584.943C428.559 584.943 431.444 582.058 431.444 578.5V446.155C434.068 443.745 436.134 440.679 437.787 437.391C440.057 432.876 441.783 427.472 443.113 421.59C445.774 409.827 447.041 395.274 447.442 380.07C448.183 351.935 445.974 320.626 443.512 298.516C445.334 297.627 446.947 296.478 448.34 295.094C451.059 292.394 452.613 289.124 453.459 285.992C453.79 284.763 454.023 283.519 454.175 282.282L459.403 285.149C461.75 286.436 464.649 286.138 466.685 284.4C468.72 282.662 469.469 279.846 468.566 277.326L462.155 259.443H462.501C464.734 259.443 466.808 258.287 467.982 256.387C469.156 254.488 469.262 252.116 468.264 250.119L463.395 240.381C465.153 240.135 466.748 239.169 467.781 237.692C468.986 235.968 469.274 233.765 468.552 231.789L459.955 208.259C484.843 152.849 489.577 115.022 484.253 89.9494C478.768 64.1148 462.558 52.0267 448.045 49.6424C446.313 49.3579 444.54 49.7922 443.136 50.845ZM424.225 112.141C424.225 112.141 424.23 112.139 424.241 112.134C424.23 112.138 424.225 112.141 424.225 112.141Z" fill="black"/>
<path fill-rule="evenodd" clip-rule="evenodd" d="M172.866 50.845C174.27 51.8978 175.184 53.4779 175.397 55.2201C176.622 65.2683 179.169 80.3301 182.779 92.8526C184.597 99.1562 186.587 104.47 188.64 108.126C189.667 109.957 190.558 111.093 191.226 111.717C191.447 111.923 191.6 112.035 191.688 112.091C196.676 112.519 200.989 115.454 204.322 118.513C207.855 121.755 211.172 125.96 214.121 130.309C217.214 134.87 220.069 139.836 222.497 144.503C223.947 144.181 225.469 144.057 227.001 144.057C228.241 144.057 230.548 143.657 233.906 142.675C237.122 141.735 240.834 140.406 244.681 138.884C252.371 135.842 260.248 132.173 265.12 129.737C266.015 129.29 267.001 129.057 268.001 129.057H308.001C311.56 129.057 314.444 131.942 314.444 135.5C314.444 139.058 311.56 141.943 308.001 141.943H269.51C264.358 144.474 256.842 147.931 249.421 150.866C245.368 152.469 241.255 153.952 237.521 155.044C234.389 155.959 231.123 156.722 228.244 156.902C228.953 159.665 227.753 162.625 225.213 164.085C222.391 165.708 218.801 164.971 216.847 162.366C216.041 161.292 215.206 159.893 214.634 158.292C214.478 157.855 214.326 157.361 214.203 156.82C211.492 150.989 207.68 143.769 203.457 137.542C200.793 133.615 198.116 130.307 195.609 128.006C192.955 125.571 191.266 124.976 190.558 124.928C187.156 124.693 184.434 123.005 182.43 121.134C180.436 119.272 178.787 116.898 177.403 114.433C174.634 109.499 172.318 103.081 170.398 96.4225C167.385 85.9732 165.108 74.0738 163.647 64.3838C156.026 67.9793 147.822 76.2914 144.354 92.6256C139.787 114.132 143.504 149.656 168.864 205.329C169.566 206.869 169.633 208.622 169.053 210.211L162.715 227.557H163.001C165.234 227.557 167.308 228.713 168.482 230.613C169.656 232.512 169.762 234.884 168.764 236.881L163.895 246.619C165.647 246.865 167.237 247.824 168.27 249.292C169.477 251.006 169.774 253.201 169.066 255.174L165.299 265.682L165.903 265.351C168.166 264.11 170.951 264.339 172.98 265.933C175.01 267.526 175.893 270.177 175.224 272.67C174.491 275.403 174.12 279.435 174.984 282.633C175.392 284.146 176.007 285.221 176.743 285.953C177.426 286.631 178.519 287.326 180.496 287.634C183.926 288.17 186.315 291.328 185.897 294.775C183.255 316.576 180.661 350.093 181.442 379.73C181.833 394.577 183.065 408.173 185.457 418.747C186.653 424.034 188.091 428.346 189.728 431.604C191.389 434.908 193.03 436.679 194.389 437.52C196.288 438.694 197.444 440.767 197.444 443V578.5C197.444 582.058 194.559 584.943 191.001 584.943C187.443 584.943 184.558 582.058 184.558 578.5V446.155C181.933 443.745 179.868 440.679 178.215 437.391C175.945 432.876 174.219 427.472 172.889 421.59C170.228 409.827 168.961 395.274 168.56 380.07C167.819 351.935 170.028 320.626 172.49 298.516C170.668 297.627 169.055 296.478 167.662 295.094C164.943 292.394 163.389 289.124 162.543 285.992C162.212 284.763 161.979 283.519 161.827 282.282L156.599 285.149C154.252 286.436 151.353 286.138 149.317 284.4C147.282 282.662 146.533 279.846 147.436 277.326L153.847 259.443H153.501C151.268 259.443 149.194 258.287 148.02 256.387C146.846 254.488 146.74 252.116 147.738 250.119L152.607 240.381C150.849 240.135 149.254 239.169 148.221 237.692C147.016 235.968 146.728 233.765 147.449 231.789L156.047 208.259C131.159 152.849 126.425 115.022 131.749 89.9494C137.234 64.1148 153.444 52.0267 167.957 49.6424C169.689 49.3579 171.462 49.7922 172.866 50.845ZM191.777 112.141C191.777 112.141 191.772 112.139 191.761 112.134C191.771 112.138 191.777 112.141 191.777 112.141Z" fill="black"/>
<path fill-rule="evenodd" clip-rule="evenodd" d="M456.559 86.1448C453.049 85.5598 449.729 87.9309 449.144 91.4408C447.931 98.7206 445.522 109.969 442.284 119.934C440.662 124.929 438.895 129.401 437.062 132.834C435.087 136.531 433.569 137.989 432.931 138.335C425.976 142.102 422.11 149.475 419.94 155.706C419.022 158.341 418.323 161.018 417.803 163.559L396.959 152.777C393.799 151.143 389.912 152.379 388.277 155.54C386.642 158.701 387.879 162.588 391.039 164.223L420.04 179.223C421.993 180.233 424.326 180.177 426.229 179.075C428.131 177.973 429.341 175.977 429.436 173.78C429.581 170.456 430.342 165.016 432.109 159.944C433.956 154.641 436.423 151.098 439.068 149.665C443.23 147.411 446.237 143.006 448.428 138.904C450.761 134.536 452.8 129.271 454.54 123.916C458.027 113.181 460.568 101.279 461.855 93.5592C462.44 90.0493 460.069 86.7298 456.559 86.1448Z" fill="black"/>
<path fill-rule="evenodd" clip-rule="evenodd" d="M159.441 86.1448C162.951 85.5598 166.271 87.9309 166.856 91.4408C168.069 98.7206 170.478 109.969 173.716 119.934C175.338 124.929 177.105 129.401 178.938 132.834C180.913 136.531 182.431 137.989 183.069 138.335C190.024 142.102 193.89 149.475 196.06 155.706C196.978 158.341 197.677 161.018 198.197 163.559L219.041 152.777C222.201 151.143 226.088 152.379 227.723 155.54C229.358 158.701 228.121 162.588 224.961 164.223L195.96 179.223C194.007 180.233 191.674 180.177 189.771 179.075C187.869 177.973 186.659 175.977 186.564 173.78C186.419 170.456 185.658 165.016 183.891 159.944C182.044 154.641 179.577 151.098 176.932 149.665C172.77 147.411 169.763 143.006 167.572 138.904C165.239 134.536 163.2 129.271 161.46 123.916C157.973 113.181 155.432 101.279 154.145 93.5592C153.56 90.0493 155.931 86.7298 159.441 86.1448Z" fill="black"/>
<path fill-rule="evenodd" clip-rule="evenodd" d="M302.316 279.39C302.255 281.977 304.303 284.123 306.89 284.185C316.53 284.412 331.234 288.267 343.362 299.128C355.326 309.842 365.199 327.742 364.815 356.939C364.43 386.192 354.395 402.835 342.731 412.063C330.877 421.44 316.706 423.664 307.418 422.833C304.84 422.603 302.564 424.505 302.333 427.083C302.103 429.66 304.005 431.937 306.583 432.167C317.794 433.17 334.473 430.544 348.545 419.413C362.805 408.132 373.771 388.609 374.186 357.062C374.601 325.459 363.808 304.859 349.614 292.147C335.584 279.583 318.637 275.088 307.111 274.816C304.524 274.755 302.377 276.802 302.316 279.39Z" fill="black"/>
<path fill-rule="evenodd" clip-rule="evenodd" d="M313.684 279.39C313.745 281.977 311.697 284.123 309.11 284.185C299.47 284.412 284.766 288.267 272.638 299.128C260.674 309.842 250.801 327.742 251.185 356.939C251.57 386.192 261.605 402.835 273.269 412.063C285.123 421.44 299.294 423.664 308.582 422.833C311.16 422.603 313.436 424.505 313.667 427.083C313.897 429.66 311.995 431.937 309.417 432.167C298.206 433.17 281.527 430.544 267.455 419.413C253.195 408.132 242.229 388.609 241.814 357.062C241.399 325.459 252.192 304.859 266.386 292.147C280.416 279.583 297.363 275.088 308.889 274.816C311.476 274.755 313.623 276.802 313.684 279.39Z" fill="black"/>
<path d="M246 303C246 314.598 234.359 324 220 324C205.641 324 194 314.598 194 303C194 291.402 205.641 282 220 282C234.359 282 246 291.402 246 303Z" fill="black"/>
<path d="M218 301C218 305.419 214.418 309 210 309C205.582 309 202 305.419 202 301C202 296.582 205.582 293 210 293C214.418 293 218 296.582 218 301Z" fill="#FCFCFC"/>
<path d="M257 303C257 316.808 242.897 328 225.5 328C208.103 328 194 316.808 194 303C194 289.193 208.103 278 225.5 278C242.897 278 257 289.193 257 303Z" fill="black"/>
<path d="M221 297.5C221 302.746 216.747 307 211.5 307C206.253 307 202 302.746 202 297.5C202 292.253 206.253 288 211.5 288C216.747 288 221 292.253 221 297.5Z" fill="#FCFCFC"/>
<path d="M420.5 300.954C420.5 314.761 406.397 325.954 389 325.954C371.603 325.954 357.5 314.761 357.5 300.954C357.5 287.147 371.603 275.954 389 275.954C406.397 275.954 420.5 287.147 420.5 300.954Z" fill="black"/>
<path d="M383 297C383 301.97 378.971 306 374 306C369.029 306 365 301.97 365 297C365 292.029 369.029 288 374 288C378.971 288 383 292.029 383 297Z" fill="#FCFCFC"/>
<path fill-rule="evenodd" clip-rule="evenodd" d="M271.456 373.076C273.9 372.223 276.571 373.513 277.424 375.957C279.405 381.635 288.064 393.73 306.647 392.328C309.227 392.133 311.477 394.067 311.672 396.647C311.867 399.228 309.933 401.478 307.352 401.672C283.535 403.47 271.594 387.698 268.575 379.043C267.723 376.6 269.013 373.928 271.456 373.076Z" fill="black"/>
<path fill-rule="evenodd" clip-rule="evenodd" d="M344.542 373.075C342.098 372.223 339.427 373.513 338.574 375.956C336.594 381.635 327.934 393.73 309.351 392.327C306.771 392.133 304.521 394.067 304.326 396.647C304.131 399.228 306.065 401.477 308.646 401.672C332.463 403.47 344.404 387.698 347.423 379.043C348.275 376.6 346.985 373.928 344.542 373.075Z" fill="black"/>
</svg>
