<svg width="113" height="94" viewBox="0 0 113 94" fill="none" xmlns="http://www.w3.org/2000/svg">
<ellipse cx="17" cy="11.5" rx="17" ry="11.5" fill="white"/>
<path d="M46.1054 18.9541L27.1186 16.6483L29.4732 9.51037L46.1054 18.9541Z" fill="white"/>
<ellipse cx="19.4097" cy="38.5134" rx="14.1941" ry="9.60188" transform="rotate(-8.13296 19.4097 38.5134)" fill="white"/>
<path d="M50.9359 35.6047L32.9338 42.0653L32.9338 35.6047L50.9359 35.6047Z" fill="white"/>
<path d="M107.199 77.8151V71.5114L97.9477 70.1484L98.9159 77.8151L100.53 79.4336L102.789 90.5929H106.016L107.199 89.5707L106.016 79.7744L107.199 77.8151Z" fill="#E5C080"/>
<path fill-rule="evenodd" clip-rule="evenodd" d="M96.7913 69.2964L97.8308 78.1101L99.3718 79.7652L101.58 91.4445H105.622L107.199 89.9857L106.068 79.958L107.17 78.0039V70.9337L96.7913 69.2964ZM105.638 72.0136V77.7092L104.502 79.7228L105.609 89.5338L104.948 90.1451H102.886L100.822 79.2255L99.3111 77.603L98.5195 70.8907L105.638 72.0136Z" fill="black"/>
<path fill-rule="evenodd" clip-rule="evenodd" d="M65.5659 71.2518L67.601 80.3091L68.9368 81.4748V91.3577L70.1433 92.1098H73.7627L74.706 82.0483L75.8127 79.5901V72.7766H74.3129V79.3423L73.2293 81.7493L72.3806 90.801H70.6239L70.4366 90.6842V80.9327L68.9848 79.6658L67.0377 71L65.5659 71.2518ZM93.3203 73.2517L91.8493 72.9965L88.5922 87.2943L87.3998 88.8897H86.1666V86.2264L88.1096 78.4625L86.1666 75.9638V74.0798L84.6705 74.0147L83.7987 81.6226L82.9878 82.4187L82.4854 91.6258L81.9188 92.5596L80.4587 92.3557L79.6954 89.4695V82.5138L78.4884 80.5828L78.0014 74.0374L76.5047 74.1222L77.0132 80.9559L78.1956 82.8476V89.6186L79.2244 93.5089L82.742 94L83.9675 91.9799L84.4607 82.9427L85.2427 82.175L85.7489 77.7575L86.5069 78.7323L84.6668 86.0852V90.1985H88.2123L90.0067 87.7974L93.3203 73.2517Z" fill="black"/>
<path d="M93.3203 73.7724L89.9956 87.6359L88.4843 89.5567H86.0663V86.2996L87.9806 79.0338L86.0663 76.6954V74.6911L85.1596 82.2074L84.3536 82.959L83.8498 91.7281L82.9431 93.1479L80.4243 92.8138L79.5176 89.5567V82.959L78.3086 81.1217L77.8048 74.6911L75.5883 73.4383V79.869L74.4801 82.2074L73.5733 91.394H70.8531L70.1478 90.9765V81.5393L68.7373 80.3701L66.7223 71.8516L93.3203 73.7724Z" fill="#E5C080"/>
<path fill-rule="evenodd" clip-rule="evenodd" d="M65.5659 71L67.7646 80.6581L69.0836 81.794V91.4251L70.2748 92.1579H73.8485L74.78 82.3529L75.8726 79.9574V74.5241L76.5793 74.9391L77.058 81.2884L78.2255 83.1318V89.7302L79.2412 93.5214L82.7145 94L83.9245 92.0314L84.4115 83.2245L85.1836 82.4764L85.6834 78.1714L86.4319 79.1214L84.615 86.2869V90.2953H88.1157L89.8874 87.9555L93.3203 73.0826L65.5659 71ZM86.0958 76.4234V74.5874L84.6186 74.524L83.7578 81.938L82.9571 82.7138L82.4611 91.6863L81.9017 92.5963L80.4599 92.3976L79.7063 89.585V82.8066L78.5146 80.9248L78.0103 74.2357L76.0156 73.0644L91.5457 74.2297L88.4908 87.4652L87.3135 89.0199H86.0958V86.4245L88.0143 78.8585L86.0958 76.4234ZM74.3918 72.9425V79.7158L73.3218 82.0615L72.4839 90.8825H70.7494L70.5644 90.7687V81.2657L69.131 80.0311L67.3977 72.4177L74.3918 72.9425Z" fill="black"/>
<path fill-rule="evenodd" clip-rule="evenodd" d="M97.9477 71.9959L98.7093 78.2927L100.193 79.8038L102.141 91.4442H105.715L107.199 90.1955L106.166 80.0227L107.169 78.6521V71.9237H105.766V78.2537L104.722 79.6802L105.737 89.6713L105.172 90.146H103.344L101.515 79.2196L100.053 77.7308L99.3421 71.8516L97.9477 71.9959Z" fill="black"/>
<path d="M110.516 45.7446L103.43 49.0902C103.43 49.0902 99.9747 47.7034 97.6237 47.2029C96.5599 46.9765 94.8681 46.7497 94.8681 46.7497L88.7663 46.1492L80.6963 46.3451V42.3131L81.582 42.9136V36.8228H82.3693L82.9598 31.5899L83.7471 23.9549L81.582 16.4915L85.0265 11.6875L85.7154 7.56979L84.436 3.19471L82.9598 4.91043L81.582 8.04162L80.2042 11.1728H77.7438L75.8739 7.91294L75.3818 9.9718L73.2167 7.56979L72.823 8.68501L69.3785 7.56979L69.969 9.3713L67.607 8.68501V9.3713H64.4577L63.0799 2.85156L59.4385 7.22665L63.0799 12.5454L59.4385 16.4915H61.5052C59.3281 19.583 57.4702 21.0382 58.4543 22.4966C59.4385 23.9549 61.5052 25.4991 61.5052 25.4991V28.4158C61.5052 28.4158 61.5052 28.6732 60.6908 33.9919C59.8763 39.3106 53.2383 52.3501 55.6987 57.583C58.1591 62.816 57.8638 61.3576 59.7337 64.2744C61.6036 67.1911 61.7605 67.9371 63.8907 69.8504L67.8038 72.0809L68.6896 72.424L69.7967 72.6171L71.7896 73.1532L77.547 72.6814L77.3322 73.9682C82.1725 74.7403 84.9281 74.4829 89.6342 73.2819L89.8489 73.9682L92.4077 72.6814L92.9982 73.2819L94.8681 71.9093L95.4586 73.2819L97.6237 71.9093V72.6814L98.8047 71.9093L99.4936 72.6814L101.265 71.9093L102.151 72.6814L104.218 71.9093L104.808 72.6814L106.186 71.9093L106.776 72.6814L107.662 71.9093L108.646 72.6814C110.126 71.99 110.73 71.1896 111.107 68.4779C110.954 69.3203 111.119 68.4939 111.402 65.218C111.685 61.9421 111.52 63.4353 111.402 61.3576C111.284 59.28 110.65 58.1708 109.335 56.2105H112.288L111.107 54.409L112.977 53.98L111.402 52.3501L112.288 51.2349L111.402 50.377L112.977 49.0902L109.926 48.2324L110.516 45.7446Z" fill="#FFEBC8"/>
<path fill-rule="evenodd" clip-rule="evenodd" d="M62.9326 2L58.0699 7.92403L61.6378 13.2082L57.4202 17.8426H59.6455C59.374 18.2065 59.1121 18.5461 58.8645 18.8668L58.8385 18.9005C58.3965 19.4729 57.9891 20.0005 57.6763 20.4826C57.0442 21.4567 56.6508 22.469 57.3459 23.5135C57.8758 24.3097 58.6761 25.1031 59.3172 25.6807C59.6424 25.9736 59.9361 26.2194 60.1489 26.3922C60.1834 26.4203 60.2158 26.4464 60.2459 26.4705V29.0679C60.2446 29.0813 60.2421 29.1056 60.2373 29.1466C60.2254 29.2479 60.201 29.4414 60.1511 29.8034C60.0515 30.5269 59.8517 31.9142 59.4513 34.5655C59.2597 35.834 58.7187 37.5942 58.0296 39.6474C57.8132 40.2919 57.5828 40.964 57.346 41.6545C56.8366 43.1402 56.298 44.7109 55.8085 46.2743C55.0906 48.5672 54.465 50.8836 54.1741 52.9668C53.886 55.0305 53.9111 56.959 54.5895 58.4219C56.2185 61.9351 56.675 62.5222 57.3246 63.3576C57.646 63.771 58.0148 64.2452 58.5962 65.1649C59.0132 65.8244 59.3454 66.3772 59.6367 66.8621C60.6039 68.472 61.1212 69.3329 62.798 70.8602L62.8544 70.9115L66.8201 73.2035L67.8188 73.5958L68.9505 73.7959L71.0138 74.3587L75.8977 73.9529L75.7188 75.0399L76.4102 75.1517C78.8306 75.5432 80.7626 75.679 82.6929 75.5563C84.4189 75.4466 86.1171 75.1319 88.1318 74.6329L88.3974 75.4936L91.2089 74.06L91.8663 74.7379L93.4684 73.5454L94.0232 74.8528L95.7698 73.7301V74.5234L97.5247 73.3601L98.1294 74.0472L99.9363 73.2487L100.785 73.9988L102.714 73.2681L103.356 74.1194L104.711 73.3494L105.387 74.2461L106.398 73.3526L107.233 74.0164L107.684 73.8026C108.493 73.4196 109.134 72.9686 109.6 72.1976C110.043 71.4633 110.296 70.4878 110.484 69.1201L110.459 69.117C110.462 69.0873 110.466 69.0551 110.47 69.0202C110.527 68.5069 110.637 67.4792 110.777 65.84C110.914 64.2335 110.95 63.7304 110.926 63.3794C110.917 63.2587 110.9 63.1414 110.883 63.0257C110.876 62.9776 110.869 62.9298 110.862 62.8822C110.837 62.6965 110.807 62.416 110.778 61.91C110.675 60.0669 110.182 58.917 109.273 57.4531H112.178L110.864 55.4215L112.899 54.9483L110.967 52.9206L111.849 51.7944L111.07 51.0294L113 49.4302L109.445 48.4166L110.211 45.1445L102.18 48.9892C102.108 48.9611 102.026 48.9291 101.935 48.8938C101.576 48.7545 101.072 48.5636 100.495 48.3568C99.3508 47.9465 97.8822 47.461 96.6718 47.1997C96.1242 47.0815 95.427 46.9655 94.8773 46.8803C94.6002 46.8374 94.3564 46.8016 94.1818 46.7765C94.0944 46.764 94.0242 46.7541 93.9757 46.7474L93.9196 46.7396L93.9048 46.7376L93.8999 46.7369C93.8998 46.7369 93.8994 46.7368 93.7886 47.3737L93.8999 46.7369L93.8849 46.7349L87.8182 46.1295L80.5792 46.3076V44.2669L81.4503 44.8657V38.1184H82.1565L82.802 32.3184L82.8025 32.313L83.588 24.5896L81.5043 17.3067L84.8085 12.6341L85.5291 8.26639L83.8587 2.47431L81.4321 5.33398L78.8649 11.2496H77.3968L74.8212 6.69658L74.2288 9.20963L72.2064 6.93466L71.6366 8.57131L67.6217 7.25328L68.2186 9.09971L66.2472 8.51891V9.45298H64.4859L62.9326 2ZM67.7054 10.307L70.3802 11.0951L69.8155 9.34832L72.5763 10.2546L72.7809 9.66695L75.0175 12.1829L75.3931 10.5894L76.4956 12.5384H79.8673L82.7207 5.96342L83.1979 5.40102L84.0441 8.33521L83.4097 12.1804L79.9382 17.0897L82.1134 24.6928L81.3508 32.1922L81.3502 32.1976L80.8347 36.8295H79.9921V42.2305L79.121 41.6317V47.6328L87.7564 47.4203L93.6919 48.0126L93.6954 48.0131L93.7486 48.0205C93.7719 48.0237 93.8006 48.0277 93.8341 48.0325C93.8675 48.0372 93.9057 48.0426 93.9481 48.0487C94.1181 48.0731 94.3557 48.108 94.6254 48.1498C95.1692 48.2341 95.8272 48.3441 96.3259 48.4517C97.4278 48.6896 98.8147 49.1451 99.9474 49.5511C100.509 49.7524 101 49.9385 101.35 50.0741C101.525 50.1419 101.664 50.197 101.76 50.235C101.808 50.254 101.844 50.2687 101.869 50.2786L101.896 50.2897L101.905 50.2931L102.236 50.4281L108.147 47.5981L107.752 49.2881L110.198 49.9855L109.03 50.9529L109.994 51.8989L109.133 52.9971L110.299 54.2203L108.655 54.6026L109.665 56.1642H106.747L107.388 57.1339C108.663 59.0613 109.215 60.0584 109.322 61.9735C109.352 62.5035 109.385 62.8139 109.414 63.0338C109.427 63.1284 109.437 63.1947 109.445 63.2477C109.457 63.3312 109.465 63.3818 109.47 63.4578C109.487 63.6969 109.465 64.0828 109.323 65.7432C109.184 67.3709 109.075 68.3887 109.019 68.8943C109.013 68.9476 109.007 68.9961 109.002 69.0391C108.996 69.0971 108.99 69.1453 108.986 69.1827C108.983 69.2152 108.98 69.2437 108.978 69.2657C108.977 69.2762 108.976 69.2897 108.975 69.3033C108.974 69.3098 108.974 69.3211 108.973 69.3346C108.973 69.3354 108.973 69.3543 108.974 69.3821C108.802 70.4675 108.59 71.1333 108.313 71.5907C108.097 71.9494 107.826 72.2041 107.429 72.4389L106.346 71.5766L105.614 72.2231L105.129 71.5799L103.774 72.3498L103.254 71.6612L101.118 72.4704L100.224 71.6805L98.5465 72.422L97.7961 71.5692L97.228 71.9458V71.1992L94.7156 72.8141L94.1087 71.3839L92.0327 72.9291L91.5285 72.4092L89.3067 73.5421L89.1488 73.0305L88.436 73.215C86.1426 73.8085 84.3647 74.1579 82.5884 74.2708C80.995 74.372 79.3764 74.2845 77.365 73.9907L77.6076 72.5163L71.1664 73.0515L69.3095 72.545L68.2633 72.3601L67.5198 72.068L63.7885 69.9115C62.3095 68.5567 61.8893 67.8581 60.9662 66.3234C60.6696 65.8304 60.3212 65.2512 59.8692 64.5362C59.2059 63.4871 58.8187 62.9933 58.4971 62.5833C57.8871 61.8054 57.5133 61.3288 55.9387 57.9331C55.4071 56.7866 55.341 55.1326 55.6213 53.1246C55.899 51.1361 56.502 48.8915 57.2139 46.6181C57.6987 45.0696 58.2281 43.5257 58.7349 42.0478C58.9731 41.3532 59.2063 40.6731 59.4276 40.0139C60.1122 37.9739 60.6877 36.1196 60.8967 34.736C61.2973 32.0831 61.498 30.69 61.5986 29.9591C61.6489 29.5939 61.6746 29.3917 61.6877 29.2792C61.6943 29.223 61.6981 29.1868 61.7003 29.1624C61.7014 29.1501 61.7022 29.1392 61.7028 29.1291C61.7032 29.124 61.7035 29.1183 61.7037 29.1123L61.704 29.1022L61.7041 29.0964L61.7041 29.0932L61.7041 29.0916C61.7041 29.0907 61.7041 29.0899 60.975 29.0899H61.7041V25.8847L61.4497 25.692L61.449 25.6915L61.4457 25.6889L61.4306 25.6774C61.4169 25.6669 61.3961 25.6508 61.3689 25.6295C61.3146 25.587 61.2348 25.5239 61.1357 25.4433C60.9371 25.282 60.6621 25.0519 60.3581 24.7781C59.7409 24.222 59.0409 23.5183 58.6028 22.8601C58.33 22.4502 58.3663 22.0097 58.9412 21.1238C59.2255 20.6858 59.6057 20.1933 60.0679 19.5947L60.069 19.5933C60.526 19.0013 61.0508 18.3209 61.5964 17.5353L62.2781 16.5538H60.4645L63.4097 13.3174L59.8147 7.99316L62.1149 5.19091L63.2718 10.7418H67.7054V10.307ZM109.128 68.9528C109.165 68.91 109.293 68.7755 109.526 68.724C109.642 68.7069 109.88 68.7239 109.995 68.7586C110.085 68.8005 110.224 68.8984 110.274 68.9486C110.326 69.0068 110.359 69.0642 110.379 69.1071L109.128 68.9528Z" fill="black"/>
<path d="M58.6246 23.483C59.1301 24.3214 58.7736 23.6636 58.9509 23.9103C59.1283 24.157 59.1301 24.1485 60.0112 24.1485C60.8215 24.1485 61.1263 23.3153 60.8215 22.836C60.1474 22.1975 59.7612 22.5328 59.1141 22.5328C58.4614 22.836 58.7877 22.4211 58.6246 23.483Z" fill="black"/>
<path fill-rule="evenodd" clip-rule="evenodd" d="M60.0507 24.1478C60.8313 24.1212 61.1213 23.3075 60.8215 22.836C60.3292 22.3697 59.9904 22.4228 59.5914 22.4853C59.4441 22.5084 59.2886 22.5328 59.1141 22.5328C58.8288 22.6653 58.7306 22.6606 58.6967 22.7021C58.6963 22.7026 58.696 22.7031 58.6956 22.7036C58.6834 22.7196 58.6802 22.7424 58.6793 22.7819C58.6772 22.8763 58.6888 23.0655 58.6246 23.483C58.934 23.9961 58.9205 23.9488 58.9041 23.8914C58.8937 23.855 58.8821 23.8145 58.9509 23.9103C59.1224 24.1488 59.1298 24.1488 59.9262 24.1485C59.9536 24.1485 59.9819 24.1485 60.0112 24.1485C60.0142 24.1485 60.0172 24.1485 60.0201 24.1485C60.0304 24.1484 60.0406 24.1482 60.0507 24.1478Z" fill="black"/>
<path d="M64.4418 23.8554C64.4418 23.8554 61.9453 25.5894 59.9137 24.5395C58.8879 24.0094 60.9396 25.1827 61.4488 26.5273C61.6339 27.016 61.8192 27.2234 62.445 27.3529C62.912 27.3626 64.244 26.0709 64.4418 25.8222C65.0325 24.9671 64.4418 22.9148 64.4418 23.8554Z" fill="#FFBDBD" fill-opacity="0.9"/>
<path d="M66.7178 18.6113C66.7178 19.317 69.073 19.8891 70.2923 19.8891C71.5116 19.8891 72.5 19.317 72.5 18.6113C72.5 17.9056 71.5116 17.3335 70.2923 17.3335C69.073 17.3335 66.7178 17.9056 66.7178 18.6113Z" fill="black"/>
<path d="M59.5862 18.6618C58.8361 19.5823 57.8699 19.8891 59.5862 19.8891C61.3025 19.8891 62.3632 19.5834 62.7964 18.6618C63.6492 17.9471 63.3385 17.3335 61.6222 17.3335C59.9059 17.3335 59.5862 17.6452 59.5862 18.6618Z" fill="black"/>
<path d="M70.1871 18.6113C70.1871 19.317 70.7049 19.8891 71.3436 19.8891C71.9822 19.8891 72.5 19.317 72.5 18.6113C72.5 17.9056 71.9822 17.3335 71.3436 17.3335C70.7049 17.3335 70.1871 17.9056 70.1871 18.6113Z" fill="#FCFCFC"/>
<path d="M70.1871 18.6113C70.1871 19.317 70.7049 19.8891 71.3436 19.8891C71.9822 19.8891 72.5 19.317 72.5 18.6113C72.5 17.9056 71.9822 17.3335 71.3436 17.3335C70.7049 17.3335 70.1871 17.9056 70.1871 18.6113Z" fill="#FCFCFC"/>
<path d="M70.1871 18.6113C70.1871 19.317 70.7049 19.8891 71.3436 19.8891C71.9822 19.8891 72.5 19.317 72.5 18.6113C72.5 17.9056 71.9822 17.3335 71.3436 17.3335C70.7049 17.3335 70.1871 17.9056 70.1871 18.6113Z" fill="#FCFCFC"/>
<path d="M70.1871 18.6113C70.1871 19.317 70.7049 19.8891 71.3436 19.8891C71.9822 19.8891 72.5 19.317 72.5 18.6113C72.5 17.9056 71.9822 17.3335 71.3436 17.3335C70.7049 17.3335 70.1871 17.9056 70.1871 18.6113Z" fill="#FCFCFC"/>
<path d="M60.9412 18.1853C60.9412 18.6558 61.2001 19.0372 61.5194 19.0372C61.8388 19.0372 62.0977 18.6558 62.0977 18.1853C62.0977 17.7149 61.8388 17.3335 61.5194 17.3335C61.2001 17.3335 60.9412 17.7149 60.9412 18.1853Z" fill="#FCFCFC"/>
<path d="M60.9412 18.1853C60.9412 18.6558 61.2001 19.0372 61.5194 19.0372C61.8388 19.0372 62.0977 18.6558 62.0977 18.1853C62.0977 17.7149 61.8388 17.3335 61.5194 17.3335C61.2001 17.3335 60.9412 17.7149 60.9412 18.1853Z" fill="#FCFCFC"/>
<path d="M60.9412 18.1853C60.9412 18.6558 61.2001 19.0372 61.5194 19.0372C61.8388 19.0372 62.0977 18.6558 62.0977 18.1853C62.0977 17.7149 61.8388 17.3335 61.5194 17.3335C61.2001 17.3335 60.9412 17.7149 60.9412 18.1853Z" fill="#FCFCFC"/>
<path d="M60.9412 18.1853C60.9412 18.6558 61.2001 19.0372 61.5194 19.0372C61.8388 19.0372 62.0977 18.6558 62.0977 18.1853C62.0977 17.7149 61.8388 17.3335 61.5194 17.3335C61.2001 17.3335 60.9412 17.7149 60.9412 18.1853Z" fill="#FCFCFC"/>
<path fill-rule="evenodd" clip-rule="evenodd" d="M73.7401 14.7778L72.3918 15.9771L71.447 14.9076L68.8684 16.1426L68.0077 15.2495L66.9664 15.9699L66.5181 15.2255L65.4972 15.7904V14.7933L60.9349 16.3714L61.5043 17.5057L64.0169 16.6366V18.0867L65.9439 17.0202L66.4782 17.9073L67.7952 16.9962L68.5068 17.7345L71.0378 16.5223L72.2548 17.9L73.6579 16.652L75.9722 19.0371L77.125 18.2662L73.7401 14.7778Z" fill="black"/>
<path fill-rule="evenodd" clip-rule="evenodd" d="M79.7212 17.959L80.5315 16.4814L81.7539 17.1694L80.7077 19.0773L78.7851 19.8889L78.1735 18.7382L76.6598 19.605L75.9717 18.3717L78.728 16.7934L79.416 18.0878L79.7212 17.959Z" fill="black"/>
<path fill-rule="evenodd" clip-rule="evenodd" d="M63.6803 26.0668C63.5512 26.1372 63.3333 26.2194 62.9176 26.3502C62.8283 26.3783 62.7053 26.3904 62.4656 26.2852C62.2001 26.1686 61.8738 25.9401 61.4763 25.5789C61.0858 25.2239 60.6783 24.7894 60.2353 24.304C60.1492 24.2097 60.0618 24.1134 59.9731 24.0157C59.6148 23.6213 59.2365 23.2047 58.8508 22.8099C58.3199 22.2664 58.3166 21.9603 58.3445 21.858C58.3618 21.7945 58.4353 21.6533 58.7329 21.5001C59.0959 21.6842 59.4766 21.8259 59.8279 21.9479C59.9985 22.0071 60.1615 22.0617 60.3198 22.1146C60.689 22.2381 61.0329 22.3531 61.3883 22.4998C62.308 22.8794 63.0926 23.3917 63.5392 24.4743C63.6497 24.9917 63.7194 25.3563 63.747 25.6318C63.7735 25.8959 63.7512 25.9991 63.7417 26.0284C63.7328 26.0353 63.7142 26.0482 63.6803 26.0668ZM64.4973 24.2526C64.9674 26.4412 64.8933 26.6421 63.2542 27.1577C61.9424 27.5704 60.6238 26.1186 59.1917 24.5419C58.8344 24.1486 58.4701 23.7475 58.0971 23.3656C56.8561 22.0952 57.1889 21.0363 58.828 20.5207C59.3122 20.857 59.9543 21.0718 60.6399 21.3012C62.0934 21.7874 63.7425 22.3391 64.4973 24.2526Z" fill="black"/>
<path fill-rule="evenodd" clip-rule="evenodd" d="M60.7106 23.8609L62.6889 22.4023L62.3691 22.0749L60.3907 23.5335L60.7106 23.8609Z" fill="black"/>
</svg>
