<svg width="485" height="485" viewBox="0 0 485 485" fill="none" xmlns="http://www.w3.org/2000/svg">
<circle cx="242.253" cy="242.253" r="242.253" fill="#00A6A6"/>
<path d="M155.102 385.561V355.694L189.646 349.237L186.031 385.561L180.006 393.23L171.571 446.103H159.52L155.102 441.259L159.52 394.844L155.102 385.561Z" fill="#E5C080" stroke="black" stroke-width="3"/>
<path d="M211.738 363.363L224.994 430.362L231.019 439.645H240.66V423.904L233.028 388.79L240.66 377.489V367.803L244.275 404.127L247.488 407.76L249.497 450.139L253.112 457L263.154 455.386L266.769 439.645V407.76L271.589 398.88L273.598 367.803M282.435 361.748V392.826L286.853 404.127L290.468 448.524H301.314L304.126 446.506V400.898L309.749 395.248L317.783 354.08" stroke="black" stroke-width="3"/>
<path d="M211.34 363.363L224.595 430.362L230.621 439.645H240.261V423.904L232.629 388.79L240.261 377.489V367.803L243.876 404.127L247.09 407.76L249.098 450.139L252.713 457L262.755 455.386L266.371 439.645V407.76L271.191 398.88L273.199 367.803L282.036 361.748V392.826L286.455 404.127L290.07 448.524H300.915L303.727 446.506V400.898L309.351 395.248L317.384 354.08L211.34 363.363Z" fill="#E5C080" stroke="black" stroke-width="3"/>
<path d="M155.102 357.309V387.89L159.52 394.441L155.102 441.663L159.52 445.699H171.169L179.316 392.849L185.667 385.824L188.843 357.309" stroke="black" stroke-width="3"/>
<path d="M141.042 233.804L169.963 249.545C169.963 249.545 184.067 243.02 193.663 240.666C198.005 239.6 204.91 238.533 204.91 238.533L229.814 235.708L262.752 236.63V217.66L259.137 220.485V191.829H255.924L253.514 167.209L250.3 131.288L259.137 96.1738L245.078 73.5717L242.266 54.1985L247.488 33.6144L253.514 41.6866L259.137 56.4183L264.761 71.1501H274.803L282.435 55.8129L284.443 65.4995L293.28 54.1985L294.887 59.4454L308.946 54.1985L306.536 62.6743L316.176 59.4454V62.6743H329.03L334.654 32L349.516 52.584L334.654 77.6078L349.516 96.1738H341.081C349.967 110.719 357.55 117.565 353.533 124.426C349.516 131.288 341.081 138.553 341.081 138.553V152.275C341.081 152.275 341.081 153.486 344.405 178.51C347.729 203.534 374.822 264.882 364.78 289.502C354.738 314.123 355.943 307.261 348.311 320.984C340.679 334.707 340.039 338.216 331.344 347.218L315.373 357.712L311.758 359.327L307.239 360.235L299.105 362.757L275.606 360.538L276.483 366.592C256.727 370.224 245.48 369.013 226.272 363.363L225.396 366.592L214.952 360.538L212.542 363.363L204.91 356.905L202.5 363.363L193.663 356.905V360.538L188.843 356.905L186.031 360.538L178.8 356.905L175.185 360.538L166.75 356.905L164.34 360.538L158.716 356.905L156.306 360.538L152.691 356.905L148.674 360.538C142.634 357.284 140.17 353.519 138.632 340.761C139.256 344.724 138.583 340.836 137.427 325.424C136.271 310.011 136.947 317.036 137.427 307.261C137.907 297.486 140.497 292.268 145.862 283.045H133.812L138.632 274.569L131 272.551L137.427 264.882L133.812 259.635L137.427 255.599L131 249.545L143.452 245.509L141.042 233.804Z" fill="#FFEBC8" stroke="black" stroke-width="3"/>
<path d="M351.168 127.503C350.945 127.871 350.765 128.164 350.62 128.398C350.616 128.4 350.612 128.402 350.608 128.403C350.438 128.49 350.321 128.589 350.267 128.637C350.079 128.803 349.915 129.027 349.812 129.17C349.556 129.527 349.484 129.611 349.437 129.652C349.426 129.656 349.393 129.668 349.326 129.683C349.129 129.725 348.791 129.759 348.14 129.775C347.587 129.788 346.884 129.788 345.95 129.788C345.808 129.788 345.66 129.788 345.506 129.788C343.979 129.788 343.027 129.035 342.547 128.113C342.065 127.184 342.078 126.13 342.466 125.396C343.889 124.096 344.865 123.895 345.762 123.909C346.28 123.917 346.803 123.999 347.489 124.106C347.535 124.113 347.582 124.121 347.631 124.128C348.27 124.228 349.013 124.338 349.845 124.362C350.299 124.563 350.663 124.699 350.949 124.798C350.95 124.853 350.951 124.909 350.952 124.966C350.965 125.544 351.011 126.351 351.168 127.503Z" fill="black" stroke="black" stroke-width="3"/>
<path d="M327.424 129.27C327.424 129.27 337.612 137.454 345.902 132.499C350.088 129.996 341.716 135.534 339.638 141.881C338.882 144.187 338.126 145.166 335.573 145.777C333.667 145.823 328.231 139.726 327.424 138.553C325.014 134.517 327.424 124.83 327.424 129.27Z" fill="#FFBDBD" fill-opacity="0.9"/>
<path d="M316.983 104.65C316.983 108.662 307.985 111.915 303.326 111.915C298.667 111.915 294.891 108.662 294.891 104.65C294.891 100.637 298.667 97.3846 303.326 97.3846C307.985 97.3846 316.983 100.637 316.983 104.65Z" fill="black"/>
<path d="M347.463 104.486C350.329 108.847 354.02 110.3 347.463 110.3C340.905 110.3 336.853 108.852 335.197 104.486C331.939 101.099 333.126 98.1919 339.684 98.1919C346.241 98.1919 347.463 99.6686 347.463 104.486Z" fill="black"/>
<ellipse cx="300.911" cy="104.246" rx="4.41852" ry="4.4397" fill="#FCFCFC"/>
<ellipse cx="300.911" cy="104.246" rx="4.41852" ry="4.4397" fill="#FCFCFC"/>
<ellipse cx="300.911" cy="104.246" rx="4.41852" ry="4.4397" fill="#FCFCFC"/>
<ellipse cx="300.911" cy="104.246" rx="4.41852" ry="4.4397" fill="#FCFCFC"/>
<ellipse cx="339.476" cy="102.632" rx="2.81179" ry="2.82526" fill="#FCFCFC"/>
<ellipse cx="339.476" cy="102.632" rx="2.81179" ry="2.82526" fill="#FCFCFC"/>
<ellipse cx="339.476" cy="102.632" rx="2.81179" ry="2.82526" fill="#FCFCFC"/>
<ellipse cx="339.476" cy="102.632" rx="2.81179" ry="2.82526" fill="#FCFCFC"/>
<path d="M342.686 96.5774L328.226 90.5233V96.5774L322.2 92.5413L320.192 96.5774L315.372 92.5413L312.158 96.5774L301.714 90.5233L297.296 96.5774L291.672 90.5233L280.023 105.053" stroke="black" stroke-width="3"/>
<path d="M280.427 105.457L271.188 100.21L268.376 105.457L263.556 103.439L259.539 96.1738" stroke="black" stroke-width="3"/>
<path d="M332.598 143.914C330.92 143.304 329.743 142.82 328.906 142.292C328.107 141.787 327.675 141.277 327.433 140.617C327.173 139.909 327.092 138.922 327.225 137.39C327.356 135.88 327.682 133.952 328.155 131.401C330.314 125.134 334.299 122.154 338.574 120.112C340.134 119.368 341.701 118.762 343.254 118.16C343.878 117.919 344.499 117.679 345.117 117.43C347.041 116.658 348.913 115.815 350.488 114.663C353.346 115.811 354.839 117.399 355.248 119.135C355.685 120.989 354.983 123.417 352.541 126.309C351.006 128.126 349.505 130.038 348.046 131.895C347.68 132.362 347.317 132.825 346.956 133.282C345.148 135.573 343.408 137.724 341.707 139.512C339.999 141.308 338.385 142.679 336.844 143.461C335.329 144.231 333.945 144.404 332.598 143.914Z" stroke="black" stroke-width="2"/>
<path d="M335.23 121.64L343.304 128.524" stroke="black"/>
</svg>
