<svg width="113" height="71" viewBox="0 0 113 71" fill="none" xmlns="http://www.w3.org/2000/svg">
<path d="M43.4414 56.5602V51.8576L35.886 50.8408L36.6767 56.5602L37.9945 57.7677L39.8394 66.0926H42.475L43.4414 65.33L42.475 58.0219L43.4414 56.5602Z" fill="#E5C080"/>
<path fill-rule="evenodd" clip-rule="evenodd" d="M34.9416 50.2031L35.7905 56.7783L37.049 58.013L38.8523 66.7259H42.1534L43.4414 65.6376L42.5176 58.1569L43.4177 56.699V51.4245L34.9416 50.2031ZM42.1662 52.2302V56.4792L41.2386 57.9813L42.1425 65.3005L41.6028 65.7565H39.9192L38.2332 57.6104L36.9994 56.3999L36.3529 51.3925L42.1662 52.2302Z" fill="black"/>
<path fill-rule="evenodd" clip-rule="evenodd" d="M9.43925 51.6635L11.1013 58.4203L12.1922 59.2899V66.6627L13.1775 67.2237H16.1333L16.9037 59.7177L17.8075 57.8839V52.8009H16.5827V57.699L15.6977 59.4947L15.0046 66.2473H13.57L13.417 66.1602V58.8855L12.2314 57.9404L10.6412 51.4756L9.43925 51.6635ZM32.1055 53.1554L30.9041 52.965L28.2441 63.6313L27.2704 64.8215H26.2632V62.8347L27.8501 57.0427L26.2632 55.1786V53.7731L25.0414 53.7246L24.3295 59.4002L23.6672 59.9941L23.2569 66.8627L22.7942 67.5593L21.6017 67.4072L20.9784 65.2541V60.065L19.9927 58.6245L19.5949 53.7415L18.3727 53.8048L18.7879 58.9028L19.7536 60.314V65.3653L20.5937 68.2675L23.4665 68.6339L24.4673 67.1269L24.8701 60.385L25.5087 59.8123L25.9221 56.5168L26.5412 57.244L25.0384 62.7293V65.7979H27.9339L29.3993 64.0067L32.1055 53.1554Z" fill="black"/>
<path d="M32.1055 53.5433L29.3902 63.8856L28.1561 65.3186H26.1813V62.8888L27.7447 57.4684L26.1813 55.7239V54.2287L25.4408 59.8359L24.7826 60.3967L24.3712 66.9385L23.6307 67.9976L21.5737 67.7484L20.8332 65.3186V60.3967L19.8458 59.026L19.4344 54.2287L17.6243 53.2941V58.0915L16.7192 59.8359L15.9787 66.6893H13.7571L13.1812 66.3778V59.3375L12.0293 58.4653L10.3837 52.1104L32.1055 53.5433Z" fill="#E5C080"/>
<path fill-rule="evenodd" clip-rule="evenodd" d="M9.43925 51.4756L11.2349 58.6806L12.312 59.5281V66.7129L13.2849 67.2597H16.2034L16.9641 59.945L17.8565 58.1579V54.1046L18.4336 54.4142L18.8245 59.1508L19.778 60.526V65.4486L20.6075 68.2768L23.444 68.6339L24.4322 67.1653L24.8299 60.5952L25.4604 60.0371L25.8686 56.8256L26.4799 57.5343L24.9961 62.8798V65.8701H27.855L29.3019 64.1246L32.1055 53.0292L9.43925 51.4756ZM26.2055 55.5215V54.1519L24.9991 54.1045L24.2961 59.6355L23.6422 60.2143L23.237 66.9078L22.7802 67.5867L21.6028 67.4385L20.9873 65.3402V60.2834L20.0141 58.8796L19.6022 53.8895L17.9732 53.0156L30.6562 53.885L28.1613 63.7588L27.1999 64.9186H26.2055V62.9825L27.7722 57.3381L26.2055 55.5215ZM16.6471 52.9247V57.9777L15.7733 59.7276L15.089 66.3082H13.6725L13.5214 66.2233V59.1339L12.3507 58.2129L10.9352 52.5332L16.6471 52.9247Z" fill="black"/>
<path fill-rule="evenodd" clip-rule="evenodd" d="M35.886 52.218L36.5079 56.9155L37.7195 58.0428L39.3109 66.7267H42.2291L43.4414 65.7952L42.5972 58.2061L43.4171 57.1837V52.1642H42.2713V56.8864L41.418 57.9506L42.2471 65.4041L41.7861 65.7582H40.2929L38.7991 57.607L37.6054 56.4963L37.0247 52.1104L35.886 52.218Z" fill="black"/>
<path d="M46.1508 32.6335L40.364 35.1294C40.364 35.1294 37.542 34.0948 35.622 33.7214C34.7531 33.5525 33.3715 33.3833 33.3715 33.3833L28.3884 32.9353L21.7978 33.0815V30.0736L22.5212 30.5216V25.9777H23.1641L23.6464 22.0739L24.2894 16.3781L22.5212 10.8104L25.3342 7.2265L25.8968 4.15462L24.852 0.890755L23.6464 2.1707L22.5212 4.50661L21.3959 6.84252H19.3866L17.8595 4.41061L17.4576 5.94655L15.6894 4.15462L15.3679 4.98659L12.5549 4.15462L13.0371 5.49857L11.1082 4.98659V5.49857H8.53624L7.41101 0.634766L4.43721 3.89863L7.41101 7.86647L4.43721 10.8104H6.12504C4.34708 13.1166 2.82975 14.2022 3.63348 15.2902C4.43721 16.3781 6.12504 17.5301 6.12504 17.5301V19.706C6.12504 19.706 6.12505 19.898 5.4599 23.8658C4.79475 27.8337 -0.626291 37.5613 1.38304 41.4651C3.39236 45.369 3.15124 44.281 4.67833 46.4569C6.20542 48.6328 6.33355 49.1893 8.07322 50.6167L11.2689 52.2807L11.9923 52.5367L12.8965 52.6807L14.524 53.0807L19.2259 52.7287L19.0505 53.6886C23.0034 54.2646 25.2538 54.0726 29.0971 53.1766L29.2725 53.6886L31.3622 52.7287L31.8444 53.1766L33.3715 52.1527L33.8538 53.1766L35.622 52.1527V52.7287L36.5864 52.1527L37.149 52.7287L38.5958 52.1527L39.3191 52.7287L41.007 52.1527L41.4892 52.7287L42.6144 52.1527L43.0967 52.7287L43.82 52.1527L44.6237 52.7287C45.8323 52.2128 46.3253 51.6158 46.6331 49.5928C46.5082 50.2212 46.6429 49.6047 46.8742 47.1609C47.1055 44.717 46.9703 45.831 46.8742 44.281C46.7781 42.731 46.26 41.9036 45.1864 40.4412H47.5975L46.6331 39.0972L48.1602 38.7772L46.8742 37.5613L47.5975 36.7293L46.8742 36.0893L48.1602 35.1294L45.6686 34.4894L46.1508 32.6335Z" fill="#FFEBC8"/>
<path fill-rule="evenodd" clip-rule="evenodd" d="M7.29503 0L3.32384 4.4194L6.23761 8.36142L2.79322 11.8188H4.61057C4.38888 12.0902 4.17495 12.3436 3.97272 12.5828L3.9515 12.608C3.59058 13.035 3.25787 13.4286 3.00237 13.7883C2.48612 14.515 2.16487 15.2702 2.73258 16.0494C3.16532 16.6433 3.81892 17.2352 4.34249 17.6661C4.60805 17.8846 4.84788 18.0679 5.02168 18.1969C5.04986 18.2178 5.07632 18.2373 5.10091 18.2553V20.193C5.09985 20.203 5.09777 20.2211 5.09385 20.2517C5.08417 20.3273 5.06421 20.4716 5.0235 20.7417C4.94214 21.2814 4.77895 22.3164 4.45195 24.2942C4.2955 25.2405 3.85366 26.5537 3.29089 28.0854C3.11422 28.5662 2.92601 29.0676 2.73267 29.5827C2.31663 30.6911 1.8768 31.8628 1.477 33.0292C0.890675 34.7397 0.37982 36.4678 0.142262 38.0218C-0.0930855 39.5614 -0.0725127 41.0001 0.481457 42.0914C1.81187 44.7123 2.18467 45.1503 2.71515 45.7735C2.97766 46.0819 3.27878 46.4357 3.75367 47.1218C4.0942 47.6138 4.36546 48.0262 4.60338 48.3879C5.39324 49.5889 5.81568 50.2312 7.18515 51.3705L7.23121 51.4088L10.4698 53.1187L11.2855 53.4114L12.2097 53.5606L13.8947 53.9805L17.8832 53.6777L17.7371 54.4887L18.3018 54.5721C20.2784 54.8641 21.8563 54.9654 23.4327 54.8739C24.8423 54.7921 26.2292 54.5573 27.8745 54.185L28.0914 54.8272L30.3875 53.7577L30.9243 54.2633L32.2328 53.3737L32.6858 54.3491L34.1122 53.5115V54.1033L35.5454 53.2355L36.0392 53.7481L37.5149 53.1524L38.2079 53.712L39.7832 53.1669L40.3076 53.8019L41.4143 53.2275L41.9667 53.8965L42.7922 53.2299L43.4738 53.7251L43.8425 53.5656C44.5027 53.2799 45.0265 52.9435 45.4068 52.3682C45.7689 51.8205 45.9754 51.0927 46.1285 50.0724L46.1084 50.0701C46.1111 50.0479 46.114 50.0239 46.1172 49.9979C46.1638 49.615 46.2542 48.8483 46.3683 47.6254C46.4802 46.4269 46.5094 46.0516 46.4897 45.7897C46.4829 45.6998 46.4686 45.6122 46.4546 45.5259C46.4487 45.49 46.4429 45.4544 46.4377 45.4188C46.4174 45.2803 46.3924 45.071 46.3693 44.6936C46.2852 43.3186 45.8821 42.4607 45.1396 41.3687H47.512L46.4394 39.8531L48.101 39.5001L46.5232 37.9874L47.2436 37.1472L46.6075 36.5765L48.1836 35.3835L45.2802 34.6273L45.9057 32.1863L39.3472 35.0545C39.2887 35.0335 39.2218 35.0097 39.1474 34.9833C38.8539 34.8794 38.4427 34.737 37.9715 34.5827C37.0367 34.2766 35.8374 33.9144 34.8489 33.7195C34.4016 33.6313 33.8322 33.5448 33.3833 33.4813C33.157 33.4492 32.9579 33.4225 32.8153 33.4038C32.7439 33.3945 32.6866 33.3871 32.647 33.3821L32.6012 33.3763L32.5891 33.3748L32.5851 33.3743C32.5851 33.3743 32.5847 33.3742 32.4942 33.8494L32.5851 33.3743L32.5729 33.3727L27.6184 32.9211L21.7065 33.054V31.5316L22.4179 31.9783V26.9447H22.9946L23.5218 22.6179L23.5222 22.6139L24.1637 16.8521L22.462 11.419L25.1604 7.93318L25.7489 4.6748L24.3847 0.35384L22.403 2.48719L20.3065 6.90029H19.1076L17.0041 3.50371L16.5203 5.37847L14.8687 3.68132L14.4034 4.90228L11.1245 3.91901L11.612 5.29647L10.002 4.86318V5.56001H8.56361L7.29503 0ZM11.1929 6.19716L13.3773 6.78503L12.9161 5.48194L15.1708 6.15806L15.3378 5.71963L17.1644 7.59655L17.4711 6.40782L18.3716 7.86176H21.1251L23.4554 2.95676L23.8451 2.5372L24.5362 4.72615L24.0181 7.59474L21.183 11.2571L22.9595 16.9291L22.3366 22.5238L22.3361 22.5278L21.9151 25.9833H21.2271V30.0125L20.5156 29.5657V34.0426L27.5679 33.8841L32.4152 34.326L32.4181 34.3263L32.4615 34.3318C32.4806 34.3342 32.504 34.3372 32.5313 34.3408C32.5586 34.3443 32.5898 34.3483 32.6245 34.3529C32.7633 34.3711 32.9573 34.3971 33.1776 34.4283C33.6217 34.4912 34.1591 34.5733 34.5663 34.6536C35.4662 34.831 36.5989 35.1708 37.5239 35.4737C37.9827 35.6239 38.3834 35.7627 38.6693 35.8639C38.8121 35.9145 38.9261 35.9556 39.0041 35.9839C39.043 35.9981 39.073 36.0091 39.093 36.0164L39.1155 36.0247L39.1223 36.0272L39.3931 36.1279L44.2205 34.0168L43.8975 35.2775L45.8951 35.7978L44.9417 36.5194L45.7284 37.2252L45.0259 38.0444L45.9777 38.957L44.6354 39.2422L45.46 40.4072H43.0768L43.6005 41.1305C44.6415 42.5684 45.0925 43.3123 45.1799 44.741C45.204 45.1364 45.2311 45.3679 45.2551 45.532C45.2655 45.6025 45.2737 45.652 45.2802 45.6915C45.2905 45.7538 45.2967 45.7915 45.301 45.8482C45.3145 46.0266 45.2964 46.3145 45.1808 47.5532C45.0675 48.7675 44.9779 49.5268 44.932 49.9039C44.9272 49.9437 44.9228 49.9799 44.9188 50.012C44.9135 50.0552 44.9091 50.0912 44.9058 50.1191C44.9029 50.1433 44.9005 50.1646 44.8988 50.181C44.898 50.1889 44.897 50.199 44.8963 50.2091C44.896 50.2139 44.8954 50.2224 44.8952 50.2324C44.8952 50.233 44.8946 50.2471 44.8961 50.2679C44.7551 51.0776 44.5818 51.5743 44.3562 51.9155C44.1793 52.1831 43.9583 52.3731 43.6343 52.5482L42.7491 51.905L42.1518 52.3873L41.7555 51.9074L40.6488 52.4818L40.2246 51.9681L38.4799 52.5718L37.75 51.9825L36.3799 52.5356L35.767 51.8994L35.303 52.1804V51.6234L33.2512 52.8282L32.7557 51.7612L31.0602 52.9139L30.6485 52.5261L28.834 53.3713L28.705 52.9897L28.1229 53.1273C26.25 53.57 24.798 53.8307 23.3473 53.9149C22.0461 53.9904 20.7242 53.9251 19.0815 53.7059L19.2797 52.606L14.0194 53.0053L12.5029 52.6274L11.6485 52.4895L11.0412 52.2716L7.99403 50.6628C6.78615 49.6521 6.44299 49.131 5.6891 47.986C5.44695 47.6183 5.16241 47.1861 4.79323 46.6527C4.25154 45.8701 3.93533 45.5018 3.67272 45.1959C3.17453 44.6156 2.86927 44.26 1.58337 41.7268C1.14922 40.8715 1.09517 39.6376 1.32416 38.1396C1.55094 36.6561 2.04337 34.9816 2.62473 33.2856C3.02071 32.1304 3.45304 30.9787 3.86692 29.8761C4.06144 29.3579 4.25189 28.8506 4.43258 28.3588C4.99175 26.837 5.4617 25.4537 5.63235 24.4215C5.95955 22.4423 6.12345 21.4031 6.20564 20.8578C6.24671 20.5854 6.26764 20.4345 6.2784 20.3506C6.28377 20.3087 6.28684 20.2817 6.28863 20.2635C6.28953 20.2543 6.29023 20.2462 6.29074 20.2386C6.291 20.2348 6.29125 20.2306 6.29143 20.2261L6.29167 20.2186L6.29175 20.2142L6.29177 20.2119L6.29178 20.2107C6.29178 20.21 6.29178 20.2094 5.69635 20.2094H6.29178V17.8183L6.08398 17.6745L6.08347 17.6741L6.08073 17.6722L6.06841 17.6636C6.05724 17.6558 6.04025 17.6438 6.01806 17.6279C5.97366 17.5962 5.90852 17.5491 5.82755 17.489C5.66538 17.3687 5.44079 17.197 5.19254 16.9927C4.68846 16.5779 4.11679 16.0529 3.75903 15.5619C3.53625 15.2561 3.56592 14.9275 4.03539 14.2666C4.26756 13.9398 4.57806 13.5724 4.95549 13.1258L4.95639 13.1248C5.32961 12.6832 5.75823 12.1756 6.2038 11.5895L6.76053 10.8573H5.27939L7.68468 8.44295L4.74876 4.47097L6.62725 2.38046L7.57207 6.52149H11.1929V6.19716ZM45.0214 49.9476C45.0519 49.9156 45.1561 49.8154 45.3463 49.7769C45.4412 49.7642 45.6354 49.7769 45.7293 49.8027C45.8032 49.8339 45.9165 49.907 45.9574 49.9445C46 49.9879 46.0266 50.0307 46.0427 50.0627L45.0214 49.9476Z" fill="black"/>
<path d="M3.77521 16.0264C4.188 16.6519 3.89683 16.1611 4.0417 16.3452C4.18657 16.5292 4.188 16.5229 4.90756 16.5229C5.56933 16.5229 5.81828 15.9014 5.56934 15.5438C5.01881 15.0674 4.70341 15.3176 4.17492 15.3176C3.64193 15.5437 3.90842 15.2342 3.77521 16.0264Z" fill="black"/>
<path fill-rule="evenodd" clip-rule="evenodd" d="M4.93983 16.5224C5.57737 16.5026 5.81419 15.8955 5.56934 15.5438C5.16727 15.1959 4.89062 15.2355 4.56478 15.2822C4.44446 15.2994 4.31744 15.3176 4.17492 15.3176C3.94193 15.4165 3.86172 15.413 3.8341 15.4439C3.83378 15.4442 3.83346 15.4446 3.83315 15.445C3.82321 15.4569 3.82056 15.474 3.81986 15.5034C3.81818 15.5738 3.82758 15.715 3.77521 16.0264C4.02784 16.4092 4.0168 16.3739 4.00342 16.3311C3.99493 16.304 3.98549 16.2738 4.0417 16.3452C4.18175 16.5231 4.18775 16.5231 4.83813 16.5229C4.8605 16.5229 4.88363 16.5229 4.90756 16.5229C4.91001 16.5229 4.91245 16.5229 4.91489 16.5229C4.92327 16.5228 4.93158 16.5227 4.93983 16.5224Z" fill="black"/>
<path d="M8.53023 16.3051C8.53023 16.3051 6.49143 17.5987 4.83231 16.8155C3.99454 16.42 5.67009 17.2953 6.086 18.2984C6.23715 18.663 6.38846 18.8177 6.89952 18.9143C7.28096 18.9216 8.36874 17.9579 8.53024 17.7724C9.01266 17.1345 8.53024 15.6034 8.53023 16.3051Z" fill="#FFBDBD" fill-opacity="0.9"/>
<path d="M10.3872 12.3927C10.3872 12.9191 12.3106 13.3459 13.3064 13.3459C14.3021 13.3459 15.1094 12.9191 15.1094 12.3927C15.1094 11.8662 14.3021 11.4395 13.3064 11.4395C12.3106 11.4395 10.3872 11.8662 10.3872 12.3927Z" fill="black"/>
<path d="M4.56329 12.4304C3.9507 13.1171 3.16166 13.3459 4.56329 13.3459C5.96492 13.3459 6.83115 13.1179 7.18496 12.4304C7.88141 11.8972 7.62766 11.4395 6.22603 11.4395C4.82441 11.4395 4.56329 11.672 4.56329 12.4304Z" fill="black"/>
<path d="M13.2205 12.3927C13.2205 12.9191 13.6434 13.3459 14.1649 13.3459C14.6865 13.3459 15.1094 12.9191 15.1094 12.3927C15.1094 11.8662 14.6865 11.4395 14.1649 11.4395C13.6434 11.4395 13.2205 11.8662 13.2205 12.3927Z" fill="#FCFCFC"/>
<path d="M13.2205 12.3927C13.2205 12.9191 13.6434 13.3459 14.1649 13.3459C14.6865 13.3459 15.1094 12.9191 15.1094 12.3927C15.1094 11.8662 14.6865 11.4395 14.1649 11.4395C13.6434 11.4395 13.2205 11.8662 13.2205 12.3927Z" fill="#FCFCFC"/>
<path d="M13.2205 12.3927C13.2205 12.9191 13.6434 13.3459 14.1649 13.3459C14.6865 13.3459 15.1094 12.9191 15.1094 12.3927C15.1094 11.8662 14.6865 11.4395 14.1649 11.4395C13.6434 11.4395 13.2205 11.8662 13.2205 12.3927Z" fill="#FCFCFC"/>
<path d="M13.2205 12.3927C13.2205 12.9191 13.6434 13.3459 14.1649 13.3459C14.6865 13.3459 15.1094 12.9191 15.1094 12.3927C15.1094 11.8662 14.6865 11.4395 14.1649 11.4395C13.6434 11.4395 13.2205 11.8662 13.2205 12.3927Z" fill="#FCFCFC"/>
<path d="M5.66886 12.0749C5.66886 12.4259 5.88027 12.7104 6.14107 12.7104C6.40186 12.7104 6.61328 12.4259 6.61328 12.0749C6.61328 11.724 6.40186 11.4395 6.14107 11.4395C5.88027 11.4395 5.66886 11.724 5.66886 12.0749Z" fill="#FCFCFC"/>
<path d="M5.66886 12.0749C5.66886 12.4259 5.88027 12.7104 6.14107 12.7104C6.40186 12.7104 6.61328 12.4259 6.61328 12.0749C6.61328 11.724 6.40186 11.4395 6.14107 11.4395C5.88027 11.4395 5.66886 11.724 5.66886 12.0749Z" fill="#FCFCFC"/>
<path d="M5.66886 12.0749C5.66886 12.4259 5.88027 12.7104 6.14107 12.7104C6.40186 12.7104 6.61328 12.4259 6.61328 12.0749C6.61328 11.724 6.40186 11.4395 6.14107 11.4395C5.88027 11.4395 5.66886 11.724 5.66886 12.0749Z" fill="#FCFCFC"/>
<path d="M5.66886 12.0749C5.66886 12.4259 5.88027 12.7104 6.14107 12.7104C6.40186 12.7104 6.61328 12.4259 6.61328 12.0749C6.61328 11.724 6.40186 11.4395 6.14107 11.4395C5.88027 11.4395 5.66886 11.724 5.66886 12.0749Z" fill="#FCFCFC"/>
<path fill-rule="evenodd" clip-rule="evenodd" d="M16.1224 9.53223L15.0213 10.4269L14.2497 9.629L12.1438 10.5503L11.4409 9.88407L10.5905 10.4215L10.2243 9.86616L9.39065 10.2876V9.54373L5.66476 10.721L6.12973 11.5673L8.18172 10.9189V12.0007L9.75548 11.205L10.1918 11.8668L11.2674 11.1871L11.8485 11.738L13.9155 10.8336L14.9094 11.8614L16.0552 10.9304L17.9453 12.7097L18.8867 12.1346L16.1224 9.53223Z" fill="black"/>
<path fill-rule="evenodd" clip-rule="evenodd" d="M21.004 11.9045L21.6658 10.8022L22.6641 11.3155L21.8096 12.7388L20.2395 13.3442L19.74 12.4858L18.5039 13.1324L17.9419 12.2124L20.1929 11.035L20.7548 12.0006L21.004 11.9045Z" fill="black"/>
<path fill-rule="evenodd" clip-rule="evenodd" d="M7.90642 17.9546C7.80099 18.0071 7.62308 18.0685 7.28361 18.166C7.21066 18.187 7.11022 18.196 6.91443 18.1175C6.69763 18.0306 6.43111 17.8601 6.10653 17.5906C5.78757 17.3258 5.45477 17.0016 5.09302 16.6395C5.02275 16.5692 4.95131 16.4973 4.87886 16.4245C4.58631 16.1302 4.27731 15.8194 3.96236 15.5249C3.52878 15.1195 3.52609 14.8911 3.54887 14.8147C3.56299 14.7674 3.62304 14.6621 3.86608 14.5478C4.16252 14.6851 4.47338 14.7908 4.76032 14.8818C4.89962 14.926 5.03273 14.9667 5.16203 15.0062C5.46358 15.0983 5.7444 15.1841 6.0346 15.2935C6.78576 15.5768 7.4265 15.959 7.79125 16.7666C7.88149 17.1525 7.93839 17.4245 7.96094 17.6301C7.98257 17.8271 7.96436 17.9041 7.95659 17.926C7.94933 17.9311 7.93413 17.9408 7.90642 17.9546ZM8.57368 16.6012C8.95759 18.2339 8.89707 18.3838 7.55849 18.7684C6.48716 19.0763 5.41031 17.9933 4.24076 16.817C3.94899 16.5236 3.65145 16.2244 3.34678 15.9395C2.3333 14.9917 2.60514 14.2018 3.94373 13.8171C4.33914 14.068 4.86353 14.2283 5.42347 14.3994C6.61047 14.7621 7.95722 15.1736 8.57368 16.6012Z" fill="black"/>
<path fill-rule="evenodd" clip-rule="evenodd" d="M5.47885 16.3081L7.09451 15.22L6.83331 14.9757L5.21764 16.0638L5.47885 16.3081Z" fill="black"/>
<path d="M72.793 57.7419V53.0392L65.2376 52.0225L66.0282 57.7419L67.346 58.9493L69.191 67.2743H71.8266L72.793 66.5117L71.8266 59.2035L72.793 57.7419Z" fill="#E5C080"/>
<path fill-rule="evenodd" clip-rule="evenodd" d="M64.2931 51.3848L65.142 57.9599L66.4006 59.1946L68.2039 67.9076H71.5049L72.793 66.8192L71.8691 59.3385L72.7693 57.8807V52.6062L64.2931 51.3848ZM71.5177 53.4119V57.6608L70.5902 59.163L71.4941 66.4822L70.9544 66.9382H69.2708L67.5848 58.792L66.351 57.5816L65.7045 52.5742L71.5177 53.4119Z" fill="black"/>
<path fill-rule="evenodd" clip-rule="evenodd" d="M38.7908 52.8451L40.4528 59.602L41.5437 60.4716V67.8444L42.529 68.4054H45.4849L46.2553 60.8994L47.1591 59.0656V53.9826H45.9342V58.8807L45.0493 60.6763L44.3562 67.429H42.9216L42.7686 67.3419V60.0671L41.583 59.122L39.9928 52.6572L38.7908 52.8451ZM61.457 54.337L60.2557 54.1467L57.5957 64.813L56.622 66.0031H55.6148V64.0163L57.2016 58.2243L55.6148 56.3603V54.9548L54.393 54.9062L53.681 60.5818L53.0188 61.1757L52.6084 68.0443L52.1458 68.741L50.9533 68.5889L50.33 66.4357V61.2467L49.3443 59.8061L48.9465 54.9231L47.7242 54.9864L48.1395 60.0845L49.1051 61.4956V66.5469L49.9453 69.4491L52.8181 69.8155L53.8189 68.3085L54.2216 61.5666L54.8603 60.9939L55.2737 57.6984L55.8928 58.4256L54.39 63.911V66.9795H57.2855L58.7509 65.1883L61.457 54.337Z" fill="black"/>
<path d="M61.457 54.725L58.7418 65.0673L57.5076 66.5003H55.5329V64.0704L57.0962 58.6501L55.5329 56.9056V55.4103L54.7924 61.0176L54.1342 61.5783L53.7228 68.1201L52.9822 69.1793L50.9253 68.9301L50.1847 66.5003V61.5783L49.1974 60.2076L48.786 55.4103L46.9758 54.4758V59.2731L46.0708 61.0176L45.3302 67.8709H43.1087L42.5327 67.5594V60.5192L41.3808 59.6469L39.7352 53.292L61.457 54.725Z" fill="#E5C080"/>
<path fill-rule="evenodd" clip-rule="evenodd" d="M38.7908 52.6572L40.5865 59.8623L41.6636 60.7097V67.8946L42.6365 68.4413H45.555L46.3157 61.1266L47.208 59.3395V55.2863L47.7852 55.5959L48.1761 60.3325L49.1295 61.7077V66.6302L49.9591 69.4584L52.7956 69.8155L53.7838 68.3469L54.1814 61.7768L54.812 61.2187L55.2202 58.0072L55.8315 58.7159L54.3476 64.0614V67.0518H57.2066L58.6535 65.3062L61.457 54.2109L38.7908 52.6572ZM55.557 56.7032V55.3335L54.3506 55.2862L53.6476 60.8171L52.9937 61.3959L52.5886 68.0895L52.1318 68.7683L50.9544 68.6201L50.3389 66.5219V61.4651L49.3656 60.0612L48.9538 55.0711L47.3248 54.1973L60.0078 55.0666L57.5129 64.9404L56.5515 66.1003H55.557V64.1641L57.1238 58.5197L55.557 56.7032ZM45.9986 54.1064V59.1593L45.1249 60.9092L44.4405 67.4898H43.024L42.873 67.4049V60.3156L41.7023 59.3945L40.2868 53.7149L45.9986 54.1064Z" fill="black"/>
<path fill-rule="evenodd" clip-rule="evenodd" d="M65.2376 53.3997L65.8595 58.0972L67.071 59.2244L68.6625 67.9083H71.5806L72.793 66.9768L71.9488 59.3878L72.7687 58.3653V53.3458H71.6229V58.068L70.7695 59.1322L71.5986 66.5857L71.1377 66.9399H69.6445L68.1506 58.7887L66.9569 57.678L66.3763 53.292L65.2376 53.3997Z" fill="black"/>
<path d="M75.5063 33.8151L69.7194 36.311C69.7194 36.311 66.8974 35.2764 64.9774 34.9031C64.1086 34.7341 62.727 34.565 62.727 34.565L57.7439 34.117L51.1533 34.2631V31.2552L51.8766 31.7032V27.1594H52.5196L53.0018 23.2555L53.6448 17.5598L51.8766 11.992L54.6897 8.40814L55.2523 5.33626L54.2074 2.0724L53.0018 3.35234L51.8766 5.68825L50.7514 8.02416H48.7421L47.215 5.59225L46.8131 7.12819L45.0449 5.33626L44.7234 6.16823L41.9104 5.33626L42.3926 6.68021L40.4636 6.16823V6.68021H37.8917L36.7665 1.81641L33.7927 5.08027L36.7665 9.04811L33.7927 11.992H35.4805C33.7025 14.2983 32.1852 15.3839 32.9889 16.4718C33.7927 17.5598 35.4805 18.7117 35.4805 18.7117V20.8876C35.4805 20.8876 35.4805 21.0796 34.8154 25.0475C34.1502 29.0153 28.7292 38.7429 30.7385 42.6468C32.7478 46.5506 32.5067 45.4626 34.0338 47.6386C35.5609 49.8145 35.689 50.371 37.4287 51.7984L40.6244 53.4623L41.3477 53.7183L42.2519 53.8623L43.8795 54.2623L48.5813 53.9103L48.406 54.8703C52.3589 55.4462 54.6093 55.2543 58.4526 54.3583L58.628 54.8703L60.7177 53.9103L61.1999 54.3583L62.727 53.3343L63.2092 54.3583L64.9774 53.3343V53.9103L65.9419 53.3343L66.5045 53.9103L67.9512 53.3343L68.6746 53.9103L70.3624 53.3343L70.8447 53.9103L71.9699 53.3343L72.4521 53.9103L73.1755 53.3343L73.9792 53.9103C75.1878 53.3945 75.6807 52.7974 75.9885 50.7744C75.8637 51.4029 75.9984 50.7864 76.2297 48.3425C76.461 45.8987 76.3258 47.0126 76.2297 45.4626C76.1335 43.9127 75.6154 43.0852 74.5418 41.6228H76.953L75.9885 40.2789L77.5156 39.9589L76.2297 38.7429L76.953 37.911L76.2297 37.271L77.5156 36.311L75.0241 35.671L75.5063 33.8151Z" fill="#FFEBC8"/>
<path fill-rule="evenodd" clip-rule="evenodd" d="M36.6466 1.18164L32.6754 5.60104L35.5892 9.54306L32.1448 13.0004H33.9621C33.7404 13.2719 33.5265 13.5252 33.3243 13.7645L33.3031 13.7896C32.9421 14.2166 32.6094 14.6102 32.3539 14.9699C31.8377 15.6966 31.5164 16.4518 32.0841 17.231C32.5169 17.825 33.1705 18.4169 33.694 18.8477C33.9596 19.0662 34.1994 19.2496 34.3732 19.3785C34.4014 19.3994 34.4279 19.4189 34.4525 19.437V21.3747C34.4514 21.3846 34.4493 21.4028 34.4454 21.4333C34.4357 21.5089 34.4158 21.6532 34.3751 21.9233C34.2937 22.463 34.1305 23.498 33.8035 25.4759C33.6471 26.4222 33.2052 27.7354 32.6424 29.267C32.4658 29.7479 32.2776 30.2493 32.0842 30.7644C31.6682 31.8727 31.2284 33.0445 30.8286 34.2108C30.2422 35.9213 29.7314 37.6494 29.4938 39.2035C29.2585 40.7431 29.279 42.1817 29.833 43.273C31.1634 45.8939 31.5362 46.3319 32.0667 46.9551C32.3292 47.2635 32.6303 47.6173 33.1052 48.3034C33.4458 48.7954 33.717 49.2078 33.9549 49.5696C34.7448 50.7705 35.1672 51.4128 36.5367 52.5522L36.5828 52.5905L39.8214 54.3003L40.637 54.593L41.5613 54.7422L43.2463 55.1621L47.2348 54.8594L47.0887 55.6703L47.6534 55.7537C49.63 56.0458 51.2079 56.147 52.7843 56.0555C54.1938 55.9737 55.5807 55.7389 57.226 55.3666L57.4429 56.0088L59.739 54.9393L60.2759 55.445L61.5843 54.5554L62.0373 55.5307L63.4637 54.6932V55.285L64.897 54.4171L65.3908 54.9297L66.8664 54.3341L67.5595 54.8936L69.1348 54.3485L69.6592 54.9836L70.7659 54.4092L71.3182 55.0781L72.1438 54.4116L72.8253 54.9068L73.194 54.7472C73.8542 54.4615 74.3781 54.1251 74.7584 53.5499C75.1205 53.0021 75.327 52.2744 75.4801 51.254L75.46 51.2518C75.4627 51.2296 75.4656 51.2055 75.4688 51.1795C75.5153 50.7966 75.6057 50.0299 75.7199 48.8071C75.8318 47.6085 75.861 47.2333 75.8412 46.9714C75.8344 46.8814 75.8202 46.7938 75.8061 46.7076C75.8003 46.6717 75.7945 46.636 75.7893 46.6005C75.769 46.4619 75.7439 46.2527 75.7208 45.8752C75.6367 44.5002 75.2336 43.6424 74.4911 42.5503H76.8636L75.791 41.0347L77.4526 40.6817L75.8748 39.169L76.5952 38.3289L75.959 37.7582L77.5352 36.5652L74.6317 35.809L75.2573 33.368L68.6988 36.2362C68.6403 36.2152 68.5734 36.1913 68.499 36.165C68.2054 36.0611 67.7943 35.9186 67.323 35.7644C66.3883 35.4583 65.1889 35.0961 64.2004 34.9012C63.7532 34.813 63.1838 34.7265 62.7349 34.6629C62.5086 34.6309 62.3095 34.6042 62.1669 34.5855C62.0955 34.5761 62.0382 34.5688 61.9986 34.5637L61.9528 34.5579L61.9407 34.5564L61.9366 34.5559C61.9366 34.5559 61.9363 34.5559 61.8458 35.031L61.9366 34.5559L61.9244 34.5544L56.9699 34.1028L51.058 34.2356V32.7132L51.7695 33.16V28.1264H52.3462L52.8733 23.7995L52.8738 23.7955L53.5153 18.0337L51.8136 12.6006L54.512 9.11483L55.1005 5.85645L53.7363 1.53548L51.7546 3.66883L49.658 8.08193H48.4591L46.3556 4.68535L45.8719 6.56011L44.2202 4.86296L43.7549 6.08392L40.4761 5.10065L40.9635 6.47811L39.3536 6.04482V6.74165H37.9152L36.6466 1.18164ZM40.5444 7.3788L42.7288 7.96668L42.2677 6.66358L44.5223 7.3397L44.6894 6.90127L46.516 8.77819L46.8227 7.58946L47.7231 9.0434H50.4767L52.8069 4.1384L53.1967 3.71884L53.8878 5.90779L53.3696 8.77638L50.5345 12.4388L52.311 18.1107L51.6882 23.7054L51.6877 23.7094L51.2667 27.1649H50.5786V31.1941L49.8672 30.7474V35.2243L56.9194 35.0657L61.7668 35.5076L61.7697 35.508L61.8131 35.5135C61.8321 35.5159 61.8556 35.5189 61.8829 35.5224C61.9102 35.5259 61.9414 35.53 61.976 35.5345C62.1149 35.5527 62.3089 35.5787 62.5292 35.6099C62.9733 35.6728 63.5106 35.7549 63.9179 35.8352C64.8178 36.0126 65.9504 36.3525 66.8755 36.6553C67.3342 36.8055 67.735 36.9443 68.0208 37.0455C68.1637 37.0961 68.2777 37.1372 68.3556 37.1655C68.3946 37.1797 68.4245 37.1907 68.4446 37.1981L68.4671 37.2064L68.4738 37.2089L68.7447 37.3096L73.5721 35.1984L73.249 36.4591L75.2467 36.9794L74.2932 37.7011L75.0799 38.4068L74.3775 39.2261L75.3293 40.1386L73.987 40.4238L74.8115 41.5888H72.4283L72.952 42.3122C73.9931 43.75 74.444 44.4939 74.5314 45.9226C74.5556 46.318 74.5826 46.5496 74.6067 46.7136C74.6171 46.7842 74.6252 46.8336 74.6318 46.8732C74.642 46.9355 74.6483 46.9732 74.6526 47.0299C74.666 47.2083 74.648 47.4962 74.5324 48.7348C74.419 49.9491 74.3295 50.7084 74.2836 51.0856C74.2788 51.1254 74.2743 51.1615 74.2704 51.1936C74.2651 51.2369 74.2607 51.2728 74.2574 51.3007C74.2545 51.325 74.252 51.3463 74.2503 51.3627C74.2495 51.3705 74.2486 51.3806 74.2479 51.3907C74.2475 51.3956 74.247 51.404 74.2468 51.4141C74.2468 51.4147 74.2462 51.4288 74.2476 51.4495C74.1067 52.2592 73.9334 52.7559 73.7078 53.0971C73.5309 53.3647 73.3098 53.5547 72.9859 53.7299L72.1007 53.0867L71.5033 53.5689L71.1071 53.0891L70.0004 53.6635L69.5762 53.1497L67.8314 53.7534L67.1016 53.1642L65.7314 53.7173L65.1186 53.0811L64.6546 53.362V52.805L62.6028 54.0098L62.1072 52.9429L60.4118 54.0956L60 53.7077L58.1855 54.5529L58.0566 54.1713L57.4745 54.3089C55.6015 54.7516 54.1496 55.0123 52.6989 55.0965C51.3976 55.1721 50.0757 55.1068 48.4331 54.8876L48.6313 53.7877L43.3709 54.187L41.8544 53.8091L41 53.6711L40.3928 53.4532L37.3456 51.8444C36.1377 50.8338 35.7946 50.3126 35.0407 49.1677C34.7985 48.7999 34.514 48.3678 34.1448 47.8344C33.6031 47.0518 33.2869 46.6834 33.0243 46.3775C32.5261 45.7972 32.2208 45.4416 30.9349 42.9084C30.5008 42.0531 30.4467 40.8192 30.6757 39.3212C30.9025 37.8377 31.3949 36.1633 31.9763 34.4673C32.3723 33.3121 32.8046 32.1604 33.2185 31.0578C33.413 30.5396 33.6035 30.0322 33.7841 29.5405C34.3433 28.0186 34.8133 26.6353 34.9839 25.6031C35.3111 23.624 35.475 22.5847 35.5572 22.0395C35.5983 21.767 35.6192 21.6162 35.63 21.5322C35.6353 21.4904 35.6384 21.4633 35.6402 21.4451C35.6411 21.436 35.6418 21.4278 35.6423 21.4203C35.6426 21.4164 35.6428 21.4122 35.643 21.4077L35.6432 21.4002L35.6433 21.3959L35.6433 21.3935L35.6433 21.3923C35.6433 21.3917 35.6433 21.391 35.0479 21.391H35.6433V18.9999L35.4355 18.8561L35.435 18.8558L35.4323 18.8539L35.42 18.8453C35.4088 18.8374 35.3918 18.8254 35.3696 18.8095C35.3252 18.7778 35.2601 18.7307 35.1791 18.6707C35.0169 18.5503 34.7924 18.3786 34.5441 18.1743C34.04 17.7595 33.4684 17.2345 33.1106 16.7435C32.8878 16.4377 32.9175 16.1091 33.3869 15.4483C33.6191 15.1214 33.9296 14.7541 34.3071 14.3075L34.308 14.3064C34.6812 13.8648 35.1098 13.3572 35.5554 12.7712L36.1121 12.0389H34.6309L37.0362 9.62459L34.1003 5.65261L35.9788 3.5621L36.9236 7.70313H40.5444V7.3788ZM74.373 51.1292C74.4034 51.0973 74.5077 50.997 74.6978 50.9585C74.7927 50.9458 74.9869 50.9585 75.0809 50.9844C75.1548 51.0156 75.2681 51.0887 75.3089 51.1261C75.3515 51.1695 75.3781 51.2123 75.3943 51.2443L74.373 51.1292Z" fill="black"/>
<path d="M33.1268 17.2076C33.5396 17.833 33.2484 17.3423 33.3933 17.5263C33.5381 17.7104 33.5396 17.7041 34.2591 17.7041C34.9209 17.7041 35.1698 17.0825 34.9209 16.7249C34.3704 16.2486 34.055 16.4988 33.5265 16.4988C32.9935 16.7249 33.26 16.4154 33.1268 17.2076Z" fill="black"/>
<path fill-rule="evenodd" clip-rule="evenodd" d="M34.2914 17.7036C34.9289 17.6837 35.1658 17.0766 34.9209 16.7249C34.5188 16.377 34.2422 16.4167 33.9163 16.4633C33.796 16.4806 33.669 16.4988 33.5265 16.4988C33.2935 16.5976 33.2133 16.5941 33.1857 16.625C33.1853 16.6254 33.185 16.6257 33.1847 16.6261C33.1748 16.6381 33.1721 16.6551 33.1714 16.6846C33.1697 16.755 33.1791 16.8961 33.1268 17.2076C33.3794 17.5904 33.3684 17.5551 33.355 17.5123C33.3465 17.4851 33.3371 17.4549 33.3933 17.5263C33.5333 17.7043 33.5393 17.7043 34.1897 17.7041C34.2121 17.7041 34.2352 17.7041 34.2591 17.7041C34.2616 17.7041 34.264 17.7041 34.2664 17.704C34.2748 17.704 34.2831 17.7038 34.2914 17.7036Z" fill="black"/>
<path d="M37.8818 17.4863C37.8818 17.4863 35.843 18.7799 34.1839 17.9967C33.3461 17.6012 35.0217 18.4765 35.4376 19.4796C35.5887 19.8442 35.74 19.9989 36.2511 20.0954C36.6325 20.1027 37.7203 19.1391 37.8818 18.9536C38.3642 18.3156 37.8818 16.7846 37.8818 17.4863Z" fill="#FFBDBD" fill-opacity="0.9"/>
<path d="M39.7388 13.5738C39.7388 14.1003 41.6622 14.5271 42.6579 14.5271C43.6537 14.5271 44.4609 14.1003 44.4609 13.5738C44.4609 13.0474 43.6537 12.6206 42.6579 12.6206C41.6622 12.6206 39.7388 13.0474 39.7388 13.5738Z" fill="black"/>
<path d="M33.9149 13.6116C33.3023 14.2982 32.5132 14.5271 33.9149 14.5271C35.3165 14.5271 36.1827 14.2991 36.5365 13.6116C37.233 13.0784 36.9792 12.6206 35.5776 12.6206C34.176 12.6206 33.9149 12.8531 33.9149 13.6116Z" fill="black"/>
<path d="M42.5721 13.5738C42.5721 14.1003 42.9949 14.5271 43.5165 14.5271C44.0381 14.5271 44.4609 14.1003 44.4609 13.5738C44.4609 13.0474 44.0381 12.6206 43.5165 12.6206C42.9949 12.6206 42.5721 13.0474 42.5721 13.5738Z" fill="#FCFCFC"/>
<path d="M42.5721 13.5738C42.5721 14.1003 42.9949 14.5271 43.5165 14.5271C44.0381 14.5271 44.4609 14.1003 44.4609 13.5738C44.4609 13.0474 44.0381 12.6206 43.5165 12.6206C42.9949 12.6206 42.5721 13.0474 42.5721 13.5738Z" fill="#FCFCFC"/>
<path d="M42.5721 13.5738C42.5721 14.1003 42.9949 14.5271 43.5165 14.5271C44.0381 14.5271 44.4609 14.1003 44.4609 13.5738C44.4609 13.0474 44.0381 12.6206 43.5165 12.6206C42.9949 12.6206 42.5721 13.0474 42.5721 13.5738Z" fill="#FCFCFC"/>
<path d="M42.5721 13.5738C42.5721 14.1003 42.9949 14.5271 43.5165 14.5271C44.0381 14.5271 44.4609 14.1003 44.4609 13.5738C44.4609 13.0474 44.0381 12.6206 43.5165 12.6206C42.9949 12.6206 42.5721 13.0474 42.5721 13.5738Z" fill="#FCFCFC"/>
<path d="M35.0204 13.2561C35.0204 13.6071 35.2318 13.8916 35.4926 13.8916C35.7534 13.8916 35.9648 13.6071 35.9648 13.2561C35.9648 12.9051 35.7534 12.6206 35.4926 12.6206C35.2318 12.6206 35.0204 12.9051 35.0204 13.2561Z" fill="#FCFCFC"/>
<path d="M35.0204 13.2561C35.0204 13.6071 35.2318 13.8916 35.4926 13.8916C35.7534 13.8916 35.9648 13.6071 35.9648 13.2561C35.9648 12.9051 35.7534 12.6206 35.4926 12.6206C35.2318 12.6206 35.0204 12.9051 35.0204 13.2561Z" fill="#FCFCFC"/>
<path d="M35.0204 13.2561C35.0204 13.6071 35.2318 13.8916 35.4926 13.8916C35.7534 13.8916 35.9648 13.6071 35.9648 13.2561C35.9648 12.9051 35.7534 12.6206 35.4926 12.6206C35.2318 12.6206 35.0204 12.9051 35.0204 13.2561Z" fill="#FCFCFC"/>
<path d="M35.0204 13.2561C35.0204 13.6071 35.2318 13.8916 35.4926 13.8916C35.7534 13.8916 35.9648 13.6071 35.9648 13.2561C35.9648 12.9051 35.7534 12.6206 35.4926 12.6206C35.2318 12.6206 35.0204 12.9051 35.0204 13.2561Z" fill="#FCFCFC"/>
<path fill-rule="evenodd" clip-rule="evenodd" d="M45.4739 10.7134L44.3728 11.608L43.6013 10.8102L41.4953 11.7315L40.7925 11.0652L39.9421 11.6026L39.5759 11.0473L38.7422 11.4688V10.7249L35.0163 11.9022L35.4813 12.7484L37.5333 12.1001V13.1818L39.107 12.3862L39.5434 13.048L40.6189 12.3683L41.2 12.9191L43.267 12.0148L44.2609 13.0426L45.4068 12.1116L47.2968 13.8908L48.2383 13.3157L45.4739 10.7134Z" fill="black"/>
<path fill-rule="evenodd" clip-rule="evenodd" d="M50.3556 13.0861L51.0173 11.9839L52.0156 12.4971L51.1612 13.9204L49.5911 14.5259L49.0916 13.6675L47.8554 14.3141L47.2935 13.394L49.5445 12.2166L50.1063 13.1822L50.3556 13.0861Z" fill="black"/>
<path fill-rule="evenodd" clip-rule="evenodd" d="M37.258 19.1362C37.1526 19.1888 36.9746 19.2501 36.6352 19.3477C36.5622 19.3686 36.4618 19.3777 36.266 19.2992C36.0492 19.2122 35.7827 19.0417 35.4581 18.7722C35.1391 18.5074 34.8063 18.1833 34.4446 17.8212C34.3743 17.7508 34.3029 17.679 34.2304 17.6061C33.9379 17.3119 33.6289 17.0011 33.3139 16.7066C32.8803 16.3011 32.8777 16.0727 32.9004 15.9964C32.9145 15.9491 32.9746 15.8437 33.2176 15.7295C33.5141 15.8668 33.8249 15.9725 34.1119 16.0635C34.2512 16.1077 34.3843 16.1483 34.5136 16.1878C34.8151 16.28 35.096 16.3658 35.3862 16.4752C36.1373 16.7584 36.7781 17.1406 37.1428 17.9482C37.233 18.3342 37.2899 18.6062 37.3125 18.8117C37.3341 19.0088 37.3159 19.0857 37.3082 19.1076C37.3009 19.1127 37.2857 19.1224 37.258 19.1362ZM37.9252 17.7828C38.3092 19.4155 38.2486 19.5654 36.91 19.9501C35.8387 20.2579 34.7619 19.1749 33.5923 17.9987C33.3005 17.7052 33.003 17.406 32.6983 17.1211C31.6849 16.1734 31.9567 15.3834 33.2953 14.9988C33.6907 15.2497 34.2151 15.4099 34.775 15.581C35.962 15.9438 37.3088 16.3553 37.9252 17.7828Z" fill="black"/>
<path fill-rule="evenodd" clip-rule="evenodd" d="M34.8304 17.4897L36.4461 16.4016L36.1849 16.1574L34.5692 17.2455L34.8304 17.4897Z" fill="black"/>
<path d="M107.277 58.9255V54.2228L99.7219 53.2061L100.513 58.9255L101.83 60.1329L103.675 68.4579H106.311L107.277 67.6953L106.311 60.3871L107.277 58.9255Z" fill="#E5C080"/>
<path fill-rule="evenodd" clip-rule="evenodd" d="M98.7775 52.5703L99.6264 59.1454L100.885 60.3802L102.688 69.0931H105.989L107.277 68.0048L106.354 60.524L107.254 59.0662V53.7917L98.7775 52.5703ZM106.002 54.5974V58.8463L105.075 60.3485L105.978 67.6677L105.439 68.1237H103.755L102.069 59.9776L100.835 58.7671L100.189 53.7597L106.002 54.5974Z" fill="black"/>
<path fill-rule="evenodd" clip-rule="evenodd" d="M73.2752 54.0287L74.9372 60.7856L76.0281 61.6552V69.0279L77.0134 69.589H79.9693L80.7397 62.083L81.6434 60.2492V55.1662H80.4186V60.0643L79.5336 61.8599L78.8406 68.6126H77.4059L77.253 68.5255V61.2507L76.0673 60.3056L74.4771 53.8408L73.2752 54.0287ZM95.9414 55.5206L94.7401 55.3302L92.0801 65.9965L91.1063 67.1867H90.0992V65.1999L91.686 59.4079L90.0992 57.5439V56.1384L88.8774 56.0898L88.1654 61.7654L87.5031 62.3593L87.0928 69.2279L86.6302 69.9246L85.4377 69.7725L84.8143 67.6193V62.4303L83.8286 60.9897L83.4309 56.1067L82.2086 56.17L82.6239 61.2681L83.5895 62.6792V67.7305L84.4297 70.6327L87.3024 70.9991L88.3033 69.4921L88.706 62.7502L89.3446 62.1775L89.7581 58.882L90.3771 59.6092L88.8743 65.0946V68.1631H91.7698L93.2353 66.3719L95.9414 55.5206Z" fill="black"/>
<path d="M95.9414 55.9105L93.2262 66.2528L91.992 67.6858H90.0173V65.256L91.5806 59.8356L90.0173 58.0911V56.5958L89.2768 62.2031L88.6185 62.7639L88.2071 69.3057L87.4666 70.3648L85.4096 70.1156L84.6691 67.6858V62.7639L83.6818 61.3932L83.2704 56.5958L81.4602 55.6613V60.4586L80.5551 62.2031L79.8146 69.0565H77.5931L77.0171 68.745V61.7047L75.8652 60.8325L74.2196 54.4775L95.9414 55.9105Z" fill="#E5C080"/>
<path fill-rule="evenodd" clip-rule="evenodd" d="M73.2752 53.8408L75.0708 61.0458L76.148 61.8933V69.0782L77.1208 69.6249H80.0394L80.8001 62.3102L81.6924 60.5231V56.4699L82.2695 56.7795L82.6605 61.5161L83.6139 62.8913V67.8138L84.4435 70.642L87.2799 70.9991L88.2682 69.5305L88.6658 62.9604L89.2964 62.4023L89.7046 59.1908L90.3158 59.8995L88.832 65.245V68.2354H91.6909L93.1379 66.4898L95.9414 55.3944L73.2752 53.8408ZM90.0414 57.8868V56.5171L88.835 56.4698L88.132 62.0007L87.4781 62.5795L87.073 69.2731L86.6162 69.9519L85.4387 69.8037L84.8233 67.7054V62.6486L83.85 61.2448L83.4382 56.2547L81.8091 55.3809L94.4921 56.2502L91.9973 66.124L91.0358 67.2839H90.0414V65.3477L91.6082 59.7033L90.0414 57.8868ZM80.483 55.29V60.3429L79.6092 62.0928L78.9249 68.6734H77.5084L77.3574 68.5885V61.4992L76.1867 60.5781L74.7712 54.8985L80.483 55.29Z" fill="black"/>
<path fill-rule="evenodd" clip-rule="evenodd" d="M99.7219 54.5852L100.344 59.2827L101.555 60.41L103.147 69.0939H106.065L107.277 68.1623L106.433 60.5733L107.253 59.5509V54.5314H106.107V59.2536L105.254 60.3178L106.083 67.7712L105.622 68.1254H104.129L102.635 59.9742L101.441 58.8635L100.861 54.4775L99.7219 54.5852Z" fill="black"/>
<path d="M109.987 34.9997L104.2 37.4956C104.2 37.4956 101.378 36.461 99.4579 36.0876C98.5891 35.9187 97.2075 35.7495 97.2075 35.7495L92.2243 35.3016L85.6337 35.4477V32.4398L86.3571 32.8878V28.344H87.0001L87.4823 24.4401L88.1253 18.7443L86.3571 13.1766L89.1701 9.59271L89.7328 6.52083L88.6879 3.25697L87.4823 4.53691L86.3571 6.87282L85.2319 9.20873H83.2225L81.6954 6.77682L81.2936 8.31276L79.5254 6.52083L79.2039 7.3528L76.3908 6.52083L76.8731 7.86478L74.9441 7.3528V7.86478H72.3722L71.247 3.00098L68.2731 6.26485L71.247 10.2327L68.2731 13.1766H69.961C68.183 15.4828 66.6657 16.5684 67.4694 17.6564C68.2731 18.7443 69.961 19.8963 69.961 19.8963V22.0722C69.961 22.0722 69.961 22.2642 69.2958 26.232C68.6307 30.1999 63.2096 39.9275 65.219 43.8313C67.2283 47.7352 66.9872 46.6472 68.5143 48.8231C70.0414 50.999 70.1695 51.5556 71.9092 52.983L75.1049 54.6469L75.8282 54.9029L76.7324 55.0469L78.36 55.4469L83.0618 55.0949L82.8864 56.0548C86.8393 56.6308 89.0898 56.4388 92.9331 55.5429L93.1084 56.0548L95.1981 55.0949L95.6804 55.5429L97.2075 54.5189L97.6897 55.5429L99.4579 54.5189V55.0949L100.422 54.5189L100.985 55.0949L102.432 54.5189L103.155 55.0949L104.843 54.5189L105.325 55.0949L106.45 54.5189L106.933 55.0949L107.656 54.5189L108.46 55.0949C109.668 54.5791 110.161 53.982 110.469 51.959C110.344 52.5874 110.479 51.971 110.71 49.5271C110.941 47.0832 110.806 48.1972 110.71 46.6472C110.614 45.0973 110.096 44.2698 109.022 42.8074H111.433L110.469 41.4634L111.996 41.1434L110.71 39.9275L111.433 39.0955L110.71 38.4555L111.996 37.4956L109.505 36.8556L109.987 34.9997Z" fill="#FFEBC8"/>
<path fill-rule="evenodd" clip-rule="evenodd" d="M71.131 2.36621L67.1598 6.78561L70.0735 10.7276L66.6292 14.185H68.4465C68.2248 14.4565 68.0109 14.7098 67.8087 14.9491L67.7874 14.9742C67.4265 15.4012 67.0938 15.7948 66.8383 16.1545C66.3221 16.8812 66.0008 17.6364 66.5685 18.4156C67.0013 19.0095 67.6549 19.6014 68.1784 20.0323C68.444 20.2508 68.6838 20.4341 68.8576 20.5631C68.8858 20.584 68.9123 20.6035 68.9369 20.6215V22.5592C68.9358 22.5692 68.9337 22.5873 68.9298 22.6179C68.9201 22.6935 68.9001 22.8378 68.8594 23.1079C68.7781 23.6476 68.6149 24.6826 68.2879 26.6605C68.1314 27.6068 67.6896 28.9199 67.1268 30.4516C66.9502 30.9324 66.7619 31.4338 66.5686 31.9489C66.1526 33.0573 65.7127 34.229 65.3129 35.3954C64.7266 37.1059 64.2158 38.834 63.9782 40.388C63.7429 41.9276 63.7634 43.3663 64.3174 44.4576C65.6478 47.0785 66.0206 47.5165 66.5511 48.1397C66.8136 48.4481 67.1147 48.8019 67.5896 49.488C67.9301 49.98 68.2014 50.3924 68.4393 50.7542C69.2292 51.9551 69.6516 52.5974 71.0211 53.7367L71.0672 53.7751L74.3058 55.4849L75.1214 55.7776L76.0457 55.9268L77.7307 56.3467L81.7192 56.0439L81.5731 56.8549L82.1377 56.9383C84.1144 57.2303 85.6922 57.3316 87.2686 57.2401C88.6782 57.1583 90.0651 56.9235 91.7104 56.5512L91.9273 57.1934L94.2234 56.1239L94.7602 56.6295L96.0687 55.7399L96.5217 56.7153L97.9481 55.8777V56.4696L99.3813 55.6017L99.8752 56.1143L101.351 55.5186L102.044 56.0782L103.619 55.5331L104.144 56.1681L105.25 55.5937L105.803 56.2627L106.628 55.5961L107.31 56.0913L107.678 55.9318C108.339 55.6461 108.862 55.3097 109.243 54.7344C109.605 54.1867 109.811 53.459 109.964 52.4386L109.944 52.4363C109.947 52.4142 109.95 52.3901 109.953 52.3641C110 51.9812 110.09 51.2145 110.204 49.9916C110.316 48.7931 110.345 48.4179 110.326 48.156C110.319 48.066 110.305 47.9784 110.291 47.8921C110.285 47.8562 110.279 47.8206 110.274 47.7851C110.253 47.6465 110.228 47.4373 110.205 47.0598C110.121 45.6848 109.718 44.8269 108.976 43.7349H111.348L110.275 42.2193L111.937 41.8663L110.359 40.3536L111.08 39.5134L110.443 38.9427L112.02 37.7497L109.116 36.9935L109.742 34.5526L103.183 37.4208C103.125 37.3998 103.058 37.3759 102.983 37.3495C102.69 37.2456 102.279 37.1032 101.807 36.9489C100.873 36.6428 99.6733 36.2806 98.6848 36.0857C98.2375 35.9976 97.6682 35.911 97.2193 35.8475C96.993 35.8154 96.7939 35.7887 96.6512 35.77C96.5799 35.7607 96.5226 35.7533 96.4829 35.7483L96.4372 35.7425L96.4251 35.741L96.421 35.7405C96.421 35.7405 96.4206 35.7404 96.3301 36.2156L96.421 35.7405L96.4088 35.739L91.4543 35.2873L85.5424 35.4202V33.8978L86.2539 34.3446V29.3109H86.8306L87.3577 24.9841L87.3582 24.9801L87.9996 19.2183L86.298 13.7852L88.9963 10.2994L89.5849 7.04102L88.2207 2.72005L86.2389 4.8534L84.1424 9.2665H82.9435L80.84 5.86992L80.3563 7.74468L78.7046 6.04753L78.2393 7.26849L74.9605 6.28522L75.4479 7.66268L73.8379 7.22939V7.92622H72.3995L71.131 2.36621ZM75.0288 8.56337L77.2132 9.15125L76.7521 7.84815L79.0067 8.52427L79.1738 8.08585L81.0003 9.96276L81.3071 8.77403L82.2075 10.228H84.9611L87.2913 5.32297L87.6811 4.90341L88.3722 7.09236L87.854 9.96095L85.0189 13.6233L86.7954 19.2953L86.1726 24.89L86.1721 24.894L85.7511 28.3495H85.063V32.3787L84.3516 31.9319V36.4088L91.4038 36.2503L96.2512 36.6922L96.2541 36.6925L96.2975 36.698C96.3165 36.7004 96.3399 36.7034 96.3673 36.707C96.3946 36.7105 96.4258 36.7146 96.4604 36.7191C96.5993 36.7373 96.7933 36.7633 97.0135 36.7945C97.4577 36.8574 97.995 36.9395 98.4023 37.0198C99.3022 37.1972 100.435 37.537 101.36 37.8399C101.819 37.9901 102.219 38.1289 102.505 38.2301C102.648 38.2807 102.762 38.3218 102.84 38.3501C102.879 38.3643 102.909 38.3753 102.929 38.3826L102.951 38.3909L102.958 38.3934L103.229 38.4941L108.056 36.383L107.733 37.6437L109.731 38.164L108.778 38.8857L109.564 39.5914L108.862 40.4106L109.814 41.3232L108.471 41.6084L109.296 42.7734H106.913L107.436 43.4967C108.477 44.9346 108.928 45.6785 109.016 47.1072C109.04 47.5026 109.067 47.7341 109.091 47.8982C109.101 47.9687 109.11 48.0182 109.116 48.0577C109.126 48.1201 109.133 48.1577 109.137 48.2145C109.15 48.3928 109.132 48.6807 109.017 49.9194C108.903 51.1337 108.814 51.893 108.768 52.2701C108.763 52.31 108.759 52.3461 108.755 52.3782C108.749 52.4214 108.745 52.4574 108.742 52.4853C108.739 52.5095 108.736 52.5308 108.735 52.5473C108.734 52.5551 108.733 52.5652 108.732 52.5753C108.732 52.5801 108.731 52.5886 108.731 52.5986C108.731 52.5993 108.731 52.6133 108.732 52.6341C108.591 53.4438 108.418 53.9405 108.192 54.2817C108.015 54.5493 107.794 54.7393 107.47 54.9144L106.585 54.2712L105.988 54.7535L105.591 54.2736L104.485 54.848L104.061 54.3343L102.316 54.938L101.586 54.3487L100.216 54.9018L99.6029 54.2657L99.139 54.5466V53.9896L97.0872 55.1944L96.5916 54.1274L94.8962 55.2802L94.4844 54.8923L92.6699 55.7375L92.541 55.3559L91.9588 55.4935C90.0859 55.9362 88.6339 56.1969 87.1833 56.2811C85.882 56.3566 84.5601 56.2913 82.9175 56.0721L83.1156 54.9722L77.8553 55.3715L76.3388 54.9936L75.4844 54.8557L74.8772 54.6378L71.83 53.029C70.6221 52.0183 70.2789 51.4972 69.525 50.3522C69.2829 49.9845 68.9983 49.5523 68.6292 49.0189C68.0875 48.2363 67.7713 47.868 67.5087 47.5621C67.0105 46.9818 66.7052 46.6262 65.4193 44.093C64.9852 43.2377 64.9311 42.0038 65.1601 40.5058C65.3869 39.0223 65.8793 37.3479 66.4607 35.6518C66.8567 34.4966 67.289 33.3449 67.7029 32.2424C67.8974 31.7242 68.0878 31.2168 68.2685 30.725C68.8277 29.2032 69.2976 27.8199 69.4683 26.7877C69.7955 24.8086 69.9594 23.7693 70.0416 23.224C70.0826 22.9516 70.1036 22.8008 70.1143 22.7168C70.1197 22.6749 70.1228 22.6479 70.1246 22.6297C70.1255 22.6206 70.1262 22.6124 70.1267 22.6048C70.1269 22.601 70.1272 22.5968 70.1274 22.5923L70.1276 22.5848L70.1277 22.5805L70.1277 22.5781L70.1277 22.5769C70.1277 22.5762 70.1277 22.5756 69.5323 22.5756H70.1277V20.1845L69.9199 20.0407L69.9194 20.0404L69.9167 20.0384L69.9043 20.0298C69.8932 20.022 69.8762 20.01 69.854 19.9941C69.8096 19.9624 69.7445 19.9153 69.6635 19.8552C69.5013 19.7349 69.2767 19.5632 69.0285 19.3589C68.5244 18.9441 67.9527 18.4191 67.595 17.9281C67.3722 17.6223 67.4019 17.2937 67.8713 16.6328C68.1035 16.306 68.414 15.9386 68.7914 15.4921L68.7923 15.491C69.1656 15.0494 69.5942 14.5418 70.0397 13.9557L70.5965 13.2235H69.1153L71.5206 10.8092L68.5847 6.83718L70.4632 4.74667L71.408 8.8877H75.0288V8.56337ZM108.857 52.3138C108.888 52.2819 108.992 52.1816 109.182 52.1431C109.277 52.1304 109.471 52.1431 109.565 52.1689C109.639 52.2002 109.752 52.2733 109.793 52.3107C109.836 52.3541 109.863 52.3969 109.879 52.4289L108.857 52.3138Z" fill="black"/>
<path d="M67.6111 18.3917C68.0239 19.0171 67.7328 18.5264 67.8776 18.7104C68.0225 18.8945 68.0239 18.8881 68.7435 18.8881C69.4053 18.8881 69.6542 18.2666 69.4053 17.909C68.8547 17.4327 68.5393 17.6828 68.0109 17.6828C67.4779 17.909 67.7444 17.5995 67.6111 18.3917Z" fill="black"/>
<path fill-rule="evenodd" clip-rule="evenodd" d="M68.7758 18.8876C69.4133 18.8678 69.6501 18.2607 69.4053 17.909C69.0032 17.5611 68.7266 17.6007 68.4007 17.6474C68.2804 17.6647 68.1534 17.6828 68.0109 17.6828C67.7779 17.7817 67.6977 17.7782 67.67 17.8091C67.6697 17.8095 67.6694 17.8098 67.6691 17.8102C67.6591 17.8222 67.6565 17.8392 67.6558 17.8687C67.6541 17.9391 67.6635 18.0802 67.6111 18.3917C67.8638 18.7744 67.8527 18.7392 67.8394 18.6963C67.8309 18.6692 67.8214 18.639 67.8776 18.7104C68.0177 18.8884 68.0237 18.8884 68.6741 18.8882C68.6964 18.8882 68.7196 18.8881 68.7435 18.8881C68.7459 18.8881 68.7484 18.8881 68.7508 18.8881C68.7592 18.8881 68.7675 18.8879 68.7758 18.8876Z" fill="black"/>
<path d="M72.3662 18.6709C72.3662 18.6709 70.3274 19.9644 68.6682 19.1812C67.8305 18.7857 69.506 19.661 69.9219 20.6642C70.0731 21.0287 70.2244 21.1835 70.7355 21.28C71.1169 21.2873 72.2047 20.3236 72.3662 20.1381C72.8486 19.5002 72.3662 17.9691 72.3662 18.6709Z" fill="#FFBDBD" fill-opacity="0.9"/>
<path d="M74.2232 14.7589C74.2232 15.2854 76.1466 15.7121 77.1423 15.7121C78.1381 15.7121 78.9453 15.2854 78.9453 14.7589C78.9453 14.2324 78.1381 13.8057 77.1423 13.8057C76.1466 13.8057 74.2232 14.2324 74.2232 14.7589Z" fill="black"/>
<path d="M68.3992 14.7966C67.7866 15.4833 66.9976 15.7121 68.3992 15.7121C69.8009 15.7121 70.6671 15.4841 71.0209 14.7966C71.7173 14.2634 71.4636 13.8057 70.062 13.8057C68.6603 13.8057 68.3992 14.0382 68.3992 14.7966Z" fill="black"/>
<path d="M77.0565 14.7589C77.0565 15.2854 77.4793 15.7121 78.0009 15.7121C78.5225 15.7121 78.9453 15.2854 78.9453 14.7589C78.9453 14.2324 78.5225 13.8057 78.0009 13.8057C77.4793 13.8057 77.0565 14.2324 77.0565 14.7589Z" fill="#FCFCFC"/>
<path d="M77.0565 14.7589C77.0565 15.2854 77.4793 15.7121 78.0009 15.7121C78.5225 15.7121 78.9453 15.2854 78.9453 14.7589C78.9453 14.2324 78.5225 13.8057 78.0009 13.8057C77.4793 13.8057 77.0565 14.2324 77.0565 14.7589Z" fill="#FCFCFC"/>
<path d="M77.0565 14.7589C77.0565 15.2854 77.4793 15.7121 78.0009 15.7121C78.5225 15.7121 78.9453 15.2854 78.9453 14.7589C78.9453 14.2324 78.5225 13.8057 78.0009 13.8057C77.4793 13.8057 77.0565 14.2324 77.0565 14.7589Z" fill="#FCFCFC"/>
<path d="M77.0565 14.7589C77.0565 15.2854 77.4793 15.7121 78.0009 15.7121C78.5225 15.7121 78.9453 15.2854 78.9453 14.7589C78.9453 14.2324 78.5225 13.8057 78.0009 13.8057C77.4793 13.8057 77.0565 14.2324 77.0565 14.7589Z" fill="#FCFCFC"/>
<path d="M69.5048 14.4412C69.5048 14.7921 69.7162 15.0766 69.977 15.0766C70.2378 15.0766 70.4492 14.7921 70.4492 14.4412C70.4492 14.0902 70.2378 13.8057 69.977 13.8057C69.7162 13.8057 69.5048 14.0902 69.5048 14.4412Z" fill="#FCFCFC"/>
<path d="M69.5048 14.4412C69.5048 14.7921 69.7162 15.0766 69.977 15.0766C70.2378 15.0766 70.4492 14.7921 70.4492 14.4412C70.4492 14.0902 70.2378 13.8057 69.977 13.8057C69.7162 13.8057 69.5048 14.0902 69.5048 14.4412Z" fill="#FCFCFC"/>
<path d="M69.5048 14.4412C69.5048 14.7921 69.7162 15.0766 69.977 15.0766C70.2378 15.0766 70.4492 14.7921 70.4492 14.4412C70.4492 14.0902 70.2378 13.8057 69.977 13.8057C69.7162 13.8057 69.5048 14.0902 69.5048 14.4412Z" fill="#FCFCFC"/>
<path d="M69.5048 14.4412C69.5048 14.7921 69.7162 15.0766 69.977 15.0766C70.2378 15.0766 70.4492 14.7921 70.4492 14.4412C70.4492 14.0902 70.2378 13.8057 69.977 13.8057C69.7162 13.8057 69.5048 14.0902 69.5048 14.4412Z" fill="#FCFCFC"/>
<path fill-rule="evenodd" clip-rule="evenodd" d="M79.9583 11.8984L78.8572 12.7931L78.0856 11.9952L75.9797 12.9166L75.2768 12.2503L74.4264 12.7877L74.0603 12.2324L73.2266 12.6539V11.9099L69.5007 13.0872L69.9657 13.9335L72.0177 13.2851V14.3669L73.5914 13.5712L74.0278 14.233L75.1033 13.5533L75.6844 14.1042L77.7514 13.1998L78.7453 14.2276L79.8912 13.2966L81.7812 15.0759L82.7227 14.5008L79.9583 11.8984Z" fill="black"/>
<path fill-rule="evenodd" clip-rule="evenodd" d="M84.84 14.2707L85.5017 13.1685L86.5 13.6817L85.6456 15.105L84.0754 15.7104L83.576 14.8521L82.3398 15.4986L81.7779 14.5786L84.0289 13.4012L84.5907 14.3668L84.84 14.2707Z" fill="black"/>
<path fill-rule="evenodd" clip-rule="evenodd" d="M71.7424 20.3208C71.6369 20.3733 71.459 20.4347 71.1195 20.5322C71.0466 20.5532 70.9462 20.5623 70.7504 20.4837C70.5336 20.3968 70.2671 20.2263 69.9425 19.9568C69.6235 19.692 69.2907 19.3678 68.929 19.0057C68.8587 18.9354 68.7872 18.8635 68.7148 18.7907C68.4222 18.4964 68.1132 18.1856 67.7983 17.8911C67.3647 17.4857 67.362 17.2573 67.3848 17.181C67.3989 17.1336 67.459 17.0283 67.702 16.914C67.9985 17.0514 68.3093 17.157 68.5963 17.2481C68.7356 17.2923 68.8687 17.3329 68.998 17.3724C69.2995 17.4645 69.5803 17.5503 69.8705 17.6597C70.6217 17.943 71.2624 18.3252 71.6272 19.1328C71.7174 19.5187 71.7743 19.7908 71.7969 19.9963C71.8185 20.1933 71.8003 20.2703 71.7925 20.2922C71.7853 20.2973 71.7701 20.307 71.7424 20.3208ZM72.4096 18.9674C72.7935 20.6001 72.733 20.75 71.3944 21.1346C70.3231 21.4425 69.2462 20.3595 68.0767 19.1832C67.7849 18.8898 67.4874 18.5906 67.1827 18.3057C66.1692 17.3579 66.4411 16.568 67.7797 16.1834C68.1751 16.4343 68.6995 16.5945 69.2594 16.7656C70.4464 17.1283 71.7932 17.5399 72.4096 18.9674Z" fill="black"/>
<path fill-rule="evenodd" clip-rule="evenodd" d="M69.3148 18.6743L70.9304 17.5862L70.6692 17.3419L69.0536 18.43L69.3148 18.6743Z" fill="black"/>
</svg>
