<svg width="117" height="123" viewBox="0 0 117 123" fill="none" xmlns="http://www.w3.org/2000/svg">
<circle cx="58.2994" cy="58.2994" r="58.2994" fill="#F08700"/>
<path d="M41.8686 78.0098L46.6684 96.9436L51.4682 115.877C63.2956 120.193 89.3102 111.187 94.8549 102.507L78.824 66.8024C81.1229 64.3743 76.4052 49.1594 73.759 41.8554L75.5545 38.1087L74.3768 36.2157L74.4453 31.608L71.853 27.8938C74.0935 7.7588 67.2423 3.87642 63.5367 4.4521L63.7877 13.8095C61.5135 14.4992 60.1326 19.7645 59.7264 22.311L51.9122 21.5651L39.12 25.4446L32.5626 30.5489C31.5298 28.5081 26.9959 26.4097 24.8581 25.6156L19.0007 17.9585C11.4311 21.4311 20.6539 35.2567 26.2115 41.7354L26.2769 46.216L27.1903 49.2277L29.4804 52.5143L32.876 55.4656C35.7193 70.5278 40.0558 76.771 41.8686 78.0098Z" fill="#FFEBC8"/>
<path fill-rule="evenodd" clip-rule="evenodd" d="M50.6752 55.9039C50.6443 55.5835 50.8941 55.2908 51.2331 55.2502C52.3327 55.1185 54.0068 55.2726 55.5508 56.1404C57.1172 57.0208 58.5099 58.6143 59.0426 61.2821C59.1055 61.5973 58.8853 61.9101 58.5507 61.9809C58.2162 62.0517 57.8939 61.8537 57.831 61.5386C57.3597 59.1776 56.1607 57.8634 54.8953 57.1522C53.6075 56.4284 52.2097 56.3069 51.345 56.4105C51.006 56.4512 50.7062 56.2243 50.6752 55.9039Z" fill="black"/>
<path fill-rule="evenodd" clip-rule="evenodd" d="M33.6304 51.9898C33.3577 51.229 33.6138 50.4032 34.2283 50.0623L37.5641 48.2117C37.9817 47.9801 38.493 48.0159 38.9194 48.3069C39.3458 48.5978 39.6281 49.1033 39.6677 49.6469C39.7259 50.4452 39.7872 51.6136 39.7653 52.4341C39.7597 52.6422 39.7481 52.863 39.7232 53.066C39.7229 53.0683 39.7226 53.0708 39.7223 53.0733C39.7067 53.2009 39.6585 53.5961 39.456 53.9406C39.3448 54.1297 39.0139 54.5915 38.3761 54.6151C37.7478 54.6385 37.3296 54.2159 37.1839 54.0457C36.9173 53.7341 36.7738 53.3535 36.71 53.1755C36.6728 53.1487 36.5807 53.0978 36.4107 53.0575C36.0416 52.9699 35.5894 52.9975 35.3029 53.06C34.6196 53.2091 33.9031 52.7506 33.6304 51.9898ZM38.3565 51.4651C38.3663 51.8754 38.3651 52.2541 38.3461 52.5359C38.3103 53.0652 38.2112 53.2525 38.0017 52.665C37.887 52.3431 37.7008 52.0982 37.4727 51.9143C37.4105 51.8642 37.3451 51.8186 37.2772 51.7772C37.1746 51.7146 37.0662 51.6616 36.9541 51.6171C36.2606 51.342 35.424 51.3914 34.9293 51.4994L38.2652 49.6487C38.2888 49.9732 38.3121 50.35 38.33 50.7319C38.3409 50.9645 38.3498 51.1989 38.3555 51.4245C38.3559 51.4381 38.3562 51.4516 38.3565 51.4651ZM36.9279 52.4221C36.9275 52.4212 36.9292 52.4078 36.9341 52.3849C36.9307 52.4117 36.9283 52.4231 36.9279 52.4221ZM39.3287 52.2456C39.3285 52.2464 39.3242 52.2372 39.3159 52.2158C39.3246 52.2342 39.3288 52.2449 39.3287 52.2456Z" fill="black"/>
<path fill-rule="evenodd" clip-rule="evenodd" d="M40.1196 51.1821C37.4015 51.6309 34.4395 52.6139 32.545 53.3847C32.204 53.5235 31.8199 53.3841 31.6871 53.0734C31.5543 52.7627 31.7231 52.3984 32.0642 52.2597C34.0224 51.4629 37.0926 50.4409 39.95 49.9692C41.3765 49.7337 42.7888 49.6286 43.9978 49.7762C45.2011 49.9232 46.301 50.3344 46.9483 51.2198C47.1492 51.4947 47.0642 51.8801 46.7584 52.0806C46.4526 52.2811 46.0417 52.2207 45.8408 51.9458C45.4753 51.4459 44.7892 51.1234 43.7627 50.9981C42.742 50.8734 41.4808 50.9574 40.1196 51.1821Z" fill="black"/>
<path fill-rule="evenodd" clip-rule="evenodd" d="M20.828 21.896C21.3189 21.662 21.9013 21.8304 22.129 22.2722C22.6844 23.3504 23.6346 24.9881 24.6682 26.3833C25.1861 27.0823 25.7075 27.6966 26.1942 28.1458C26.7125 28.6241 27.0711 28.8007 27.248 28.8298C28.5584 29.0456 29.5405 29.957 30.2008 30.8075C30.5245 31.2244 30.801 31.6655 31.0272 32.0842L34.2605 29.1669C34.6577 28.8085 35.2775 28.8006 35.6449 29.1492C36.0123 29.4977 35.9881 30.0709 35.5909 30.4292L31.3214 34.2814C31.076 34.5029 30.7317 34.5992 30.4082 34.5369C30.0848 34.4746 29.8268 34.2623 29.724 33.9737C29.5377 33.4508 29.1428 32.6273 28.5884 31.9133C28.0129 31.1722 27.3906 30.709 26.8063 30.6128C26.0358 30.4859 25.3398 29.9828 24.7735 29.4602C24.1756 28.9085 23.5824 28.2007 23.0327 27.4588C21.9314 25.9722 20.9355 24.2533 20.3514 23.1196C20.1238 22.6778 20.3372 22.13 20.828 21.896Z" fill="black"/>
<path fill-rule="evenodd" clip-rule="evenodd" d="M53.8268 43.9193C53.9401 44.2651 53.7705 44.6321 53.4481 44.7389C52.0204 45.2116 50.0194 46.4902 48.7397 48.7697C47.4747 51.0231 46.8775 54.3201 48.3388 58.9341C49.8026 63.5556 52.095 65.7623 54.2876 66.7119C56.51 67.6744 58.7298 67.3892 60.0769 66.8355C60.3912 66.7063 60.7548 66.8757 60.8889 67.2138C61.0231 67.552 60.8771 67.9309 60.5627 68.0601C58.9812 68.7101 56.43 69.0368 53.8573 67.9226C51.2548 66.7955 48.7281 64.2367 47.1669 59.3076C45.6033 54.3709 46.2059 50.6755 47.6695 48.0682C49.1185 45.4871 51.3751 44.0369 53.0378 43.4863C53.3603 43.3795 53.7135 43.5734 53.8268 43.9193Z" fill="black"/>
<path d="M42.4408 51.1848C42.7845 52.3181 41.6697 53.6594 39.9508 54.1807C38.2319 54.702 36.5598 54.2059 36.2161 53.0726C35.8724 51.9392 36.9872 50.5979 38.7061 50.0766C40.4251 49.5553 42.0971 50.0515 42.4408 51.1848Z" fill="black"/>
<path fill-rule="evenodd" clip-rule="evenodd" d="M52.1852 59.4664C52.4615 59.2646 52.8492 59.3256 53.051 59.6028C53.6214 60.3861 55.4974 61.8227 58.2437 60.7577C58.5627 60.634 58.9217 60.7929 59.0455 61.1127C59.1694 61.4324 59.0112 61.7919 58.6923 61.9156C55.2988 63.2316 52.8665 61.4547 52.0502 60.3337C51.8484 60.0565 51.9088 59.6682 52.1852 59.4664Z" fill="black"/>
<path fill-rule="evenodd" clip-rule="evenodd" d="M67.4874 43.2342C68.4885 42.532 70.0195 42.015 71.7962 41.6641C72.1535 41.5936 72.3873 41.2497 72.3182 40.896C72.2492 40.5423 71.9036 40.3129 71.5462 40.3834C69.7091 40.7462 67.9598 41.3074 66.7302 42.1699C66.109 42.6056 65.5924 43.1378 65.2797 43.7875C64.962 44.4474 64.876 45.1852 65.0512 45.9825C65.1286 46.3344 65.4796 46.5558 65.8353 46.477C66.1909 46.3982 66.4165 46.0491 66.3392 45.6971C66.2221 45.1646 66.2853 44.7247 66.4687 44.3438C66.657 43.9527 66.9933 43.5809 67.4874 43.2342Z" fill="black"/>
<path fill-rule="evenodd" clip-rule="evenodd" d="M72.5695 43.7605C72.3394 43.6674 72.1017 43.571 71.8736 43.4763C71.6642 43.3894 71.5666 43.1504 71.6556 42.9424C71.7446 42.7344 71.9865 42.6363 72.1958 42.7232C72.4202 42.8163 72.6547 42.9114 72.8851 43.0047C72.8984 43.0101 72.9117 43.0154 72.925 43.0208C73.1409 43.1082 73.3526 43.1939 73.5451 43.2736C73.749 43.358 73.9358 43.4375 74.0866 43.5068C74.2245 43.5702 74.37 43.6416 74.4629 43.7109C74.6441 43.8461 74.6794 44.1019 74.5419 44.2822C74.4043 44.4626 74.1459 44.4992 73.9648 44.364C73.965 44.3642 73.9651 44.3643 73.9651 44.3643C73.9651 44.3643 73.9608 44.3612 73.9502 44.3549C73.9385 44.3479 73.9225 44.3389 73.9016 44.3279C73.8594 44.3057 73.8043 44.2789 73.7362 44.2476C73.6 44.185 73.425 44.1104 73.2236 44.027C73.0341 43.9486 72.8253 43.8641 72.6085 43.7763C72.5955 43.771 72.5825 43.7658 72.5695 43.7605Z" fill="black"/>
<path fill-rule="evenodd" clip-rule="evenodd" d="M72.5695 43.7605C72.3394 43.6674 72.1017 43.571 71.8736 43.4763C71.6642 43.3894 71.5666 43.1504 71.6556 42.9424C71.7446 42.7344 71.9865 42.6363 72.1958 42.7232C72.4202 42.8163 72.6547 42.9114 72.8851 43.0047C72.8984 43.0101 72.9117 43.0154 72.925 43.0208C73.1409 43.1082 73.3526 43.1939 73.5451 43.2736C73.749 43.358 73.9358 43.4375 74.0866 43.5068C74.2245 43.5702 74.37 43.6416 74.4629 43.7109C74.6441 43.8461 74.6794 44.1019 74.5419 44.2822C74.4043 44.4626 74.1459 44.4992 73.9648 44.364C73.965 44.3642 73.9651 44.3643 73.9651 44.3643C73.9651 44.3643 73.9608 44.3612 73.9502 44.3549C73.9385 44.3479 73.9225 44.3389 73.9016 44.3279C73.8594 44.3057 73.8043 44.2789 73.7362 44.2476C73.6 44.185 73.425 44.1104 73.2236 44.027C73.0341 43.9486 72.8253 43.8641 72.6085 43.7763C72.5955 43.771 72.5825 43.7658 72.5695 43.7605Z" fill="black"/>
<path fill-rule="evenodd" clip-rule="evenodd" d="M72.1164 45.059C71.9239 44.9814 71.7114 44.8954 71.4831 44.8007C71.2737 44.7138 71.1762 44.4747 71.2652 44.2668C71.3542 44.0588 71.596 43.9606 71.8054 44.0475C72.0296 44.1406 72.2388 44.2252 72.431 44.3027C72.4534 44.3118 72.4756 44.3207 72.4976 44.3296C72.6633 44.3963 72.8165 44.4581 72.9528 44.5146C73.241 44.634 73.513 44.7524 73.6685 44.8684C73.8496 45.0036 73.885 45.2594 73.7474 45.4397C73.6099 45.6201 73.3515 45.6567 73.1703 45.5215C73.1143 45.4797 72.9513 45.4006 72.631 45.2679C72.4987 45.2131 72.3494 45.1529 72.1831 45.0859C72.1612 45.077 72.139 45.0681 72.1164 45.059Z" fill="black"/>
<path fill-rule="evenodd" clip-rule="evenodd" d="M72.0561 39.0673C71.9063 39.1765 71.7502 39.2904 71.6011 39.4024C71.4193 39.5389 71.3827 39.795 71.5194 39.9743C71.6561 40.1536 71.9143 40.1883 72.0961 40.0518C72.2398 39.9438 72.3914 39.8332 72.5416 39.7237C72.5504 39.7173 72.5592 39.7109 72.568 39.7045C72.7083 39.6022 72.8473 39.5009 72.9732 39.4067C73.1062 39.3072 73.2307 39.211 73.3307 39.1259C73.4148 39.0545 73.5316 38.9505 73.5981 38.8392C73.7143 38.6447 73.6499 38.3947 73.4544 38.2808C73.2588 38.1669 73.0061 38.2322 72.8899 38.4267C72.8931 38.4214 72.8949 38.4186 72.8946 38.4183C72.8937 38.4176 72.8702 38.4453 72.7966 38.5078C72.7166 38.5758 72.6087 38.6596 72.4792 38.7565C72.3577 38.8474 72.2227 38.9458 72.0811 39.0491C72.0728 39.0551 72.0644 39.0612 72.0561 39.0673Z" fill="black"/>
<path fill-rule="evenodd" clip-rule="evenodd" d="M72.0561 39.0673C71.9063 39.1765 71.7502 39.2904 71.6011 39.4024C71.4193 39.5389 71.3827 39.795 71.5194 39.9743C71.6561 40.1536 71.9143 40.1883 72.0961 40.0518C72.2398 39.9438 72.3914 39.8332 72.5416 39.7237C72.5504 39.7173 72.5592 39.7109 72.568 39.7045C72.7083 39.6022 72.8473 39.5009 72.9732 39.4067C73.1062 39.3072 73.2307 39.211 73.3307 39.1259C73.4148 39.0545 73.5316 38.9505 73.5981 38.8392C73.7143 38.6447 73.6499 38.3947 73.4544 38.2808C73.2588 38.1669 73.0061 38.2322 72.8899 38.4267C72.8931 38.4214 72.8949 38.4186 72.8946 38.4183C72.8937 38.4176 72.8702 38.4453 72.7966 38.5078C72.7166 38.5758 72.6087 38.6596 72.4792 38.7565C72.3577 38.8474 72.2227 38.9458 72.0811 39.0491C72.0728 39.0551 72.0644 39.0612 72.0561 39.0673Z" fill="black"/>
<path fill-rule="evenodd" clip-rule="evenodd" d="M71.293 38.1484C71.1731 38.2893 71.0483 38.4362 70.9297 38.5796C70.7852 38.7545 70.8104 39.0116 70.986 39.1537C71.1617 39.2959 71.4212 39.2693 71.5658 39.0944C71.6801 38.9562 71.8013 38.8135 71.9215 38.6722C71.9285 38.6639 71.9356 38.6557 71.9426 38.6474C72.0549 38.5154 72.1661 38.3847 72.2663 38.2639C72.3721 38.1363 72.4704 38.0139 72.5476 37.908C72.6124 37.8191 72.7015 37.691 72.7398 37.5674C72.8067 37.3516 72.6846 37.124 72.4672 37.059C72.2498 36.9941 72.0193 37.1164 71.9524 37.3323C71.9543 37.3264 71.9554 37.3232 71.955 37.323C71.954 37.3226 71.9376 37.3549 71.8809 37.4327C71.8192 37.5174 71.734 37.6239 71.6311 37.7481C71.5344 37.8647 71.4264 37.9916 71.313 38.1249C71.3063 38.1327 71.2997 38.1405 71.293 38.1484Z" fill="black"/>
<path fill-rule="evenodd" clip-rule="evenodd" d="M63.1002 52.1334C62.9278 51.856 62.4542 51.7827 62.0425 51.9697C60.7071 52.5764 58.9038 53.7851 57.7109 55.483C56.5007 57.2054 55.9501 59.3883 57.0735 61.8769C57.2061 62.1709 57.6592 62.2796 58.0854 62.1197C58.5116 61.9598 58.7496 61.5918 58.6169 61.2979C57.6228 59.0954 58.1342 57.2625 59.1118 55.8711C60.1067 54.455 61.617 53.4516 62.6671 52.9745C63.0788 52.7875 63.2727 52.4109 63.1002 52.1334Z" fill="black"/>
<path fill-rule="evenodd" clip-rule="evenodd" d="M50.6713 55.9C50.6404 55.5796 50.8902 55.2869 51.2292 55.2463C52.3288 55.1146 54.0029 55.2687 55.5469 56.1365C57.1133 57.0169 58.506 58.6104 59.0387 61.2782C59.1016 61.5934 58.8814 61.9062 58.5468 61.977C58.2122 62.0478 57.89 61.8498 57.8271 61.5347C57.3558 59.1737 56.1567 57.8595 54.8914 57.1483C53.6036 56.4245 52.2058 56.303 51.3411 56.4066C51.0021 56.4472 50.7022 56.2204 50.6713 55.9Z" fill="black"/>
<path fill-rule="evenodd" clip-rule="evenodd" d="M33.6304 51.9898C33.3577 51.229 33.6138 50.4032 34.2283 50.0623L37.5641 48.2117C37.9817 47.9801 38.493 48.0159 38.9194 48.3069C39.3458 48.5978 39.6281 49.1033 39.6677 49.6469C39.7259 50.4452 39.7872 51.6136 39.7653 52.4341C39.7597 52.6422 39.7481 52.863 39.7232 53.066C39.7229 53.0683 39.7226 53.0708 39.7223 53.0733C39.7067 53.2009 39.6585 53.5961 39.456 53.9406C39.3448 54.1297 39.0139 54.5915 38.3761 54.6151C37.7478 54.6385 37.3296 54.2159 37.1839 54.0457C36.9173 53.7341 36.7738 53.3535 36.71 53.1755C36.6728 53.1487 36.5807 53.0978 36.4107 53.0575C36.0416 52.9699 35.5894 52.9975 35.3029 53.06C34.6196 53.2091 33.9031 52.7506 33.6304 51.9898ZM38.3565 51.4651C38.3663 51.8754 38.3651 52.2541 38.3461 52.5359C38.3103 53.0652 38.2112 53.2525 38.0017 52.665C37.887 52.3431 37.7008 52.0982 37.4727 51.9143C37.4105 51.8642 37.3451 51.8186 37.2772 51.7772C37.1746 51.7146 37.0662 51.6616 36.9541 51.6171C36.2606 51.342 35.424 51.3914 34.9293 51.4994L38.2652 49.6487C38.2888 49.9732 38.3121 50.35 38.33 50.7319C38.3409 50.9645 38.3498 51.1989 38.3555 51.4245C38.3559 51.4381 38.3562 51.4516 38.3565 51.4651ZM36.9279 52.4221C36.9275 52.4212 36.9292 52.4078 36.9341 52.3849C36.9307 52.4117 36.9283 52.4231 36.9279 52.4221ZM39.3287 52.2456C39.3285 52.2464 39.3242 52.2372 39.3159 52.2158C39.3246 52.2342 39.3288 52.2449 39.3287 52.2456Z" fill="black"/>
<path fill-rule="evenodd" clip-rule="evenodd" d="M40.1196 51.1821C37.4015 51.6309 34.4395 52.6139 32.545 53.3847C32.204 53.5235 31.8199 53.3841 31.6871 53.0734C31.5543 52.7627 31.7231 52.3984 32.0642 52.2597C34.0224 51.4629 37.0926 50.4409 39.95 49.9692C41.3765 49.7337 42.7888 49.6286 43.9978 49.7762C45.2011 49.9232 46.301 50.3344 46.9483 51.2198C47.1492 51.4947 47.0642 51.8801 46.7584 52.0806C46.4526 52.2811 46.0417 52.2207 45.8408 51.9458C45.4753 51.4459 44.7892 51.1234 43.7627 50.9981C42.742 50.8734 41.4808 50.9574 40.1196 51.1821Z" fill="#00A6A6"/>
<path fill-rule="evenodd" clip-rule="evenodd" d="M67.1115 7.85827C66.6591 7.91032 66.3494 8.34933 66.4198 8.83881C66.5917 10.0333 66.7804 11.902 66.7891 13.608C66.7934 14.4627 66.7522 15.2476 66.6504 15.8753C66.5421 16.5437 66.3885 16.8756 66.2833 16.9902C65.5035 17.8399 65.3008 19.1107 65.2855 20.166C65.278 20.6833 65.3149 21.1971 65.3745 21.6663L61.694 20.8458C61.2419 20.745 60.817 21.0539 60.7451 21.5357C60.6731 22.0175 60.9814 22.4898 61.4335 22.5906L66.2935 23.6741C66.5729 23.7364 66.8557 23.6425 67.0436 23.4251C67.2315 23.2078 67.2985 22.8969 67.2213 22.6005C67.0816 22.0635 66.9304 21.1661 66.9433 20.2801C66.9566 19.3604 67.1433 18.6519 67.491 18.273C67.9495 17.7734 68.1659 16.9936 68.2843 16.2633C68.4092 15.4924 68.4516 14.5919 68.447 13.6847C68.4378 11.8669 68.2388 9.90625 68.0581 8.6503C67.9877 8.16081 67.5638 7.80621 67.1115 7.85827Z" fill="black"/>
<path fill-rule="evenodd" clip-rule="evenodd" d="M20.832 21.8945C21.3228 21.6605 21.9052 21.829 22.1329 22.2708C22.6883 23.349 23.6385 24.9867 24.6721 26.3819C25.19 27.0808 25.7114 27.6952 26.1982 28.1444C26.7164 28.6227 27.075 28.7992 27.2519 28.8284C28.5623 29.0441 29.5444 29.9556 30.2047 30.806C30.5284 31.2229 30.8049 31.6641 31.0311 32.0827L34.2644 29.1655C34.6616 28.8071 35.2814 28.7991 35.6488 29.1477C36.0162 29.4963 35.992 30.0694 35.5948 30.4278L31.3254 34.28C31.0799 34.5014 30.7356 34.5977 30.4121 34.5354C30.0887 34.4731 29.8307 34.2608 29.7279 33.9722C29.5416 33.4493 29.1467 32.6258 28.5923 31.9118C28.0168 31.1707 27.3945 30.7075 26.8102 30.6113C26.0397 30.4845 25.3437 29.9814 24.7774 29.4587C24.1795 28.907 23.5863 28.1992 23.0367 27.4573C21.9354 25.9708 20.9394 24.2518 20.3553 23.1182C20.1277 22.6764 20.3411 22.1285 20.832 21.8945Z" fill="black"/>
<path fill-rule="evenodd" clip-rule="evenodd" d="M51.7531 44.55C51.8495 44.901 52.2457 45.0963 52.6382 44.9863C54.3757 44.4991 57.1873 44.3183 59.8785 45.3935C62.5389 46.4564 65.1595 48.7776 66.4958 53.4295C67.8342 58.089 66.8563 61.2874 65.2117 63.4007C63.5447 65.5428 61.1181 66.6667 59.4129 67.0387C59.015 67.1255 58.7495 67.4856 58.82 67.8431C58.8905 68.2006 59.2702 68.42 59.6681 68.3332C61.67 67.8965 64.4584 66.6039 66.3881 64.1242C68.3401 61.6158 69.3407 57.9874 67.9131 53.0177C66.4834 48.0405 63.6141 45.3979 60.5359 44.1681C57.4885 42.9505 54.3127 43.1478 52.2891 43.7152C51.8967 43.8252 51.6567 44.199 51.7531 44.55Z" fill="black"/>
<path fill-rule="evenodd" clip-rule="evenodd" d="M53.8346 43.9178C53.9479 44.2637 53.7783 44.6306 53.4559 44.7374C52.0282 45.2102 50.0272 46.4888 48.7476 48.7683C47.4826 51.0216 46.8853 54.3186 48.3466 58.9326C49.8104 63.5542 52.1028 65.7608 54.2954 66.7104C56.5178 67.6729 58.7376 67.3878 60.0847 66.834C60.399 66.7048 60.7626 66.8742 60.8968 67.2124C61.0309 67.5505 60.8849 67.9294 60.5705 68.0586C58.989 68.7087 56.4378 69.0354 53.8651 67.9211C51.2627 66.794 48.7359 64.2353 47.1747 59.3062C45.6111 54.3695 46.2137 50.674 47.6773 48.0667C49.1264 45.4856 51.3829 44.0354 53.0456 43.4848C53.3681 43.3781 53.7213 43.5719 53.8346 43.9178Z" fill="black"/>
<path d="M44.517 50.5563C45.2044 52.8229 43.9037 55.2239 41.6118 55.9189C39.3199 56.614 36.9047 55.34 36.2173 53.0733C35.5299 50.8067 36.8306 48.4058 39.1225 47.7107C41.4144 47.0157 43.8296 48.2897 44.517 50.5563Z" fill="black"/>
<path d="M40.0501 50.784C40.222 51.3506 39.8968 51.9509 39.3238 52.1246C38.7509 52.2984 38.1471 51.9799 37.9752 51.4132C37.8034 50.8466 38.1286 50.2463 38.7015 50.0726C39.2745 49.8988 39.8783 50.2173 40.0501 50.784Z" fill="#FCFCFC"/>
<path d="M46.5919 49.927C47.2793 52.1937 45.5141 54.7355 42.6493 55.6043C39.7844 56.4731 36.9047 55.34 36.2173 53.0733C35.5299 50.8067 37.2951 48.2649 40.16 47.3961C43.0248 46.5273 45.9045 47.6604 46.5919 49.927Z" fill="black"/>
<path d="M40.0501 50.784C40.222 51.3506 39.8968 51.9509 39.3238 52.1246C38.7509 52.2984 38.1471 51.9799 37.9752 51.4132C37.8034 50.8466 38.1286 50.2463 38.7015 50.0726C39.2745 49.8988 39.8783 50.2173 40.0501 50.784Z" fill="#FCFCFC"/>
<path fill-rule="evenodd" clip-rule="evenodd" d="M52.1774 59.4693C52.4537 59.2675 52.8413 59.3285 53.0431 59.6057C53.6136 60.3891 55.4896 61.8257 58.2359 60.7606C58.5548 60.6369 58.9138 60.7958 59.0377 61.1156C59.1616 61.4353 59.0034 61.7948 58.6844 61.9185C55.291 63.2345 52.8587 61.4576 52.0424 60.3366C51.8406 60.0595 51.901 59.6712 52.1774 59.4693Z" fill="black"/>
<path fill-rule="evenodd" clip-rule="evenodd" d="M63.835 55.9386C63.4931 55.9243 63.2047 56.1903 63.1908 56.5329C63.1516 57.5011 62.3896 59.7378 59.5143 60.3776C59.1804 60.4519 58.9701 60.7834 59.0447 61.1181C59.1193 61.4528 59.4505 61.6639 59.7845 61.5896C63.3373 60.799 64.3729 57.9704 64.429 56.5848C64.4429 56.2422 64.177 55.9529 63.835 55.9386Z" fill="black"/>
<path fill-rule="evenodd" clip-rule="evenodd" d="M21.3438 17.4635C21.6093 17.5592 21.8238 17.7587 21.9375 18.0159C22.5937 19.4991 23.6868 21.6892 24.8259 23.4402C25.3993 24.3216 25.9534 25.0431 26.44 25.5077C26.6835 25.7403 26.8737 25.8729 27.0057 25.9373C27.0494 25.9586 27.0783 25.9685 27.0945 25.973C27.8837 25.8053 28.6853 26.0535 29.3415 26.3666C30.0372 26.6984 30.7443 27.188 31.4014 27.7167C32.0905 28.2713 32.7617 28.8991 33.3533 29.5012C33.5619 29.384 33.7908 29.2938 34.0272 29.2221C34.2184 29.1641 34.5557 28.9948 35.0279 28.6872C35.4802 28.3927 35.9909 28.0152 36.5135 27.602C37.5581 26.7759 38.6024 25.8451 39.2406 25.2437C39.3577 25.1333 39.4991 25.0514 39.6533 25.0046L45.8227 23.1337C46.848 22.9366 47.5239 23.1146 47.6894 23.6601C47.8548 24.2056 46.9706 24.9428 46.4218 25.1092L40.4851 26.9096C39.8081 27.5386 38.8097 28.4202 37.8017 29.2173C37.2511 29.6527 36.6857 30.0724 36.1605 30.4144C35.72 30.7012 35.2518 30.971 34.816 31.1333C35.0539 31.5238 35.0064 32.0336 34.6826 32.3763C34.3227 32.7572 33.7347 32.812 33.3123 32.504C33.1381 32.377 32.9442 32.2017 32.7816 31.983C32.7372 31.9233 32.6909 31.8546 32.6467 31.7774C31.9575 31.0102 31.0339 30.0816 30.0929 29.3244C29.4995 28.847 28.9329 28.4651 28.4392 28.2296C27.9166 27.9804 27.6285 27.9682 27.517 27.9939C26.9814 28.117 26.4831 27.9856 26.0871 27.7925C25.6929 27.6002 25.3281 27.3134 25.0001 27.0002C24.3436 26.3733 23.688 25.4977 23.0823 24.5666C22.1318 23.1055 21.2274 21.3876 20.5515 19.9704C19.5432 20.8781 18.6643 22.5362 18.8888 25.2027C19.1845 28.7136 21.4095 33.9859 27.9094 41.3353C28.0892 41.5385 28.1811 41.8042 28.1655 42.0749L27.9944 45.0308L28.0386 45.0174C28.383 44.9129 28.7566 44.9932 29.026 45.2295C29.2954 45.4658 29.4221 45.8244 29.3609 46.1773L29.0627 47.8981C29.3444 47.8537 29.6341 47.9264 29.8618 48.1031C30.1276 48.3095 30.2755 48.6321 30.2581 48.9678L30.1657 50.755L30.2434 50.6759C30.5347 50.3798 30.9749 50.2847 31.362 50.4341C31.7491 50.5835 32.0085 50.9486 32.0213 51.362C32.0353 51.8154 32.1656 52.4508 32.4475 52.9008C32.5809 53.1137 32.7256 53.2497 32.8732 53.3274C33.01 53.3994 33.2109 53.4548 33.5301 53.4097C34.0842 53.3315 34.5994 53.7039 34.6952 54.2519C35.3013 57.7178 36.4597 62.9778 37.9581 67.4851C38.7087 69.7429 39.531 71.7698 40.3915 73.2791C40.8217 74.0337 41.244 74.6276 41.648 75.0504C42.0578 75.4793 42.3932 75.6742 42.6419 75.7394C42.9894 75.8306 43.2641 76.0944 43.3679 76.4367L49.668 97.2107C49.8335 97.7563 52.3939 114.895 51.8451 115.061C51.2963 115.228 47.1464 101.705 46.798 99.5858L41.5272 77.5231C41.0103 77.2763 40.5492 76.903 40.1414 76.4762C39.5814 75.8901 39.0639 75.1424 38.5852 74.3028C37.628 72.6238 36.7558 70.4518 35.9872 68.1396C34.5647 63.8608 33.4497 58.9574 32.8014 55.4525C32.4791 55.4014 32.1767 55.3007 31.8976 55.1537C31.3528 54.8669 30.961 54.4383 30.6849 53.9976C30.5767 53.8247 30.4829 53.6449 30.402 53.4624L29.7289 54.1465C29.4268 54.4536 28.9658 54.5434 28.571 54.3722C28.1762 54.2009 27.9298 53.8042 27.952 53.3756L28.1093 50.334L28.0559 50.3502C27.7115 50.4547 27.3379 50.3744 27.0685 50.1381C26.7992 49.9018 26.6724 49.5432 26.7336 49.1902L27.0318 47.4695C26.7491 47.5141 26.4582 47.4407 26.2302 47.2625C25.9642 47.0546 25.8173 46.7302 25.8368 46.3935L26.0688 42.384C19.654 35.0529 17.165 29.475 16.8203 25.382C16.4651 21.1646 18.4032 18.5531 20.5307 17.5088C20.7846 17.3841 21.0782 17.3678 21.3438 17.4635Z" fill="black"/>
<path fill-rule="evenodd" clip-rule="evenodd" d="M63.4835 2.4473C63.3177 2.67824 63.2524 2.96918 63.3028 3.25287C63.5932 4.88907 63.9193 7.37478 63.9608 9.51105C63.9817 10.5864 63.9287 11.5143 63.7873 12.1846C63.7166 12.5202 63.6338 12.7403 63.5608 12.8695C63.5366 12.9122 63.5183 12.937 63.5075 12.9499C62.7606 13.2498 62.2373 13.9121 61.8704 14.5482C61.4816 15.2226 61.1718 16.0382 60.9255 16.859C60.667 17.7201 60.4647 18.6336 60.3137 19.4804C60.0753 19.4974 59.8353 19.5489 59.5997 19.6203C59.4089 19.6782 59.035 19.7229 58.4718 19.7253C57.9324 19.7276 57.2981 19.6917 56.6339 19.632C55.3062 19.5127 53.9199 19.3036 53.0545 19.148C52.8955 19.1195 52.7327 19.1289 52.5789 19.1755L45.3858 21.1766C44.8385 21.3426 45.0855 22.5237 45.255 23.0829C45.4246 23.6421 46.4936 23.2322 47.0409 23.0662L52.961 21.2708C53.874 21.4282 55.1947 21.6209 56.4759 21.7361C57.1757 21.799 57.8789 21.8402 58.5052 21.8375C59.0306 21.8353 59.5692 21.8029 60.0208 21.6969C60.0433 22.1642 60.3689 22.5732 60.8292 22.6843C61.3406 22.8077 61.8576 22.5243 62.034 22.0238C62.1067 21.8175 62.1686 21.5587 62.1802 21.2804C62.1834 21.2045 62.1831 21.1198 62.1763 21.029C62.3153 19.9863 62.5575 18.6738 62.9104 17.4982C63.1329 16.7569 63.3869 16.1123 63.6629 15.6337C63.955 15.1273 64.1864 14.9551 64.2931 14.9144C64.8051 14.7188 65.1434 14.3266 65.3623 13.9391C65.5803 13.5534 65.7208 13.1035 65.8162 12.6516C66.007 11.7471 66.0573 10.6305 66.0352 9.49454C66.0006 7.71193 65.7837 5.73579 65.5466 4.14489C66.8901 4.35444 68.5481 5.27797 69.86 7.68307C71.5873 10.8498 72.7085 16.6055 71.4613 26.5373C71.4268 26.812 71.5 27.0907 71.665 27.3133L73.4665 29.7435L73.4224 29.7569C73.079 29.8611 72.8152 30.1395 72.7251 30.4927C72.6351 30.846 72.7317 31.2237 72.9805 31.491L74.1935 32.7942C73.9357 32.9144 73.7369 33.1393 73.6479 33.4182C73.544 33.7439 73.6029 34.1026 73.8058 34.3797L74.886 35.8553L74.7773 35.8314C74.3701 35.742 73.9527 35.9078 73.7165 36.253C73.4803 36.5981 73.4709 37.0558 73.6925 37.4163C73.9356 37.8117 74.1847 38.4279 74.2043 38.9709C74.2136 39.2277 74.1703 39.4252 74.0919 39.5745C74.0192 39.7129 73.8842 39.8731 73.5949 40.0139C73.0928 40.2581 72.8759 40.8658 73.1045 41.388C74.5498 44.6906 76.5461 49.8367 77.8385 54.5306C78.4859 56.8818 78.9443 59.076 79.0804 60.8493C79.1484 61.7358 79.1328 62.4805 79.0362 63.0688C78.9382 63.6655 78.7703 64.0204 78.6013 64.2159C78.3652 64.4889 78.2862 64.8687 78.3926 65.2196L85.6236 85.4275C85.7931 85.9867 85.6009 87.3909 86.1482 87.2249C86.6955 87.0589 95.3892 104.371 95.2197 103.812L80.5248 65.1143C80.8136 64.6131 80.9852 64.035 81.0827 63.4413C81.2166 62.6258 81.2246 61.6961 81.1489 60.7097C80.9975 58.7371 80.4988 56.391 79.8358 53.9831C78.609 49.5271 76.7771 44.7101 75.3447 41.3505C75.5826 41.1258 75.776 40.8699 75.9243 40.5876C76.2137 40.0364 76.297 39.4501 76.2777 38.9183C76.2702 38.7098 76.2467 38.5034 76.2111 38.302L77.1518 38.5087C77.5742 38.6015 78.0058 38.4194 78.236 38.0513C78.4663 37.6832 78.4473 37.2057 78.1883 36.8519L76.35 34.3407L76.4032 34.3245C76.7466 34.2204 77.0105 33.942 77.1005 33.5887C77.1905 33.2354 77.0939 32.8577 76.8451 32.5905L75.6322 31.2873C75.8909 31.1666 76.0902 30.9405 76.1787 30.6602C76.2819 30.3331 76.2212 29.9733 76.016 29.6965L73.5723 26.3999C74.7594 16.5316 73.6847 10.3664 71.6711 6.67458C69.5962 2.8706 66.527 1.72707 64.1813 2.02933C63.9013 2.0654 63.6493 2.21635 63.4835 2.4473Z" fill="black"/>
<path d="M39.5705 92.3751C41.667 88.022 40.7686 83.8731 36.8908 80.0533L31.7869 75.0232C31.4402 74.6699 31.056 74.4168 30.6863 74.2454C29.3662 73.633 27.9663 74.1921 27.3601 75.4508C26.9476 76.3075 27.0876 77.3135 27.8667 78.1774L29.4731 79.9171C29.5174 79.9591 29.5358 80.0104 29.5106 80.0628C29.4723 80.1199 29.4156 80.1257 29.3499 80.1059L19.3692 75.4764C17.9212 74.7941 16.568 75.2786 15.9029 76.6597C15.6541 77.1538 15.6159 77.7028 15.7773 78.1948C14.4212 77.7689 13.2463 78.2185 12.657 79.4423C12.076 80.6485 12.4816 81.8633 13.6166 82.6143C13.1482 82.782 12.7793 83.1456 12.5604 83.6001C11.9458 84.8763 12.431 86.1494 13.804 86.7862L15.1946 87.4312C14.6825 87.6001 14.2578 88.0126 14.0052 88.5371C13.3821 89.8308 13.9163 91.1586 15.3069 91.8037L26.0093 96.7679C31.8357 99.4704 37.0532 97.6023 39.5705 92.3751ZM37.8249 91.6402C35.72 96.0108 31.5978 97.371 26.5941 95.0394L16.2789 90.2548C15.7379 90.0145 15.5366 89.4934 15.7808 88.9864C16.0249 88.4794 16.5714 88.2838 17.0995 88.5287L23.467 91.4715C23.9247 91.6838 24.4053 91.4683 24.599 91.0662C24.814 90.642 24.674 90.1279 24.2163 89.9157L14.7063 85.4938C14.1783 85.2488 13.9686 84.7452 14.2127 84.2382C14.4523 83.7184 15.0118 83.5181 15.5399 83.763L24.4162 87.8909C24.8738 88.1032 25.3629 87.8702 25.5565 87.4681C25.7586 87.0486 25.6316 86.5298 25.1739 86.3175L14.7532 81.484C14.2251 81.239 14.0062 80.7097 14.2634 80.1981C14.4946 79.6958 15.0586 79.5083 15.5867 79.7532L26.0074 84.5868C26.4345 84.7956 26.9373 84.6011 27.1394 84.1815C27.3499 83.7444 27.1922 83.2222 26.7698 83.0262L17.8805 78.903C17.3524 78.658 17.1511 78.1369 17.3907 77.6171C17.6479 77.1055 18.1859 76.9273 18.714 77.1722L30.9654 82.855C31.5861 83.1535 32.1279 82.9451 32.372 82.4381C32.5826 82.001 32.5742 81.5266 32.0752 80.9529L28.9428 77.3292C28.515 76.8313 28.5578 76.2951 28.9268 75.9315C29.3431 75.5365 29.8682 75.6089 30.3702 76.1092L35.6386 81.3119C39.1484 84.8005 39.4788 88.1834 37.8249 91.6402Z" fill="#FFEBC8"/>
<path d="M89.3491 74.5924C92.8751 77.8959 97.1026 78.2806 101.908 75.7241L108.235 72.3599C108.676 72.1349 109.033 71.8441 109.307 71.5427C110.286 70.4663 110.172 68.9633 109.152 68.0081C108.459 67.3581 107.457 67.1905 106.399 67.6752L104.259 68.6872C104.205 68.717 104.151 68.7191 104.108 68.6795C104.065 68.6258 104.077 68.57 104.115 68.5132L111.52 60.376C112.605 59.1986 112.547 57.7625 111.429 56.7144C111.032 56.3292 110.519 56.1283 110.002 56.1351C110.814 54.9686 110.737 53.713 109.745 52.7844C108.768 51.869 107.488 51.8924 106.432 52.7505C106.412 52.2533 106.175 51.7925 105.807 51.4476C104.773 50.4791 103.414 50.561 102.395 51.6804L101.363 52.8141C101.355 52.275 101.089 51.7462 100.664 51.3482C99.6162 50.3665 98.1894 50.4787 97.1576 51.6125L89.2173 60.338C84.8945 65.0883 85.1152 70.6257 89.3491 74.5924ZM90.5729 73.1467C87.0328 69.8301 86.9689 65.4898 90.6914 61.4134L98.3445 53.0036C98.7357 52.5592 99.2932 52.5232 99.7038 52.9079C100.114 53.2926 100.138 53.8726 99.7458 54.3032L95.0318 59.4978C94.6923 59.8709 94.754 60.394 95.0797 60.6992C95.4201 61.0314 95.9525 61.0516 96.292 60.6785L103.358 52.9283C103.75 52.4977 104.293 52.4484 104.704 52.8332C105.128 53.2173 105.152 53.8111 104.76 54.2417L98.1641 61.4753C97.8245 61.8484 97.9005 62.3848 98.2262 62.6899C98.566 63.0083 99.0989 63.0424 99.4385 62.6692L107.17 54.1733C107.562 53.7427 108.132 53.6924 108.543 54.0909C108.953 54.4618 108.964 55.0561 108.572 55.4867L100.84 63.9826C100.513 64.3276 100.548 64.8656 100.888 65.1841C101.242 65.5157 101.788 65.5216 102.101 65.1772L108.696 57.9298C109.088 57.4993 109.646 57.4632 110.07 57.8474C110.481 58.2459 110.49 58.8126 110.098 59.2432L101.009 69.2317C100.538 69.7345 100.575 70.3139 100.985 70.6986C101.339 71.0304 101.794 71.1643 102.491 70.86L106.886 68.956C107.49 68.6968 107.988 68.8982 108.225 69.3591C108.477 69.8745 108.251 70.3539 107.623 70.6831L101.082 74.1525C96.7027 76.4571 93.3761 75.7597 90.5729 73.1467Z" fill="#FFEBC8"/>
</svg>
