<?xml version="1.0" encoding="UTF-8" standalone="no"?>
<svg
   viewBox="0 0 24 24"
   fill="currentColor"
   aria-hidden="true"
   data-slot="icon"
   version="1.1"
   id="svg1"
   width="576"
   height="576"
   xmlns="http://www.w3.org/2000/svg"
   xmlns:svg="http://www.w3.org/2000/svg">
  <defs
     id="defs1" />
  <path
     id="path5"
     style="fill:#f3573e;fill-opacity:1"
     d="M 12,2.25 A 8.25,8.25 0 0 0 3.75,10.5 c 0,3.845992 2.0198946,6.836176 3.9628906,8.826172 a 19.58,19.58 0 0 0 2.6816404,2.283203 16.975,16.975 0 0 0 1.144531,0.742187 l 0.07031,0.03906 0.0293,0.01563 A 0.76,0.76 0 0 0 12,22.498047 v -9.488281 a 2.8474576,2.8474576 0 0 1 -0.103516,0.0078 A 2.8474576,2.8474576 0 0 1 9.0507812,10.169922 2.8474576,2.8474576 0 0 1 11.896484,7.3222656 2.8474576,2.8474576 0 0 1 12,7.3242188 Z" />
  <path
     id="path4"
     style="fill:#f3573e;fill-opacity:1"
     d="M 12,2.25 V 7.3242188 A 2.8474576,2.8474576 0 0 1 14.744141,10.169922 2.8474576,2.8474576 0 0 1 12,13.009766 v 9.488281 a 0.76,0.76 0 0 0 0.361328,-0.0918 l 0.02734,-0.01367 0.07227,-0.04102 a 16.975,16.975 0 0 0 1.142578,-0.742187 19.58,19.58 0 0 0 2.683593,-2.283203 C 18.231105,17.336176 20.25,14.346992 20.25,10.5 A 8.25,8.25 0 0 0 12,2.25 Z" />
</svg>
