<?xml version="1.0" encoding="UTF-8"?>
<!--Generator: Apple Native CoreSVG 326-->
<!DOCTYPE svg
PUBLIC "-//W3C//DTD SVG 1.1//EN"
       "http://www.w3.org/Graphics/SVG/1.1/DTD/svg11.dtd">
<svg version="1.1" xmlns="http://www.w3.org/2000/svg" xmlns:xlink="http://www.w3.org/1999/xlink" viewBox="0 0 396.438 396.688">
 <g>
  <rect height="396.688" opacity="0" width="396.438" x="0" y="0"/>
  <path d="M6.46909 390.219C15.2191 398.719 29.7191 398.719 38.2191 390.219L198.219 230.219L358.219 390.219C366.719 398.719 381.469 398.969 389.969 390.219C398.469 381.469 398.469 367.219 389.969 358.719L229.969 198.469L389.969 38.4691C398.469 29.9691 398.719 15.4691 389.969 6.96909C381.219-1.78091 366.719-1.78091 358.219 6.96909L198.219 166.969L38.2191 6.96909C29.7191-1.78091 14.9691-2.03091 6.46909 6.96909C-2.03091 15.7191-2.03091 29.9691 6.46909 38.4691L166.469 198.469L6.46909 358.719C-2.03091 367.219-2.28091 381.719 6.46909 390.219Z" fill="black"/>
 </g>
</svg>
