<svg width="23" height="23" viewBox="0 0 23 23" fill="none" xmlns="http://www.w3.org/2000/svg">
<g clip-path="url(#clip0_491_805)">
<path d="M17.7282 3.38281V5.05093H15.9798V3.47969C15.9798 2.34796 15.3664 1.76704 14.2902 1.76704H3.43809C2.35242 1.76704 1.74848 2.34796 1.74848 3.47969V14.2857C1.74848 15.4174 2.35242 15.9983 3.43809 15.9983H5.2711V17.7468H3.41034C1.13231 17.7468 0 16.626 0 14.3826V3.38281C0 1.13933 1.13231 0.0185547 3.41034 0.0185547H14.3179C16.5844 0.0185547 17.7282 1.14403 17.7282 3.38281Z" fill="black"/>
<path d="M8.67988 22.779H19.5874C21.8539 22.779 22.9978 21.6535 22.9978 19.4148V8.41503C22.9978 6.17627 21.8539 5.05078 19.5874 5.05078H8.67988C6.40185 5.05078 5.26953 6.17158 5.26953 8.41503V19.4148C5.26953 21.6582 6.40185 22.779 8.67988 22.779ZM8.70762 21.0305C7.62196 21.0305 7.01801 20.4496 7.01801 19.3179V8.51192C7.01801 7.38016 7.62196 6.79926 8.70762 6.79926H19.5597C20.636 6.79926 21.2493 7.38016 21.2493 8.51192V19.3179C21.2493 20.4496 20.636 21.0305 19.5597 21.0305H8.70762Z" fill="black"/>
<path d="M9.88299 11.2108C10.7266 11.2247 11.4223 10.529 11.4223 9.65769C11.4223 8.81415 10.7266 8.13232 9.88299 8.13232C9.03705 8.13232 8.34375 8.81415 8.34375 9.65769C8.34375 10.529 9.03705 11.197 9.88299 11.2108ZM18.3909 11.2108C19.2321 11.2247 19.9278 10.529 19.9278 9.65769C19.9278 8.81415 19.2321 8.13232 18.3909 8.13232C17.545 8.13232 16.8493 8.81415 16.8493 9.65769C16.8493 10.529 17.545 11.197 18.3909 11.2108ZM14.1358 15.4707C14.9678 15.4707 15.6751 14.775 15.6751 13.9152C15.6751 13.0855 14.9678 12.3898 14.1358 12.3898C13.2922 12.3898 12.5989 13.0855 12.5989 13.9152C12.5989 14.775 13.2922 15.4707 14.1358 15.4707ZM9.88299 19.7327C10.7266 19.7327 11.4199 19.0393 11.4199 18.1819C11.4199 17.3383 10.7266 16.6564 9.88299 16.6564C9.03705 16.6564 8.35523 17.3383 8.35523 18.1819C8.35523 19.0393 9.03705 19.7327 9.88299 19.7327ZM18.3909 19.7327C19.2321 19.7327 19.9278 19.0393 19.9278 18.1819C19.9278 17.3383 19.2321 16.6564 18.3909 16.6564C17.545 16.6564 16.8632 17.3383 16.8632 18.1819C16.8632 19.0393 17.545 19.7327 18.3909 19.7327Z" fill="black"/>
</g>
<defs>
<clipPath id="clip0_491_805">
<rect width="23" height="22.7792" fill="white"/>
</clipPath>
</defs>
</svg>
