<?xml version="1.0" encoding="UTF-8" standalone="no"?>
<svg
   width="107"
   height="92"
   viewBox="0 0 107 92"
   fill="none"
   version="1.1"
   id="svg26"
   sodipodi:docname="LlamaRiddle.svg"
   inkscape:version="1.3.2 (091e20e, 2023-11-25)"
   xmlns:inkscape="http://www.inkscape.org/namespaces/inkscape"
   xmlns:sodipodi="http://sodipodi.sourceforge.net/DTD/sodipodi-0.dtd"
   xmlns="http://www.w3.org/2000/svg"
   xmlns:svg="http://www.w3.org/2000/svg">
  <defs
     id="defs26" />
  <sodipodi:namedview
     id="namedview26"
     pagecolor="#505050"
     bordercolor="#eeeeee"
     borderopacity="1"
     inkscape:showpageshadow="0"
     inkscape:pageopacity="0"
     inkscape:pagecheckerboard="0"
     inkscape:deskcolor="#505050"
     inkscape:zoom="2.2149533"
     inkscape:cx="45.599156"
     inkscape:cy="58.691983"
     inkscape:window-width="1312"
     inkscape:window-height="449"
     inkscape:window-x="0"
     inkscape:window-y="38"
     inkscape:window-maximized="0"
     inkscape:current-layer="svg26" />
  <path
     d="m 78.414426,26.3913 c 1.33107,-0.5136 2.52897,-0.5756 3.59387,-0.1862 1.077401,0.3846 1.860801,1.2114 2.350401,2.4802 0.4512,1.1693 0.4183,2.2324 -0.0986,3.1893 -0.5092,0.9396 -1.3896,1.658 -2.641201,2.1552 l 0.4467,1.4355 -2.7989,1.0799 -1.43241,-3.4346 1.11955,-0.432 c 0.95786,-0.3696 1.63996,-0.7685 2.04636,-1.1969 0.4188,-0.4331 0.5082,-0.9607 0.2683,-1.5826 -0.168,-0.4354 -0.4182,-0.7319 -0.7505,-0.8895 -0.3324,-0.1576 -0.71,-0.1548 -1.133,0.0084 -0.44779,0.1728 -0.7457,0.4378 -0.8937,0.795 -0.1528,0.3448 -0.1452,0.7349 0.0228,1.1702 l -3.00415,1.1591 c -0.31765,-0.7492 -0.42614,-1.4933 -0.32545,-2.2325 0.11312,-0.7439 0.43836,-1.4196 0.9757,-2.0271 0.54499,-0.6247 1.2964,-1.1218 2.25424,-1.4914 z m 4.160871,14.4509 c -0.559801,0.216 -1.082401,0.2319 -1.568001,0.0477 -0.4779,-0.2015 -0.8104,-0.5448 -0.9976,-1.03 -0.192,-0.4976 -0.1786,-0.9815 0.0401,-1.4517 0.2312,-0.4751 0.6266,-0.8206 1.1864,-1.0366 0.5473,-0.2112 1.060001,-0.216 1.537801,-0.0145 0.4904,0.1966 0.8315,0.5438 1.0235,1.0413 0.1872,0.4852 0.1652,0.9653 -0.0659,1.4403 -0.2235,0.4579 -0.609,0.7924 -1.1563,1.0035 z m 5.3797,-21.309 c 1.5972,-0.6163 3.0348,-0.6907 4.3127,-0.2234 1.2928,0.4616 2.233,1.4536 2.8204,2.9762 0.5414,1.4032 0.502,2.6789 -0.1182,3.8272 -0.6111,1.1275 -1.6676,1.9896 -3.1695,2.5863 l 0.536,1.7225 -3.3587,1.2959 -1.7189,-4.1216 1.3435,-0.5183 c 1.1494,-0.4435 1.968,-0.9222 2.4556,-1.4363 0.5026,-0.5197 0.6099,-1.1528 0.3219,-1.8992 -0.2015,-0.5224 -0.5017,-0.8782 -0.9006,-1.0673 -0.3988,-0.1891 -0.8519,-0.1858 -1.3595,0.01 -0.5374,0.2074 -0.8948,0.5254 -1.0724,0.9541 -0.1834,0.4137 -0.1743,0.8818 0.0273,1.4043 l -3.605,1.3909 c -0.3812,-0.8991 -0.5113,-1.7921 -0.3905,-2.679 0.1357,-0.8927 0.526,-1.7036 1.1708,-2.4326 0.654,-0.7496 1.5557,-1.3462 2.7051,-1.7897 z m 4.993,17.3412 c -0.6717,0.2591 -1.2989,0.2782 -1.8815,0.0571 -0.5735,-0.2418 -0.9725,-0.6538 -1.1972,-1.2359 -0.2304,-0.5971 -0.2143,-1.1778 0.0481,-1.7421 0.2774,-0.5701 0.752,-0.9847 1.4237,-1.2439 0.6568,-0.2534 1.272,-0.2592 1.8454,-0.0175 0.5885,0.236 0.9978,0.6526 1.2282,1.2497 0.2246,0.5822 0.1983,1.1583 -0.0791,1.7284 -0.2682,0.5493 -0.7308,0.9507 -1.3876,1.2042 z m 6.5404,-21.7912 c 1.597203,-0.6163 3.034803,-0.6907 4.312603,-0.2234 1.2929,0.4616 2.233,1.4536 2.8205,2.9762 0.5414,1.4032 0.502,2.6789 -0.1183,3.8272 -0.6111,1.1275 -1.6676,1.9896 -3.1695,2.5863 l 0.536,1.7225 -3.3586,1.2959 -1.718903,-4.1216 1.343503,-0.5183 c 1.1494,-0.4435 1.9679,-0.9222 2.4556,-1.4362 0.5026,-0.5198 0.6099,-1.1529 0.3219,-1.8992 -0.2016,-0.5225 -0.5018,-0.8783 -0.9006,-1.0674 -0.3988,-0.1891 -0.852,-0.1858 -1.3595,0.0101 -0.5374,0.2073 -0.894903,0.5253 -1.072503,0.954 -0.1834,0.4137 -0.1742,0.8818 0.0273,1.4043 l -3.6049,1.3909 c -0.3812,-0.8991 -0.5114,-1.7921 -0.3906,-2.679 0.1358,-0.8927 0.5261,-1.7036 1.1709,-2.4325 0.654,-0.7497 1.5556,-1.3463 2.7051,-1.7898 z m 4.993003,17.3412 c -0.6717,0.2591 -1.2989,0.2782 -1.8816,0.0571 -0.5734,-0.2418 -0.9725,-0.6537 -1.1971,-1.2359 -0.2304,-0.5971 -0.2144,-1.1778 0.0481,-1.7421 0.2774,-0.5701 0.7519,-0.9847 1.4237,-1.2439 0.6568,-0.2534 1.2719,-0.2592 1.8454,-0.0175 0.5884,0.2361 0.9978,0.6526 1.2282,1.2497 0.2246,0.5822 0.1982,1.1583 -0.0792,1.7284 -0.2682,0.5493 -0.7307,0.9507 -1.3875,1.2042 z"
     fill="#000000"
     id="path1" />
  <path
     d="m 11.738139,75.8151 v -6.3037 l 9.2513,-1.363 -0.9682,7.6667 -1.6136,1.6185 -2.2591,11.1593 h -3.2274 l -1.183,-1.0222 1.183,-9.7963 z"
     fill="#e5c080"
     id="path2" />
  <path
     fill-rule="evenodd"
     clip-rule="evenodd"
     d="m 22.145839,67.2964 -1.0395,8.8137 -1.541,1.6551 -2.2081,11.6793 h -4.0422 l -1.5769,-1.4588 1.131,-10.0277 -1.102,-1.9541 v -7.0702 z m -8.8464,2.7172 v 5.6956 l 1.1357,2.0136 -1.1067,9.811 0.6608,0.6113 h 2.0616 l 2.0644,-10.9196 1.5108,-1.6225 0.7916,-6.7123 z"
     fill="#000000"
     id="path3" />
  <path
     fill-rule="evenodd"
     clip-rule="evenodd"
     d="m 53.371239,69.2518 -2.0351,9.0573 -1.3358,1.1657 v 9.8829 l -1.2065,0.7521 h -3.6194 l -0.9433,-10.0615 -1.1067,-2.4582 v -6.8135 h 1.4998 v 6.5657 l 1.0836,2.407 0.8487,9.0517 h 1.7567 l 0.1873,-0.1168 v -9.7515 l 1.4518,-1.2669 1.9471,-8.6658 z m -27.7544,1.9999 1.471,-0.2552 3.2571,14.2978 1.1924,1.5954 h 1.2332 v -2.6633 l -1.943,-7.7639 1.943,-2.4987 v -1.884 l 1.4961,-0.0651 0.8718,7.6079 0.8109,0.7961 0.5024,9.2071 0.5666,0.9338 1.4601,-0.2039 0.7633,-2.8862 v -6.9557 l 1.207,-1.931 0.487,-6.5454 1.4967,0.0848 -0.5085,6.8337 -1.1824,1.8917 v 6.771 l -1.0288,3.8903 -3.5176,0.4911 -1.2255,-2.0201 -0.4932,-9.0372 -0.782,-0.7677 -0.5062,-4.4175 -0.758,0.9748 1.8401,7.3529 v 4.1133 h -3.5455 l -1.7944,-2.4011 z"
     fill="#000000"
     id="path4" />
  <path
     d="m 25.616839,71.7724 3.3247,13.8635 1.5113,1.9208 h 2.418 v -3.2571 l -1.9143,-7.2658 1.9143,-2.3384 v -2.0043 l 0.9067,7.5163 0.806,0.7516 0.5038,8.7691 0.9067,1.4198 2.5188,-0.3341 0.9067,-3.2571 V 80.959 l 1.209,-1.8373 0.5038,-6.4306 2.2165,-1.2528 v 6.4307 l 1.1082,2.3384 0.9068,9.1866 h 2.7202 l 0.7053,-0.4175 v -9.4372 l 1.4105,-1.1692 2.015,-8.5185 z"
     fill="#e5c080"
     id="path5" />
  <path
     fill-rule="evenodd"
     clip-rule="evenodd"
     d="m 53.371239,69 -2.1987,9.6581 -1.319,1.1359 v 9.6311 l -1.1912,0.7328 h -3.5737 l -0.9315,-9.805 -1.0926,-2.3955 v -5.4333 l -0.7067,0.415 -0.4787,6.3493 -1.1675,1.8434 v 6.5984 l -1.0157,3.7912 -3.4733,0.4786 -1.21,-1.9686 -0.487,-8.8069 -0.7721,-0.7481 -0.4998,-4.305 -0.7485,0.95 1.8169,7.1655 v 4.0084 h -3.5007 l -1.7717,-2.3398 -3.4329,-14.8729 z m -20.5299,5.4234 v -1.836 l 1.4772,-0.0634 0.8608,7.414 0.8007,0.7758 0.496,8.9725 0.5594,0.91 1.4418,-0.1987 0.7536,-2.8126 v -6.7784 l 1.1917,-1.8818 0.5043,-6.6891 1.9947,-1.1713 -15.5301,1.1653 3.0549,13.2355 1.1773,1.5547 h 1.2177 v -2.5954 l -1.9185,-7.566 z m 11.704,-3.4809 v 6.7733 l 1.07,2.3457 0.8379,8.821 h 1.7345 l 0.185,-0.1138 v -9.503 l 1.4334,-1.2346 1.7333,-7.6134 z"
     fill="#000000"
     id="path6" />
  <path
     fill-rule="evenodd"
     clip-rule="evenodd"
     d="m 20.989439,69.9959 -0.7616,6.2968 -1.4835,1.5111 -1.9487,11.6404 h -3.5732 l -1.4843,-1.2487 1.033,-10.1728 -1.003,-1.3706 v -6.7284 h 1.4025 v 6.33 l 1.045,1.4265 -1.0152,9.9911 0.5644,0.4747 h 1.8284 l 1.8292,-10.9264 1.4616,-1.4888 0.711,-5.8792 z"
     fill="#000000"
     id="path7" />
  <path
     d="m 8.4211389,43.7446 7.0857001,3.3456 c 0,0 3.4556,-1.3868 5.8066,-1.8873 1.0638,-0.2264 2.7556,-0.4532 2.7556,-0.4532 l 6.1018,-0.6005 8.07,0.1959 v -4.032 l -0.8857,0.6005 v -6.0908 h -0.7873 l -0.5905,-5.2329 -0.7873,-7.635 2.1651,-7.4634 -3.4445,-4.80398 -0.6889,-4.11773 1.2794,-4.37508 1.4762,1.71572 1.3778,3.13119 1.3778,3.13119 h 2.4604 l 1.8699,-3.25987 0.4921,2.05886 2.1651,-2.40201 0.3937,1.11522 3.4445,-1.11522 -0.5905,1.80151 2.362,-0.68629 V 7.3713 h 3.1493 l 1.3778,-6.519738 3.6414,4.375088 -3.6414,5.31875 3.6414,3.9461 h -2.0667 c 2.1771,3.0915 4.035,4.5467 3.0509,6.0051 -0.9842,1.4583 -3.0509,3.0025 -3.0509,3.0025 v 2.9167 c 0,0 0,0.2574 0.8144,5.5761 0.8145,5.3187 7.4525,18.3582 4.9921,23.5911 -2.4604,5.233 -2.1651,3.7746 -4.035,6.6914 -1.8699,2.9167 -2.0268,3.6627 -4.157,5.576 l -3.9131,2.2305 -0.8858,0.3431 -1.1071,0.1931 -1.9929,0.5361 -5.7574,-0.4718 0.2148,1.2868 c -4.8403,0.7721 -7.5959,0.5147 -12.302,-0.6863 l -0.2147,0.6863 -2.5588,-1.2868 -0.5905,0.6005 -1.8699,-1.3726 -0.5905,1.3726 -2.1651,-1.3726 v 0.7721 l -1.181,-0.7721 -0.6889,0.7721 -1.7715,-0.7721 -0.8858,0.7721 -2.0667,-0.7721 -0.5905,0.7721 -1.3779,-0.7721 -0.59,0.7721 -0.886,-0.7721 -0.984,0.7721 C 8.8111389,69.99 8.2071389,69.1896 7.8301389,66.4779 c 0.153,0.8424 -0.012,0.016 -0.295,-3.2599 -0.283,-3.2759 -0.118,-1.7827 0,-3.8604 0.118,-2.0776 0.752,-3.1868 2.067,-5.1471 h -2.953 l 1.181,-1.8015 -1.87,-0.429 1.575,-1.6299 -0.886,-1.1152 0.886,-0.8579 -1.575,-1.2868 3.051,-0.8578 z"
     fill="#ffebc8"
     id="path8" />
  <path
     fill-rule="evenodd"
     clip-rule="evenodd"
     d="m 56.004539,0 4.8627,5.92403 -3.5679,5.28417 4.2176,4.6344 h -2.2253 c 0.2715,0.3639 0.5334,0.7035 0.781,1.0242 l 0.026,0.0337 c 0.442,0.5724 0.8494,1.1 1.1622,1.5821 0.6321,0.9741 1.0255,1.9864 0.3304,3.0309 -0.5299,0.7962 -1.3302,1.5896 -1.9713,2.1672 -0.3252,0.2929 -0.6189,0.5387 -0.8317,0.7115 -0.0345,0.0281 -0.0669,0.0542 -0.097,0.0783 v 2.5974 c 0.0013,0.0134 0.0038,0.0377 0.0086,0.0787 0.0119,0.1013 0.0363,0.2948 0.0862,0.6568 0.0996,0.7235 0.2994,2.1108 0.6998,4.7621 0.1916,1.2685 0.7326,3.0287 1.4217,5.0819 0.2164,0.6445 0.4468,1.3166 0.6836,2.0071 0.5094,1.4857 1.048,3.0564 1.5375,4.6198 0.7179,2.2929 1.3435,4.6093 1.6344,6.6925 0.2881,2.0637 0.263,3.9922 -0.4154,5.4551 -1.629,3.5132 -2.0855,4.1003 -2.7351,4.9357 -0.3214,0.4134 -0.6902,0.8876 -1.2716,1.8073 -0.417,0.6595 -0.7492,1.2123 -1.0405,1.6972 -0.9672,1.6099 -1.4845,2.4708 -3.1613,3.9981 l -0.0564,0.0513 -3.9657,2.292 -0.9987,0.3923 -1.1317,0.2001 -2.0633,0.5628 -4.8839,-0.4058 0.1789,1.087 -0.6914,0.1118 c -2.4204,0.3915 -4.3524,0.5273 -6.2827,0.4046 -1.726,-0.1097 -3.4242,-0.4244 -5.4389,-0.9234 l -0.2656,0.8607 -2.8115,-1.4336 -0.6574,0.6779 -1.6021,-1.1925 -0.5548,1.3074 -1.7466,-1.1227 v 0.7933 l -1.7549,-1.1633 -0.6047,0.6871 -1.8069,-0.7985 -0.8486,0.7501 -1.929,-0.7307 -0.6421,0.8513 -1.3551,-0.77 -0.6764,0.8967 -1.0105,-0.8935 -0.835,0.6638 -0.451,-0.2138 c -0.809,-0.383 -1.4500001,-0.834 -1.9160001,-1.605 -0.443,-0.7343 -0.696,-1.7098 -0.884,-3.0775 l 0.025,-0.0031 c -0.003,-0.0297 -0.007,-0.0619 -0.011,-0.0968 -0.057,-0.5133 -0.167,-1.541 -0.307,-3.1802 -0.137,-1.6065 -0.173,-2.1096 -0.149,-2.4606 0.009,-0.1207 0.026,-0.238 0.043,-0.3537 0.007,-0.0481 0.014,-0.0959 0.021,-0.1435 0.025,-0.1857 0.055,-0.4662 0.084,-0.9722 0.103,-1.8431 0.596,-2.993 1.505,-4.4569 h -2.905 l 1.314,-2.0316 -2.035,-0.4732 1.932,-2.0277 -0.882,-1.1262 0.779,-0.765 -1.93,-1.5992 3.555,-1.0136 -0.766,-3.2721 8.0310001,3.8447 c 0.0716,-0.0281 0.1535,-0.0601 0.2446,-0.0954 0.3595,-0.1393 0.863,-0.3302 1.44,-0.537 1.1446,-0.4103 2.6132,-0.8958 3.8236,-1.1571 0.5476,-0.1182 1.2448,-0.2342 1.7945,-0.3194 0.2771,-0.0429 0.5209,-0.0787 0.6955,-0.1038 0.0874,-0.0125 0.1576,-0.0224 0.2061,-0.0291 l 0.0561,-0.0078 0.0148,-0.002 0.0049,-7e-4 c 10e-5,0 5e-4,-10e-5 0.1113,0.6368 l -0.1113,-0.6368 0.015,-0.002 6.0667,-0.6054 7.239,0.1781 v -2.0407 l -0.8711,0.5988 v -6.7473 h -0.7062 l -0.6455,-5.8 -5e-4,-0.0054 -0.7855,-7.7234 2.0837,-7.2829 -3.3042,-4.6726 -0.7206,-4.36771 1.6704,-5.792081 2.4266,2.859671 2.5672,5.91559 h 1.4681 l 2.5756,-4.55299 0.5924,2.51305 2.0224,-2.27497 0.5698,1.63665 4.0149,-1.31803 -0.5969,1.84643 1.9714,-0.5808 v 0.93407 h 1.7613 z m -4.7728,8.30705 -2.6748,0.78802 0.5647,-1.74675 -2.7608,0.90632 -0.2046,-0.58769 -2.2366,2.51595 -0.3756,-1.59347 -1.1025,1.94897 h -3.3717 l -2.8534,-6.57498 -0.4772,-0.5624 -0.8462,2.93419 0.6344,3.84519 3.4715,4.9093 -2.1752,7.6031 0.7626,7.4994 6e-4,0.0054 0.5155,4.6319 h 0.8426 v 5.401 l 0.8711,-0.5988 v 6.0011 l -8.6354,-0.2125 -5.9355,0.5923 -0.0035,5e-4 -0.0532,0.0074 c -0.0233,0.0032 -0.052,0.0072 -0.0855,0.012 -0.0334,0.0047 -0.0716,0.0101 -0.114,0.0162 -0.17,0.0244 -0.4076,0.0593 -0.6773,0.1011 -0.5438,0.0843 -1.2018,0.1943 -1.7005,0.3019 -1.1019,0.2379 -2.4888,0.6934 -3.6215,1.0994 -0.5617,0.2013 -1.0524,0.3874 -1.4025,0.523 -0.1749,0.0678 -0.3144,0.1229 -0.4099,0.1609 -0.0477,0.019 -0.0844,0.0337 -0.1089,0.0436 l -0.0276,0.0111 -0.0082,0.0034 -0.3317,0.135 -5.9108,-2.83 0.395,1.69 -2.4460001,0.6974 1.168,0.9674 -0.964,0.946 0.861,1.0982 -1.166,1.2232 1.6440001,0.3823 -1.0100001,1.5616 h 2.9180001 l -0.641,0.9697 c -1.275,1.9274 -1.8270001,2.9245 -1.9340001,4.8396 -0.03,0.53 -0.063,0.8404 -0.092,1.0603 -0.013,0.0946 -0.023,0.1609 -0.031,0.2139 -0.012,0.0835 -0.02,0.1341 -0.025,0.2101 -0.017,0.2391 0.005,0.625 0.147,2.2854 0.139,1.6277 0.248,2.6455 0.304,3.1511 0.006,0.0533 0.012,0.1018 0.017,0.1448 0.006,0.058 0.012,0.1062 0.016,0.1436 0.003,0.0325 0.006,0.061 0.008,0.083 0.001,0.0105 0.002,0.024 0.003,0.0376 0.001,0.0065 0.001,0.0178 0.002,0.0313 0,8e-4 0,0.0197 -10e-4,0.0475 0.1720001,1.0854 0.3840001,1.7512 0.6610001,2.2086 0.216,0.3587 0.487,0.6134 0.884,0.8482 l 1.083,-0.8623 0.7319,0.6465 0.4852,-0.6432 1.3551,0.7699 0.5194,-0.6886 2.1365,0.8092 0.8937,-0.7899 1.6777,0.7415 0.7504,-0.8528 0.5681,0.3766 v -0.7466 l 2.5124,1.6149 0.6069,-1.4302 2.076,1.5452 0.5042,-0.5199 2.2218,1.1329 0.1579,-0.5116 0.7128,0.1845 c 2.2934,0.5935 4.0713,0.9429 5.8476,1.0558 1.5934,0.1012 3.212,0.0137 5.2234,-0.2801 l -0.2426,-1.4744 6.4412,0.5352 1.8569,-0.5065 1.0462,-0.1849 0.7435,-0.2921 3.7313,-2.1565 c 1.479,-1.3548 1.8992,-2.0534 2.8223,-3.5881 0.2966,-0.493 0.645,-1.0722 1.097,-1.7872 0.6633,-1.0491 1.0505,-1.5429 1.3721,-1.9529 0.61,-0.7779 0.9838,-1.2545 2.5584,-4.6502 0.5316,-1.1465 0.5977,-2.8005 0.3174,-4.8085 -0.2777,-1.9885 -0.8807,-4.2331 -1.5926,-6.5065 -0.4848,-1.5485 -1.0142,-3.0924 -1.521,-4.5703 -0.2382,-0.6946 -0.4714,-1.3747 -0.6927,-2.0339 -0.6846,-2.04 -1.2601,-3.8943 -1.4691,-5.2779 -0.4006,-2.6529 -0.6013,-4.046 -0.7019,-4.7769 -0.0503,-0.3652 -0.076,-0.5674 -0.0891,-0.6799 -0.0066,-0.0562 -0.0104,-0.0924 -0.0126,-0.1168 -0.0011,-0.0123 -0.0019,-0.0232 -0.0025,-0.0333 -4e-4,-0.0051 -7e-4,-0.0108 -9e-4,-0.0168 l -3e-4,-0.0101 -1e-4,-0.0058 v -0.0032 -0.0016 c 0,-9e-4 0,-0.0017 0.7291,-0.0017 h -0.7291 v -3.2052 l 0.2544,-0.1927 7e-4,-5e-4 0.0033,-0.0026 0.0151,-0.0115 c 0.0137,-0.0105 0.0345,-0.0266 0.0617,-0.0479 0.0543,-0.0425 0.1341,-0.1056 0.2332,-0.1862 0.1986,-0.1613 0.4736,-0.3914 0.7776,-0.6652 0.6172,-0.5561 1.3172,-1.2598 1.7553,-1.918 0.2728,-0.4099 0.2365,-0.8504 -0.3384,-1.7363 -0.2843,-0.438 -0.6645,-0.9305 -1.1267,-1.5291 l -0.0011,-0.0014 c -0.457,-0.592 -0.9818,-1.2724 -1.5274,-2.058 l -0.6817,-0.9815 h 1.8136 l -2.9452,-3.2364 3.595,-5.32424 -2.3002,-2.80225 -1.1569,5.55089 h -4.4336 z M 9.8091389,66.9528 c -0.037,-0.0428 -0.165,-0.1773 -0.398,-0.2288 -0.116,-0.0171 -0.354,-1e-4 -0.469,0.0346 -0.09,0.0419 -0.229,0.1398 -0.279,0.19 -0.052,0.0582 -0.085,0.1156 -0.105,0.1585 z"
     fill="#000000"
     id="path9" />
  <path
     d="m 60.312539,21.483 c -0.5055,0.8384 -0.149,0.1806 -0.3263,0.4273 -0.1774,0.2467 -0.1792,0.2382 -1.0603,0.2382 -0.8103,0 -1.1151,-0.8332 -0.8103,-1.3125 0.6741,-0.6385 1.0603,-0.3032 1.7074,-0.3032 0.6527,0.3032 0.3264,-0.1117 0.4895,0.9502 z"
     fill="#000000"
     id="path10" />
  <path
     fill-rule="evenodd"
     clip-rule="evenodd"
     d="m 58.886439,22.1478 c -0.7806,-0.0266 -1.0706,-0.8403 -0.7708,-1.3118 0.4923,-0.4663 0.8311,-0.4132 1.2301,-0.3507 0.1473,0.0231 0.3028,0.0475 0.4773,0.0475 0.2853,0.1325 0.3835,0.1278 0.4174,0.1693 4e-4,5e-4 7e-4,10e-4 0.0011,0.0015 0.0122,0.016 0.0154,0.0388 0.0163,0.0783 0.0021,0.0944 -0.0095,0.2836 0.0547,0.7011 -0.3094,0.5131 -0.2959,0.4658 -0.2795,0.4084 0.0104,-0.0364 0.022,-0.0769 -0.0468,0.0189 -0.1715,0.2385 -0.1789,0.2385 -0.9753,0.2382 -0.0274,0 -0.0557,0 -0.085,0 -0.003,0 -0.006,0 -0.0089,0 -0.0103,-10e-5 -0.0205,-3e-4 -0.0306,-7e-4 z"
     fill="#000000"
     id="path11" />
  <path
     d="m 54.495339,21.8554 c 0,0 2.4965,1.734 4.5281,0.6841 1.0258,-0.5301 -1.0259,0.6432 -1.5351,1.9878 -0.1851,0.4887 -0.3704,0.6961 -0.9962,0.8256 -0.467,0.0097 -1.799,-1.282 -1.9968,-1.5307 -0.5907,-0.8551 0,-2.9074 0,-1.9668 z"
     fill="#ffbdbd"
     fill-opacity="0.9"
     id="path12" />
  <path
     d="m 52.219339,16.6113 c 0,0.7057 -2.3552,1.2778 -3.5745,1.2778 -1.2193,0 -2.2077,-0.5721 -2.2077,-1.2778 0,-0.7057 0.9884,-1.2778 2.2077,-1.2778 1.2193,0 3.5745,0.5721 3.5745,1.2778 z"
     fill="#000000"
     id="path13" />
  <path
     d="m 59.350939,16.6618 c 0.7501,0.9205 1.7163,1.2273 0,1.2273 -1.7163,0 -2.777,-0.3057 -3.2102,-1.2273 -0.8528,-0.7147 -0.5421,-1.3283 1.1742,-1.3283 1.7163,0 2.036,0.3117 2.036,1.3283 z"
     fill="#000000"
     id="path14" />
  <path
     d="m 48.750039,16.6113 c 0,0.7057 -0.5178,1.2778 -1.1565,1.2778 -0.6386,0 -1.1564,-0.5721 -1.1564,-1.2778 0,-0.7057 0.5178,-1.2778 1.1564,-1.2778 0.6387,0 1.1565,0.5721 1.1565,1.2778 z"
     fill="#fcfcfc"
     id="path15" />
  <path
     d="m 48.750039,16.6113 c 0,0.7057 -0.5178,1.2778 -1.1565,1.2778 -0.6386,0 -1.1564,-0.5721 -1.1564,-1.2778 0,-0.7057 0.5178,-1.2778 1.1564,-1.2778 0.6387,0 1.1565,0.5721 1.1565,1.2778 z"
     fill="#fcfcfc"
     id="path16" />
  <path
     d="m 48.750039,16.6113 c 0,0.7057 -0.5178,1.2778 -1.1565,1.2778 -0.6386,0 -1.1564,-0.5721 -1.1564,-1.2778 0,-0.7057 0.5178,-1.2778 1.1564,-1.2778 0.6387,0 1.1565,0.5721 1.1565,1.2778 z"
     fill="#fcfcfc"
     id="path17" />
  <path
     d="m 48.750039,16.6113 c 0,0.7057 -0.5178,1.2778 -1.1565,1.2778 -0.6386,0 -1.1564,-0.5721 -1.1564,-1.2778 0,-0.7057 0.5178,-1.2778 1.1564,-1.2778 0.6387,0 1.1565,0.5721 1.1565,1.2778 z"
     fill="#fcfcfc"
     id="path18" />
  <path
     d="m 57.995939,16.1853 c 0,0.4705 -0.2589,0.8519 -0.5782,0.8519 -0.3194,0 -0.5783,-0.3814 -0.5783,-0.8519 0,-0.4704 0.2589,-0.8518 0.5783,-0.8518 0.3193,0 0.5782,0.3814 0.5782,0.8518 z"
     fill="#fcfcfc"
     id="path19" />
  <path
     d="m 57.995939,16.1853 c 0,0.4705 -0.2589,0.8519 -0.5782,0.8519 -0.3194,0 -0.5783,-0.3814 -0.5783,-0.8519 0,-0.4704 0.2589,-0.8518 0.5783,-0.8518 0.3193,0 0.5782,0.3814 0.5782,0.8518 z"
     fill="#fcfcfc"
     id="path20" />
  <path
     d="m 57.995939,16.1853 c 0,0.4705 -0.2589,0.8519 -0.5782,0.8519 -0.3194,0 -0.5783,-0.3814 -0.5783,-0.8519 0,-0.4704 0.2589,-0.8518 0.5783,-0.8518 0.3193,0 0.5782,0.3814 0.5782,0.8518 z"
     fill="#fcfcfc"
     id="path21" />
  <path
     d="m 57.995939,16.1853 c 0,0.4705 -0.2589,0.8519 -0.5782,0.8519 -0.3194,0 -0.5783,-0.3814 -0.5783,-0.8519 0,-0.4704 0.2589,-0.8518 0.5783,-0.8518 0.3193,0 0.5782,0.3814 0.5782,0.8518 z"
     fill="#fcfcfc"
     id="path22" />
  <path
     fill-rule="evenodd"
     clip-rule="evenodd"
     d="m 45.197039,12.7778 1.3483,1.1993 0.9448,-1.0695 2.5786,1.235 0.8607,-0.8931 1.0413,0.7204 0.4483,-0.7444 1.0209,0.5649 v -0.9971 l 4.5623,1.5781 -0.5694,1.1343 -2.5126,-0.8691 v 1.4501 l -1.927,-1.0665 -0.5343,0.8871 -1.317,-0.9111 -0.7116,0.7383 -2.531,-1.2122 -1.217,1.3777 -1.4031,-1.248 -2.3143,2.3851 -1.1528,-0.7709 z"
     fill="#000000"
     id="path23" />
  <path
     fill-rule="evenodd"
     clip-rule="evenodd"
     d="m 39.215939,15.959 -0.8103,-1.4776 -1.2224,0.688 1.0462,1.9079 1.9226,0.8116 0.6116,-1.1507 1.5137,0.8668 0.6881,-1.2333 -2.7563,-1.5783 -0.688,1.2944 z"
     fill="#000000"
     id="path24" />
  <path
     fill-rule="evenodd"
     clip-rule="evenodd"
     d="m 55.256839,24.0668 c 0.1291,0.0704 0.347,0.1526 0.7627,0.2834 0.0893,0.0281 0.2123,0.0402 0.452,-0.065 0.2655,-0.1166 0.5918,-0.3451 0.9893,-0.7063 0.3905,-0.355 0.798,-0.7895 1.241,-1.2749 0.0861,-0.0943 0.1735,-0.1906 0.2622,-0.2883 0.3583,-0.3944 0.7366,-0.811 1.1223,-1.2058 0.5309,-0.5435 0.5342,-0.8496 0.5063,-0.9519 -0.0173,-0.0635 -0.0908,-0.2047 -0.3884,-0.3579 -0.363,0.1841 -0.7437,0.3258 -1.095,0.4478 -0.1706,0.0592 -0.3336,0.1138 -0.4919,0.1667 -0.3692,0.1235 -0.7131,0.2385 -1.0685,0.3852 -0.9197,0.3796 -1.7043,0.8919 -2.1509,1.9745 -0.1105,0.5174 -0.1802,0.882 -0.2078,1.1575 -0.0265,0.2641 -0.0042,0.3673 0.0053,0.3966 0.0089,0.0069 0.0275,0.0198 0.0614,0.0384 z m -0.817,-1.8142 c -0.4701,2.1886 -0.396,2.3895 1.2431,2.9051 1.3118,0.4127 2.6304,-1.0391 4.0625,-2.6158 0.3573,-0.3933 0.7216,-0.7944 1.0946,-1.1763 1.241,-1.2704 0.9082,-2.3293 -0.7309,-2.8449 -0.4842,0.3363 -1.1263,0.5511 -1.8119,0.7805 -1.4535,0.4862 -3.1026,1.0379 -3.8574,2.9514 z"
     fill="#000000"
     id="path25" />
  <path
     fill-rule="evenodd"
     clip-rule="evenodd"
     d="m 58.226539,21.8609 -1.9783,-1.4586 0.3198,-0.3274 1.9784,1.4586 z"
     fill="#000000"
     id="path26" />
</svg>
