<?xml version="1.0" encoding="UTF-8"?>
<!--Generator: Apple Native CoreSVG 326-->
<!DOCTYPE svg
PUBLIC "-//W3C//DTD SVG 1.1//EN"
       "http://www.w3.org/Graphics/SVG/1.1/DTD/svg11.dtd">
<svg version="1.1" xmlns="http://www.w3.org/2000/svg" xmlns:xlink="http://www.w3.org/1999/xlink" viewBox="0 0 524 477.75">
 <g>
  <rect height="477.75" opacity="0" width="524" x="0" y="0"/>
  <path d="M68.25 475L455.75 475C498.25 475 524 445.5 524 407.25C524 395.5 520.5 383.25 514.25 372.25L320.25 34.25C307.25 11.5 285 0 262 0C239 0 216.5 11.5 203.75 34.25L9.75 372.25C3 383.5 0 395.5 0 407.25C0 445.5 25.75 475 68.25 475ZM68.5 435.75C51 435.75 40.5 422.25 40.5 407C40.5 402.25 41.5 396.25 44.25 391L238 53.25C243.25 44 252.75 40 262 40C271.25 40 280.5 44 285.75 53.25L479.5 391.25C482.25 396.5 483.5 402.25 483.5 407C483.5 422.25 472.5 435.75 455.25 435.75Z" fill="#ff453a"/>
  <path d="M262 306.5C274 306.5 281 299.5 281.25 286.5L284.75 154.75C285 142 275 132.5 261.75 132.5C248.25 132.5 238.75 141.75 239 154.5L242.25 286.5C242.5 299.25 249.5 306.5 262 306.5ZM262 387.75C276.5 387.75 289 376.25 289 361.75C289 347 276.75 335.75 262 335.75C247.25 335.75 235 347.25 235 361.75C235 376 247.5 387.75 262 387.75Z" fill="#ff453a"/>
 </g>
</svg>
