<?xml version="1.0" encoding="UTF-8"?>
<!--Generator: Apple Native CoreSVG 326-->
<!DOCTYPE svg
PUBLIC "-//W3C//DTD SVG 1.1//EN"
       "http://www.w3.org/Graphics/SVG/1.1/DTD/svg11.dtd">
<svg version="1.1" xmlns="http://www.w3.org/2000/svg" xmlns:xlink="http://www.w3.org/1999/xlink" viewBox="0 0 379 472.25">
 <g>
  <rect height="472.25" opacity="0" width="379" x="0" y="0"/>
  <path d="M189.5 0C176.5 0 167.25 9 167.25 22L167.25 351.25L169.75 425.75L183.75 420.75L94.25 322.5L37.25 266.5C33.5 262.5 27.5 260.5 21.5 260.5C9 260.5 0 270 0 282.25C0 288.25 2.25 293.5 7 298.5L172.75 464.75C177.5 469.75 183.25 472.25 189.5 472.25C195.75 472.25 201.5 469.75 206.25 464.75L372.25 298.5C377 293.5 379 288.25 379 282.25C379 270 370 260.5 357.5 260.5C351.5 260.5 345.75 262.5 341.75 266.5L284.75 322.5L195 420.75L209.25 425.75L211.75 351.25L211.75 22C211.75 9 202.5 0 189.5 0Z" fill="black"/>
 </g>
</svg>
