<svg width="106" height="89" viewBox="0 0 106 89" fill="none" xmlns="http://www.w3.org/2000/svg">
<rect x="0.898438" width="50.6046" height="88.5852" rx="5" fill="#00A6A6"/>
<rect x="55.3984" width="50.6046" height="88.5852" rx="5" fill="#F49F0A"/>
<path d="M94.125 61.4369L94.125 57.5688L89.0143 56.7324L89.5492 61.4369L90.4406 62.43L91.6885 69.2776L93.4713 69.2776L94.125 68.6504L93.4713 62.6391L94.125 61.4369Z" fill="#E5C080"/>
<path fill-rule="evenodd" clip-rule="evenodd" d="M88.3755 56.209L88.9497 61.6173L89.801 62.6329L91.0208 69.7996L93.2537 69.7996L94.125 68.9045L93.5001 62.7512L94.109 61.5521L94.109 57.2137L88.3755 56.209ZM93.2624 57.8763L93.2624 61.3713L92.635 62.6069L93.2464 68.6272L92.8813 69.0023L91.7425 69.0023L90.6021 62.3018L89.7675 61.3061L89.3302 57.1873L93.2624 57.8763Z" fill="black"/>
<path fill-rule="evenodd" clip-rule="evenodd" d="M71.1289 57.4094L72.2532 62.9672L72.9911 63.6825L72.9911 69.7469L73.6576 70.2084L75.657 70.2084L76.1781 64.0344L76.7894 62.526L76.7894 58.345L75.9609 58.345L75.9609 62.3739L75.3623 63.8509L74.8935 69.4053L73.9231 69.4053L73.8196 69.3336L73.8196 63.3498L73.0176 62.5724L71.942 57.2549L71.1289 57.4094ZM86.4609 58.6366L85.6483 58.48L83.849 67.2535L83.1904 68.2324L82.5091 68.2324L82.5091 66.5982L83.5825 61.8341L82.5091 60.3008L82.5091 59.1447L81.6827 59.1047L81.201 63.7732L80.7531 64.2617L80.4755 69.9114L80.1626 70.4844L79.3559 70.3593L78.9343 68.5882L78.9343 64.3201L78.2676 63.1351L77.9985 59.1187L77.1717 59.1707L77.4526 63.3641L78.1058 64.5248L78.1058 68.6797L78.6741 71.0669L80.6173 71.3683L81.2943 70.1287L81.5667 64.5832L81.9987 64.1121L82.2784 61.4014L82.6971 61.9996L81.6806 66.5115L81.6806 69.0355L83.6392 69.0355L84.6304 67.5622L86.4609 58.6366Z" fill="black"/>
<path d="M86.4609 58.955L84.6243 67.462L83.7895 68.6407L82.4537 68.6407L82.4537 66.6421L83.5112 62.1836L82.4537 60.7487L82.4537 59.5188L81.9528 64.131L81.5076 64.5922L81.2293 69.9731L80.7284 70.8443L79.337 70.6393L78.8361 68.6407L78.8361 64.5922L78.1682 63.4648L77.8899 59.5188L76.6655 58.7501L76.6655 62.6961L76.0533 64.131L75.5524 69.7681L74.0497 69.7681L73.6601 69.5119L73.6601 63.721L72.8809 63.0035L71.7678 57.7764L86.4609 58.955Z" fill="#E5C080"/>
<path fill-rule="evenodd" clip-rule="evenodd" d="M71.1289 57.2549L72.3436 63.1813L73.0722 63.8784L73.0722 69.7882L73.7302 70.2379L75.7044 70.2379L76.2189 64.2213L76.8226 62.7514L76.8226 59.4174L77.2129 59.672L77.4774 63.5681L78.1223 64.6992L78.1223 68.7482L78.6834 71.0746L80.6021 71.3683L81.2706 70.1603L81.5395 64.7561L81.9661 64.2971L82.2422 61.6555L82.6557 62.2384L81.652 66.6353L81.652 69.095L83.5858 69.095L84.5646 67.6592L86.4609 58.5328L71.1289 57.2549ZM82.47 60.5828L82.47 59.4562L81.654 59.4173L81.1785 63.9667L80.7362 64.4428L80.4621 69.9485L80.1531 70.5069L79.3567 70.385L78.9404 68.6591L78.9404 64.4997L78.282 63.345L78.0034 59.2404L76.9015 58.5216L85.4806 59.2367L83.793 67.3583L83.1427 68.3123L82.47 68.3123L82.47 66.7198L83.5298 62.077L82.47 60.5828ZM76.0045 58.4469L76.0045 62.6031L75.4135 64.0425L74.9505 69.4553L73.9924 69.4553L73.8902 69.3855L73.8902 63.5542L73.0983 62.7966L72.1409 58.1248L76.0045 58.4469Z" fill="black"/>
<path fill-rule="evenodd" clip-rule="evenodd" d="M89.0143 57.865L89.435 61.7288L90.2545 62.656L91.331 69.7989L93.3049 69.7989L94.125 69.0327L93.554 62.7904L94.1086 61.9494L94.1086 57.8207L93.3335 57.8207L93.3335 61.7049L92.7563 62.5802L93.3171 68.711L93.0053 69.0023L91.9953 69.0023L90.9848 62.2976L90.1774 61.384L89.7846 57.7764L89.0143 57.865Z" fill="black"/>
<path d="M95.9572 41.7568L92.0429 43.8097C92.0429 43.8097 90.134 42.9587 88.8353 42.6516C88.2476 42.5127 87.313 42.3735 87.313 42.3735L83.9423 42.0051L79.4842 42.1252L79.4842 39.6511L79.9735 40.0196L79.9735 36.2821L80.4085 36.2821L80.7347 33.0711L81.1696 28.3861L79.9735 23.8064L81.8764 20.8585L82.2569 18.3317L81.5502 15.6471L80.7347 16.6999L79.9735 18.6213L79.2124 20.5426L77.8533 20.5426L76.8203 18.5423L76.5485 19.8057L75.3524 18.3317L75.1349 19.0161L73.2321 18.3317L73.5583 19.4372L72.2535 19.0161L72.2535 19.4372L70.5138 19.4372L69.7527 15.4365L67.7411 18.1212L69.7527 21.3849L67.7411 23.8064L68.8828 23.8064C67.6801 25.7033 66.6538 26.5963 67.1975 27.4912C67.7411 28.3861 68.8828 29.3336 68.8828 29.3336L68.8828 31.1234C68.8828 31.1234 68.8828 31.2813 68.4329 34.545C67.983 37.8087 64.316 45.8101 65.6752 49.0211C67.0344 52.2322 66.8712 51.3373 67.9042 53.1271C68.9372 54.9169 69.0238 55.3746 70.2006 56.5487L72.3623 57.9174L72.8515 58.1279L73.4632 58.2464L74.5641 58.5754L77.7445 58.2859L77.6259 59.0755C80.2997 59.5492 81.822 59.3913 84.4217 58.6543L84.5403 59.0755L85.9538 58.2859L86.28 58.6543L87.313 57.8121L87.6392 58.6543L88.8353 57.8121L88.8353 58.2859L89.4876 57.8121L89.8682 58.2859L90.8468 57.8121L91.3361 58.2859L92.4778 57.8121L92.804 58.2859L93.5651 57.8121L93.8913 58.2859L94.3806 57.8121L94.9243 58.2859C95.7418 57.8616 96.0752 57.3705 96.2834 55.7065C96.199 56.2234 96.2901 55.7163 96.4465 53.7061C96.603 51.696 96.5116 52.6122 96.4465 51.3373C96.3815 50.0624 96.0311 49.3818 95.3048 48.1789L96.9358 48.1789L96.2834 47.0734L97.3164 46.8102L96.4465 45.8101L96.9358 45.1257L96.4465 44.5993L97.3164 43.8097L95.631 43.2833L95.9572 41.7568Z" fill="#FFEBC8"/>
<path fill-rule="evenodd" clip-rule="evenodd" d="M69.674 14.9141L66.9878 18.5492L68.9587 21.7917L66.6288 24.6355L67.8582 24.6355C67.7082 24.8588 67.5635 25.0671 67.4267 25.264L67.4123 25.2846C67.1682 25.6359 66.9432 25.9596 66.7703 26.2555C66.4211 26.8532 66.2038 27.4744 66.5878 28.1153C66.8805 28.6039 67.3227 29.0907 67.6768 29.4451C67.8564 29.6249 68.0187 29.7757 68.1362 29.8817C68.1553 29.8989 68.1732 29.915 68.1898 29.9298L68.1898 31.5236C68.1891 31.5318 68.1877 31.5467 68.1851 31.5719C68.1785 31.6341 68.165 31.7528 68.1375 31.9749C68.0824 32.4189 67.972 33.2702 67.7509 34.8971C67.645 35.6754 67.3462 36.7556 66.9655 38.0154C66.846 38.4109 66.7187 38.8234 66.5879 39.247C66.3065 40.1587 66.009 41.1225 65.7385 42.0819C65.3419 43.4889 64.9964 44.9103 64.8357 46.1886C64.6765 47.4549 64.6904 48.6383 65.0651 49.5359C65.965 51.6917 66.2172 52.052 66.576 52.5646C66.7536 52.8183 66.9573 53.1093 67.2785 53.6736C67.5089 54.0783 67.6924 54.4175 67.8533 54.7151C68.3876 55.7029 68.6733 56.2312 69.5997 57.1684L69.6308 57.1999L71.8215 58.6063L72.3732 58.8471L72.9984 58.9698L74.1382 59.3152L76.8361 59.0662L76.7373 59.7332L77.1192 59.8018C78.4563 60.042 79.5236 60.1253 80.5899 60.0501C81.5434 59.9828 82.4815 59.7896 83.5944 59.4834L83.7412 60.0116L85.2943 59.1319L85.6574 59.5478L86.5425 58.8161L86.8489 59.6184L87.8138 58.9295L87.8138 59.4162L88.7832 58.7024L89.1173 59.1241L90.1154 58.6341L90.5842 59.0943L91.6498 58.6459L92.0045 59.1683L92.7531 58.6958L93.1268 59.2461L93.6852 58.6978L94.1462 59.1052L94.3956 58.9739C94.8422 58.7389 95.1965 58.4622 95.4538 57.989C95.6987 57.5385 95.8384 56.9399 95.9419 56.1006L95.9283 56.0988C95.9301 56.0805 95.9321 56.0607 95.9343 56.0393C95.9658 55.7244 96.0269 55.0938 96.1041 54.0879C96.1798 53.1021 96.1996 52.7934 96.1862 52.578C96.1816 52.504 96.172 52.4319 96.1625 52.361C96.1585 52.3315 96.1546 52.3021 96.1511 52.2729C96.1373 52.1589 96.1204 51.9868 96.1048 51.6763C96.0479 50.5454 95.7752 49.8397 95.273 48.9415L96.8778 48.9415L96.1522 47.6949L97.2762 47.4045L96.2089 46.1602L96.6962 45.4692L96.2659 44.9997L97.332 44.0184L95.3681 43.3964L95.7912 41.3886L91.3549 43.7478C91.3153 43.7306 91.2701 43.7109 91.2197 43.6893C91.0212 43.6038 90.743 43.4866 90.4243 43.3597C89.792 43.108 88.9807 42.81 88.3121 42.6497C88.0095 42.5772 87.6244 42.506 87.3208 42.4538C87.1677 42.4274 87.033 42.4054 86.9365 42.3901C86.8883 42.3824 86.8495 42.3763 86.8227 42.3722L86.7917 42.3674L86.7836 42.3662L86.7808 42.3657C86.7808 42.3657 86.7805 42.3657 86.7193 42.7565L86.7808 42.3657L86.7726 42.3645L83.4212 41.993L79.4222 42.1023L79.4222 40.8501L79.9035 41.2175L79.9035 37.0772L80.2936 37.0772L80.6502 33.5182L80.6505 33.5149L81.0844 28.7756L79.9333 24.3066L81.7586 21.4394L82.1567 18.7593L81.2339 15.2051L79.8934 16.9599L78.4752 20.5898L77.6643 20.5898L76.2414 17.796L75.9142 19.3381L74.797 17.9421L74.4822 18.9464L72.2644 18.1376L72.5941 19.2706L71.505 18.9142L71.505 19.4874L70.5321 19.4874L69.674 14.9141ZM72.3106 20.0115L73.7882 20.495L73.4762 19.4232L75.0013 19.9793L75.1143 19.6187L76.3499 21.1625L76.5574 20.1848L77.1664 21.3807L79.029 21.3807L80.6053 17.3461L80.8689 17.001L81.3364 18.8015L80.9859 21.161L79.0681 24.1735L80.2698 28.8389L79.8485 33.4408L79.8482 33.4441L79.5634 36.2863L79.098 36.2863L79.098 39.6005L78.6167 39.2331L78.6167 42.9155L83.387 42.7851L86.6659 43.1485L86.6679 43.1488L86.6972 43.1534C86.7101 43.1554 86.726 43.1578 86.7445 43.1607C86.7629 43.1636 86.784 43.167 86.8074 43.1707C86.9014 43.1857 87.0326 43.2071 87.1816 43.2327C87.482 43.2844 87.8455 43.352 88.121 43.418C88.7297 43.5639 89.4958 43.8435 90.1216 44.0926C90.4319 44.2162 90.7029 44.3303 90.8963 44.4136C90.9929 44.4552 91.07 44.489 91.1228 44.5123C91.1491 44.5239 91.1694 44.533 91.1829 44.539L91.1982 44.5459L91.2027 44.5479L91.386 44.6307L94.6513 42.8942L94.4328 43.9312L95.7841 44.3592L95.1391 44.9528L95.6713 45.5333L95.1961 46.2071L95.8399 46.9578L94.932 47.1923L95.4897 48.1506L93.8776 48.1506L94.2319 48.7456C94.9361 49.9283 95.2411 50.5401 95.3002 51.7153C95.3166 52.0406 95.3349 52.231 95.3511 52.366C95.3581 52.424 95.3637 52.4647 95.3681 52.4972C95.3751 52.5485 95.3793 52.5794 95.3822 52.6261C95.3913 52.7728 95.3791 53.0096 95.3009 54.0285C95.2242 55.0273 95.1636 55.6519 95.1326 55.9621C95.1293 55.9948 95.1263 56.0245 95.1237 56.051C95.1201 56.0865 95.1171 56.1161 95.1149 56.139C95.1129 56.159 95.1112 56.1765 95.1101 56.19C95.1095 56.1964 95.1089 56.2047 95.1084 56.2131C95.1082 56.217 95.1078 56.224 95.1077 56.2323C95.1077 56.2328 95.1073 56.2444 95.1083 56.2614C95.0129 56.9274 94.8957 57.336 94.7431 57.6167C94.6234 57.8368 94.4739 57.993 94.2548 58.1371L93.656 57.608L93.252 58.0047L92.9839 57.61L92.2353 58.0825L91.9484 57.6599L90.7682 58.1565L90.2745 57.6718L89.3477 58.1267L88.9331 57.6035L88.6193 57.8345L88.6193 57.3764L87.2314 58.3674L86.8962 57.4898L85.7493 58.4379L85.4708 58.1189L84.2434 58.8141L84.1563 58.5002L83.7625 58.6134C82.4956 58.9775 81.5134 59.192 80.5321 59.2612C79.6519 59.3234 78.7578 59.2696 77.6467 59.0894L77.7807 58.1846L74.2225 58.5131L73.1967 58.2022L72.6188 58.0888L72.208 57.9095L70.1468 56.5862C69.3298 55.7549 69.0976 55.3263 68.5877 54.3845C68.4239 54.082 68.2314 53.7266 67.9817 53.2878C67.6153 52.6441 67.4014 52.3411 67.2238 52.0895C66.8868 51.6122 66.6803 51.3197 65.8105 49.236C65.5168 48.5325 65.4802 47.5176 65.6351 46.2854C65.7885 45.0652 66.1216 43.6879 66.5149 42.2928C66.7827 41.3426 67.0752 40.3953 67.3551 39.4884C67.4867 39.0622 67.6155 38.6448 67.7378 38.2403C68.116 36.9886 68.4339 35.8507 68.5493 35.0017C68.7706 33.3738 68.8815 32.519 68.9371 32.0705C68.9649 31.8464 68.979 31.7223 68.9863 31.6532C68.9899 31.6188 68.992 31.5965 68.9932 31.5816C68.9938 31.5741 68.9943 31.5673 68.9947 31.5612C68.9948 31.558 68.995 31.5545 68.9951 31.5508L68.9953 31.5447L68.9953 31.5411L68.9954 31.5392L68.9954 31.5381C68.9954 31.5376 68.9954 31.5371 68.5926 31.5371L68.9954 31.5371L68.9954 29.5703L68.8548 29.452L68.8545 29.4518L68.8526 29.4502L68.8443 29.4431C68.8367 29.4366 68.8252 29.4268 68.8102 29.4137C68.7802 29.3876 68.7361 29.3489 68.6813 29.2995C68.5717 29.2005 68.4197 29.0593 68.2518 28.8912C67.9108 28.55 67.5241 28.1182 67.2821 27.7143C67.1315 27.4628 67.1515 27.1925 67.4691 26.6489C67.6261 26.3801 67.8362 26.0779 68.0915 25.7106L68.0921 25.7097C68.3445 25.3465 68.6345 24.929 68.9359 24.4469L69.3124 23.8446L68.3106 23.8446L69.9376 21.8587L67.9516 18.5916L69.2223 16.8721L69.8614 20.2782L72.3106 20.2782L72.3106 20.0115ZM95.193 55.998C95.2137 55.9717 95.2842 55.8892 95.4128 55.8576C95.477 55.8471 95.6083 55.8575 95.6719 55.8788C95.7219 55.9045 95.7985 55.9646 95.8262 55.9954C95.855 56.0311 95.873 56.0663 95.8839 56.0927L95.193 55.998Z" fill="black"/>
<path d="M67.2966 28.096C67.5758 28.6105 67.3788 28.2068 67.4768 28.3582C67.5748 28.5096 67.5758 28.5044 68.0625 28.5044C68.5101 28.5044 68.6785 27.9931 68.5101 27.699C68.1378 27.3072 67.9244 27.513 67.5669 27.513C67.2064 27.699 67.3867 27.4444 67.2966 28.096Z" fill="black"/>
<path fill-rule="evenodd" clip-rule="evenodd" d="M68.0843 28.504C68.5156 28.4877 68.6758 27.9883 68.5101 27.699C68.2382 27.4129 68.051 27.4455 67.8306 27.4839C67.7492 27.498 67.6633 27.513 67.5669 27.513C67.4093 27.5943 67.3551 27.5914 67.3364 27.6168C67.3362 27.6171 67.336 27.6174 67.3357 27.6177C67.329 27.6276 67.3272 27.6416 67.3268 27.6658C67.3256 27.7237 67.332 27.8398 67.2966 28.096C67.4674 28.4109 67.46 28.3819 67.4509 28.3466C67.4452 28.3243 67.4388 28.2995 67.4768 28.3582C67.5715 28.5046 67.5756 28.5046 68.0155 28.5044C68.0307 28.5044 68.0463 28.5044 68.0625 28.5044C68.0642 28.5044 68.0658 28.5044 68.0675 28.5044C68.0731 28.5043 68.0788 28.5042 68.0843 28.504Z" fill="black"/>
<path d="M70.5095 28.3262C70.5095 28.3262 69.1304 29.3902 68.0081 28.746C67.4414 28.4207 68.5748 29.1407 68.8561 29.9658C68.9584 30.2657 69.0607 30.3929 69.4064 30.4723C69.6644 30.4783 70.4002 29.6857 70.5095 29.5331C70.8358 29.0084 70.5095 27.749 70.5095 28.3262Z" fill="#FFBDBD" fill-opacity="0.9"/>
<path d="M71.7668 25.1083C71.7668 25.5413 73.0678 25.8924 73.7413 25.8924C74.4149 25.8924 74.9609 25.5413 74.9609 25.1083C74.9609 24.6753 74.4149 24.3242 73.7413 24.3242C73.0678 24.3242 71.7668 24.6753 71.7668 25.1083Z" fill="black"/>
<path d="M67.8177 25.1393C67.4033 25.7041 66.8696 25.8924 67.8177 25.8924C68.7657 25.8924 69.3517 25.7048 69.591 25.1393C70.0621 24.7007 69.8905 24.3242 68.9424 24.3242C67.9943 24.3242 67.8177 24.5155 67.8177 25.1393Z" fill="black"/>
<path d="M73.6833 25.1083C73.6833 25.5413 73.9693 25.8924 74.3221 25.8924C74.6749 25.8924 74.9609 25.5413 74.9609 25.1083C74.9609 24.6753 74.6749 24.3242 74.3221 24.3242C73.9693 24.3242 73.6833 24.6753 73.6833 25.1083Z" fill="#FCFCFC"/>
<path d="M73.6833 25.1083C73.6833 25.5413 73.9693 25.8924 74.3221 25.8924C74.6749 25.8924 74.9609 25.5413 74.9609 25.1083C74.9609 24.6753 74.6749 24.3242 74.3221 24.3242C73.9693 24.3242 73.6833 24.6753 73.6833 25.1083Z" fill="#FCFCFC"/>
<path d="M73.6833 25.1083C73.6833 25.5413 73.9693 25.8924 74.3221 25.8924C74.6749 25.8924 74.9609 25.5413 74.9609 25.1083C74.9609 24.6753 74.6749 24.3242 74.3221 24.3242C73.9693 24.3242 73.6833 24.6753 73.6833 25.1083Z" fill="#FCFCFC"/>
<path d="M73.6833 25.1083C73.6833 25.5413 73.9693 25.8924 74.3221 25.8924C74.6749 25.8924 74.9609 25.5413 74.9609 25.1083C74.9609 24.6753 74.6749 24.3242 74.3221 24.3242C73.9693 24.3242 73.6833 24.6753 73.6833 25.1083Z" fill="#FCFCFC"/>
<path d="M68.5721 24.8469C68.5721 25.1356 68.7151 25.3697 68.8915 25.3697C69.0679 25.3697 69.2109 25.1356 69.2109 24.8469C69.2109 24.5582 69.0679 24.3242 68.8915 24.3242C68.7151 24.3242 68.5721 24.5582 68.5721 24.8469Z" fill="#FCFCFC"/>
<path d="M68.5721 24.8469C68.5721 25.1356 68.7151 25.3697 68.8915 25.3697C69.0679 25.3697 69.2109 25.1356 69.2109 24.8469C69.2109 24.5582 69.0679 24.3242 68.8915 24.3242C68.7151 24.3242 68.5721 24.5582 68.5721 24.8469Z" fill="#FCFCFC"/>
<path d="M68.5721 24.8469C68.5721 25.1356 68.7151 25.3697 68.8915 25.3697C69.0679 25.3697 69.2109 25.1356 69.2109 24.8469C69.2109 24.5582 69.0679 24.3242 68.8915 24.3242C68.7151 24.3242 68.5721 24.5582 68.5721 24.8469Z" fill="#FCFCFC"/>
<path d="M68.5721 24.8469C68.5721 25.1356 68.7151 25.3697 68.8915 25.3697C69.0679 25.3697 69.2109 25.1356 69.2109 24.8469C69.2109 24.5582 69.0679 24.3242 68.8915 24.3242C68.7151 24.3242 68.5721 24.5582 68.5721 24.8469Z" fill="#FCFCFC"/>
<path fill-rule="evenodd" clip-rule="evenodd" d="M75.6457 22.7549L74.9009 23.4908L74.379 22.8345L72.9545 23.5923L72.4791 23.0443L71.9038 23.4863L71.6562 23.0296L71.0922 23.3762L71.0922 22.7643L68.572 23.7327L68.8865 24.4288L70.2745 23.8955L70.2745 24.7853L71.339 24.1308L71.6342 24.6752L72.3617 24.1161L72.7548 24.5692L74.1529 23.8253L74.8252 24.6707L75.6003 23.9049L76.8788 25.3685L77.5156 24.8954L75.6457 22.7549Z" fill="black"/>
<path fill-rule="evenodd" clip-rule="evenodd" d="M78.9435 24.7074L79.3911 23.8008L80.0664 24.223L79.4884 25.3937L78.4264 25.8917L78.0885 25.1856L77.2524 25.7175L76.8722 24.9607L78.3949 23.9922L78.7749 24.7865L78.9435 24.7074Z" fill="black"/>
<path fill-rule="evenodd" clip-rule="evenodd" d="M70.0919 29.6819C70.0206 29.7251 69.9002 29.7756 69.6706 29.8558C69.6213 29.8731 69.5533 29.8805 69.4209 29.8159C69.2742 29.7444 69.094 29.6042 68.8744 29.3825C68.6586 29.1647 68.4335 28.8981 68.1888 28.6002C68.1413 28.5423 68.093 28.4832 68.044 28.4233C67.8461 28.1813 67.6371 27.9256 67.424 27.6834C67.1307 27.3499 67.1289 27.1621 67.1443 27.0993C67.1539 27.0603 67.1945 26.9737 67.3589 26.8797C67.5594 26.9927 67.7697 27.0796 67.9638 27.1544C68.058 27.1908 68.1481 27.2242 68.2355 27.2567C68.4395 27.3325 68.6294 27.4031 68.8257 27.4931C69.3338 27.7261 69.7673 28.0404 70.014 28.7047C70.075 29.0222 70.1135 29.2459 70.1288 29.415C70.1434 29.577 70.1311 29.6404 70.1258 29.6583C70.1209 29.6626 70.1106 29.6705 70.0919 29.6819ZM70.5432 28.5686C70.8029 29.9116 70.762 30.0349 69.8565 30.3513C69.1319 30.6045 68.4035 29.7137 67.6123 28.7462C67.415 28.5049 67.2137 28.2587 67.0076 28.0244C66.3221 27.2448 66.506 26.5951 67.4114 26.2787C67.6789 26.4851 68.0336 26.6169 68.4124 26.7576C69.2153 27.056 70.1263 27.3945 70.5432 28.5686Z" fill="black"/>
<path fill-rule="evenodd" clip-rule="evenodd" d="M68.4449 28.329L69.5377 27.434L69.361 27.2331L68.2682 28.1281L68.4449 28.329Z" fill="black"/>
<path d="M13.4648 24.8424V28.7105L18.5755 29.5469L18.0407 24.8424L17.1493 23.8493L15.9013 17.0017H14.1185L13.4648 17.6289L14.1185 23.6402L13.4648 24.8424Z" fill="#E5C080"/>
<path fill-rule="evenodd" clip-rule="evenodd" d="M19.2143 30.0703L18.6401 24.662L17.7888 23.6464L16.569 16.4797H14.3361L13.4648 17.3748L14.0897 23.5281L13.4809 24.7272V29.0656L19.2143 30.0703ZM14.3274 28.403V24.908L14.9549 23.6724L14.3434 17.6521L14.7085 17.277H15.8473L16.9878 23.9775L17.8224 24.9732L18.2597 29.092L14.3274 28.403Z" fill="black"/>
<path fill-rule="evenodd" clip-rule="evenodd" d="M36.4609 28.8699L35.3367 23.3121L34.5988 22.5968V16.5324L33.9323 16.0709H31.9329L31.4117 22.2449L30.8004 23.7533V27.9342H31.6289V23.9054L32.2275 22.4284L32.6963 16.874H33.6668L33.7702 16.9457V22.9295L34.5722 23.7069L35.6479 29.0244L36.4609 28.8699ZM21.1289 27.6427L21.9415 27.7993L23.7408 19.0258L24.3995 18.0469H25.0807V19.6811L24.0074 24.4452L25.0807 25.9785V27.1346L25.9072 27.1745L26.3888 22.5061L26.8368 22.0176L27.1143 16.3679L27.4273 15.7949L28.2339 15.92L28.6555 17.691V21.9592L29.3223 23.1442L29.5913 27.1606L30.4181 27.1086L30.1372 22.9152L29.484 21.7545V17.5996L28.9157 15.2124L26.9725 14.911L26.2955 16.1506L26.0231 21.6961L25.5911 22.1672L25.3115 24.8778L24.8927 24.2797L25.9092 19.7678V17.2438H23.9507L22.9594 18.7171L21.1289 27.6427Z" fill="black"/>
<path d="M21.1289 27.3233L22.9656 18.8163L23.8004 17.6376H25.1361V19.6363L24.0787 24.0947L25.1361 25.5296V26.7596L25.637 22.1473L26.0823 21.6861L26.3606 16.3052L26.8615 15.434L28.2529 15.639L28.7538 17.6376V21.6861L29.4216 22.8136L29.6999 26.7596L30.9243 27.5283V23.5823L31.5366 22.1473L32.0375 16.5102H33.5402L33.9298 16.7664V22.5573L34.709 23.2748L35.8221 28.502L21.1289 27.3233Z" fill="#E5C080"/>
<path fill-rule="evenodd" clip-rule="evenodd" d="M36.4609 29.0244L35.2463 23.098L34.5177 22.4009V16.4911L33.8596 16.0414H31.8854L31.3709 22.058L30.7673 23.5279V26.8619L30.3769 26.6073L30.1125 22.7112L29.4675 21.58V17.5311L28.9064 15.2047L26.9877 14.911L26.3193 16.119L26.0503 21.5232L25.6238 21.9822L25.3477 24.6238L24.9342 24.0409L25.9379 19.644V17.1843H24.004L23.0253 18.6201L21.1289 27.7465L36.4609 29.0244ZM25.1198 25.6965V26.8231L25.9358 26.862L26.4114 22.3126L26.8537 21.8365L27.1277 16.3308L27.4367 15.7724L28.2332 15.8943L28.6495 17.6202V21.7796L29.3078 22.9343L29.5864 27.0389L30.6883 27.7577L22.1092 27.0426L23.7968 18.921L24.4472 17.967H25.1198V19.5595L24.06 24.2023L25.1198 25.6965ZM31.5853 27.8324V23.6762L32.1764 22.2368L32.6393 16.824H33.5975L33.6996 16.8938V22.7251L34.4915 23.4827L35.449 28.1545L31.5853 27.8324Z" fill="black"/>
<path fill-rule="evenodd" clip-rule="evenodd" d="M18.5755 28.4134L18.1548 24.5495L17.3353 23.6223L16.2588 16.4794H14.2849L13.4648 17.2456L14.0359 23.4879L13.4813 24.3289V28.4577H14.2563V24.5735L14.8336 23.6981L14.2727 17.5673L14.5845 17.276H15.5946L16.605 23.9807L17.4125 24.8943L17.8053 28.502L18.5755 28.4134Z" fill="black"/>
<path d="M11.6326 44.5225L15.547 42.4696C15.547 42.4696 17.4558 43.3206 18.7546 43.6277C19.3423 43.7666 20.2768 43.9058 20.2768 43.9058L23.6476 44.2742L28.1056 44.1541V46.6282L27.6163 46.2597V49.9972H27.1814L26.8552 53.2082L26.4202 57.8932L27.6163 62.4729L25.7135 65.4208L25.3329 67.9475L26.0397 70.6322L26.8552 69.5794L27.6163 67.658L28.3774 65.7366H29.7366L30.7696 67.737L31.0414 66.4736L32.2374 67.9475L32.4549 67.2632L34.3577 67.9475L34.0315 66.8421L35.3363 67.2632V66.8421H37.076L37.8372 70.8428L39.8487 68.1581L37.8372 64.8944L39.8487 62.4729H38.707C39.9097 60.5759 40.9361 59.683 40.3924 58.7881C39.8487 57.8932 38.707 56.9457 38.707 56.9457V55.1559C38.707 55.1559 38.707 54.998 39.157 51.7343C39.6069 48.4706 43.2738 40.4692 41.9146 37.2582C40.5555 34.0471 40.7186 34.942 39.6856 33.1522C38.6527 31.3624 38.566 30.9047 37.3892 29.7306L35.2276 28.3619L34.7383 28.1514L34.1267 28.0329L33.0258 27.7039L29.8453 27.9934L29.9639 27.2038C27.2901 26.7301 25.7678 26.888 23.1681 27.625L23.0495 27.2038L21.636 27.9934L21.3098 27.625L20.2768 28.4672L19.9506 27.625L18.7546 28.4672V27.9934L18.1022 28.4672L17.7216 27.9934L16.743 28.4672L16.2537 27.9934L15.112 28.4672L14.7858 27.9934L14.0247 28.4672L13.6985 27.9934L13.2092 28.4672L12.6656 27.9934C11.848 28.4177 11.5146 28.9088 11.3064 30.5728C11.3909 30.0559 11.2998 30.563 11.1433 32.5732C10.9868 34.5833 11.0783 33.6671 11.1433 34.942C11.2083 36.2169 11.5588 36.8975 12.285 38.1004H10.654L11.3064 39.2059L10.2734 39.4691L11.1433 40.4692L10.654 41.1536L11.1433 41.68L10.2734 42.4696L11.9588 42.996L11.6326 44.5225Z" fill="#FFEBC8"/>
<path fill-rule="evenodd" clip-rule="evenodd" d="M37.9159 71.3652L40.6021 67.7301L38.6311 64.4876L40.961 61.6438H39.7317C39.8817 61.4205 40.0264 61.2121 40.1631 61.0153L40.1775 60.9947C40.4216 60.6434 40.6467 60.3197 40.8195 60.0238C41.1687 59.4261 41.386 58.8049 41.002 58.164C40.7093 57.6754 40.2672 57.1886 39.913 56.8342C39.7334 56.6544 39.5712 56.5036 39.4536 56.3975C39.4345 56.3804 39.4166 56.3643 39.4 56.3495V54.7557C39.4007 54.7475 39.4021 54.7326 39.4048 54.7074C39.4113 54.6452 39.4248 54.5265 39.4524 54.3044C39.5074 53.8604 39.6178 53.0091 39.839 51.3822C39.9448 50.6039 40.2437 49.5237 40.6244 48.2639C40.7439 47.8684 40.8712 47.4559 41.002 47.0323C41.2834 46.1206 41.5809 45.1568 41.8513 44.1974C42.2479 42.7904 42.5935 41.369 42.7542 40.0907C42.9134 38.8244 42.8994 37.641 42.5247 36.7434C41.6248 34.5876 41.3726 34.2273 41.0138 33.7147C40.8362 33.461 40.6325 33.17 40.3113 32.6057C40.081 32.201 39.8975 31.8618 39.7366 31.5642C39.2023 30.5764 38.9165 30.0481 37.9902 29.1109L37.959 29.0794L35.7683 27.673L35.2166 27.4322L34.5914 27.3095L33.4517 26.9641L30.7537 27.2131L30.8526 26.5461L30.4706 26.4775C29.1336 26.2373 28.0663 26.154 26.9999 26.2292C26.0465 26.2965 25.1083 26.4897 23.9954 26.7959L23.8487 26.2677L22.2955 27.1474L21.9324 26.7315L21.0474 27.4632L20.7409 26.6609L19.7761 27.3498V26.863L18.8066 27.5769L18.4726 27.1552L17.4744 27.6452L17.0056 27.185L15.94 27.6333L15.5853 27.111L14.8367 27.5835L14.4631 27.0332L13.9047 27.5815L13.4437 27.1741L13.1943 27.3054C12.7477 27.5404 12.3933 27.8171 12.1361 28.2902C11.8911 28.7408 11.7515 29.3394 11.6479 30.1787L11.6615 30.1805C11.6597 30.1988 11.6577 30.2186 11.6556 30.24C11.6241 30.5549 11.5629 31.1855 11.4857 32.1914C11.41 33.1772 11.3903 33.4859 11.4036 33.7013C11.4082 33.7753 11.4179 33.8474 11.4274 33.9183C11.4313 33.9478 11.4352 33.9772 11.4388 34.0064C11.4525 34.1204 11.4694 34.2925 11.4851 34.603C11.5419 35.7339 11.8146 36.4396 12.3169 37.3378H10.7121L11.4376 38.5844L10.3137 38.8748L11.3809 40.1191L10.8936 40.8101L11.324 41.2796L10.2578 42.2609L12.2218 42.8828L11.7986 44.8907L16.235 42.5315C16.2745 42.5487 16.3198 42.5684 16.3701 42.59C16.5687 42.6755 16.8468 42.7926 17.1655 42.9196C17.7979 43.1713 18.6091 43.4692 19.2778 43.6296C19.5803 43.7021 19.9654 43.7733 20.2691 43.8255C20.4221 43.8519 20.5568 43.8739 20.6533 43.8892C20.7016 43.8969 20.7403 43.903 20.7672 43.9071L20.7981 43.9119L20.8063 43.9131L20.809 43.9136C20.8091 43.9136 20.8093 43.9136 20.8705 43.5228L20.809 43.9136L20.8173 43.9148L24.1686 44.2863L28.1676 44.177V45.4292L27.6864 45.0618V49.2021H27.2963L26.9397 52.7611L26.9394 52.7644L26.5055 57.5037L27.6565 61.9727L25.8313 64.8399L25.4332 67.52L26.3559 71.0742L27.6964 69.3194L29.1146 65.6895H29.9256L31.3484 68.4833L31.6756 66.9412L32.7928 68.3372L33.1076 67.3329L35.3255 68.1417L34.9958 67.0087L36.0848 67.3651V66.7919H37.0578L37.9159 71.3652ZM35.2793 66.2678L33.8017 65.7843L34.1136 66.8561L32.5885 66.3L32.4755 66.6606L31.24 65.1168L31.0325 66.0945L30.4234 64.8986H28.5608L26.9846 68.9332L26.721 69.2783L26.2535 67.4778L26.604 65.1183L28.5217 62.1058L27.32 57.4404L27.7414 52.8385L27.7417 52.8352L28.0264 49.993H28.4919V46.6788L28.9731 47.0462V43.3638L24.2028 43.4942L20.9239 43.1307L20.922 43.1304L20.8926 43.1259C20.8797 43.1239 20.8639 43.1215 20.8454 43.1186C20.8269 43.1157 20.8058 43.1123 20.7824 43.1086C20.6885 43.0936 20.5572 43.0722 20.4082 43.0466C20.1078 42.9948 19.7443 42.9273 19.4689 42.8613C18.8602 42.7153 18.094 42.4358 17.4683 42.1867C17.158 42.0631 16.8869 41.949 16.6935 41.8657C16.5969 41.8241 16.5198 41.7903 16.4671 41.767C16.4407 41.7554 16.4205 41.7463 16.4069 41.7403L16.3917 41.7334L16.3871 41.7314L16.2039 41.6486L12.9385 43.3851L13.1571 42.3481L11.8058 41.9201L12.4507 41.3265L11.9186 40.746L12.3938 40.0721L11.7499 39.3215L12.6579 39.087L12.1001 38.1287H13.7122L13.358 37.5337C12.6538 36.351 12.3487 35.7392 12.2896 34.564C12.2733 34.2387 12.255 34.0483 12.2387 33.9133C12.2317 33.8553 12.2262 33.8146 12.2217 33.7821C12.2148 33.7308 12.2106 33.6998 12.2077 33.6532C12.1986 33.5065 12.2108 33.2697 12.289 32.2508C12.3656 31.252 12.4262 30.6274 12.4572 30.3172C12.4605 30.2845 12.4635 30.2548 12.4662 30.2283C12.4698 30.1928 12.4727 30.1632 12.475 30.1403C12.4769 30.1203 12.4786 30.1028 12.4797 30.0893C12.4803 30.0828 12.481 30.0746 12.4814 30.0662C12.4816 30.0623 12.482 30.0553 12.4821 30.047C12.4822 30.0465 12.4825 30.0349 12.4816 30.0179C12.5769 29.3519 12.6941 28.9433 12.8467 28.6626C12.9664 28.4425 13.1159 28.2863 13.3351 28.1422L13.9338 28.6713L14.3379 28.2746L14.6059 28.6693L15.3545 28.1968L15.6415 28.6194L16.8217 28.1228L17.3153 28.6075L18.2421 28.1526L18.6567 28.6758L18.9705 28.4447V28.9029L20.3584 27.9119L20.6937 28.7895L21.8405 27.8414L22.119 28.1604L23.3464 27.4652L23.4336 27.7791L23.8274 27.6659C25.0943 27.3018 26.0764 27.0873 27.0577 27.0181C27.9379 26.9559 28.832 27.0096 29.9432 27.1899L29.8091 28.0947L33.3673 27.7662L34.3932 28.0771L34.9711 28.1905L35.3818 28.3698L37.443 29.693C38.2601 30.5243 38.4922 30.953 39.0021 31.8948C39.1659 32.1973 39.3584 32.5527 39.6081 32.9915C39.9746 33.6352 40.1884 33.9382 40.3661 34.1898C40.7031 34.6671 40.9096 34.9596 41.7794 37.0433C42.073 37.7468 42.1096 38.7617 41.9547 39.9939C41.8013 41.2141 41.4682 42.5914 41.075 43.9865C40.8071 44.9367 40.5147 45.884 40.2347 46.7909C40.1031 47.2171 39.9743 47.6345 39.8521 48.0389C39.4739 49.2907 39.156 50.4286 39.0405 51.2776C38.8192 52.9055 38.7083 53.7603 38.6527 54.2088C38.625 54.4329 38.6108 54.557 38.6035 54.626C38.5999 54.6605 38.5978 54.6828 38.5966 54.6977C38.596 54.7052 38.5955 54.712 38.5952 54.7181C38.595 54.7213 38.5948 54.7248 38.5947 54.7285L38.5946 54.7346L38.5945 54.7382L38.5945 54.7401L38.5945 54.7412C38.5945 54.7417 38.5945 54.7422 38.9972 54.7422H38.5945V56.709L38.735 56.8272L38.7354 56.8275L38.7372 56.8291L38.7456 56.8362C38.7531 56.8427 38.7646 56.8525 38.7796 56.8656C38.8097 56.8917 38.8537 56.9304 38.9085 56.9798C39.0182 57.0788 39.1701 57.22 39.338 57.388C39.679 57.7292 40.0657 58.1611 40.3077 58.565C40.4584 58.8165 40.4383 59.0868 40.1208 59.6304C39.9637 59.8992 39.7537 60.2014 39.4984 60.5687L39.4978 60.5696C39.2453 60.9328 38.9554 61.3503 38.654 61.8324L38.2774 62.4347H39.2793L37.6523 64.4206L39.6382 67.6877L38.3676 69.4072L37.7285 66.001H35.2793V66.2678ZM12.3968 30.2813C12.3762 30.3076 12.3057 30.3901 12.1771 30.4217C12.1129 30.4322 11.9815 30.4218 11.9179 30.4005C11.8679 30.3748 11.7913 30.3147 11.7637 30.2839C11.7349 30.2482 11.7169 30.213 11.7059 30.1866L12.3968 30.2813Z" fill="black"/>
<path d="M40.2933 58.1823C40.0141 57.6678 40.211 58.0715 40.113 57.9201C40.015 57.7687 40.0141 57.7739 39.5273 57.7739C39.0797 57.7739 38.9113 58.2852 39.0797 58.5793C39.4521 58.9711 39.6654 58.7653 40.0229 58.7653C40.3834 58.5793 40.2032 58.8339 40.2933 58.1823Z" fill="black"/>
<path fill-rule="evenodd" clip-rule="evenodd" d="M39.5055 57.7743C39.0743 57.7907 38.9141 58.29 39.0797 58.5793C39.3517 58.8655 39.5388 58.8329 39.7592 58.7945C39.8406 58.7803 39.9265 58.7653 40.0229 58.7653C40.1805 58.684 40.2348 58.6869 40.2535 58.6615C40.2537 58.6612 40.2539 58.6609 40.2541 58.6606C40.2608 58.6507 40.2626 58.6367 40.2631 58.6125C40.2642 58.5546 40.2579 58.4385 40.2933 58.1823C40.1224 57.8674 40.1299 57.8965 40.1389 57.9317C40.1447 57.954 40.1511 57.9788 40.113 57.9201C40.0183 57.7737 40.0142 57.7737 39.5743 57.7739C39.5592 57.7739 39.5435 57.7739 39.5273 57.7739C39.5257 57.7739 39.524 57.7739 39.5224 57.7739C39.5167 57.774 39.5111 57.7741 39.5055 57.7743Z" fill="black"/>
<path d="M37.0765 57.9531C37.0765 57.9531 38.4556 56.8891 39.5778 57.5333C40.1445 57.8586 39.0112 57.1386 38.7298 56.3135C38.6276 56.0136 38.5252 55.8864 38.1795 55.807C37.9215 55.801 37.1857 56.5936 37.0765 56.7462C36.7502 57.2709 37.0765 58.5303 37.0765 57.9531Z" fill="#FFBDBD" fill-opacity="0.9"/>
<path d="M35.8231 61.171C35.8231 60.738 34.5221 60.3869 33.8485 60.3869C33.1749 60.3869 32.6289 60.738 32.6289 61.171C32.6289 61.604 33.1749 61.9551 33.8485 61.9551C34.5221 61.9551 35.8231 61.604 35.8231 61.171Z" fill="black"/>
<path d="M39.7683 61.14C40.1827 60.5752 40.7164 60.3869 39.7683 60.3869C38.8202 60.3869 38.2343 60.5745 37.9949 61.14C37.5238 61.5786 37.6955 61.9551 38.6436 61.9551C39.5917 61.9551 39.7683 61.7638 39.7683 61.14Z" fill="black"/>
<path d="M33.9066 61.171C33.9066 60.738 33.6206 60.3869 33.2677 60.3869C32.9149 60.3869 32.6289 60.738 32.6289 61.171C32.6289 61.604 32.9149 61.9551 33.2677 61.9551C33.6206 61.9551 33.9066 61.604 33.9066 61.171Z" fill="#FCFCFC"/>
<path d="M33.9066 61.171C33.9066 60.738 33.6206 60.3869 33.2677 60.3869C32.9149 60.3869 32.6289 60.738 32.6289 61.171C32.6289 61.604 32.9149 61.9551 33.2677 61.9551C33.6206 61.9551 33.9066 61.604 33.9066 61.171Z" fill="#FCFCFC"/>
<path d="M33.9066 61.171C33.9066 60.738 33.6206 60.3869 33.2677 60.3869C32.9149 60.3869 32.6289 60.738 32.6289 61.171C32.6289 61.604 32.9149 61.9551 33.2677 61.9551C33.6206 61.9551 33.9066 61.604 33.9066 61.171Z" fill="#FCFCFC"/>
<path d="M33.9066 61.171C33.9066 60.738 33.6206 60.3869 33.2677 60.3869C32.9149 60.3869 32.6289 60.738 32.6289 61.171C32.6289 61.604 32.9149 61.9551 33.2677 61.9551C33.6206 61.9551 33.9066 61.604 33.9066 61.171Z" fill="#FCFCFC"/>
<path d="M39.0177 61.4324C39.0177 61.1437 38.8747 60.9096 38.6983 60.9096C38.5219 60.9096 38.3789 61.1437 38.3789 61.4324C38.3789 61.721 38.5219 61.9551 38.6983 61.9551C38.8747 61.9551 39.0177 61.721 39.0177 61.4324Z" fill="#FCFCFC"/>
<path d="M39.0177 61.4324C39.0177 61.1437 38.8747 60.9096 38.6983 60.9096C38.5219 60.9096 38.3789 61.1437 38.3789 61.4324C38.3789 61.721 38.5219 61.9551 38.6983 61.9551C38.8747 61.9551 39.0177 61.721 39.0177 61.4324Z" fill="#FCFCFC"/>
<path d="M39.0177 61.4324C39.0177 61.1437 38.8747 60.9096 38.6983 60.9096C38.5219 60.9096 38.3789 61.1437 38.3789 61.4324C38.3789 61.721 38.5219 61.9551 38.6983 61.9551C38.8747 61.9551 39.0177 61.721 39.0177 61.4324Z" fill="#FCFCFC"/>
<path d="M39.0177 61.4324C39.0177 61.1437 38.8747 60.9096 38.6983 60.9096C38.5219 60.9096 38.3789 61.1437 38.3789 61.4324C38.3789 61.721 38.5219 61.9551 38.6983 61.9551C38.8747 61.9551 39.0177 61.721 39.0177 61.4324Z" fill="#FCFCFC"/>
<path fill-rule="evenodd" clip-rule="evenodd" d="M31.9441 63.5225L32.6889 62.7866L33.2108 63.4429L34.6353 62.685L35.1108 63.2331L35.686 62.791L35.9337 63.2478L36.4976 62.9011V63.513L39.0179 62.5446L38.7034 61.8485L37.3153 62.3819V61.4921L36.2508 62.1465L35.9557 61.6022L35.2281 62.1612L34.8351 61.7082L33.4369 62.452L32.7646 61.6066L31.9895 62.3724L30.711 60.9089L30.0742 61.3819L31.9441 63.5225Z" fill="black"/>
<path fill-rule="evenodd" clip-rule="evenodd" d="M28.6463 61.5719L28.1987 62.4785L27.5234 62.0563L28.1014 60.8856L29.1635 60.3876L29.5013 61.0937L30.3375 60.5618L30.7176 61.3186L29.195 62.2871L28.8149 61.4928L28.6463 61.5719Z" fill="black"/>
<path fill-rule="evenodd" clip-rule="evenodd" d="M37.498 56.5974C37.5693 56.5542 37.6896 56.5037 37.9192 56.4235C37.9686 56.4062 38.0365 56.3988 38.169 56.4634C38.3156 56.5349 38.4959 56.6751 38.7154 56.8968C38.9312 57.1146 39.1563 57.3812 39.401 57.6791C39.4485 57.7369 39.4969 57.796 39.5459 57.856C39.7438 58.098 39.9528 58.3536 40.1658 58.5959C40.4591 58.9294 40.4609 59.1172 40.4455 59.18C40.436 59.219 40.3953 59.3056 40.2309 59.3996C40.0304 59.2866 39.8201 59.1997 39.6261 59.1248C39.5318 59.0885 39.4418 59.0551 39.3543 59.0226C39.1504 58.9468 38.9604 58.8762 38.7641 58.7862C38.256 58.5532 37.8226 58.2389 37.5759 57.5746C37.5148 57.2571 37.4763 57.0334 37.4611 56.8643C37.4464 56.7023 37.4588 56.6389 37.464 56.6209C37.4689 56.6167 37.4792 56.6088 37.498 56.5974ZM37.0466 57.7106C36.7869 56.3677 36.8279 56.2444 37.7333 55.928C38.458 55.6748 39.1864 56.5656 39.9775 57.5331C40.1749 57.7744 40.3761 58.0206 40.5822 58.2549C41.2678 59.0345 41.0839 59.6842 40.1784 60.0006C39.911 59.7942 39.5562 59.6624 39.1775 59.5217C38.3746 59.2233 37.4636 58.8848 37.0466 57.7106Z" fill="black"/>
<path fill-rule="evenodd" clip-rule="evenodd" d="M39.145 57.9503L38.0521 58.8453L38.2288 59.0462L39.3217 58.1512L39.145 57.9503Z" fill="black"/>
</svg>
