<?xml version="1.0" encoding="UTF-8"?>
<!--Generator: Apple Native CoreSVG 326-->
<!DOCTYPE svg
PUBLIC "-//W3C//DTD SVG 1.1//EN"
       "http://www.w3.org/Graphics/SVG/1.1/DTD/svg11.dtd">
<svg version="1.1" xmlns="http://www.w3.org/2000/svg" xmlns:xlink="http://www.w3.org/1999/xlink" viewBox="0 0 674.354 637.921">
 <g>
  <rect height="637.921" opacity="0" width="674.354" x="0" y="0"/>
  <path d="M19.1769 165.085L91.4269 180.585C100.177 182.585 105.427 190.585 103.677 199.085C102.177 207.835 93.4269 212.835 85.1769 211.335L12.6769 196.085C4.42692 194.335-1.07308 186.335 0.176925 178.085C1.42692 169.085 9.92692 163.085 19.1769 165.085ZM80.4269 53.5853L132.927 105.835C139.177 112.085 138.927 121.835 132.927 128.085C126.927 134.335 116.677 134.335 110.427 128.085L58.1769 75.8353C51.6769 69.3353 51.9269 59.8353 58.1769 53.5853C64.4269 47.3353 73.9269 47.0853 80.4269 53.5853ZM200.677 12.5853L216.177 84.8353C218.177 92.8353 212.177 101.585 203.677 103.335C194.927 105.335 186.927 99.3353 184.927 91.0853L169.427 19.0853C167.427 10.3353 173.427 2.0853 181.927 0.335303C190.177-1.4147 198.677 3.8353 200.677 12.5853Z" fill="black"/>
  <path d="M578.177 168.335C583.427 173.585 588.177 180.085 591.927 188.585L648.427 307.085C690.927 397.085 681.177 474.335 618.927 536.585C587.728 567.784 552.044 585.961 515.017 590.335C528.945 582.201 542.303 571.709 554.927 559.085C567.262 546.75 577.539 533.802 585.662 520.24C588.302 518.077 590.877 515.635 593.427 513.085C642.927 463.585 657.927 403.085 619.177 321.085L561.177 198.585C555.677 186.835 547.177 182.335 537.927 186.585C529.177 190.585 525.177 199.585 529.427 210.835L535.943 227.932L527.927 211.085C524.177 202.835 519.427 196.085 514.177 190.835C511.126 187.825 507.87 185.324 504.461 183.377C506.461 177.838 509.664 172.848 513.927 168.585C532.177 150.585 559.427 149.585 578.177 168.335ZM377.927 119.335L449.865 191.401C440.753 200.36 436.37 212.791 438.17 226.828L356.177 144.835C348.677 137.335 338.427 137.085 331.177 144.335C328.229 147.283 326.48 150.768 325.985 154.371L313.677 142.085C310.003 138.367 306.152 135.314 302.188 132.95C304.114 127.645 307.29 122.722 311.427 118.585C331.177 98.8353 357.177 98.8353 377.927 119.335ZM247.427 141.085C240.177 148.335 236.177 157.335 235.927 166.835C233.592 165.042 231.229 163.459 228.844 162.116C231.025 156.593 234.481 151.35 239.177 146.585C242.927 142.835 246.919 139.865 251.088 137.718Z" fill="black"/>
  <path d="M554.927 559.085C616.927 497.085 626.927 419.585 584.427 329.835L527.927 211.085C524.177 202.835 519.427 196.085 514.177 190.835C495.177 172.085 468.177 173.085 449.927 191.335C437.677 203.335 433.927 221.585 442.177 241.585L458.677 281.335C459.177 282.335 459.177 283.335 458.427 284.085C457.677 285.085 456.427 284.835 455.677 283.835L313.677 142.085C293.177 121.335 267.177 121.335 247.427 141.085C240.177 148.335 236.177 157.335 235.927 166.835C215.427 151.085 192.677 151.585 175.177 169.335C158.177 186.335 157.427 209.835 172.427 229.835C163.427 229.835 154.677 233.835 148.177 240.335C129.927 258.585 130.677 283.585 150.177 303.335L169.677 322.835C160.177 322.585 150.177 327.085 142.677 334.835C124.427 353.085 125.177 379.335 145.177 399.085L296.927 551.085C379.677 633.835 480.177 633.835 554.927 559.085ZM529.427 535.585C466.927 598.085 388.677 596.085 317.427 524.835L170.927 378.335C163.427 370.835 162.927 360.835 170.177 353.335C177.427 346.085 188.177 346.085 195.677 353.585L285.927 444.085C292.427 450.585 302.177 449.585 307.927 443.835C313.927 437.835 314.927 428.085 308.427 421.585L173.177 286.335C165.677 278.835 165.177 268.835 172.677 261.585C179.927 254.335 190.427 254.335 197.927 261.835L323.927 387.835C330.427 394.335 340.177 393.585 345.927 387.585C351.927 381.585 352.927 371.835 346.427 365.335L198.427 217.335C190.927 209.835 190.677 199.335 197.927 192.085C205.177 184.835 215.677 185.335 223.177 192.835L371.177 340.835C377.427 346.835 387.177 346.585 393.177 340.585C399.177 334.335 399.927 324.585 393.677 318.335L267.427 192.085C259.927 184.585 259.927 174.335 267.177 167.085C274.427 159.585 284.677 159.835 292.177 167.585L466.177 341.585C474.927 350.335 485.427 350.335 492.677 342.835C499.177 336.585 501.677 328.335 496.677 315.585L465.427 233.335C461.177 222.335 465.177 213.085 473.677 209.085C483.177 204.835 491.677 209.335 497.177 221.085L555.177 343.835C593.927 425.835 578.927 486.085 529.427 535.585Z" fill="black"/>
 </g>
</svg>
