<svg width="615" height="616" viewBox="0 0 615 616" fill="none" xmlns="http://www.w3.org/2000/svg">
<circle cx="307.5" cy="307.5" r="307.5" fill="#F49F0A"/>
<path d="M191.512 457.069V590.799C235.835 614.708 360.5 632.5 425.104 590.799V457.069C442.673 446.938 442.074 349.512 439.578 302.065L456.549 283.323L453.055 270.153L461.54 243.305L453.055 216.965C501.37 103.093 468.528 68.2081 446.067 65L431.093 120.214C416.718 120.214 399.482 148.581 392.66 162.764L348.737 144.528H267.879L220.961 162.764C218.565 148.986 196.004 128.656 185.023 120.214L164.559 65C114.647 71.8891 143.762 169.18 164.559 216.965L157.072 243.305V262.554L164.559 285.856L179.034 309.157C169.052 402.362 183.193 446.601 191.512 457.069Z" fill="#FFEBC8"/>
<path d="M280 345C292.578 347.372 316.93 360.893 313.71 396" stroke="black" stroke-width="8" stroke-linecap="round" stroke-linejoin="round"/>
<path d="M187.768 292.067C185.788 292.436 184.391 294.219 184.507 296.23C184.622 298.241 186.215 299.852 188.225 299.991C190.276 300.132 193.371 300.743 195.864 301.998C198.394 303.272 199.422 304.701 199.506 306.222C199.556 307.111 199.671 308.46 200.245 309.59C200.543 310.177 201.388 311.529 203.19 311.939C205.018 312.355 206.372 311.474 206.896 311.056C207.878 310.274 208.478 309.14 208.766 308.578C209.152 307.824 209.528 306.934 209.883 306.012C211.292 302.351 212.863 296.871 213.87 293.01C214.216 291.685 213.86 290.276 212.927 289.274C211.995 288.272 210.614 287.817 209.268 288.067L187.768 292.067ZM201.46 305.259C201.46 305.258 201.465 305.251 201.475 305.238C201.465 305.252 201.461 305.259 201.46 305.259Z" stroke="black" stroke-width="8" stroke-linecap="round" stroke-linejoin="round"/>
<path d="M179 290.5C203.833 288 255.2 288.3 262 309.5" stroke="black" stroke-width="8" stroke-linecap="round" stroke-linejoin="round"/>
<path d="M165.5 93.5C168 108.5 175.4 139.8 185 145C194.6 150.2 197.667 166.833 198 174.5L227 159.5" stroke="black" stroke-width="11" stroke-linecap="round" stroke-linejoin="round"/>
<path d="M314 280.5C292.833 281 250.7 297.2 251.5 358C252.3 418.8 293.5 430.333 314 428.5" stroke="black" stroke-width="8" stroke-linecap="round" stroke-linejoin="round"/>
<ellipse cx="217.5" cy="304" rx="18.5" ry="15" fill="black"/>
<circle cx="210.5" cy="302.5" r="3.5" fill="#FCFCFC"/>
<path d="M278 378.5C280.5 385.667 290.8 399.6 312 398" stroke="black" stroke-width="8" stroke-linecap="round" stroke-linejoin="round"/>
<path d="M423.728 297.243C401.501 295 381.862 298.223 380.574 314.868" stroke="black" stroke-width="8" stroke-linecap="round" stroke-linejoin="round"/>
<path d="M422.119 310.042C426.71 313.857 432.165 318.12 433.115 319.422" stroke="black" stroke-width="5" stroke-linecap="round" stroke-linejoin="round"/>
<path d="M422.119 310.042C426.71 313.857 432.165 318.12 433.115 319.422" stroke="black" stroke-width="5" stroke-linecap="round" stroke-linejoin="round"/>
<path d="M417.506 317.12C422.096 320.935 425.501 323.5 426.45 324.802" stroke="black" stroke-width="5" stroke-linecap="round" stroke-linejoin="round"/>
<path d="M426.977 289.937C431.149 288.399 436.074 286.852 437 286" stroke="black" stroke-width="5" stroke-linecap="round" stroke-linejoin="round"/>
<path d="M426.977 289.937C431.149 288.399 436.074 286.852 437 286" stroke="black" stroke-width="5" stroke-linecap="round" stroke-linejoin="round"/>
<path d="M425.098 283.628C428.791 281.151 433.213 278.489 433.913 277.443" stroke="black" stroke-width="5" stroke-linecap="round" stroke-linejoin="round"/>
<path d="M346 345C333.422 347.372 309.07 360.893 312.29 396" stroke="black" stroke-width="8" stroke-linecap="round" stroke-linejoin="round"/>
<path d="M280 345C292.578 347.372 316.93 360.893 313.71 396" stroke="black" stroke-width="8" stroke-linecap="round" stroke-linejoin="round"/>
<path d="M187.768 292.067C185.788 292.436 184.391 294.219 184.507 296.23C184.622 298.241 186.215 299.852 188.225 299.991C190.276 300.132 193.371 300.743 195.864 301.998C198.394 303.272 199.422 304.701 199.506 306.222C199.556 307.111 199.671 308.46 200.245 309.59C200.543 310.177 201.388 311.529 203.19 311.939C205.018 312.355 206.372 311.474 206.896 311.056C207.878 310.274 208.478 309.14 208.766 308.578C209.152 307.824 209.528 306.934 209.883 306.012C211.292 302.351 212.863 296.871 213.87 293.01C214.216 291.685 213.86 290.276 212.927 289.274C211.995 288.272 210.614 287.817 209.268 288.067L187.768 292.067ZM201.46 305.259C201.46 305.258 201.465 305.251 201.475 305.238C201.465 305.252 201.461 305.259 201.46 305.259Z" stroke="black" stroke-width="8" stroke-linecap="round" stroke-linejoin="round"/>
<path d="M179 290.5C203.833 288 255.2 288.3 262 309.5" stroke="#00A6A6" stroke-width="8" stroke-linecap="round" stroke-linejoin="round"/>
<path d="M460.5 93.5C458 108.5 450.6 139.8 441 145C431.4 150.2 428.333 166.833 428 174.5L399 159.5" stroke="black" stroke-width="11" stroke-linecap="round" stroke-linejoin="round"/>
<path d="M165.5 93.5C168 108.5 175.4 139.8 185 145C194.6 150.2 197.667 166.833 198 174.5L227 159.5" stroke="black" stroke-width="11" stroke-linecap="round" stroke-linejoin="round"/>
<path d="M312 280.5C333.167 281 375.3 297.2 374.5 358C373.7 418.8 332.5 430.333 312 428.5" stroke="black" stroke-width="8" stroke-linecap="round" stroke-linejoin="round"/>
<path d="M314 280.5C292.833 281 250.7 297.2 251.5 358C252.3 418.8 293.5 430.333 314 428.5" stroke="black" stroke-width="8" stroke-linecap="round" stroke-linejoin="round"/>
<ellipse cx="225" cy="304" rx="26" ry="21" fill="black"/>
<circle cx="215" cy="302" r="8" fill="#FCFCFC"/>
<ellipse cx="230.5" cy="304" rx="31.5" ry="25" fill="black"/>
<circle cx="215.5" cy="297.5" r="8.5" fill="#FCFCFC"/>
<path d="M278 378.5C280.5 385.667 290.8 399.6 312 398" stroke="black" stroke-width="8" stroke-linecap="round" stroke-linejoin="round"/>
<path d="M348 378.5C345.5 385.667 335.2 399.6 314 398" stroke="black" stroke-width="8" stroke-linecap="round" stroke-linejoin="round"/>
<path fill-rule="evenodd" clip-rule="evenodd" d="M171.822 65.2725C173.153 66.3127 174.019 67.874 174.22 69.5954C175.381 79.5238 177.795 94.406 181.217 106.779C182.939 113.007 184.826 118.258 186.771 121.87C187.745 123.679 188.589 124.802 189.222 125.418C189.431 125.622 189.577 125.733 189.66 125.788C194.388 126.211 198.475 129.111 201.633 132.133C204.982 135.337 208.125 139.492 210.92 143.788C213.852 148.295 216.557 153.202 218.859 157.814C220.233 157.496 221.675 157.373 223.128 157.373C224.303 157.373 226.489 156.977 229.672 156.007C232.719 155.079 236.238 153.765 239.884 152.261C247.171 149.256 254.636 145.631 259.254 143.224C260.102 142.782 261.037 142.552 261.985 142.552H299.894C306 143.224 309.5 145.484 309.5 149C309.5 152.516 303.266 155.284 299.894 155.284H263.414C258.531 157.784 251.409 161.2 244.376 164.101C240.535 165.685 236.637 167.15 233.098 168.228C230.129 169.133 227.034 169.887 224.305 170.065C224.977 172.795 223.84 175.719 221.433 177.162C218.758 178.766 215.355 178.037 213.504 175.463C212.741 174.402 211.948 173.02 211.406 171.438C211.259 171.006 211.115 170.518 210.998 169.983C208.429 164.222 204.816 157.088 200.813 150.935C198.289 147.055 195.752 143.787 193.376 141.513C190.861 139.107 189.26 138.52 188.589 138.472C185.365 138.24 182.785 136.572 180.886 134.723C178.996 132.883 177.433 130.538 176.122 128.102C173.497 123.227 171.302 116.886 169.483 110.306C166.627 99.9817 164.47 88.2242 163.085 78.6498C155.862 82.2025 148.086 90.4154 144.8 106.555C140.472 127.805 143.995 162.905 168.029 217.914C168.694 219.435 168.758 221.168 168.208 222.738L162.201 239.877H162.473C164.589 239.877 166.554 241.019 167.667 242.896C168.779 244.773 168.88 247.117 167.934 249.09L163.319 258.712C164.98 258.954 166.487 259.902 167.466 261.352C168.61 263.046 168.891 265.215 168.22 267.165L164.65 277.547L165.223 277.22C167.367 275.994 170.006 276.22 171.93 277.795C173.853 279.369 174.69 281.989 174.056 284.451C173.361 287.152 173.01 291.136 173.829 294.296C174.216 295.791 174.798 296.853 175.496 297.576C176.143 298.246 177.179 298.932 179.053 299.238C182.304 299.767 184.568 302.888 184.172 306.293C181.667 327.834 179.209 360.951 179.949 390.235C180.32 404.904 181.488 418.339 183.755 428.787C184.888 434.011 186.251 438.271 187.803 441.49C189.376 444.754 190.931 446.505 192.22 447.335C194.019 448.495 195.115 450.544 195.115 452.75V586.634C195.115 590.15 192.381 593 189.009 593C185.637 593 182.903 590.15 182.903 586.634V455.867C180.415 453.486 178.458 450.457 176.891 447.208C174.74 442.747 173.104 437.407 171.843 431.596C169.322 419.973 168.121 405.593 167.741 390.57C167.039 362.771 169.132 331.836 171.466 309.989C169.739 309.111 168.21 307.976 166.89 306.609C164.313 303.94 162.84 300.71 162.039 297.614C161.724 296.4 161.503 295.171 161.36 293.949L156.405 296.782C154.18 298.054 151.433 297.759 149.504 296.042C147.575 294.324 146.865 291.542 147.721 289.052L153.797 271.382H153.469C151.353 271.382 149.387 270.24 148.275 268.363C147.162 266.486 147.061 264.143 148.007 262.169L152.622 252.548C150.955 252.304 149.444 251.351 148.465 249.891C147.322 248.188 147.049 246.01 147.734 244.058L155.882 220.809C132.295 166.06 127.808 128.684 132.854 103.91C138.052 78.384 153.414 66.4401 167.169 64.0842C168.81 63.8031 170.491 64.2323 171.822 65.2725ZM189.744 125.837C189.744 125.837 189.739 125.836 189.729 125.83C189.739 125.834 189.744 125.837 189.744 125.837Z" fill="black"/>
<path fill-rule="evenodd" clip-rule="evenodd" d="M443.354 56.2941C441.964 57.3521 441.059 58.9399 440.848 60.6906C439.635 70.7879 437.114 85.9233 433.539 98.5068C431.739 104.841 429.768 110.181 427.736 113.855C426.719 115.695 425.837 116.837 425.176 117.463C424.957 117.671 424.805 117.783 424.718 117.84C419.779 118.269 415.51 121.219 412.21 124.292C408.712 127.551 405.428 131.776 402.508 136.146C399.445 140.729 396.619 145.719 394.215 150.41C392.779 150.086 391.272 149.961 389.755 149.961C388.527 149.961 386.243 149.559 382.918 148.573C379.734 147.628 376.059 146.292 372.25 144.763C364.637 141.706 356.838 138.02 352.014 135.572C351.128 135.122 350.152 134.888 349.161 134.888L303.179 133.832C299.656 133.832 299 141.187 299 144.763C299 148.339 306.035 147.837 309.558 147.837H347.668C352.769 150.38 360.21 153.854 367.557 156.804C371.57 158.415 375.642 159.905 379.339 161.001C382.44 161.921 385.674 162.688 388.525 162.869C387.823 165.646 389.011 168.62 391.526 170.087C394.32 171.718 397.874 170.977 399.809 168.359C400.606 167.28 401.434 165.874 402 164.266C402.154 163.827 402.304 163.33 402.426 162.787C405.11 156.927 408.885 149.672 413.066 143.414C415.703 139.468 418.354 136.145 420.836 133.832C423.464 131.385 425.136 130.788 425.837 130.739C429.206 130.503 431.901 128.807 433.884 126.927C435.859 125.055 437.492 122.67 438.862 120.193C441.604 115.235 443.896 108.786 445.797 102.094C448.78 91.5938 451.034 79.6363 452.481 69.8991C460.027 73.5121 468.15 81.8648 471.584 98.2788C476.105 119.891 472.425 155.587 447.316 211.533C446.621 213.08 446.554 214.842 447.129 216.439L453.405 233.869H453.121C450.91 233.869 448.857 235.031 447.695 236.94C446.532 238.849 446.427 241.232 447.415 243.239L452.236 253.024C450.501 253.271 448.927 254.235 447.904 255.71C446.71 257.433 446.416 259.638 447.116 261.621L450.846 272.18L450.248 271.847C448.007 270.601 445.25 270.831 443.241 272.432C441.231 274.034 440.357 276.697 441.019 279.202C441.745 281.949 442.112 286 441.257 289.214C440.853 290.735 440.244 291.814 439.515 292.55C438.839 293.231 437.757 293.929 435.8 294.24C432.403 294.778 430.038 297.952 430.452 301.416C433.068 323.322 435.636 357.003 434.863 386.785C434.476 401.704 433.256 415.367 430.888 425.993C429.704 431.306 428.28 435.639 426.659 438.912C425.015 442.232 423.39 444.013 422.044 444.857C420.164 446.037 419.02 448.12 419.02 450.364V586.526C419.02 590.101 421.876 593 425.399 593C428.922 593 431.778 590.101 431.778 586.526V453.534C434.376 451.112 436.421 448.032 438.058 444.728C440.305 440.19 442.014 434.76 443.331 428.85C445.965 417.029 447.22 402.404 447.617 387.126C448.351 358.854 446.163 327.392 443.726 305.174C445.53 304.281 447.127 303.126 448.506 301.736C451.198 299.022 452.737 295.737 453.574 292.589C453.903 291.354 454.133 290.104 454.284 288.862L459.46 291.742C461.784 293.036 464.653 292.736 466.669 290.989C468.685 289.243 469.426 286.413 468.532 283.881L462.184 265.911H462.527C464.738 265.911 466.791 264.749 467.953 262.84C469.116 260.931 469.221 258.548 468.232 256.541L463.412 246.755C465.153 246.508 466.732 245.538 467.755 244.054C468.948 242.321 469.233 240.107 468.518 238.122L460.006 214.477C484.647 158.796 489.334 120.785 484.064 95.5895C478.633 69.6287 462.584 57.4816 448.214 55.0857C446.5 54.7998 444.744 55.2362 443.354 56.2941ZM424.631 117.889C424.631 117.889 424.636 117.888 424.646 117.882C424.636 117.886 424.631 117.889 424.631 117.889Z" fill="black"/>
</svg>
