<svg width="615" height="615" viewBox="0 0 615 615" fill="none" xmlns="http://www.w3.org/2000/svg">
<circle cx="307.5" cy="307.5" r="307.5" fill="#119A16" fill-opacity="0.5"/>
<path d="M191.512 455.067V588.796C235.835 612.705 360.5 630.497 425.104 588.796V455.067C442.673 444.936 442.074 347.509 439.578 300.063L456.549 281.32L453.055 268.15L461.54 241.303L453.055 214.962C501.37 101.09 468.528 66.2055 446.067 62.9973L431.093 118.211C416.718 118.211 399.482 146.578 392.66 160.761L348.737 142.526H267.879L220.961 160.761C218.565 146.983 196.004 126.654 185.023 118.211L164.559 62.9973C114.647 69.8864 143.762 167.178 164.559 214.962L157.072 241.303V260.552L164.559 283.853L179.034 307.154C169.052 400.359 183.193 444.598 191.512 455.067Z" fill="#FFEBC8"/>
<path d="M280 342.997C292.578 345.369 316.93 358.89 313.71 393.997" stroke="black" stroke-width="8" stroke-linecap="round" stroke-linejoin="round"/>
<path d="M187.768 290.065C185.788 290.433 184.391 292.217 184.507 294.227C184.622 296.238 186.215 297.849 188.225 297.988C190.276 298.129 193.371 298.74 195.864 299.995C198.394 301.269 199.422 302.698 199.506 304.219C199.556 305.108 199.671 306.457 200.245 307.588C200.543 308.175 201.388 309.526 203.19 309.936C205.018 310.352 206.372 309.471 206.896 309.054C207.878 308.271 208.478 307.137 208.766 306.576C209.152 305.822 209.528 304.932 209.883 304.009C211.292 300.348 212.863 294.869 213.87 291.007C214.216 289.682 213.86 288.273 212.927 287.271C211.995 286.27 210.614 285.814 209.268 286.065L187.768 290.065ZM201.46 303.256C201.46 303.256 201.465 303.248 201.475 303.235C201.465 303.25 201.461 303.256 201.46 303.256Z" stroke="black" stroke-width="8" stroke-linecap="round" stroke-linejoin="round"/>
<path d="M179 288.497C203.833 285.997 255.2 286.297 262 307.497" stroke="black" stroke-width="8" stroke-linecap="round" stroke-linejoin="round"/>
<path d="M165.5 91.4973C168 106.497 175.4 137.797 185 142.997C194.6 148.197 197.667 164.831 198 172.497L227 157.497" stroke="black" stroke-width="11" stroke-linecap="round" stroke-linejoin="round"/>
<path d="M314 278.497C292.833 278.997 250.7 295.197 251.5 355.997C252.3 416.797 293.5 428.331 314 426.497" stroke="black" stroke-width="8" stroke-linecap="round" stroke-linejoin="round"/>
<ellipse cx="217.5" cy="301.997" rx="18.5" ry="15" fill="black"/>
<circle cx="210.5" cy="300.497" r="3.5" fill="#FCFCFC"/>
<path d="M278 376.497C280.5 383.664 290.8 397.597 312 395.997" stroke="black" stroke-width="8" stroke-linecap="round" stroke-linejoin="round"/>
<path d="M423.728 295.241C401.501 292.997 381.862 296.22 380.574 312.866" stroke="black" stroke-width="8" stroke-linecap="round" stroke-linejoin="round"/>
<path d="M422.119 308.039C426.71 311.854 432.165 316.117 433.115 317.419" stroke="black" stroke-width="5" stroke-linecap="round" stroke-linejoin="round"/>
<path d="M422.119 308.039C426.71 311.854 432.165 316.117 433.115 317.419" stroke="black" stroke-width="5" stroke-linecap="round" stroke-linejoin="round"/>
<path d="M417.506 315.118C422.096 318.932 425.501 321.497 426.45 322.799" stroke="black" stroke-width="5" stroke-linecap="round" stroke-linejoin="round"/>
<path d="M426.977 287.934C431.149 286.396 436.074 284.849 437 283.997" stroke="black" stroke-width="5" stroke-linecap="round" stroke-linejoin="round"/>
<path d="M426.977 287.934C431.149 286.396 436.074 284.849 437 283.997" stroke="black" stroke-width="5" stroke-linecap="round" stroke-linejoin="round"/>
<path d="M425.098 281.625C428.791 279.148 433.213 276.486 433.913 275.44" stroke="black" stroke-width="5" stroke-linecap="round" stroke-linejoin="round"/>
<path d="M346 342.997C333.422 345.369 309.07 358.89 312.29 393.997" stroke="black" stroke-width="8" stroke-linecap="round" stroke-linejoin="round"/>
<path d="M280 342.997C292.578 345.369 316.93 358.89 313.71 393.997" stroke="black" stroke-width="8" stroke-linecap="round" stroke-linejoin="round"/>
<path d="M187.768 290.065C185.788 290.433 184.391 292.217 184.507 294.227C184.622 296.238 186.215 297.849 188.225 297.988C190.276 298.129 193.371 298.74 195.864 299.995C198.394 301.269 199.422 302.698 199.506 304.219C199.556 305.108 199.671 306.457 200.245 307.588C200.543 308.175 201.388 309.526 203.19 309.936C205.018 310.352 206.372 309.471 206.896 309.054C207.878 308.271 208.478 307.137 208.766 306.576C209.152 305.822 209.528 304.932 209.883 304.009C211.292 300.348 212.863 294.869 213.87 291.007C214.216 289.682 213.86 288.273 212.927 287.271C211.995 286.27 210.614 285.814 209.268 286.065L187.768 290.065ZM201.46 303.256C201.46 303.256 201.465 303.248 201.475 303.235C201.465 303.25 201.461 303.256 201.46 303.256Z" stroke="black" stroke-width="8" stroke-linecap="round" stroke-linejoin="round"/>
<path d="M179 288.497C203.833 285.997 255.2 286.297 262 307.497" stroke="#00A6A6" stroke-width="8" stroke-linecap="round" stroke-linejoin="round"/>
<path d="M460.5 91.4973C458 106.497 450.6 137.797 441 142.997C431.4 148.197 428.333 164.831 428 172.497L399 157.497" stroke="black" stroke-width="11" stroke-linecap="round" stroke-linejoin="round"/>
<path d="M165.5 91.4973C168 106.497 175.4 137.797 185 142.997C194.6 148.197 197.667 164.831 198 172.497L227 157.497" stroke="black" stroke-width="11" stroke-linecap="round" stroke-linejoin="round"/>
<path d="M312 278.497C333.167 278.997 375.3 295.197 374.5 355.997C373.7 416.797 332.5 428.331 312 426.497" stroke="black" stroke-width="8" stroke-linecap="round" stroke-linejoin="round"/>
<path d="M314 278.497C292.833 278.997 250.7 295.197 251.5 355.997C252.3 416.797 293.5 428.331 314 426.497" stroke="black" stroke-width="8" stroke-linecap="round" stroke-linejoin="round"/>
<ellipse cx="225" cy="301.997" rx="26" ry="21" fill="black"/>
<ellipse cx="215" cy="299.997" rx="8" ry="8" fill="#FCFCFC"/>
<ellipse cx="230.5" cy="301.997" rx="31.5" ry="25" fill="black"/>
<ellipse cx="215.5" cy="295.497" rx="8.5" ry="8.5" fill="#FCFCFC"/>
<path d="M278 376.497C280.5 383.664 290.8 397.597 312 395.997" stroke="black" stroke-width="8" stroke-linecap="round" stroke-linejoin="round"/>
<path d="M348 376.497C345.5 383.664 335.2 397.597 314 395.997" stroke="black" stroke-width="8" stroke-linecap="round" stroke-linejoin="round"/>
<path fill-rule="evenodd" clip-rule="evenodd" d="M171.822 63.2698C173.153 64.31 174.019 65.8713 174.22 67.5927C175.381 77.5211 177.795 92.4033 181.217 104.776C182.939 111.005 184.826 116.255 186.771 119.868C187.745 121.676 188.589 122.799 189.222 123.416C189.431 123.62 189.577 123.73 189.66 123.786C194.388 124.208 198.475 127.108 201.633 130.13C204.982 133.334 208.125 137.489 210.92 141.786C213.852 146.292 216.557 151.199 218.859 155.811C220.233 155.493 221.675 155.37 223.128 155.37C224.303 155.37 226.489 154.974 229.672 154.005C232.719 153.076 236.238 151.762 239.884 150.259C247.171 147.253 254.636 143.628 259.254 141.221C260.102 140.779 261.037 140.549 261.985 140.549H299.894C306 141.221 309.5 143.481 309.5 146.997C309.5 150.513 303.266 153.281 299.894 153.281H263.414C258.531 155.782 251.409 159.198 244.376 162.098C240.535 163.682 236.637 165.147 233.098 166.226C230.129 167.13 227.034 167.884 224.305 168.062C224.977 170.792 223.84 173.716 221.433 175.159C218.758 176.763 215.355 176.034 213.504 173.46C212.741 172.399 211.948 171.017 211.406 169.435C211.259 169.004 211.115 168.515 210.998 167.981C208.429 162.219 204.816 155.085 200.813 148.932C198.289 145.052 195.752 141.784 193.376 139.511C190.861 137.104 189.26 136.517 188.589 136.469C185.365 136.237 182.785 134.57 180.886 132.721C178.996 130.88 177.433 128.535 176.122 126.1C173.497 121.224 171.302 114.883 169.483 108.304C166.627 97.979 164.47 86.2215 163.085 76.6471C155.862 80.1998 148.086 88.4127 144.8 104.552C140.472 125.802 143.995 160.902 168.029 215.911C168.694 217.433 168.758 219.165 168.208 220.735L162.201 237.874H162.473C164.589 237.874 166.554 239.017 167.667 240.893C168.779 242.77 168.88 245.114 167.934 247.087L163.319 256.709C164.98 256.951 166.487 257.899 167.466 259.35C168.61 261.044 168.891 263.212 168.22 265.162L164.65 275.545L165.223 275.217C167.367 273.991 170.006 274.217 171.93 275.792C173.853 277.367 174.69 279.986 174.056 282.449C173.361 285.15 173.01 289.133 173.829 292.294C174.216 293.789 174.798 294.85 175.496 295.573C176.143 296.243 177.179 296.93 179.053 297.235C182.304 297.765 184.568 300.885 184.172 304.291C181.667 325.831 179.209 358.949 179.949 388.232C180.32 402.901 181.488 416.336 183.755 426.784C184.888 432.008 186.251 436.268 187.803 439.487C189.376 442.752 190.931 444.502 192.22 445.333C194.019 446.493 195.115 448.541 195.115 450.747V584.631C195.115 588.147 192.381 590.997 189.009 590.997C185.637 590.997 182.903 588.147 182.903 584.631V453.864C180.415 451.483 178.458 448.454 176.891 445.206C174.74 440.744 173.104 435.405 171.843 429.593C169.322 417.97 168.121 403.59 167.741 388.568C167.039 360.768 169.132 329.833 171.466 307.987C169.739 307.108 168.21 305.973 166.89 304.606C164.313 301.938 162.84 298.707 162.039 295.612C161.724 294.398 161.503 293.169 161.36 291.947L156.405 294.779C154.18 296.051 151.433 295.756 149.504 294.039C147.575 292.321 146.865 289.539 147.721 287.049L153.797 269.38H153.469C151.353 269.38 149.387 268.237 148.275 266.36C147.162 264.484 147.061 262.14 148.007 260.167L152.622 250.545C150.955 250.302 149.444 249.348 148.465 247.888C147.322 246.185 147.049 244.008 147.734 242.055L155.882 218.806C132.295 164.057 127.808 126.681 132.854 101.908C138.052 76.3813 153.414 64.4374 167.169 62.0816C168.81 61.8004 170.491 62.2296 171.822 63.2698ZM189.744 123.835C189.744 123.835 189.739 123.833 189.729 123.828C189.739 123.832 189.744 123.835 189.744 123.835Z" fill="black"/>
<path fill-rule="evenodd" clip-rule="evenodd" d="M443.354 54.2915C441.964 55.3494 441.059 56.9372 440.848 58.6879C439.635 68.7852 437.114 83.9206 433.539 96.5041C431.739 102.839 429.768 108.178 427.736 111.852C426.719 113.692 425.837 114.834 425.176 115.461C424.957 115.668 424.805 115.78 424.718 115.837C419.779 116.267 415.51 119.216 412.21 122.289C408.712 125.548 405.428 129.774 402.508 134.143C399.445 138.726 396.619 143.717 394.215 148.407C392.779 148.084 391.272 147.959 389.755 147.959C388.527 147.959 386.243 147.556 382.918 146.57C379.734 145.626 376.059 144.289 372.25 142.76C364.637 139.704 356.838 136.017 352.014 133.569C351.128 133.12 350.152 132.886 349.161 132.886L303.179 131.829C299.656 131.829 299 139.185 299 142.76C299 146.336 306.035 145.834 309.558 145.834H347.668C352.769 148.377 360.21 151.851 367.557 154.801C371.57 156.412 375.642 157.902 379.339 158.999C382.44 159.919 385.674 160.685 388.525 160.867C387.823 163.643 389.011 166.617 391.526 168.085C394.32 169.716 397.874 168.974 399.809 166.357C400.606 165.277 401.434 163.872 402 162.263C402.154 161.824 402.304 161.327 402.426 160.784C405.11 154.924 408.885 147.669 413.066 141.411C415.703 137.465 418.354 134.142 420.836 131.829C423.464 129.382 425.136 128.785 425.837 128.736C429.206 128.5 431.901 126.804 433.884 124.924C435.859 123.052 437.492 120.667 438.862 118.19C441.604 113.232 443.896 106.783 445.797 100.091C448.78 89.5912 451.034 77.6336 452.481 67.8964C460.027 71.5094 468.15 79.8621 471.584 96.2761C476.105 117.888 472.425 153.585 447.316 209.53C446.621 211.077 446.554 212.839 447.129 214.436L453.405 231.866H453.121C450.91 231.866 448.857 233.028 447.695 234.937C446.532 236.846 446.427 239.229 447.415 241.236L452.236 251.022C450.501 251.268 448.927 252.232 447.904 253.707C446.71 255.43 446.416 257.635 447.116 259.618L450.846 270.178L450.248 269.845C448.007 268.598 445.25 268.828 443.241 270.429C441.231 272.031 440.357 274.695 441.019 277.199C441.745 279.946 442.112 283.997 441.257 287.212C440.853 288.732 440.244 289.812 439.515 290.547C438.839 291.228 437.757 291.927 435.8 292.237C432.403 292.776 430.038 295.949 430.452 299.413C433.068 321.32 435.636 355.001 434.863 384.783C434.476 399.701 433.256 413.364 430.888 423.99C429.704 429.303 428.28 433.636 426.659 436.91C425.015 440.229 423.39 442.01 422.044 442.854C420.164 444.034 419.02 446.118 419.02 448.361V584.523C419.02 588.099 421.876 590.997 425.399 590.997C428.922 590.997 431.778 588.099 431.778 584.523V451.531C434.376 449.109 436.421 446.029 438.058 442.725C440.305 438.188 442.014 432.757 443.331 426.847C445.965 415.026 447.22 400.402 447.617 385.124C448.351 356.851 446.163 325.39 443.726 303.172C445.53 302.279 447.127 301.124 448.506 299.733C451.198 297.02 452.737 293.734 453.574 290.586C453.903 289.352 454.133 288.102 454.284 286.859L459.46 289.74C461.784 291.033 464.653 290.733 466.669 288.987C468.685 287.24 469.426 284.41 468.532 281.878L462.184 263.908H462.527C464.738 263.908 466.791 262.746 467.953 260.837C469.116 258.929 469.221 256.545 468.232 254.538L463.412 244.753C465.153 244.505 466.732 243.535 467.755 242.051C468.948 240.319 469.233 238.104 468.518 236.119L460.006 212.474C484.647 156.794 489.334 118.782 484.064 93.5868C478.633 67.626 462.584 55.4789 448.214 53.083C446.5 52.7971 444.744 53.2335 443.354 54.2915ZM424.631 115.887C424.631 115.887 424.636 115.885 424.646 115.88C424.636 115.884 424.631 115.887 424.631 115.887Z" fill="black"/>
</svg>
