<svg width="23" height="23" viewBox="0 0 23 23" fill="none" xmlns="http://www.w3.org/2000/svg">
<g clip-path="url(#clip0_491_794)">
<path d="M6.41788 22.9271C6.92922 22.9271 7.28403 22.6558 7.9206 22.0923L11.5209 18.8886H18.2205C21.3303 18.8886 23 17.1667 23 14.1091V6.11543C23 3.05781 21.3303 1.33594 18.2205 1.33594H4.77949C1.66969 1.33594 0 3.04737 0 6.11543V14.1091C0 17.1771 1.66969 18.8886 4.77949 18.8886H5.2804V21.6018C5.2804 22.4054 5.68739 22.9271 6.41788 22.9271ZM6.84574 21.0174V17.9911C6.84574 17.4276 6.62659 17.2084 6.06307 17.2084H4.77949C2.67151 17.2084 1.68013 16.1336 1.68013 14.0986V6.11543C1.68013 4.08049 2.67151 3.01606 4.77949 3.01606H18.2205C20.3181 3.01606 21.3199 4.08049 21.3199 6.11543V14.0986C21.3199 16.1336 20.3181 17.2084 18.2205 17.2084H11.4583C10.8739 17.2084 10.5817 17.2919 10.1851 17.6989L6.84574 21.0174Z" fill="black"/>
</g>
<defs>
<clipPath id="clip0_491_794">
<rect width="23" height="22.927" fill="white"/>
</clipPath>
</defs>
</svg>
