<svg width="20" height="20" viewBox="0 0 20 20" fill="none" xmlns="http://www.w3.org/2000/svg">
<g clip-path="url(#clip0_491_785)">
<path d="M0 8.09078C0 12.5555 3.62828 16.173 8.09297 16.173C9.8506 16.173 11.4637 15.612 12.7898 14.6542L17.7804 19.6577C18.0192 19.8879 18.3227 19.9978 18.6392 19.9978C19.3239 19.9978 19.8081 19.4789 19.8081 18.8052C19.8081 18.4824 19.6812 18.1918 19.4809 17.9678L14.5119 12.9881C15.5581 11.6275 16.173 9.93679 16.173 8.09078C16.173 3.62827 12.5555 0 8.09297 0C3.62828 0 0 3.62827 0 8.09078ZM1.73615 8.09078C1.73615 4.57706 4.57706 1.73615 8.09297 1.73615C11.5959 1.73615 14.4476 4.57706 14.4476 8.09078C14.4476 11.5959 11.5959 14.4476 8.09297 14.4476C4.57706 14.4476 1.73615 11.5959 1.73615 8.09078Z" fill="black"/>
</g>
<defs>
<clipPath id="clip0_491_785">
<rect width="19.8084" height="20" fill="white"/>
</clipPath>
</defs>
</svg>
