<svg width="132" height="95" viewBox="0 0 132 95" fill="none" xmlns="http://www.w3.org/2000/svg">
<path d="M12 50L14.6942 58.2918H23.4127L16.3593 63.4164L19.0534 71.7082L12 66.5836L4.94658 71.7082L7.64074 63.4164L0.587322 58.2918H9.30583L12 50Z" fill="#FFCD29"/>
<path d="M12 50L14.6942 58.2918H23.4127L16.3593 63.4164L19.0534 71.7082L12 66.5836L4.94658 71.7082L7.64074 63.4164L0.587322 58.2918H9.30583L12 50Z" fill="#FFCD29"/>
<path d="M12 50L14.6942 58.2918H23.4127L16.3593 63.4164L19.0534 71.7082L12 66.5836L4.94658 71.7082L7.64074 63.4164L0.587322 58.2918H9.30583L12 50Z" fill="#FFCD29"/>
<path d="M12 50L14.6942 58.2918H23.4127L16.3593 63.4164L19.0534 71.7082L12 66.5836L4.94658 71.7082L7.64074 63.4164L0.587322 58.2918H9.30583L12 50Z" fill="#FFCD29"/>
<path d="M12 50L14.6942 58.2918H23.4127L16.3593 63.4164L19.0534 71.7082L12 66.5836L4.94658 71.7082L7.64074 63.4164L0.587322 58.2918H9.30583L12 50Z" fill="#FFCD29"/>
<path d="M120 19L122.694 27.2918H131.413L124.359 32.4164L127.053 40.7082L120 35.5836L112.947 40.7082L115.641 32.4164L108.587 27.2918H117.306L120 19Z" fill="#FFCD29"/>
<path d="M120 19L122.694 27.2918H131.413L124.359 32.4164L127.053 40.7082L120 35.5836L112.947 40.7082L115.641 32.4164L108.587 27.2918H117.306L120 19Z" fill="#FFCD29"/>
<path d="M120 19L122.694 27.2918H131.413L124.359 32.4164L127.053 40.7082L120 35.5836L112.947 40.7082L115.641 32.4164L108.587 27.2918H117.306L120 19Z" fill="#FFCD29"/>
<path d="M120 19L122.694 27.2918H131.413L124.359 32.4164L127.053 40.7082L120 35.5836L112.947 40.7082L115.641 32.4164L108.587 27.2918H117.306L120 19Z" fill="#FFCD29"/>
<path d="M120 19L122.694 27.2918H131.413L124.359 32.4164L127.053 40.7082L120 35.5836L112.947 40.7082L115.641 32.4164L108.587 27.2918H117.306L120 19Z" fill="#FFCD29"/>
<path d="M35.5 8L39.2045 19.4012H51.1924L41.494 26.4476L45.1985 37.8488L35.5 30.8024L25.8015 37.8488L29.506 26.4476L19.8076 19.4012H31.7955L35.5 8Z" fill="#FFCD29"/>
<path d="M35.5 8L39.2045 19.4012H51.1924L41.494 26.4476L45.1985 37.8488L35.5 30.8024L25.8015 37.8488L29.506 26.4476L19.8076 19.4012H31.7955L35.5 8Z" fill="#FFCD29"/>
<path d="M35.5 8L39.2045 19.4012H51.1924L41.494 26.4476L45.1985 37.8488L35.5 30.8024L25.8015 37.8488L29.506 26.4476L19.8076 19.4012H31.7955L35.5 8Z" fill="#FFCD29"/>
<path d="M35.5 8L39.2045 19.4012H51.1924L41.494 26.4476L45.1985 37.8488L35.5 30.8024L25.8015 37.8488L29.506 26.4476L19.8076 19.4012H31.7955L35.5 8Z" fill="#FFCD29"/>
<path d="M35.5 8L39.2045 19.4012H51.1924L41.494 26.4476L45.1985 37.8488L35.5 30.8024L25.8015 37.8488L29.506 26.4476L19.8076 19.4012H31.7955L35.5 8Z" fill="#FFCD29"/>
<path d="M112.5 57L116.204 68.4012H128.192L118.494 75.4476L122.198 86.8488L112.5 79.8024L102.802 86.8488L106.506 75.4476L96.8076 68.4012H108.796L112.5 57Z" fill="#FFCD29"/>
<path d="M112.5 57L116.204 68.4012H128.192L118.494 75.4476L122.198 86.8488L112.5 79.8024L102.802 86.8488L106.506 75.4476L96.8076 68.4012H108.796L112.5 57Z" fill="#FFCD29"/>
<path d="M112.5 57L116.204 68.4012H128.192L118.494 75.4476L122.198 86.8488L112.5 79.8024L102.802 86.8488L106.506 75.4476L96.8076 68.4012H108.796L112.5 57Z" fill="#FFCD29"/>
<path d="M112.5 57L116.204 68.4012H128.192L118.494 75.4476L122.198 86.8488L112.5 79.8024L102.802 86.8488L106.506 75.4476L96.8076 68.4012H108.796L112.5 57Z" fill="#FFCD29"/>
<path d="M112.5 57L116.204 68.4012H128.192L118.494 75.4476L122.198 86.8488L112.5 79.8024L102.802 86.8488L106.506 75.4476L96.8076 68.4012H108.796L112.5 57Z" fill="#FFCD29"/>
<path d="M47.0742 78.2873V71.778L56.763 70.3706L55.7491 78.2873L54.0592 79.9586L51.6933 91.4817H48.3135L47.0742 90.4262L48.3135 80.3104L47.0742 78.2873Z" fill="#E5C080"/>
<path fill-rule="evenodd" clip-rule="evenodd" d="M57.9741 69.4907L56.8855 78.5918L55.2716 80.3009L52.9591 92.3611H48.7259L47.0742 90.8547L48.2589 80.5L47.1046 78.4822V71.1814L57.9741 69.4907ZM48.7095 72.2966V78.1778L49.899 80.2571L48.7399 90.3881L49.432 91.0193H51.591L53.753 79.7437L55.3352 78.0682L56.1643 71.137L48.7095 72.2966Z" fill="black"/>
<path fill-rule="evenodd" clip-rule="evenodd" d="M90.6758 71.51L88.5445 80.8627L87.1456 82.0664V92.2716L85.882 93.0481H82.0915L81.1036 82.6586L79.9446 80.1203V73.0845H81.5153V79.8643L82.6502 82.3498L83.539 91.6967H85.3787L85.5749 91.5761V81.5066L87.0953 80.1984L89.1345 71.25L90.6758 71.51ZM61.6094 73.5751L63.1499 73.3116L66.561 88.0756L67.8097 89.723H69.1013V86.973L67.0664 78.9559L69.1013 76.3756V74.4302L70.6681 74.363L71.5811 82.219L72.4304 83.041L72.9565 92.5484L73.5498 93.5127L75.079 93.3021L75.8784 90.3218V83.1393L77.1424 81.1453L77.6525 74.3864L79.2199 74.474L78.6873 81.5306L77.4491 83.4839V90.4757L76.3717 94.4928L72.6877 95L71.4043 92.9141L70.8878 83.5821L70.0689 82.7894L69.5387 78.2278L68.7448 79.2345L70.672 86.8271V91.0745H66.9589L65.0796 88.5952L61.6094 73.5751Z" fill="black"/>
<path d="M61.6094 74.1129L65.0913 88.4284L66.674 90.4119H69.2063V87.0486L67.2015 79.5459L69.2063 77.1312V75.0615L70.1559 82.8229L71 83.5991L71.5276 92.6541L72.4772 94.1201L75.115 93.7752L76.0646 90.4119V83.5991L77.3308 81.7018L77.8583 75.0615L80.1796 73.7679V80.4083L81.3402 82.8229L82.2899 92.3091H85.1387L85.8773 91.8779V82.133L87.3545 80.9257L89.4647 72.1294L61.6094 74.1129Z" fill="#E5C080"/>
<path fill-rule="evenodd" clip-rule="evenodd" d="M90.6758 71.25L88.3731 81.223L86.9919 82.396V92.3411L85.7443 93.0979H82.0016L81.0262 82.9731L79.8819 80.4995V74.8891L79.1418 75.3176L78.6404 81.8738L77.4178 83.7774V90.591L76.354 94.5058L72.7166 95L71.4493 92.9672L70.9394 83.8731L70.1308 83.1006L69.6073 78.6553L68.8234 79.6363L70.7262 87.0354V91.1745H67.06L65.2045 88.7584L61.6094 73.4005L90.6758 71.25ZM69.1754 76.8503V74.9544L70.7224 74.8889L71.6239 82.5447L72.4624 83.3458L72.982 92.6109L73.5678 93.5506L75.0777 93.3454L75.8669 90.441V83.4415L77.115 81.4984L77.6432 74.5913L79.7322 73.3817L63.4679 74.585L66.6672 88.2521L67.9001 89.8575H69.1754V87.1775L67.1662 79.3647L69.1754 76.8503ZM81.4327 73.2559V80.25L82.5532 82.6722L83.4308 91.7808H85.2473L85.441 91.6634V81.8505L86.9422 80.5756L88.7574 72.714L81.4327 73.2559Z" fill="black"/>
<path fill-rule="evenodd" clip-rule="evenodd" d="M56.763 72.2785L55.9655 78.7806L54.4119 80.3409L52.371 92.3609H48.6289L47.0742 91.0715L48.1568 80.567L47.1054 79.1517V72.2039H48.5747V78.7403L49.669 80.2133L48.6058 90.5302L49.1969 91.0204H51.1118L53.0274 79.7377L54.5582 78.2004L55.3028 72.1294L56.763 72.2785Z" fill="black"/>
<path d="M43.6001 45.1711L51.021 48.6259C51.021 48.6259 54.6399 47.1938 57.102 46.677C58.2162 46.4432 59.9879 46.209 59.9879 46.209L66.3781 45.5889L74.8297 45.7912V41.6278L73.9021 42.2479V35.9584H73.0776L72.4591 30.5548L71.6346 22.6709L73.9021 14.9642L70.2947 10.0035L69.5732 5.75148L70.9131 1.23373L72.4591 3.0054L73.9021 6.23869L75.345 9.47199H77.9217L79.88 6.10582L80.3954 8.23182L82.6629 5.75148L83.0751 6.90307L86.6825 5.75148L86.0641 7.61173L88.5377 6.90307V7.61173H91.8359L93.2789 0.879395L97.0924 5.39715L93.2789 10.8893L97.0924 14.9642H94.9279C97.208 18.1564 99.1537 19.6591 98.1231 21.165C97.0924 22.6709 94.9279 24.2654 94.9279 24.2654V27.2773C94.9279 27.2773 94.9279 27.543 95.7809 33.0352C96.6339 38.5273 103.586 51.992 101.009 57.3956C98.4323 62.7992 98.7415 61.2933 96.7832 64.3051C94.8249 67.317 94.6606 68.0873 92.4297 70.063L88.3316 72.3662L87.404 72.7205L86.2445 72.9199L84.1574 73.4735L78.1279 72.9863L78.3528 74.315C73.2837 75.1123 70.3978 74.8465 65.4693 73.6064L65.2444 74.315L62.5646 72.9863L61.9462 73.6064L59.9879 72.189L59.3695 73.6064L57.102 72.189V72.9863L55.8652 72.189L55.1437 72.9863L53.2885 72.189L52.3609 72.9863L50.1965 72.189L49.5781 72.9863L48.1351 72.189L47.5167 72.9863L46.5891 72.189L45.5584 72.9863C44.0086 72.2723 43.3764 71.4459 42.9817 68.6457C43.1418 69.5155 42.9691 68.6622 42.6725 65.2795C42.3759 61.8968 42.5493 63.4387 42.6725 61.2933C42.7958 59.1479 43.4602 58.0025 44.8369 55.9783H41.7449L42.9817 54.118L41.0234 53.6751L42.6725 51.992L41.7449 50.8404L42.6725 49.9546L41.0234 48.6259L44.2185 47.74L43.6001 45.1711Z" fill="#FFEBC8"/>
<path fill-rule="evenodd" clip-rule="evenodd" d="M93.4342 0L98.5267 6.11721L94.7902 11.5736L99.2072 16.3592H96.8767C97.161 16.735 97.4353 17.0856 97.6946 17.4168L97.7219 17.4516C98.1847 18.0426 98.6113 18.5875 98.939 19.0853C99.601 20.0912 100.013 21.1365 99.285 22.2151C98.73 23.0372 97.8919 23.8565 97.2205 24.4529C96.8799 24.7553 96.5724 25.0091 96.3495 25.1876C96.3134 25.2166 96.2794 25.2436 96.2479 25.2685V27.9506C96.2492 27.9644 96.2519 27.9895 96.2569 28.0318C96.2694 28.1364 96.2949 28.3362 96.3472 28.71C96.4515 29.4571 96.6608 30.8897 97.0801 33.6274C97.2807 34.9372 97.8473 36.7549 98.569 38.875C98.7956 39.5405 99.0369 40.2346 99.2848 40.9476C99.8184 42.4817 100.382 44.1036 100.895 45.718C101.647 48.0857 102.302 50.4777 102.607 52.6287C102.909 54.7598 102.882 56.7511 102.172 58.2617C100.466 61.8895 99.9876 62.4957 99.3073 63.3584C98.9707 63.7852 98.5845 64.2749 97.9755 65.2246C97.5389 65.9056 97.191 66.4765 96.8859 66.9772C95.873 68.6395 95.3313 69.5286 93.5751 71.1056L93.5161 71.1587L89.3629 73.5254L88.317 73.9305L87.1318 74.137L84.971 74.7182L79.8563 74.2992L80.0436 75.4217L79.3195 75.5371C76.7847 75.9414 74.7613 76.0815 72.7398 75.9549C70.9322 75.8416 69.1537 75.5166 67.0438 75.0013L66.7656 75.8902L63.8212 74.4098L63.1328 75.1097L61.4549 73.8784L60.8739 75.2284L59.0448 74.0691V74.8883L57.2068 73.687L56.5736 74.3966L54.6812 73.572L53.7925 74.3465L51.7723 73.592L51.0999 74.4711L49.6807 73.676L48.9724 74.6019L47.9137 73.6793L47.0397 74.3648L46.5669 74.144C45.7203 73.7485 45.0485 73.2828 44.5608 72.4866C44.0965 71.7284 43.8317 70.7211 43.6354 69.3088L43.6612 69.3056C43.6577 69.2749 43.6539 69.2417 43.6499 69.2056C43.5902 68.6756 43.4742 67.6144 43.3279 65.9218C43.1844 64.2628 43.1469 63.7434 43.1723 63.3809C43.181 63.2563 43.1992 63.1351 43.2172 63.0157C43.2247 62.966 43.2322 62.9166 43.2388 62.8675C43.2649 62.6757 43.297 62.3861 43.3266 61.8636C43.4345 59.9604 43.9514 58.7729 44.9036 57.2613H41.8612L43.2367 55.1635L41.1059 54.6749L43.1292 52.581L42.2054 51.4181L43.0212 50.6282L41 48.9769L44.7233 47.9302L43.9211 44.5514L52.3315 48.5215C52.4065 48.4924 52.4923 48.4594 52.5877 48.4229C52.9641 48.2791 53.4914 48.082 54.0957 47.8684C55.2944 47.4447 56.8324 46.9434 58.1001 46.6736C58.6736 46.5515 59.4037 46.4318 59.9794 46.3438C60.2696 46.2995 60.5249 46.2625 60.7078 46.2366C60.7993 46.2237 60.8728 46.2135 60.9237 46.2065L60.9823 46.1985L60.9978 46.1964L61.003 46.1957C61.0031 46.1957 61.0035 46.1956 61.1196 46.8533L61.003 46.1957L61.0187 46.1936L67.3722 45.5685L74.9534 45.7524V43.6451L74.0411 44.2635V37.2961H73.3015L72.6256 31.307L72.625 31.3015L71.8024 23.3262L73.9845 15.8058L70.5242 10.9809L69.7695 6.47073L71.5189 0.489775L74.0602 3.44269L76.7488 9.55118H78.2862L80.9836 4.84973L81.604 7.44473L83.722 5.09557L84.3187 6.7856L88.5234 5.42458L87.8983 7.33122L89.9629 6.73148V7.69601H91.8074L93.4342 0ZM88.4358 8.57793L85.6345 9.39165L86.2259 7.58794L83.3346 8.52381L83.1204 7.91695L80.778 10.5149L80.3847 8.86952L79.23 10.882H75.6989L72.7107 4.09266L72.2109 3.51192L71.3247 6.5418L71.9891 10.5124L75.6247 15.5818L73.3466 23.4328L74.1454 31.1767L74.146 31.1823L74.6858 35.9653H75.5682V41.5424L76.4806 40.924V47.1208L67.4369 46.9014L61.2209 47.513L61.2172 47.5135L61.1615 47.5211C61.1371 47.5245 61.107 47.5286 61.072 47.5335C61.037 47.5384 60.997 47.544 60.9525 47.5503C60.7745 47.5755 60.5257 47.6115 60.2432 47.6546C59.6737 47.7417 58.9846 47.8553 58.4623 47.9665C57.3084 48.212 55.8559 48.6824 54.6696 49.1017C54.0814 49.3096 53.5675 49.5017 53.2009 49.6418C53.0177 49.7118 52.8715 49.7687 52.7716 49.8079C52.7216 49.8275 52.6832 49.8427 52.6575 49.8529L52.6286 49.8644L52.62 49.8679L52.2726 50.0072L46.0821 47.085L46.4964 48.8301L43.9347 49.5502L45.1573 50.5492L44.1485 51.526L45.0493 52.66L43.8288 53.9232L45.5501 54.3179L44.4927 55.9305H47.5489L46.8773 56.9317C45.5422 58.922 44.9639 59.9516 44.8519 61.9292C44.8209 62.4765 44.7862 62.797 44.7554 63.0241C44.7421 63.1217 44.7316 63.1902 44.7232 63.2449C44.71 63.3312 44.702 63.3833 44.6966 63.4618C44.6793 63.7088 44.7024 64.1072 44.8507 65.8217C44.996 67.5026 45.1109 68.5536 45.1697 69.0756C45.1759 69.1307 45.1816 69.1807 45.1866 69.2252C45.1934 69.285 45.199 69.3348 45.2033 69.3734C45.207 69.407 45.2102 69.4364 45.2124 69.4592C45.2134 69.47 45.2146 69.484 45.2155 69.498C45.216 69.5047 45.2166 69.5164 45.2169 69.5303C45.2169 69.5311 45.2176 69.5506 45.2158 69.5793C45.3966 70.7001 45.6188 71.3876 45.9081 71.86C46.1349 72.2304 46.4184 72.4933 46.8339 72.7358L47.969 71.8454L48.735 72.513L49.2431 71.8488L50.6623 72.6438L51.2063 71.9327L53.4438 72.7684L54.3797 71.9527L56.1367 72.7183L56.9227 71.8377L57.5176 72.2266V71.4556L60.1488 73.1233L60.7843 71.6464L62.9585 73.242L63.4865 72.7051L65.8134 73.875L65.9787 73.3468L66.7252 73.5372C69.127 74.15 70.989 74.5109 72.8493 74.6274C74.518 74.732 76.2131 74.6416 78.3196 74.3382L78.0655 72.8157L84.8111 73.3684L86.7559 72.8454L87.8515 72.6544L88.6302 72.3528L92.5378 70.126C94.0868 68.7271 94.5268 68.0057 95.4936 66.4209C95.8041 65.9118 96.169 65.3137 96.6424 64.5754C97.3371 63.4921 97.7426 62.9823 98.0793 62.5588C98.7182 61.7556 99.1097 61.2634 100.759 57.757C101.315 56.5732 101.385 54.8652 101.091 52.7918C100.8 50.7383 100.169 48.4206 99.4233 46.073C98.9155 44.474 98.3611 42.8798 97.8303 41.3537C97.5809 40.6364 97.3366 39.9342 97.1049 39.2535C96.3879 37.147 95.7852 35.2322 95.5664 33.8035C95.1468 31.0641 94.9366 29.6255 94.8312 28.8708C94.7785 28.4937 94.7517 28.2849 94.7379 28.1687C94.731 28.1107 94.7271 28.0733 94.7248 28.0481C94.7236 28.0355 94.7227 28.0242 94.7221 28.0137C94.7218 28.0084 94.7214 28.0026 94.7212 27.9964L94.7209 27.986L94.7208 27.98L94.7208 27.9767L94.7208 27.975C94.7207 27.9741 94.7207 27.9732 95.4843 27.9732H94.7207V24.6636L94.9872 24.4645L94.9879 24.464L94.9914 24.4614L95.0072 24.4495C95.0215 24.4386 95.0433 24.422 95.0718 24.4C95.1287 24.3561 95.2122 24.291 95.3161 24.2078C95.524 24.0412 95.812 23.8036 96.1304 23.5208C96.7768 22.9466 97.5099 22.22 97.9687 21.5403C98.2544 21.117 98.2163 20.6622 97.6143 19.7475C97.3165 19.2951 96.9184 18.7866 96.4344 18.1684L96.4332 18.1669C95.9546 17.5557 95.405 16.8531 94.8336 16.0419L94.1196 15.0284H96.019L92.9345 11.6865L96.6995 6.18859L94.2906 3.29496L93.0789 9.02686H88.4358V8.57793ZM45.0551 69.136C45.016 69.0918 44.8824 68.953 44.6385 68.8998C44.5168 68.8822 44.2678 68.8997 44.1473 68.9355C44.0525 68.9787 43.9072 69.0799 43.8548 69.1317C43.8002 69.1918 43.7661 69.251 43.7454 69.2954L45.0551 69.136Z" fill="black"/>
<path d="M97.9456 22.1834C97.4163 23.0491 97.7897 22.3698 97.6039 22.6246C97.4181 22.8793 97.4163 22.8706 96.4936 22.8706C95.6449 22.8706 95.3257 22.0102 95.6449 21.5152C96.3509 20.8559 96.7554 21.2022 97.4331 21.2022C98.1166 21.5152 97.7748 21.0868 97.9456 22.1834Z" fill="black"/>
<path fill-rule="evenodd" clip-rule="evenodd" d="M96.4522 22.8699C95.6346 22.8424 95.3309 22.0021 95.6449 21.5152C96.1605 21.0337 96.5153 21.0886 96.9331 21.1532C97.0874 21.177 97.2503 21.2022 97.4331 21.2022C97.7318 21.339 97.8347 21.3342 97.8701 21.377C97.8705 21.3775 97.8709 21.378 97.8713 21.3785C97.8841 21.395 97.8875 21.4186 97.8884 21.4594C97.8905 21.5568 97.8785 21.7522 97.9456 22.1834C97.6217 22.7132 97.6358 22.6643 97.653 22.6051C97.6639 22.5675 97.676 22.5257 97.6039 22.6246C97.4243 22.8708 97.4166 22.8708 96.5826 22.8706C96.5539 22.8706 96.5242 22.8706 96.4936 22.8706C96.4904 22.8706 96.4873 22.8705 96.4842 22.8705C96.4734 22.8704 96.4627 22.8702 96.4522 22.8699Z" fill="black"/>
<path d="M91.8523 22.5682C91.8523 22.5682 94.4668 24.3587 96.5944 23.2746C97.6688 22.7272 95.5201 23.9387 94.9867 25.3273C94.7929 25.8319 94.5989 26.046 93.9435 26.1797C93.4544 26.1898 92.0594 24.8559 91.8523 24.5991C91.2337 23.7161 91.8523 21.5969 91.8523 22.5682Z" fill="#FFBDBD" fill-opacity="0.9"/>
<path d="M89.4696 17.1529C89.4696 17.8816 87.0031 18.4724 85.7262 18.4724C84.4492 18.4724 83.4141 17.8816 83.4141 17.1529C83.4141 16.4242 84.4492 15.8335 85.7262 15.8335C87.0031 15.8335 89.4696 16.4242 89.4696 17.1529Z" fill="black"/>
<path d="M96.9387 17.2052C97.7243 18.1556 98.7361 18.4724 96.9387 18.4724C95.1413 18.4724 94.0305 18.1568 93.5768 17.2052C92.6837 16.4671 93.0091 15.8335 94.8065 15.8335C96.6039 15.8335 96.9387 16.1553 96.9387 17.2052Z" fill="black"/>
<path d="M85.8363 17.1529C85.8363 17.8816 85.294 18.4724 84.6252 18.4724C83.9563 18.4724 83.4141 17.8816 83.4141 17.1529C83.4141 16.4242 83.9563 15.8335 84.6252 15.8335C85.294 15.8335 85.8363 16.4242 85.8363 17.1529Z" fill="#FCFCFC"/>
<path d="M85.8363 17.1529C85.8363 17.8816 85.294 18.4724 84.6252 18.4724C83.9563 18.4724 83.4141 17.8816 83.4141 17.1529C83.4141 16.4242 83.9563 15.8335 84.6252 15.8335C85.294 15.8335 85.8363 16.4242 85.8363 17.1529Z" fill="#FCFCFC"/>
<path d="M85.8363 17.1529C85.8363 17.8816 85.294 18.4724 84.6252 18.4724C83.9563 18.4724 83.4141 17.8816 83.4141 17.1529C83.4141 16.4242 83.9563 15.8335 84.6252 15.8335C85.294 15.8335 85.8363 16.4242 85.8363 17.1529Z" fill="#FCFCFC"/>
<path d="M85.8363 17.1529C85.8363 17.8816 85.294 18.4724 84.6252 18.4724C83.9563 18.4724 83.4141 17.8816 83.4141 17.1529C83.4141 16.4242 83.9563 15.8335 84.6252 15.8335C85.294 15.8335 85.8363 16.4242 85.8363 17.1529Z" fill="#FCFCFC"/>
<path d="M95.5197 16.7131C95.5197 17.1989 95.2486 17.5928 94.9141 17.5928C94.5797 17.5928 94.3086 17.1989 94.3086 16.7131C94.3086 16.2273 94.5797 15.8335 94.9141 15.8335C95.2486 15.8335 95.5197 16.2273 95.5197 16.7131Z" fill="#FCFCFC"/>
<path d="M95.5197 16.7131C95.5197 17.1989 95.2486 17.5928 94.9141 17.5928C94.5797 17.5928 94.3086 17.1989 94.3086 16.7131C94.3086 16.2273 94.5797 15.8335 94.9141 15.8335C95.2486 15.8335 95.5197 16.2273 95.5197 16.7131Z" fill="#FCFCFC"/>
<path d="M95.5197 16.7131C95.5197 17.1989 95.2486 17.5928 94.9141 17.5928C94.5797 17.5928 94.3086 17.1989 94.3086 16.7131C94.3086 16.2273 94.5797 15.8335 94.9141 15.8335C95.2486 15.8335 95.5197 16.2273 95.5197 16.7131Z" fill="#FCFCFC"/>
<path d="M95.5197 16.7131C95.5197 17.1989 95.2486 17.5928 94.9141 17.5928C94.5797 17.5928 94.3086 17.1989 94.3086 16.7131C94.3086 16.2273 94.5797 15.8335 94.9141 15.8335C95.2486 15.8335 95.5197 16.2273 95.5197 16.7131Z" fill="#FCFCFC"/>
<path fill-rule="evenodd" clip-rule="evenodd" d="M82.1152 13.1943L83.5272 14.4327L84.5167 13.3283L87.2172 14.6036L88.1186 13.6813L89.2091 14.4252L89.6787 13.6566L90.7478 14.24V13.2103L95.5257 14.8398L94.9295 16.0112L92.2981 15.1137V16.6111L90.2799 15.5098L89.7204 16.4258L88.3411 15.485L87.596 16.2475L84.9453 14.9957L83.6708 16.4184L82.2013 15.1297L79.7776 17.5925L78.5703 16.7964L82.1152 13.1943Z" fill="black"/>
<path fill-rule="evenodd" clip-rule="evenodd" d="M75.8514 16.4793L75.0029 14.9536L73.7227 15.664L74.8184 17.6341L76.8318 18.4721L77.4723 17.284L79.0575 18.179L79.7782 16.9055L76.8916 15.2758L76.1711 16.6123L75.8514 16.4793Z" fill="black"/>
<path fill-rule="evenodd" clip-rule="evenodd" d="M92.6517 24.8514C92.7869 24.9241 93.015 25.0091 93.4503 25.1441C93.5439 25.1731 93.6727 25.1856 93.9238 25.0769C94.2018 24.9566 94.5436 24.7206 94.9598 24.3476C95.3688 23.981 95.7956 23.5324 96.2595 23.0312C96.3496 22.9338 96.4412 22.8343 96.5341 22.7335C96.9093 22.3262 97.3055 21.896 97.7094 21.4883C98.2654 20.9271 98.2689 20.611 98.2397 20.5053C98.2216 20.4398 98.1445 20.2941 97.8329 20.1359C97.4527 20.326 97.0541 20.4722 96.6861 20.5982C96.5075 20.6594 96.3368 20.7157 96.171 20.7704C95.7843 20.8979 95.4242 21.0166 95.052 21.1681C94.0888 21.5601 93.2671 22.0891 92.7994 23.207C92.6836 23.7412 92.6107 24.1178 92.5818 24.4023C92.554 24.675 92.5774 24.7815 92.5873 24.8118C92.5967 24.8189 92.6161 24.8323 92.6517 24.8514ZM91.796 22.978C91.3037 25.238 91.3813 25.4455 93.0979 25.9779C94.4717 26.404 95.8526 24.905 97.3524 23.2769C97.7266 22.8707 98.1081 22.4565 98.4988 22.0621C99.7985 20.7503 99.4499 19.6569 97.7333 19.1245C97.2262 19.4718 96.5538 19.6936 95.8357 19.9304C94.3136 20.4325 92.5865 21.0021 91.796 22.978Z" fill="black"/>
<path fill-rule="evenodd" clip-rule="evenodd" d="M95.7613 22.5735L93.6895 21.0674L94.0244 20.7293L96.0963 22.2354L95.7613 22.5735Z" fill="black"/>
</svg>
