<svg width="19" height="20" viewBox="0 0 19 20" fill="none" xmlns="http://www.w3.org/2000/svg">
<g clip-path="url(#clip0_491_829)">
<path d="M2.64424 19.9886H16.2081C18.0061 19.9886 18.8547 19.4494 18.8547 18.2656C18.8547 15.437 15.2893 11.3394 9.42618 11.3394C3.57691 11.3394 0 15.437 0 18.2656C0 19.4494 0.857675 19.9886 2.64424 19.9886ZM2.13164 18.3551C1.85177 18.3551 1.73647 18.2858 1.73647 18.0596C1.73647 16.2821 4.47481 12.9729 9.42618 12.9729C14.3799 12.9729 17.1182 16.2821 17.1182 18.0596C17.1182 18.2858 17.0029 18.3551 16.7207 18.3551H2.13164ZM9.43084 9.99501C12.0042 9.99501 14.0929 7.71116 14.0929 4.93098C14.0929 2.17641 12.0154 0 9.43084 0C6.86918 0 4.77119 2.21308 4.77119 4.95382C4.77119 7.7226 6.87125 9.99501 9.43084 9.99501ZM9.43084 8.37297C7.85859 8.37297 6.50767 6.86114 6.50767 4.95382C6.50767 3.07453 7.8313 1.63348 9.43084 1.63348C11.0395 1.63348 12.3564 3.0493 12.3564 4.93098C12.3564 6.8383 11.026 8.37297 9.43084 8.37297Z" fill="black"/>
</g>
<defs>
<clipPath id="clip0_491_829">
<rect width="18.8556" height="20" fill="white"/>
</clipPath>
</defs>
</svg>
