<svg width="188" height="92" viewBox="0 0 188 92" fill="none" xmlns="http://www.w3.org/2000/svg">
<path d="M59.5943 41.6611C62.4187 41.6611 64.7136 42.5585 66.4789 44.3532C68.2736 46.1185 69.171 48.6929 69.171 52.0764V66.1988H66.1259V52.4294C66.1259 49.8109 65.4933 47.8102 64.2282 46.4274C62.963 45.0446 61.2419 44.3532 59.0647 44.3532C56.7992 44.3532 54.9898 45.1035 53.6364 46.604C52.283 48.1045 51.6063 50.2817 51.6063 53.1356V66.1988H48.5612V52.4294C48.5612 49.8109 47.9286 47.8102 46.6635 46.4274C45.3983 45.0446 43.6625 44.3532 41.4558 44.3532C39.1904 44.3532 37.381 45.1035 36.0276 46.604C34.6742 48.1045 33.9975 50.2817 33.9975 53.1356V66.1988H30.9082V42.1025H33.9975V46.2509C34.7624 44.7504 35.851 43.6177 37.2633 42.8527C38.6755 42.0583 40.2496 41.6611 41.9854 41.6611C44.0744 41.6611 45.8985 42.1613 47.4579 43.1616C49.0466 44.162 50.1941 45.633 50.9002 47.5749C51.5475 45.6625 52.6508 44.2061 54.2101 43.2058C55.7989 42.176 57.5936 41.6611 59.5943 41.6611Z" fill="#00A6A6"/>
<path d="M19.992 58.8729H5.95787L3.2658 66.1989H0L11.2538 35.7476H14.7402L25.9499 66.1989H22.6841L19.992 58.8729ZM19.0652 56.3133L12.9749 39.6312L6.88465 56.3133H19.0652Z" fill="#F49F0A"/>
<path d="M139.976 45.906C139.176 44.3876 138.063 43.2488 136.64 42.4897C135.216 41.7013 133.57 41.3071 131.702 41.3071C129.655 41.3071 127.831 41.7597 126.23 42.6649C124.628 43.57 123.367 44.8548 122.448 46.5192C121.558 48.1836 121.113 50.1107 121.113 52.3007C121.113 54.4907 121.558 56.4324 122.448 58.126C123.367 59.7904 124.628 61.0751 126.23 61.9803C127.831 62.8855 129.655 63.3381 131.702 63.3381C134.46 63.3381 136.699 62.5789 138.419 61.0605C140.14 59.5422 141.193 57.4836 141.578 54.8848H129.967V50.8991H147.006V54.7972C146.679 57.1624 145.819 59.3378 144.425 61.3233C143.061 63.3089 141.267 64.9003 139.042 66.0975C136.847 67.2654 134.401 67.8494 131.702 67.8494C128.795 67.8494 126.141 67.1924 123.738 65.8785C121.336 64.5353 119.423 62.6811 117.999 60.316C116.605 57.9508 115.908 55.279 115.908 52.3007C115.908 49.3223 116.605 46.6506 117.999 44.2854C119.423 41.9203 121.336 40.0807 123.738 38.7667C126.17 37.4235 128.825 36.752 131.702 36.752C134.994 36.752 137.915 37.5549 140.466 39.1609C143.046 40.7377 144.915 42.9861 146.071 45.906H139.976Z" fill="#00A6A6"/>
<path fill-rule="evenodd" clip-rule="evenodd" d="M78.0004 64.8151V0H81.4568V64.8151C81.4568 71.4794 76.0406 76.8818 69.3593 76.8818H57.9531V73.4342H69.3593C74.1316 73.4342 78.0004 69.5753 78.0004 64.8151ZM95.1097 79.8123V13.7905H98.5661V79.8123C98.5661 84.5724 102.435 88.4313 107.207 88.4313H152.659V91.8789H107.207C100.526 91.8789 95.1097 86.4765 95.1097 79.8123ZM103.232 73.5204V22.4095H106.689V73.5204C106.689 77.5665 109.977 80.8465 114.034 80.8465H152.659V84.2942H114.034C108.068 84.2942 103.232 79.4706 103.232 73.5204Z" fill="#F49F0A"/>
<path d="M181.615 45.5706C185.141 54.1718 181.026 64.0024 172.425 67.5279C163.824 71.0534 153.993 66.9387 150.467 58.3375C146.942 49.7363 151.057 39.9057 159.658 36.3802C168.259 32.8547 178.09 36.9694 181.615 45.5706Z" fill="#F49F0A"/>
<path d="M163.128 61.5823L166.318 68.8536C169.059 69.1444 174.851 67.0192 177.97 64.0777L174.959 56.7331C175.639 55.8553 173.586 50.9334 172.474 48.5822L172.945 47.2807L172.494 46.6862L172.367 45.1503L171.39 43.9924C171.473 37.2221 169.086 36.1371 167.882 36.4409L168.27 39.5482C167.542 39.8466 167.257 41.6411 167.206 42.501L164.603 42.4893L160.508 44.1678L158.51 46.0654C158.103 45.4173 156.538 44.856 155.807 44.6564L153.624 42.2848C151.239 43.6699 154.734 47.9929 156.779 49.9813L156.947 51.4708L157.346 52.4457L158.209 53.4704L159.426 54.3501C160.855 59.2778 162.49 61.2248 163.128 61.5823Z" fill="#FFEBC8"/>
<path fill-rule="evenodd" clip-rule="evenodd" d="M164.902 54.5281C164.873 54.3894 164.963 54.2538 165.101 54.2253C165.493 54.1449 166.101 54.1572 166.693 54.4423C167.294 54.7323 167.861 55.2961 168.164 56.2845C168.206 56.4199 168.13 56.5634 167.994 56.6049C167.859 56.6464 167.715 56.5703 167.674 56.4349C167.411 55.5784 166.938 55.1301 166.47 54.9044C165.992 54.674 165.5 54.6671 165.205 54.7277C165.066 54.7562 164.93 54.6669 164.902 54.5281Z" fill="black"/>
<path fill-rule="evenodd" clip-rule="evenodd" d="M160.613 53.0131C160.693 53.0498 160.748 53.1248 160.76 53.2117C160.789 53.4285 160.823 53.7404 160.828 53.9573C160.829 54.012 160.829 54.0663 160.825 54.1144C160.822 54.1486 160.815 54.226 160.777 54.2938C160.756 54.3301 160.698 54.4146 160.581 54.4342C160.465 54.4536 160.383 54.3943 160.352 54.3678C160.293 54.3167 160.256 54.2441 160.235 54.2002C160.208 54.1426 160.143 54.0947 159.994 54.0832C159.848 54.0719 159.684 54.104 159.58 54.1383C159.458 54.179 159.324 54.1221 159.268 54.0056C159.213 53.8892 159.252 53.7494 159.361 53.6794L160.366 53.0304C160.44 52.9829 160.533 52.9763 160.613 53.0131ZM160.312 54.0856C160.311 54.088 160.311 54.0891 160.311 54.089C160.311 54.089 160.311 54.0878 160.312 54.0856Z" fill="black"/>
<path fill-rule="evenodd" clip-rule="evenodd" d="M161.427 53.0916C160.553 53.3114 159.619 53.7253 159.028 54.0401C158.903 54.1067 158.748 54.0593 158.681 53.9343C158.615 53.8092 158.662 53.6539 158.787 53.5873C159.402 53.26 160.375 52.8272 161.302 52.5941C161.765 52.4778 162.231 52.4073 162.641 52.4321C163.05 52.4568 163.442 52.5788 163.702 52.8879C163.793 52.9963 163.779 53.1581 163.671 53.2493C163.562 53.3404 163.401 53.3265 163.309 53.2181C163.177 53.0609 162.949 52.9646 162.61 52.9441C162.274 52.9238 161.865 52.9815 161.427 53.0916Z" fill="black"/>
<path fill-rule="evenodd" clip-rule="evenodd" d="M153.95 43.816C154.116 43.7136 154.333 43.7647 154.436 43.9304C154.648 44.2739 155.004 44.7935 155.375 45.231C155.561 45.4503 155.743 45.6402 155.907 45.7759C156.084 45.9222 156.191 45.9645 156.23 45.9688C156.661 46.0152 157.01 46.3084 157.249 46.5789C157.35 46.6933 157.441 46.8144 157.52 46.9323L158.352 45.9535C158.478 45.8051 158.701 45.7871 158.849 45.9132C158.998 46.0393 159.016 46.2619 158.89 46.4103L157.732 47.772C157.654 47.8637 157.535 47.9094 157.416 47.893C157.296 47.8767 157.194 47.8007 157.143 47.6914C157.067 47.5261 156.915 47.2664 156.721 47.0462C156.517 46.8159 156.319 46.6877 156.155 46.6701C155.897 46.6423 155.653 46.4816 155.457 46.3193C155.249 46.1465 155.036 45.9222 154.837 45.6871C154.437 45.2158 154.061 44.6658 153.836 44.3015C153.734 44.1359 153.785 43.9185 153.95 43.816Z" fill="black"/>
<path fill-rule="evenodd" clip-rule="evenodd" d="M165.771 50.4016C165.827 50.5314 165.768 50.6826 165.639 50.7394C165.155 50.9511 164.49 51.4516 164.102 52.2534C163.718 53.0444 163.59 54.1559 164.215 55.6267C164.842 57.1002 165.696 57.7349 166.478 57.9601C167.273 58.1889 168.037 58.0074 168.49 57.7725C168.616 57.7073 168.771 57.7564 168.836 57.8821C168.901 58.0079 168.852 58.1627 168.726 58.2279C168.179 58.5114 167.28 58.7247 166.336 58.453C165.38 58.1777 164.419 57.4165 163.743 55.8274C163.066 54.2355 163.185 52.9681 163.64 52.0296C164.09 51.102 164.855 50.5226 165.433 50.2695C165.563 50.2127 165.714 50.2719 165.771 50.4016Z" fill="black"/>
<path d="M162.072 53.3139C162.244 53.7334 161.964 54.2455 161.446 54.4576C160.929 54.6697 160.37 54.5015 160.198 54.082C160.026 53.6624 160.306 53.1503 160.824 52.9382C161.341 52.7261 161.9 52.8943 162.072 53.3139Z" fill="black"/>
<path d="M160.927 53.695C160.967 53.7929 160.92 53.9048 160.823 53.945C160.725 53.9851 160.613 53.9382 160.573 53.8403C160.533 53.7424 160.579 53.6306 160.677 53.5904C160.775 53.5503 160.887 53.5971 160.927 53.695Z" fill="#FCFCFC"/>
<path fill-rule="evenodd" clip-rule="evenodd" d="M165.579 56.0232C165.685 55.9293 165.847 55.9392 165.941 56.0453C166.159 56.2917 166.849 56.7245 167.761 56.2678C167.887 56.2043 168.041 56.2556 168.105 56.3822C168.168 56.5089 168.117 56.663 167.99 56.7264C166.821 57.3119 165.889 56.761 165.557 56.3853C165.463 56.2792 165.473 56.1171 165.579 56.0232Z" fill="black"/>
<path fill-rule="evenodd" clip-rule="evenodd" d="M170.703 48.8793C170.672 48.9615 170.685 49.0537 170.738 49.1239C170.869 49.2988 171.064 49.5451 171.212 49.7029C171.25 49.7427 171.289 49.781 171.325 49.8124C171.351 49.8348 171.411 49.8849 171.485 49.9066C171.525 49.9183 171.626 49.9377 171.723 49.8691C171.82 49.8015 171.836 49.7018 171.84 49.6613C171.846 49.5834 171.821 49.506 171.805 49.46C171.784 49.3997 171.797 49.32 171.895 49.2074C171.991 49.0969 172.13 49.0044 172.228 48.9562C172.344 48.8991 172.399 48.7648 172.357 48.6427C172.315 48.5206 172.189 48.4487 172.063 48.475L170.891 48.7188C170.805 48.7367 170.734 48.7972 170.703 48.8793ZM171.67 49.432C171.672 49.4335 171.673 49.4341 171.673 49.434C171.673 49.4339 171.672 49.4332 171.67 49.432Z" fill="black"/>
<path fill-rule="evenodd" clip-rule="evenodd" d="M170.178 49.504C170.955 49.0469 171.911 48.6865 172.553 48.4958C172.689 48.4555 172.766 48.3128 172.726 48.177C172.685 48.0412 172.543 47.9638 172.407 48.0041C171.739 48.2023 170.742 48.5772 169.918 49.0618C169.507 49.3037 169.126 49.5805 168.85 49.8864C168.577 50.1905 168.383 50.5527 168.415 50.9554C168.426 51.0966 168.549 51.2021 168.691 51.191C168.832 51.1798 168.937 51.0564 168.926 50.9151C168.91 50.7104 169.005 50.4818 169.232 50.2294C169.457 49.9786 169.789 49.7329 170.178 49.504Z" fill="#00A6A6"/>
<path fill-rule="evenodd" clip-rule="evenodd" d="M153.896 41.7507C153.989 41.7748 154.068 41.8359 154.115 41.9197C154.385 42.4032 154.827 43.1131 155.27 43.6724C155.493 43.9539 155.704 44.1817 155.884 44.3243C155.974 44.3957 156.042 44.4348 156.089 44.4525C156.105 44.4583 156.115 44.4608 156.12 44.4618C156.382 44.3799 156.661 44.4391 156.894 44.5248C157.14 44.6157 157.395 44.7598 157.635 44.9188C157.886 45.0856 158.134 45.2778 158.354 45.4638C158.42 45.4174 158.495 45.3795 158.573 45.3477C158.635 45.322 158.744 45.2538 158.894 45.1344C159.037 45.02 159.197 44.8756 159.361 44.7187C159.687 44.405 160.01 44.0557 160.206 43.8312C160.242 43.7899 160.287 43.7577 160.338 43.7369L162.364 42.9065C162.544 42.8327 162.75 42.9189 162.824 43.0991C162.897 43.2793 162.811 43.4853 162.631 43.5591L160.682 44.3582C160.473 44.5933 160.164 44.9244 159.849 45.2272C159.677 45.3925 159.5 45.553 159.333 45.6858C159.194 45.7971 159.044 45.9036 158.902 45.9725C158.995 46.0977 158.996 46.2725 158.898 46.3992C158.788 46.54 158.591 46.5772 158.438 46.4858C158.375 46.4481 158.304 46.3946 158.242 46.3254C158.225 46.3065 158.207 46.2846 158.189 46.2598C157.931 46.0207 157.588 45.7342 157.245 45.5065C157.028 45.3629 156.824 45.251 156.649 45.1865C156.464 45.1182 156.367 45.1232 156.33 45.1354C156.153 45.1942 155.98 45.1652 155.839 45.112C155.7 45.0591 155.567 44.9731 155.446 44.877C155.203 44.6846 154.952 44.4076 154.717 44.1102C154.347 43.6436 153.985 43.0882 153.71 42.6277C153.399 42.968 153.156 43.5593 153.319 44.4586C153.534 45.6426 154.46 47.3646 156.9 49.6578C156.968 49.7212 157.007 49.8087 157.011 49.9012L157.05 50.9113L157.065 50.9053C157.178 50.859 157.307 50.8745 157.406 50.9463C157.504 51.0181 157.559 51.1361 157.55 51.2579L157.506 51.8522C157.599 51.8283 157.7 51.8438 157.783 51.8967C157.879 51.9585 157.94 52.0635 157.945 52.1781L157.972 52.7885L157.996 52.7592C158.085 52.6494 158.231 52.6032 158.367 52.6418C158.502 52.6803 158.602 52.7963 158.62 52.9364C158.64 53.0901 158.705 53.3019 158.815 53.446C158.867 53.5141 158.92 53.5558 158.973 53.5776C159.021 53.5978 159.091 53.6103 159.198 53.5849C159.383 53.5408 159.569 53.6511 159.62 53.8344C159.938 54.9934 160.503 56.7447 161.157 58.2296C161.485 58.9734 161.83 59.6364 162.171 60.1223C162.341 60.3652 162.503 60.5538 162.654 60.6848C162.807 60.8176 162.927 60.8733 163.013 60.8876C163.133 60.9077 163.235 60.9887 163.281 61.1018L166.094 67.9644C166.168 68.1446 166.082 68.3506 165.902 68.4245C165.721 68.4983 165.516 68.4121 165.442 68.2319L162.694 61.5291C162.511 61.4615 162.343 61.3491 162.191 61.2169C161.982 61.0353 161.783 60.7975 161.593 60.5272C161.214 59.9866 160.848 59.2759 160.512 58.5142C159.891 57.1046 159.352 55.4731 159.018 54.3022C158.907 54.295 158.802 54.2703 158.703 54.2291C158.509 54.1488 158.362 54.0154 158.254 53.8743C158.212 53.819 158.174 53.7608 158.141 53.7013L157.936 53.9551C157.844 54.069 157.691 54.114 157.552 54.0683C157.412 54.0225 157.316 53.8954 157.309 53.7491L157.263 52.7103L157.245 52.7174C157.132 52.7638 157.003 52.7483 156.904 52.6765C156.805 52.6046 156.751 52.4867 156.76 52.3648L156.804 51.7706C156.71 51.7946 156.609 51.7788 156.526 51.7255C156.43 51.6632 156.369 51.5575 156.365 51.4425L156.312 50.0723C153.901 47.7826 152.876 45.9651 152.625 44.5847C152.367 43.1624 152.937 42.2137 153.622 41.7917C153.704 41.7413 153.803 41.7265 153.896 41.7507ZM156.126 44.4625C156.126 44.4625 156.126 44.4625 156.125 44.4625C156.126 44.4625 156.126 44.4625 156.126 44.4625Z" fill="black"/>
<path fill-rule="evenodd" clip-rule="evenodd" d="M168.714 52.968C168.637 52.8492 168.478 52.8153 168.359 52.8924C168.024 53.1097 167.599 53.5454 167.378 54.1638C167.153 54.7926 167.145 55.5921 167.623 56.5089C167.688 56.6345 167.843 56.6833 167.969 56.6178C168.094 56.5523 168.143 56.3974 168.077 56.2718C167.663 55.4774 167.686 54.8262 167.861 54.3367C168.04 53.8368 168.385 53.4867 168.638 53.3228C168.757 53.2457 168.791 53.0869 168.714 52.968Z" fill="black"/>
<path fill-rule="evenodd" clip-rule="evenodd" d="M164.906 54.5296C164.877 54.3908 164.967 54.2552 165.105 54.2267C165.497 54.1464 166.105 54.1587 166.696 54.4438C167.298 54.7337 167.865 55.2976 168.168 56.286C168.21 56.4214 168.134 56.5648 167.998 56.6064C167.863 56.6479 167.719 56.5718 167.678 56.4363C167.415 55.5798 166.942 55.1316 166.474 54.9059C165.996 54.6754 165.504 54.6686 165.209 54.7292C165.07 54.7577 164.934 54.6683 164.906 54.5296Z" fill="black"/>
<path fill-rule="evenodd" clip-rule="evenodd" d="M160.613 53.0131C160.693 53.0498 160.748 53.1248 160.76 53.2117C160.789 53.4285 160.823 53.7404 160.828 53.9573C160.829 54.012 160.829 54.0663 160.825 54.1144C160.822 54.1486 160.815 54.226 160.777 54.2938C160.756 54.3301 160.698 54.4146 160.581 54.4342C160.465 54.4536 160.383 54.3943 160.352 54.3678C160.293 54.3167 160.256 54.2441 160.235 54.2002C160.208 54.1426 160.143 54.0947 159.994 54.0832C159.848 54.0719 159.684 54.104 159.58 54.1383C159.458 54.179 159.324 54.1221 159.268 54.0056C159.213 53.8892 159.252 53.7494 159.361 53.6794L160.366 53.0304C160.44 52.9829 160.533 52.9763 160.613 53.0131ZM160.312 54.0856C160.311 54.088 160.311 54.0891 160.311 54.089C160.311 54.089 160.311 54.0878 160.312 54.0856Z" fill="black"/>
<path fill-rule="evenodd" clip-rule="evenodd" d="M161.427 53.0916C160.553 53.3114 159.619 53.7253 159.028 54.0401C158.903 54.1067 158.748 54.0593 158.681 53.9343C158.615 53.8092 158.662 53.6539 158.787 53.5873C159.402 53.26 160.375 52.8272 161.302 52.5941C161.765 52.4778 162.231 52.4073 162.641 52.4321C163.05 52.4568 163.442 52.5788 163.702 52.8879C163.793 52.9963 163.779 53.1581 163.671 53.2493C163.562 53.3404 163.401 53.3265 163.309 53.2181C163.177 53.0609 162.949 52.9646 162.61 52.9441C162.274 52.9238 161.865 52.9815 161.427 53.0916Z" fill="#00A6A6"/>
<path fill-rule="evenodd" clip-rule="evenodd" d="M167.578 36.1396C167.528 36.222 167.515 36.321 167.54 36.4137C167.687 36.948 167.871 37.7637 167.948 38.4729C167.986 38.8299 167.996 39.1403 167.968 39.3681C167.954 39.4822 167.932 39.5582 167.911 39.6037C167.905 39.6187 167.899 39.6276 167.896 39.6322C167.652 39.7574 167.495 39.9956 167.389 40.2197C167.278 40.4573 167.197 40.7391 167.138 41.0205C167.076 41.3158 167.034 41.6265 167.008 41.9134C166.928 41.9271 166.849 41.9524 166.771 41.9843C166.708 42.01 166.583 42.0376 166.392 42.0576C166.21 42.0768 165.994 42.0865 165.768 42.0893C165.315 42.0949 164.84 42.0726 164.543 42.0503C164.488 42.0462 164.434 42.0549 164.383 42.0757L162.357 42.9061C162.177 42.9799 162.091 43.1859 162.165 43.3661C162.238 43.5463 162.444 43.6325 162.625 43.5587L164.574 42.7596C164.888 42.7808 165.34 42.7999 165.777 42.7945C166.015 42.7916 166.254 42.7813 166.466 42.7591C166.644 42.7404 166.825 42.7113 166.975 42.6606C166.996 42.8153 167.118 42.9402 167.277 42.9615C167.454 42.9851 167.62 42.8732 167.665 42.7007C167.684 42.6296 167.697 42.5414 167.693 42.4485C167.692 42.4231 167.689 42.3949 167.684 42.365C167.7 42.0134 167.743 41.5686 167.828 41.1655C167.881 40.9113 167.948 40.6883 168.028 40.5197C168.111 40.3412 168.185 40.2761 168.22 40.2589C168.387 40.1764 168.49 40.0344 168.552 39.898C168.615 39.7623 168.649 39.6078 168.668 39.4543C168.706 39.1469 168.69 38.7738 168.649 38.3967C168.584 37.8049 168.453 37.155 168.326 36.6339C168.786 36.6578 169.374 36.9084 169.889 37.6637C170.567 38.6582 171.116 40.5345 170.987 43.8806C170.984 43.9731 171.017 44.0634 171.079 44.1318L171.76 44.8787L171.746 44.8847C171.633 44.931 171.552 45.0326 171.532 45.1532C171.512 45.2738 171.555 45.3961 171.647 45.4765L172.096 45.8686C172.013 45.9174 171.952 45.999 171.93 46.0948C171.905 46.2067 171.935 46.324 172.012 46.4093L172.421 46.8633L172.383 46.859C172.243 46.8432 172.107 46.9126 172.037 47.0354C171.967 47.1583 171.978 47.3108 172.063 47.4232C172.157 47.5464 172.259 47.7429 172.282 47.9228C172.293 48.0079 172.284 48.0751 172.262 48.1275C172.241 48.176 172.201 48.2339 172.107 48.2905C171.944 48.3889 171.889 48.5984 171.981 48.7643C172.568 49.8136 173.395 51.4573 173.971 52.9745C174.259 53.7346 174.479 54.4488 174.577 55.034C174.627 55.3266 174.643 55.5748 174.628 55.7738C174.612 55.9756 174.566 56.0994 174.515 56.1702C174.443 56.269 174.427 56.3981 174.474 56.5111L177.287 63.3738C177.36 63.554 177.566 63.6402 177.747 63.5663C177.927 63.4924 178.013 63.2865 177.939 63.1063L175.192 56.4034C175.275 56.2269 175.316 56.0287 175.331 55.8279C175.352 55.5521 175.328 55.2426 175.273 54.917C175.163 54.266 174.926 53.5027 174.63 52.7243C174.084 51.284 173.322 49.7442 172.738 48.6755C172.812 48.5926 172.87 48.5009 172.912 48.402C172.993 48.2087 173.004 48.0109 172.982 47.8347C172.973 47.7656 172.959 47.6977 172.941 47.6319L173.266 47.6686C173.411 47.6851 173.552 47.6098 173.619 47.4795C173.686 47.3492 173.665 47.191 173.567 47.0822L172.871 46.3095L172.889 46.3024C173.002 46.256 173.083 46.1544 173.103 46.0338C173.123 45.9132 173.079 45.7909 172.987 45.7105L172.538 45.3184C172.622 45.2694 172.683 45.1874 172.705 45.0911C172.73 44.9788 172.699 44.8612 172.621 44.7761L171.697 43.7629C171.807 40.4399 171.262 38.4258 170.472 37.2665C169.658 36.0719 168.586 35.7962 167.801 35.9767C167.708 35.9983 167.627 36.0571 167.578 36.1396ZM167.892 39.6366C167.892 39.6366 167.893 39.6364 167.893 39.6359C167.893 39.6363 167.892 39.6366 167.892 39.6366Z" fill="black"/>
<path fill-rule="evenodd" clip-rule="evenodd" d="M153.89 41.7502C153.983 41.7743 154.062 41.8354 154.109 41.9192C154.38 42.4027 154.821 43.1126 155.264 43.6719C155.487 43.9534 155.698 44.1812 155.878 44.3238C155.968 44.3952 156.037 44.4343 156.083 44.452C156.099 44.4579 156.109 44.4603 156.115 44.4613C156.376 44.3795 156.655 44.4386 156.888 44.5243C157.134 44.6152 157.389 44.7593 157.629 44.9183C157.88 45.0851 158.128 45.2774 158.348 45.4633C158.415 45.4169 158.489 45.3791 158.567 45.3472C158.629 45.3215 158.738 45.2533 158.888 45.1339C159.031 45.0195 159.191 44.8751 159.355 44.7182C159.681 44.4045 160.004 44.0552 160.2 43.8307C160.236 43.7894 160.281 43.7572 160.332 43.7364L162.358 42.906C162.538 42.8322 162.744 42.9184 162.818 43.0986C162.892 43.2788 162.805 43.4848 162.625 43.5587L160.676 44.3577C160.467 44.5928 160.158 44.924 159.844 45.2267C159.672 45.392 159.494 45.5525 159.328 45.6853C159.188 45.7967 159.038 45.9031 158.896 45.972C158.99 46.0972 158.99 46.272 158.892 46.3987C158.783 46.5395 158.585 46.5767 158.432 46.4853C158.369 46.4476 158.298 46.3941 158.236 46.3249C158.219 46.306 158.201 46.2841 158.183 46.2593C157.925 46.0203 157.582 45.7337 157.239 45.506C157.023 45.3624 156.818 45.2505 156.644 45.186C156.459 45.1177 156.361 45.1227 156.324 45.1349C156.147 45.1937 155.974 45.1647 155.833 45.1115C155.694 45.0586 155.561 44.9726 155.44 44.8765C155.197 44.6841 154.947 44.4071 154.711 44.1097C154.342 43.6431 153.979 43.0877 153.704 42.6272C153.393 42.9675 153.15 43.5588 153.313 44.4581C153.528 45.6422 154.454 47.3641 156.894 49.6573C156.962 49.7208 157.001 49.8082 157.005 49.9007L157.044 50.9108L157.059 50.9048C157.172 50.8585 157.301 50.874 157.4 50.9458C157.499 51.0176 157.553 51.1356 157.544 51.2574L157.5 51.8517C157.593 51.8278 157.694 51.8433 157.777 51.8962C157.873 51.958 157.934 52.063 157.939 52.1776L157.967 52.788L157.99 52.7587C158.079 52.6489 158.225 52.6027 158.361 52.6413C158.497 52.6798 158.596 52.7958 158.614 52.9359C158.634 53.0896 158.699 53.3014 158.809 53.4455C158.861 53.5137 158.914 53.5553 158.967 53.5771C159.016 53.5973 159.085 53.6098 159.192 53.5844C159.377 53.5403 159.563 53.6507 159.614 53.8339C159.932 54.9929 160.497 56.7443 161.152 58.2291C161.48 58.9729 161.824 59.6359 162.165 60.1218C162.335 60.3648 162.498 60.5533 162.648 60.6843C162.801 60.8171 162.921 60.8728 163.007 60.8872C163.128 60.9072 163.229 60.9882 163.276 61.1013L166.088 67.9639C166.162 68.1441 166.076 68.3501 165.896 68.424C165.716 68.4978 165.51 68.4116 165.436 68.2314L162.688 61.5286C162.505 61.461 162.337 61.3486 162.185 61.2164C161.977 61.0348 161.777 60.797 161.587 60.5267C161.208 59.9862 160.842 59.2754 160.506 58.5137C159.885 57.1041 159.347 55.4726 159.012 54.3017C158.902 54.2945 158.796 54.2698 158.697 54.2286C158.503 54.1483 158.356 54.015 158.249 53.8738C158.206 53.8185 158.169 53.7603 158.135 53.7009L157.93 53.9546C157.838 54.0685 157.685 54.1136 157.546 54.0678C157.406 54.022 157.31 53.8949 157.304 53.7486L157.257 52.7098L157.239 52.717C157.126 52.7633 156.997 52.7478 156.898 52.676C156.8 52.6041 156.745 52.4862 156.754 52.3643L156.798 51.7701C156.704 51.7941 156.603 51.7783 156.521 51.725C156.424 51.6627 156.363 51.557 156.359 51.442L156.306 50.0718C153.895 47.7821 152.87 45.9646 152.619 44.5842C152.361 43.1619 152.931 42.2132 153.616 41.7912C153.698 41.7408 153.797 41.726 153.89 41.7502ZM156.12 44.462C156.12 44.462 156.12 44.462 156.119 44.462C156.12 44.462 156.12 44.462 156.12 44.462Z" fill="black"/>
<path fill-rule="evenodd" clip-rule="evenodd" d="M168.991 37.6485C168.801 37.6917 168.682 37.8807 168.725 38.0706C168.815 38.4645 168.926 39.0842 168.969 39.6561C168.991 39.9428 168.994 40.206 168.973 40.4179C168.949 40.6461 168.903 40.7515 168.878 40.7822C168.604 41.1174 168.561 41.5711 168.58 41.9317C168.588 42.0842 168.609 42.2343 168.635 42.3738L167.356 42.2604C167.162 42.2433 166.99 42.3866 166.973 42.5806C166.956 42.7746 167.099 42.9458 167.293 42.963L169.073 43.1207C169.193 43.1313 169.31 43.0801 169.384 42.9847C169.457 42.8894 169.477 42.7632 169.436 42.65C169.375 42.4786 169.3 42.1873 169.285 41.8937C169.268 41.5868 169.319 41.3562 169.424 41.2287C169.588 41.0281 169.648 40.7426 169.674 40.4894C169.702 40.2197 169.696 39.9107 169.673 39.6034C169.626 38.9873 169.508 38.3318 169.413 37.9141C169.37 37.7242 169.181 37.6053 168.991 37.6485Z" fill="black"/>
<path fill-rule="evenodd" clip-rule="evenodd" d="M153.943 43.8165C154.108 43.714 154.325 43.7652 154.428 43.9308C154.641 44.2744 154.996 44.794 155.367 45.2315C155.553 45.4508 155.735 45.6406 155.899 45.7764C156.076 45.9227 156.183 45.965 156.223 45.9693C156.653 46.0157 157.002 46.3089 157.241 46.5794C157.342 46.6938 157.433 46.8149 157.512 46.9328L158.344 45.954C158.47 45.8056 158.693 45.7876 158.841 45.9137C158.99 46.0398 159.008 46.2624 158.882 46.4108L157.724 47.7725C157.646 47.8642 157.527 47.9098 157.408 47.8935C157.289 47.8772 157.186 47.8012 157.135 47.6919C157.059 47.5266 156.908 47.2669 156.713 47.0467C156.509 46.8164 156.311 46.6882 156.147 46.6705C155.889 46.6428 155.646 46.4821 155.45 46.3198C155.241 46.147 155.028 45.9227 154.829 45.6876C154.429 45.2163 154.054 44.6663 153.828 44.302C153.726 44.1364 153.777 43.919 153.943 43.8165Z" fill="black"/>
<path fill-rule="evenodd" clip-rule="evenodd" d="M165.195 50.639C165.245 50.7713 165.394 50.8375 165.526 50.7869C166.019 50.5983 166.844 50.4883 167.683 50.7866C168.512 51.0808 169.383 51.7824 169.97 53.2691C170.558 54.7587 170.395 55.81 169.996 56.5194C169.59 57.2404 168.919 57.6472 168.431 57.798C168.296 57.8398 168.22 57.9834 168.262 58.1188C168.303 58.2541 168.447 58.3299 168.582 58.2881C169.171 58.1061 169.961 57.6269 170.443 56.771C170.931 55.9036 171.081 54.6872 170.447 53.0808C169.812 51.4716 168.838 50.6523 167.855 50.3032C166.884 49.9581 165.932 50.0823 165.343 50.3078C165.21 50.3584 165.144 50.5067 165.195 50.639Z" fill="black"/>
<path fill-rule="evenodd" clip-rule="evenodd" d="M165.771 50.4031C165.827 50.5328 165.768 50.6841 165.639 50.7409C165.155 50.9525 164.49 51.453 164.102 52.2549C163.718 53.0458 163.59 54.1574 164.215 55.6281C164.842 57.1017 165.696 57.7363 166.478 57.9615C167.273 58.1904 168.037 58.0088 168.49 57.7739C168.616 57.7087 168.771 57.7579 168.836 57.8836C168.901 58.0094 168.852 58.1642 168.726 58.2293C168.179 58.5129 167.28 58.7261 166.336 58.4545C165.38 58.1792 164.419 57.418 163.743 55.8289C163.066 54.2369 163.185 52.9695 163.64 52.0311C164.09 51.1035 164.855 50.524 165.433 50.271C165.563 50.2142 165.714 50.2733 165.771 50.4031Z" fill="black"/>
<path d="M162.829 53.0027C163.07 53.5901 162.676 54.3079 161.948 54.606C161.221 54.9041 160.436 54.6695 160.196 54.0821C159.955 53.4947 160.349 52.7769 161.077 52.4788C161.804 52.1807 162.589 52.4153 162.829 53.0027Z" fill="black"/>
<path d="M161.377 53.4827C161.469 53.7065 161.361 53.9622 161.138 54.0539C160.914 54.1457 160.658 54.0386 160.566 53.8148C160.475 53.5911 160.582 53.3353 160.806 53.2436C161.029 53.1519 161.285 53.2589 161.377 53.4827Z" fill="#FCFCFC"/>
<path d="M163.391 52.7747C163.678 53.474 163.196 54.3337 162.315 54.6948C161.434 55.056 160.487 54.7819 160.201 54.0826C159.914 53.3833 160.396 52.5236 161.277 52.1625C162.158 51.8013 163.105 52.0755 163.391 52.7747Z" fill="black"/>
<path d="M161.454 53.2435C161.563 53.5092 161.436 53.8129 161.17 53.9218C160.905 54.0307 160.601 53.9036 160.492 53.6379C160.383 53.3722 160.51 53.0684 160.776 52.9595C161.042 52.8506 161.346 52.9777 161.454 53.2435Z" fill="#FCFCFC"/>
<path d="M171.632 49.2767C171.918 49.976 171.436 50.8356 170.555 51.1968C169.674 51.5579 168.727 51.2838 168.441 50.5845C168.154 49.8852 168.636 49.0256 169.517 48.6644C170.398 48.3033 171.345 48.5774 171.632 49.2767Z" fill="black"/>
<path d="M169.649 49.8546C169.752 50.1064 169.632 50.3941 169.38 50.4973C169.129 50.6005 168.841 50.48 168.738 50.2283C168.634 49.9765 168.755 49.6888 169.007 49.5856C169.258 49.4824 169.546 49.6029 169.649 49.8546Z" fill="#FCFCFC"/>
<path fill-rule="evenodd" clip-rule="evenodd" d="M165.579 56.0232C165.685 55.9293 165.847 55.9392 165.941 56.0453C166.159 56.2917 166.849 56.7245 167.761 56.2678C167.887 56.2043 168.041 56.2556 168.105 56.3822C168.168 56.5089 168.117 56.663 167.99 56.7264C166.821 57.3119 165.889 56.761 165.557 56.3853C165.463 56.2792 165.473 56.1171 165.579 56.0232Z" fill="black"/>
<path fill-rule="evenodd" clip-rule="evenodd" d="M169.28 54.5063C169.138 54.5139 169.03 54.6346 169.037 54.7761C169.055 55.1048 168.867 55.8971 167.897 56.2119C167.762 56.2556 167.689 56.4002 167.732 56.535C167.776 56.6697 167.921 56.7435 168.055 56.6998C169.299 56.2964 169.576 55.2498 169.55 54.7487C169.542 54.6073 169.421 54.4987 169.28 54.5063Z" fill="black"/>
<path fill-rule="evenodd" clip-rule="evenodd" d="M185.171 76.33H110.254V73.5029H185.171V76.33Z" fill="#00A6A6"/>
<path fill-rule="evenodd" clip-rule="evenodd" d="M86.2262 91.8788L86.2262 9.89453L90.4668 9.89453L90.4668 91.8788L86.2262 91.8788Z" fill="#00A6A6"/>
</svg>
