<svg width="615" height="615" viewBox="0 0 615 615" fill="none" xmlns="http://www.w3.org/2000/svg">
<path d="M615 306.292C615 475.453 477.328 612.585 307.5 612.585C137.672 612.585 0 475.453 0 306.292C0 137.132 137.672 0 307.5 0C477.328 0 615 137.132 615 306.292Z" fill="#F49F0A"/>
<path d="M615 306.292C615 475.453 477.328 612.585 307.5 612.585C137.672 612.585 0 475.453 0 306.292C0 137.132 137.672 0 307.5 0C477.328 0 615 137.132 615 306.292Z" fill="#F49F0A"/>
<path d="M191.512 448.302V581.506C235.835 605.321 365.708 591.429 425.104 581.506V448.302C442.673 438.211 442.074 341.167 439.578 293.906L456.549 275.238L453.055 262.119L461.54 235.377L453.055 209.14C501.37 95.7151 468.528 60.9678 446.067 57.7722L431.093 112.769C416.718 112.769 399.482 141.025 392.66 155.152L348.737 136.988H267.879L220.961 155.152C218.565 141.428 196.004 121.179 185.023 112.769L164.559 57.7722C114.647 64.6342 143.762 161.543 164.559 209.14L157.072 235.377V254.551L164.559 277.76L179.034 300.97C169.052 393.809 183.193 437.874 191.512 448.302Z" fill="#FFEBC8"/>
<path d="M615 306.292C615 475.453 477.328 612.585 307.5 612.585C137.672 612.585 0 475.453 0 306.292C0 137.132 137.672 0 307.5 0C477.328 0 615 137.132 615 306.292Z" fill="#F76747"/>
<path d="M191.512 448.302V581.506C197.5 609.596 357.5 638.683 425.104 584.695V448.302C442.673 438.211 442.074 341.167 439.578 293.906L456.549 275.238L453.055 262.119L461.54 235.377L453.055 209.14C501.37 95.7151 468.528 60.9678 446.067 57.7722L431.093 112.769C416.718 112.769 399.482 141.025 392.66 155.152L348.737 136.988H267.879L220.961 155.152C218.565 141.428 196.004 121.179 185.023 112.769L164.559 57.7722C114.647 64.6342 143.762 161.543 164.559 209.14L157.072 235.377V254.551L164.559 277.76L179.034 300.97C169.052 393.809 183.193 437.874 191.512 448.302Z" fill="#FFEBC8"/>
<path fill-rule="evenodd" clip-rule="evenodd" d="M271.07 341.911C271.479 339.748 273.571 338.326 275.742 338.734C282.783 340.056 292.839 344.396 300.753 353.156C308.782 362.044 314.402 375.261 312.694 393.813C312.492 396.004 310.545 397.617 308.345 397.416C306.145 397.215 304.525 395.276 304.727 393.085C306.239 376.667 301.293 365.666 294.806 358.487C288.206 351.18 279.797 347.604 274.259 346.564C272.089 346.157 270.661 344.073 271.07 341.911Z" fill="black"/>
<path fill-rule="evenodd" clip-rule="evenodd" d="M207.927 287.142C208.86 288.14 209.216 289.544 208.871 290.863C207.863 294.71 206.292 300.168 204.883 303.814C204.528 304.733 204.152 305.619 203.766 306.37C203.478 306.93 202.878 308.059 201.896 308.839C201.372 309.255 200.019 310.132 198.19 309.718C196.388 309.31 195.543 307.963 195.245 307.378C194.671 306.252 194.556 304.908 194.506 304.023C194.422 302.508 193.394 301.084 190.864 299.816C188.371 298.566 185.276 297.957 183.225 297.816C181.215 297.678 179.623 296.074 179.507 294.071C179.391 292.068 180.788 290.291 182.768 289.924L204.268 285.94C205.614 285.691 206.995 286.144 207.927 287.142ZM198.206 295.169C198.511 295.434 198.809 295.713 199.095 296.007C199.204 295.655 199.312 295.301 199.419 294.944L198.206 295.169ZM196.461 303.064C196.461 303.063 196.465 303.056 196.475 303.043C196.465 303.058 196.461 303.064 196.461 303.064Z" fill="black"/>
<path fill-rule="evenodd" clip-rule="evenodd" d="M221.694 292.917C205.318 290.574 186.612 291.103 174.401 292.327C172.203 292.547 170.242 290.951 170.02 288.762C169.799 286.573 171.402 284.619 173.6 284.399C186.222 283.133 205.616 282.566 222.832 285.029C231.426 286.259 239.712 288.275 246.392 291.483C253.041 294.677 258.636 299.323 260.809 306.071C261.484 308.167 260.326 310.41 258.222 311.082C256.118 311.754 253.866 310.6 253.191 308.505C251.964 304.695 248.589 301.385 242.918 298.661C237.278 295.952 229.895 294.09 221.694 292.917Z" fill="black"/>
<path fill-rule="evenodd" clip-rule="evenodd" d="M159.597 86.7326C162.593 86.2352 165.427 88.2514 165.926 91.2358C167.145 98.5191 169.563 109.771 172.819 119.753C174.45 124.754 176.237 129.267 178.107 132.754C180.098 136.467 181.724 138.134 182.62 138.617C189.26 142.199 193.024 149.265 195.17 155.403C196.222 158.412 196.983 161.479 197.512 164.326L219.474 153.011C222.172 151.621 225.491 152.673 226.886 155.36C228.282 158.048 227.226 161.353 224.528 162.743L195.528 177.684C193.86 178.543 191.868 178.496 190.244 177.559C188.62 176.622 187.588 174.924 187.506 173.056C187.358 169.671 186.584 164.16 184.782 159.007C182.911 153.657 180.342 149.849 177.381 148.251C173.477 146.145 170.579 141.972 168.404 137.916C166.108 133.633 164.089 128.447 162.357 123.139C158.888 112.502 156.357 100.695 155.076 93.0371C154.576 90.0527 156.6 87.23 159.597 86.7326Z" fill="black"/>
<path fill-rule="evenodd" clip-rule="evenodd" d="M312.998 278.308C313.051 280.508 311.302 282.333 309.094 282.385C299.316 282.616 284.448 286.502 272.18 297.445C260.054 308.262 250.113 326.288 250.499 355.545C250.886 384.851 260.989 401.639 272.844 410.98C284.859 420.448 299.214 422.693 308.643 421.853C310.844 421.657 312.787 423.274 312.984 425.466C313.18 427.658 311.556 429.593 309.356 429.789C298.285 430.776 281.79 428.189 267.88 417.229C253.81 406.142 242.913 386.906 242.5 355.65C242.086 324.347 252.812 304.024 266.844 291.508C280.734 279.118 297.517 274.687 308.905 274.419C311.114 274.367 312.946 276.108 312.998 278.308Z" fill="black"/>
<path d="M231 301.81C231 310.062 222.717 316.751 212.5 316.751C202.283 316.751 194 310.062 194 301.81C194 293.558 202.283 286.869 212.5 286.869C222.717 286.869 231 293.558 231 301.81Z" fill="black"/>
<path d="M209 300.316C209 302.241 207.433 303.802 205.5 303.802C203.567 303.802 202 302.241 202 300.316C202 298.39 203.567 296.83 205.5 296.83C207.433 296.83 209 298.39 209 300.316Z" fill="#FCFCFC"/>
<path fill-rule="evenodd" clip-rule="evenodd" d="M408.073 287.142C407.14 288.14 406.784 289.544 407.129 290.863C408.137 294.71 409.708 300.168 411.117 303.814C411.472 304.733 411.848 305.619 412.234 306.37C412.522 306.93 413.122 308.059 414.104 308.839C414.628 309.255 415.981 310.132 417.81 309.718C419.612 309.31 420.457 307.963 420.755 307.378C421.329 306.252 421.444 304.908 421.494 304.023C421.578 302.508 422.606 301.084 425.136 299.816C427.629 298.566 430.724 297.957 432.775 297.816C434.785 297.678 436.377 296.074 436.493 294.071C436.609 292.068 435.212 290.291 433.232 289.924L411.732 285.94C410.386 285.691 409.005 286.144 408.073 287.142ZM417.794 295.169C417.489 295.434 417.191 295.713 416.905 296.007C416.796 295.655 416.688 295.301 416.581 294.944L417.794 295.169ZM419.539 303.064C419.539 303.063 419.535 303.056 419.525 303.043C419.535 303.058 419.539 303.064 419.539 303.064Z" fill="black"/>
<path fill-rule="evenodd" clip-rule="evenodd" d="M394.306 292.917C410.682 290.574 429.388 291.103 441.599 292.327C443.797 292.547 445.758 290.951 445.98 288.762C446.201 286.573 444.598 284.619 442.4 284.399C429.778 283.133 410.384 282.566 393.168 285.029C384.574 286.259 376.288 288.275 369.608 291.483C362.959 294.677 357.364 299.323 355.191 306.071C354.516 308.167 355.674 310.41 357.778 311.082C359.882 311.754 362.134 310.6 362.809 308.505C364.036 304.695 367.411 301.385 373.082 298.661C378.722 295.952 386.105 294.09 394.306 292.917Z" fill="#00A6A6"/>
<path fill-rule="evenodd" clip-rule="evenodd" d="M172.299 51.3968C173.498 52.292 174.278 53.6356 174.459 55.117C175.688 65.1552 178.243 80.2108 181.872 92.7482C183.697 99.0529 185.711 104.426 187.816 108.161C188.87 110.031 189.816 111.253 190.581 111.965C191.067 112.417 191.347 112.544 191.427 112.573C196.178 112.916 200.361 115.703 203.683 118.739C207.141 121.9 210.411 126.024 213.339 130.324C216.556 135.048 219.514 140.216 222 145.026C223.561 144.597 225.253 144.431 227 144.431C228.38 144.431 230.794 143.999 234.169 143.016C237.423 142.069 241.165 140.734 245.027 139.212C252.747 136.17 260.649 132.504 265.54 130.068C266.304 129.688 267.146 129.49 268 129.49H308C311.037 129.49 313.5 131.942 313.5 134.968C313.5 137.994 311.037 140.446 308 140.446H269.289C264.151 142.966 256.561 146.45 249.073 149.4C245.035 150.991 240.951 152.457 237.255 153.533C233.68 154.574 230.019 155.387 227 155.387C226.971 155.387 226.942 155.388 226.913 155.388C226.965 155.507 227.015 155.626 227.065 155.743C228.148 158.293 227.151 161.247 224.742 162.627C222.332 164.007 219.267 163.38 217.6 161.165C216.839 160.154 216.054 158.843 215.52 157.355C215.365 156.922 215.217 156.433 215.1 155.9C212.369 150.04 208.516 142.76 204.235 136.474C201.551 132.532 198.827 129.172 196.245 126.812C193.538 124.337 191.65 123.571 190.621 123.5C187.505 123.286 184.977 121.745 183.072 119.972C181.175 118.207 179.581 115.933 178.224 113.524C175.507 108.703 173.215 102.391 171.302 95.7837C168.176 84.9821 165.842 72.6025 164.396 62.7717C156.179 66.1772 147.129 74.7143 143.43 92.0669C138.802 113.776 142.61 149.381 168.005 204.912C168.604 206.221 168.661 207.712 168.166 209.063L161.365 227.603H163C164.906 227.603 166.676 228.586 167.678 230.201C168.68 231.816 168.771 233.833 167.919 235.531L162.399 246.528H163C164.789 246.528 166.467 247.396 167.497 248.853C168.527 250.311 168.781 252.177 168.177 253.855L163.571 266.653L166.355 265.132C168.287 264.077 170.664 264.272 172.396 265.627C174.129 266.982 174.883 269.236 174.312 271.355C173.552 274.178 173.151 278.371 174.072 281.768C174.512 283.393 175.196 284.624 176.077 285.496C176.913 286.323 178.193 287.097 180.349 287.433C183.277 287.889 185.316 290.574 184.96 293.505C182.313 315.249 179.715 348.683 180.498 378.264C180.889 393.078 182.125 406.691 184.536 417.31C185.741 422.62 187.2 426.994 188.884 430.331C190.588 433.707 192.329 435.638 193.891 436.6C195.513 437.599 196.499 439.362 196.499 441.26V576.228C196.499 579.254 194.037 581.706 190.999 581.706C187.962 581.706 185.499 579.254 185.499 576.228V443.984C182.842 441.648 180.743 438.594 179.056 435.252C176.832 430.846 175.127 425.543 173.807 419.727C171.166 408.097 169.901 393.67 169.501 378.552C168.754 350.297 171.013 318.806 173.501 296.777C171.519 295.901 169.79 294.719 168.325 293.269C165.751 290.723 164.266 287.626 163.452 284.624C163.008 282.984 162.746 281.311 162.624 279.666L156.144 283.206C154.14 284.3 151.666 284.047 149.928 282.569C148.19 281.091 147.551 278.696 148.322 276.554L155.185 257.485H153.499C151.593 257.485 149.823 256.502 148.821 254.887C147.819 253.272 147.728 251.255 148.58 249.556L154.1 238.56H153.499C151.704 238.56 150.021 237.686 148.992 236.221C147.963 234.755 147.717 232.881 148.334 231.201L157.063 207.405C132.073 152.101 127.395 114.535 132.67 89.7913C138.081 64.4027 154.011 52.681 168.108 50.3743C169.587 50.1323 171.1 50.5016 172.299 51.3968ZM191.452 112.58C191.452 112.58 191.448 112.58 191.44 112.577C191.448 112.579 191.452 112.58 191.452 112.58Z" fill="black"/>
<path fill-rule="evenodd" clip-rule="evenodd" d="M344.954 342.038C344.615 339.863 342.57 338.374 340.388 338.712C333.499 339.778 323.482 343.302 315.522 350.558C307.394 357.967 301.554 369.167 303.316 384.925C303.561 387.112 305.539 388.688 307.735 388.444C309.93 388.2 311.512 386.23 311.267 384.043C309.809 371.003 314.535 362.259 320.923 356.436C327.478 350.461 335.925 347.466 341.615 346.586C343.798 346.249 345.293 344.212 344.954 342.038Z" fill="black"/>
<path fill-rule="evenodd" clip-rule="evenodd" d="M271.048 342.038C271.387 339.863 273.431 338.374 275.614 338.712C282.503 339.778 292.52 343.302 300.48 350.558C308.608 357.967 314.448 369.167 312.686 384.925C312.441 387.112 310.463 388.688 308.267 388.444C306.072 388.2 304.49 386.23 304.735 384.043C306.193 371.003 301.467 362.259 295.079 356.436C288.524 350.461 280.077 347.466 274.387 346.586C272.204 346.249 270.709 344.212 271.048 342.038Z" fill="black"/>
<path fill-rule="evenodd" clip-rule="evenodd" d="M207.927 287.142C208.86 288.14 209.216 289.544 208.871 290.863C207.863 294.71 206.292 300.168 204.883 303.814C204.528 304.733 204.152 305.619 203.766 306.37C203.478 306.93 202.878 308.059 201.896 308.839C201.372 309.255 200.019 310.132 198.19 309.718C196.388 309.31 195.543 307.963 195.245 307.378C194.671 306.252 194.556 304.908 194.506 304.023C194.422 302.508 193.394 301.084 190.864 299.816C188.371 298.566 185.276 297.957 183.225 297.816C181.215 297.678 179.623 296.074 179.507 294.071C179.391 292.068 180.788 290.291 182.768 289.924L204.268 285.94C205.614 285.691 206.995 286.144 207.927 287.142ZM198.206 295.169C198.511 295.434 198.809 295.713 199.095 296.007C199.204 295.655 199.312 295.301 199.419 294.944L198.206 295.169ZM196.461 303.064C196.461 303.063 196.465 303.056 196.475 303.043C196.465 303.058 196.461 303.064 196.461 303.064Z" fill="black"/>
<path fill-rule="evenodd" clip-rule="evenodd" d="M221.694 292.917C205.318 290.574 186.612 291.103 174.401 292.327C172.203 292.547 170.242 290.951 170.02 288.762C169.799 286.573 171.402 284.619 173.6 284.399C186.222 283.133 205.616 282.566 222.832 285.029C231.426 286.259 239.712 288.275 246.392 291.483C253.041 294.677 258.636 299.323 260.809 306.071C261.484 308.167 260.326 310.41 258.222 311.082C256.118 311.754 253.866 310.6 253.191 308.505C251.964 304.695 248.589 301.385 242.918 298.661C237.278 295.952 229.895 294.09 221.694 292.917Z" fill="#00A6A6"/>
<path fill-rule="evenodd" clip-rule="evenodd" d="M443.699 51.3968C442.5 52.292 441.72 53.6356 441.539 55.117C440.31 65.1552 437.755 80.2108 434.126 92.7482C432.301 99.0529 430.287 104.426 428.182 108.161C427.128 110.031 426.182 111.253 425.417 111.965C424.931 112.417 424.651 112.544 424.571 112.573C419.82 112.916 415.637 115.703 412.315 118.739C408.857 121.9 405.587 126.024 402.659 130.324C399.443 135.048 396.484 140.216 393.998 145.026C392.438 144.597 390.745 144.431 388.998 144.431C387.618 144.431 385.204 143.999 381.829 143.016C378.575 142.069 374.833 140.734 370.971 139.212C363.251 136.17 355.349 132.504 350.458 130.068C349.694 129.688 348.852 129.49 347.998 129.49H307.998C304.961 129.49 302.498 131.942 302.498 134.968C302.498 137.994 304.961 140.446 307.998 140.446H346.709C351.847 142.966 359.437 146.45 366.925 149.4C370.963 150.991 375.047 152.457 378.743 153.533C382.318 154.574 385.979 155.387 388.998 155.387C389.027 155.387 389.056 155.388 389.085 155.388C389.033 155.507 388.983 155.626 388.933 155.743C387.85 158.293 388.847 161.247 391.257 162.627C393.666 164.007 396.731 163.38 398.398 161.165C399.159 160.154 399.944 158.843 400.478 157.355C400.633 156.922 400.781 156.433 400.898 155.9C403.629 150.04 407.483 142.76 411.763 136.474C414.447 132.532 417.171 129.172 419.753 126.812C422.46 124.337 424.348 123.571 425.377 123.5C428.493 123.286 431.021 121.745 432.926 119.972C434.823 118.207 436.417 115.933 437.774 113.524C440.491 108.703 442.783 102.391 444.696 95.7837C447.822 84.9821 450.156 72.6025 451.602 62.7717C459.819 66.1772 468.87 74.7143 472.568 92.0669C477.196 113.776 473.389 149.381 447.993 204.912C447.395 206.221 447.337 207.712 447.832 209.063L454.633 227.603H452.998C451.092 227.603 449.322 228.586 448.32 230.201C447.318 231.816 447.227 233.833 448.079 235.531L453.599 246.528H452.998C451.209 246.528 449.531 247.396 448.501 248.853C447.471 250.311 447.217 252.177 447.821 253.855L452.427 266.653L449.643 265.132C447.711 264.077 445.334 264.272 443.602 265.627C441.869 266.982 441.115 269.236 441.686 271.355C442.447 274.178 442.847 278.371 441.926 281.768C441.486 283.393 440.802 284.624 439.921 285.496C439.085 286.323 437.805 287.097 435.65 287.433C432.721 287.889 430.682 290.574 431.039 293.505C433.685 315.249 436.283 348.683 435.5 378.264C435.109 393.078 433.873 406.691 431.462 417.31C430.257 422.62 428.798 426.994 427.114 430.331C425.41 433.707 423.669 435.638 422.107 436.6C420.485 437.599 419.499 439.362 419.499 441.26V576.228C419.499 579.254 421.961 581.706 424.999 581.706C428.036 581.706 430.499 579.254 430.499 576.228V443.984C433.156 441.648 435.256 438.594 436.942 435.252C439.166 430.846 440.871 425.543 442.191 419.727C444.832 408.097 446.097 393.67 446.497 378.552C447.244 350.297 444.986 318.806 442.497 296.777C444.479 295.901 446.208 294.719 447.673 293.269C450.247 290.723 451.732 287.626 452.546 284.624C452.99 282.984 453.252 281.311 453.374 279.666L459.854 283.206C461.858 284.3 464.332 284.047 466.07 282.569C467.808 281.091 468.447 278.696 467.676 276.554L460.813 257.485H462.499C464.405 257.485 466.175 256.502 467.177 254.887C468.179 253.272 468.27 251.255 467.418 249.556L461.898 238.56H462.499C464.294 238.56 465.977 237.686 467.006 236.221C468.035 234.755 468.281 232.881 467.665 231.201L458.935 207.405C483.925 152.101 488.603 114.535 483.328 89.7913C477.917 64.4027 461.987 52.681 447.89 50.3743C446.412 50.1323 444.898 50.5016 443.699 51.3968ZM424.546 112.58C424.546 112.58 424.55 112.58 424.558 112.577C424.55 112.579 424.546 112.58 424.546 112.58Z" fill="black"/>
<path fill-rule="evenodd" clip-rule="evenodd" d="M172.299 51.3968C173.498 52.292 174.278 53.6356 174.459 55.117C175.688 65.1552 178.243 80.2108 181.872 92.7482C183.697 99.0529 185.711 104.426 187.816 108.161C188.87 110.031 189.816 111.253 190.581 111.965C191.067 112.417 191.347 112.544 191.427 112.573C196.178 112.916 200.361 115.703 203.683 118.739C207.141 121.9 210.411 126.024 213.339 130.324C216.556 135.048 219.514 140.216 222 145.026C223.561 144.597 225.253 144.431 227 144.431C228.38 144.431 230.794 143.999 234.169 143.016C237.423 142.069 241.165 140.734 245.027 139.212C252.747 136.17 260.649 132.504 265.54 130.068C266.304 129.688 267.146 129.49 268 129.49H308C311.037 129.49 313.5 131.942 313.5 134.968C313.5 137.994 311.037 140.446 308 140.446H269.289C264.151 142.966 256.561 146.45 249.073 149.4C245.035 150.991 240.951 152.457 237.255 153.533C233.68 154.574 230.019 155.387 227 155.387C226.971 155.387 226.942 155.388 226.913 155.388C226.965 155.507 227.015 155.626 227.065 155.743C228.148 158.293 227.151 161.247 224.742 162.627C222.332 164.007 219.267 163.38 217.6 161.165C216.839 160.154 216.054 158.843 215.52 157.355C215.365 156.922 215.217 156.433 215.1 155.9C212.369 150.04 208.516 142.76 204.235 136.474C201.551 132.532 198.827 129.172 196.245 126.812C193.538 124.337 191.65 123.571 190.621 123.5C187.505 123.286 184.977 121.745 183.072 119.972C181.175 118.207 179.581 115.933 178.224 113.524C175.507 108.703 173.215 102.391 171.302 95.7837C168.176 84.9821 165.842 72.6025 164.396 62.7717C156.179 66.1772 147.129 74.7143 143.43 92.0669C138.802 113.776 142.61 149.381 168.005 204.912C168.604 206.221 168.661 207.712 168.166 209.063L161.365 227.603H163C164.906 227.603 166.676 228.586 167.678 230.201C168.68 231.816 168.771 233.833 167.919 235.531L162.399 246.528H163C164.789 246.528 166.467 247.396 167.497 248.853C168.527 250.311 168.781 252.177 168.177 253.855L163.571 266.653L166.355 265.132C168.287 264.077 170.664 264.272 172.396 265.627C174.129 266.982 174.883 269.236 174.312 271.355C173.552 274.178 173.151 278.371 174.072 281.768C174.512 283.393 175.196 284.624 176.077 285.496C176.913 286.323 178.193 287.097 180.349 287.433C183.277 287.889 185.316 290.574 184.96 293.505C182.313 315.249 179.715 348.683 180.498 378.264C180.889 393.078 182.125 406.691 184.536 417.31C185.741 422.62 187.2 426.994 188.884 430.331C190.588 433.707 192.329 435.638 193.891 436.6C195.513 437.599 196.499 439.362 196.499 441.26V576.228C196.499 579.254 194.037 581.706 190.999 581.706C187.962 581.706 185.499 579.254 185.499 576.228V443.984C182.842 441.648 180.743 438.594 179.056 435.252C176.832 430.846 175.127 425.543 173.807 419.727C171.166 408.097 169.901 393.67 169.501 378.552C168.754 350.297 171.013 318.806 173.501 296.777C171.519 295.901 169.79 294.719 168.325 293.269C165.751 290.723 164.266 287.626 163.452 284.624C163.008 282.984 162.746 281.311 162.624 279.666L156.144 283.206C154.14 284.3 151.666 284.047 149.928 282.569C148.19 281.091 147.551 278.696 148.322 276.554L155.185 257.485H153.499C151.593 257.485 149.823 256.502 148.821 254.887C147.819 253.272 147.728 251.255 148.58 249.556L154.1 238.56H153.499C151.704 238.56 150.021 237.686 148.992 236.221C147.963 234.755 147.717 232.881 148.334 231.201L157.063 207.405C132.073 152.101 127.395 114.535 132.67 89.7913C138.081 64.4027 154.011 52.681 168.108 50.3743C169.587 50.1323 171.1 50.5016 172.299 51.3968ZM191.452 112.58C191.452 112.58 191.448 112.58 191.44 112.577C191.448 112.579 191.452 112.58 191.452 112.58Z" fill="black"/>
<path fill-rule="evenodd" clip-rule="evenodd" d="M456.405 86.7326C453.409 86.2352 450.575 88.2514 450.076 91.2358C448.857 98.5191 446.439 109.771 443.183 119.753C441.552 124.754 439.764 129.267 437.895 132.754C435.904 136.467 434.278 138.134 433.382 138.617C426.742 142.199 422.978 149.265 420.832 155.403C419.78 158.412 419.019 161.479 418.49 164.326L396.528 153.011C393.83 151.621 390.511 152.673 389.116 155.36C387.72 158.048 388.776 161.353 391.474 162.743L420.474 177.684C422.142 178.543 424.133 178.496 425.758 177.559C427.382 176.622 428.414 174.924 428.496 173.056C428.644 169.671 429.418 164.16 431.22 159.007C433.09 153.657 435.66 149.849 438.621 148.251C442.525 146.145 445.423 141.972 447.598 137.916C449.894 133.633 451.913 128.447 453.644 123.139C457.114 112.502 459.645 100.695 460.926 93.0371C461.426 90.0527 459.402 87.23 456.405 86.7326Z" fill="black"/>
<path fill-rule="evenodd" clip-rule="evenodd" d="M159.597 86.7326C162.593 86.2352 165.427 88.2514 165.926 91.2358C167.145 98.5191 169.563 109.771 172.819 119.753C174.45 124.754 176.237 129.267 178.107 132.754C180.098 136.467 181.724 138.134 182.62 138.617C189.26 142.199 193.024 149.265 195.17 155.403C196.222 158.412 196.983 161.479 197.512 164.326L219.474 153.011C222.172 151.621 225.491 152.673 226.886 155.36C228.282 158.048 227.226 161.353 224.528 162.743L195.528 177.684C193.86 178.543 191.868 178.496 190.244 177.559C188.62 176.622 187.588 174.924 187.506 173.056C187.358 169.671 186.584 164.16 184.782 159.007C182.911 153.657 180.342 149.849 177.381 148.251C173.477 146.145 170.579 141.972 168.404 137.916C166.108 133.633 164.089 128.447 162.357 123.139C158.888 112.502 156.357 100.695 155.076 93.0371C154.576 90.0527 156.6 87.23 159.597 86.7326Z" fill="black"/>
<path fill-rule="evenodd" clip-rule="evenodd" d="M303.002 278.308C302.949 280.508 304.698 282.333 306.906 282.385C316.684 282.616 331.552 286.502 343.82 297.445C355.946 308.262 365.887 326.288 365.501 355.545C365.114 384.851 355.011 401.639 343.156 410.98C331.141 420.448 316.786 422.693 307.357 421.853C305.156 421.657 303.213 423.274 303.016 425.466C302.82 427.658 304.444 429.593 306.644 429.789C317.715 430.776 334.21 428.189 348.12 417.229C362.19 406.142 373.087 386.906 373.5 355.65C373.914 324.347 363.188 304.024 349.156 291.508C335.266 279.118 318.483 274.687 307.095 274.419C304.886 274.367 303.054 276.108 303.002 278.308Z" fill="black"/>
<path fill-rule="evenodd" clip-rule="evenodd" d="M312.998 278.308C313.051 280.508 311.302 282.333 309.094 282.385C299.316 282.616 284.448 286.502 272.18 297.445C260.054 308.262 250.113 326.288 250.499 355.545C250.886 384.851 260.989 401.639 272.844 410.98C284.859 420.448 299.214 422.693 308.643 421.853C310.844 421.657 312.787 423.274 312.984 425.466C313.18 427.658 311.556 429.593 309.356 429.789C298.285 430.776 281.79 428.189 267.88 417.229C253.81 406.142 242.913 386.906 242.5 355.65C242.086 324.347 252.812 304.024 266.844 291.508C280.734 279.118 297.517 274.687 308.905 274.419C311.114 274.367 312.946 276.108 312.998 278.308Z" fill="black"/>
<path d="M246 301.81C246 313.363 234.359 322.728 220 322.728C205.641 322.728 194 313.363 194 301.81C194 290.258 205.641 280.893 220 280.893C234.359 280.893 246 290.258 246 301.81Z" fill="black"/>
<path d="M218 299.818C218 304.219 214.418 307.787 210 307.787C205.582 307.787 202 304.219 202 299.818C202 295.417 205.582 291.849 210 291.849C214.418 291.849 218 295.417 218 299.818Z" fill="#FCFCFC"/>
<path d="M257 301.81C257 315.563 242.897 326.712 225.5 326.712C208.103 326.712 194 315.563 194 301.81C194 288.057 208.103 276.908 225.5 276.908C242.897 276.908 257 288.057 257 301.81Z" fill="black"/>
<path d="M221 296.332C221 301.558 216.747 305.794 211.5 305.794C206.253 305.794 202 301.558 202 296.332C202 291.105 206.253 286.869 211.5 286.869C216.747 286.869 221 291.105 221 296.332Z" fill="#FCFCFC"/>
<path d="M420.5 299.772C420.5 313.525 406.397 324.674 389 324.674C371.603 324.674 357.5 313.525 357.5 299.772C357.5 286.02 371.603 274.871 389 274.871C406.397 274.871 420.5 286.02 420.5 299.772Z" fill="black"/>
<path d="M383 295.834C383 300.785 378.971 304.798 374 304.798C369.029 304.798 365 300.785 365 295.834C365 290.883 369.029 286.869 374 286.869C378.971 286.869 383 290.883 383 295.834Z" fill="#FCFCFC"/>
<path fill-rule="evenodd" clip-rule="evenodd" d="M331.19 414.567C329.02 414.974 326.928 413.552 326.519 411.389C325.965 408.462 324.444 404.115 321.838 400.751C319.309 397.486 316.078 395.479 311.749 395.906C309.551 396.123 307.592 394.524 307.374 392.334C307.156 390.145 308.762 388.194 310.96 387.976C318.847 387.198 324.526 391.176 328.172 395.883C331.741 400.491 333.659 406.102 334.381 409.914C334.79 412.076 333.361 414.159 331.19 414.567Z" fill="black"/>
<path fill-rule="evenodd" clip-rule="evenodd" d="M286.306 413.613C288.455 414.123 290.612 412.802 291.125 410.662C291.819 407.763 293.548 403.494 296.312 400.258C298.995 397.118 302.319 395.267 306.622 395.901C308.808 396.223 310.841 394.719 311.164 392.542C311.487 390.365 309.977 388.34 307.792 388.018C299.951 386.864 294.088 390.566 290.219 395.094C286.433 399.526 284.247 405.04 283.343 408.812C282.831 410.953 284.157 413.102 286.306 413.613Z" fill="black"/>
<path d="M397 327.21L404.5 340.408L402.25 346.384L397.75 347.878L391.25 346.384L389.25 340.408L397 327.21Z" fill="#00A6A6"/>
<path d="M218.75 332.688L226.25 345.886L224 351.863L219.5 353.357L213 351.863L211 345.886L218.75 332.688Z" fill="#00A6A6"/>
<path d="M219.75 363.566L227.25 376.764L225 382.741L220.5 384.235L214 382.741L212 376.764L219.75 363.566Z" fill="#00A6A6"/>
<path d="M400.75 363.566L408.25 376.764L406 382.741L401.5 384.235L395 382.741L393 376.764L400.75 363.566Z" fill="#00A6A6"/>
</svg>
