<?xml version="1.0" encoding="UTF-8" standalone="no"?>
<svg
   width="128"
   height="99"
   viewBox="0 0 128 99"
   fill="none"
   version="1.1"
   id="svg27"
   sodipodi:docname="LlamaQuizz.svg"
   inkscape:version="1.3.2 (091e20e, 2023-11-25)"
   xmlns:inkscape="http://www.inkscape.org/namespaces/inkscape"
   xmlns:sodipodi="http://sodipodi.sourceforge.net/DTD/sodipodi-0.dtd"
   xmlns="http://www.w3.org/2000/svg"
   xmlns:svg="http://www.w3.org/2000/svg">
  <defs
     id="defs27" />
  <sodipodi:namedview
     id="namedview27"
     pagecolor="#505050"
     bordercolor="#eeeeee"
     borderopacity="1"
     inkscape:showpageshadow="0"
     inkscape:pageopacity="0"
     inkscape:pagecheckerboard="0"
     inkscape:deskcolor="#505050"
     inkscape:zoom="1.8515625"
     inkscape:cx="63.729958"
     inkscape:cy="49.687764"
     inkscape:window-width="1312"
     inkscape:window-height="449"
     inkscape:window-x="161"
     inkscape:window-y="125"
     inkscape:window-maximized="0"
     inkscape:current-layer="svg27" />
  <path
     d="m 11.589724,12.8368 -6.1857001,7.3266 -2.2921,-1.7767 5.5528,-7.8167 z M 1.1607239,23.3523 C 0.68652393,22.9847 0.40282393,22.5455 0.30962393,22.0346 c -0.0745,-0.5132 0.0475,-0.9753 0.3661,-1.3863 0.32669997,-0.4216 0.74789997,-0.6602 1.26349997,-0.716 0.5262,-0.0477 1.0264,0.1123 1.5006,0.4799 0.4637,0.3594 0.7327,0.7957 0.8073,1.309 0.085,0.5214 -0.0358,0.9929 -0.3626,1.4144 -0.3185,0.411 -0.7409,0.6403 -1.2671,0.6879 -0.5074,0.0453 -0.993,-0.1118 -1.4567,-0.4712 z m 16.2550001,-5.9991 -6.185,7.3266 -2.2920001,-1.7767 5.5530001,-7.8167 z M 6.9877239,27.8687 c -0.475,-0.3675 -0.758,-0.8068 -0.8515,-1.3177 -0.0746,-0.5132 0.0475,-0.9753 0.3665,-1.3863 0.326,-0.4215 0.747,-0.6602 1.263,-0.716 0.526,-0.0477 1.026,0.1123 1.501,0.4799 0.463,0.3594 0.732,0.7957 0.8070001,1.309 0.085,0.5214 -0.036,0.9929 -0.3630001,1.4144 -0.318,0.411 -0.741,0.6403 -1.267,0.688 -0.507,0.0452 -0.993,-0.1118 -1.456,-0.4713 z m 18.9439991,-7.5942 -7.422999,8.792 -2.75,-2.132 6.663,-9.3801 z M 13.416724,32.8932 c -0.569,-0.4411 -0.909,-0.9682 -1.021,-1.5812 -0.089,-0.6159 0.057,-1.1705 0.439,-1.6637 0.392,-0.5058 0.898,-0.7922 1.517,-0.8592 0.631,-0.0571 1.231,0.1348 1.8,0.5759 0.557,0.4313 0.88,0.9549 0.969,1.5708 0.102,0.6257 -0.043,1.1915 -0.435,1.6973 -0.382,0.4932 -0.889,0.7684 -1.521,0.8256 -0.609,0.0543 -1.191,-0.1342 -1.748,-0.5655 z"
     fill="#000000"
     id="path1" />
  <line
     x1="106.22164"
     y1="23.379499"
     x2="93.221642"
     y2="32.379501"
     stroke="#000000"
     stroke-width="3"
     id="line1" />
  <path
     d="m 119.07544,81.5576 -14.3521,-7.7338"
     stroke="#000000"
     stroke-width="3"
     id="path2" />
  <path
     d="m 86.00124,81.9001 v -6.5093 l -9.6888,-1.4074 1.0139,7.9167 1.6899,1.6713 2.3659,11.5231 h 3.3798 l 1.2393,-1.0555 -1.2393,-10.1158 z"
     fill="#e5c080"
     id="path3" />
  <path
     fill-rule="evenodd"
     clip-rule="evenodd"
     d="m 75.10134,73.1035 1.0886,9.1011 1.6139,1.7091 2.3125,12.0602 h 4.2332 l 1.6517,-1.5064 -1.1847,-10.3547 1.1543,-2.0178 v -7.3008 z m 9.2646,2.8059 v 5.8812 l -1.1895,2.0793 1.1591,10.131 -0.6921,0.6312 h -2.159 l -2.162,-11.2757 -1.5822,-1.6754 -0.8291,-6.9312 z"
     fill="#000000"
     id="path4" />
  <path
     fill-rule="evenodd"
     clip-rule="evenodd"
     d="m 42.39964,75.1228 2.1313,9.3527 1.3989,1.2037 v 10.2052 l 1.2636,0.7765 h 3.7905 l 0.9879,-10.3895 1.159,-2.5384 v -7.0357 h -1.5707 v 6.7798 l -1.1349,2.4855 -0.8888,9.3468 h -1.8397 l -0.1962,-0.1205 V 85.1194 l -1.5204,-1.3082 -2.0392,-8.9484 z m 29.0664,2.0651 -1.5405,-0.2635 -3.4111,14.764 -1.2487,1.6474 h -1.2916 v -2.7501 l 2.0349,-8.0171 -2.0349,-2.5802 V 78.043 l -1.5668,-0.0672 -0.913,7.856 -0.8493,0.822 -0.5261,9.5074 -0.5933,0.9642 -1.5292,-0.2105 -0.7994,-2.9803 v -7.1825 l -1.264,-1.994 -0.5101,-6.7589 -1.5674,0.0876 0.5326,7.0566 1.2382,1.9533 v 6.9918 l 1.0774,4.0171 3.684,0.5072 1.2834,-2.0859 0.5165,-9.332 0.8189,-0.7927 0.5302,-4.5616 0.7939,1.0067 -1.9272,7.5926 v 4.2474 h 3.7131 l 1.8793,-2.4793 z"
     fill="#000000"
     id="path5" />
  <path
     d="m 71.46604,77.7257 -3.4819,14.3155 -1.5827,1.9835 h -2.5323 v -3.3633 l 2.0048,-7.5027 -2.0048,-2.4147 v -2.0697 l -0.9496,7.7614 -0.8441,0.7762 -0.5276,9.055 -0.9496,1.466 -2.6378,-0.3449 -0.9496,-3.3633 v -6.8128 l -1.2662,-1.8973 -0.5275,-6.6403 -2.3213,-1.2936 v 6.6404 l -1.1606,2.4146 -0.9497,9.4862 h -2.8488 l -0.7386,-0.4312 v -9.7449 l -1.4772,-1.2073 -2.1102,-8.7963 z"
     fill="#e5c080"
     id="path6" />
  <path
     fill-rule="evenodd"
     clip-rule="evenodd"
     d="m 42.39964,74.8628 2.3027,9.973 1.3812,1.173 v 9.9451 l 1.2476,0.7568 h 3.7427 l 0.9754,-10.1248 1.1443,-2.4736 v -5.6105 l 0.7401,0.4286 0.5014,6.5562 1.2226,1.9036 v 6.8136 l 1.0638,3.9148 3.6374,0.4942 1.2673,-2.0328 0.5099,-9.0941 0.8086,-0.7725 0.5235,-4.4453 0.7839,0.981 -1.9028,7.3991 v 4.1391 h 3.6662 l 1.8555,-2.4161 3.5951,-15.3579 z m 21.5004,5.6003 v -1.8959 l -1.547,-0.0655 -0.9015,7.6558 -0.8385,0.8011 -0.5196,9.2651 -0.5858,0.9396 -1.5099,-0.2051 -0.7892,-2.9044 v -6.9995 l -1.2481,-1.9431 -0.5282,-6.9071 -2.089,-1.2096 16.2643,1.2033 -3.1993,13.6671 -1.2329,1.6054 h -1.2753 v -2.68 l 2.0092,-7.8128 z m -12.2573,-3.5944 v 6.9941 l -1.1205,2.4222 -0.8776,9.1086 h -1.8165 l -0.1937,-0.1175 v -9.8128 l -1.5012,-1.2749 -1.8152,-7.8616 z"
     fill="#000000"
     id="path7" />
  <path
     fill-rule="evenodd"
     clip-rule="evenodd"
     d="m 76.31244,75.8913 0.7975,6.5021 1.5536,1.5603 2.0409,12.02 h 3.7421 l 1.5547,-1.2894 -1.0826,-10.5045 1.0514,-1.4153 v -6.9478 h -1.4693 v 6.5364 l -1.0943,1.473 1.0632,10.3169 -0.5911,0.4902 h -1.9149 l -1.9156,-11.2827 -1.5308,-1.5373 -0.7446,-6.071 z"
     fill="#000000"
     id="path8" />
  <path
     d="m 89.47534,48.7839 -7.4209,3.4547 c 0,0 -3.6189,-1.432 -6.081,-1.9488 -1.1142,-0.2338 -2.8859,-0.468 -2.8859,-0.468 l -6.3902,-0.6201 -8.4516,0.2023 v -4.1634 l 0.9276,0.62 v -6.2894 h 0.8245 l 0.6185,-5.4036 0.8245,-7.8839 -2.2675,-7.7067 3.6074,-4.9607 0.7215,-4.25203 -1.3399,-4.51775 -1.546,1.77167 -1.443,3.23329 -1.4429,3.23332 h -2.5767 l -1.9583,-3.36619 -0.5154,2.12599 -2.2675,-2.48033 -0.4122,1.15163 -3.6074,-1.15163 0.6184,1.86023 -2.4736,-0.7086 v 0.7086 h -3.2982 l -1.443,-6.73231 -3.8135,4.51775 3.8135,5.49216 -3.8135,4.0749 h 2.1645 c -2.2801,3.1922 -4.2258,4.6949 -3.1952,6.2008 1.0307,1.5059 3.1952,3.1004 3.1952,3.1004 V 30.89 c 0,0 0,0.2658 -0.853,5.758 -0.853,5.4921 -7.8047,18.9568 -5.228,24.3604 2.5766,5.4036 2.2674,3.8977 4.2257,6.9095 1.9583,3.0118 2.1226,3.7822 4.3535,5.7579 l 4.0981,2.3032 0.9276,0.3543 1.1595,0.1994 2.0872,0.5536 6.0294,-0.4872 -0.2249,1.3287 c 5.0691,0.7973 7.955,0.5315 12.8835,-0.7086 l 0.2249,0.7086 2.6798,-1.3287 0.6184,0.6201 1.9583,-1.4174 0.6184,1.4174 2.2675,-1.4174 v 0.7973 l 1.2368,-0.7973 0.7215,0.7973 1.8552,-0.7973 0.9276,0.7973 2.1644,-0.7973 0.6184,0.7973 1.443,-0.7973 0.6184,0.7973 0.9276,-0.7973 1.0307,0.7973 c 1.5498,-0.714 2.182,-1.5404 2.5767,-4.3406 -0.1601,0.8698 0.0126,0.0165 0.3092,-3.3662 0.2966,-3.3827 0.1232,-1.8408 0,-3.9862 -0.1233,-2.1454 -0.7877,-3.2908 -2.1644,-5.315 h 3.092 l -1.2368,-1.8603 1.9583,-0.4429 -1.6491,-1.6831 0.9276,-1.1516 -0.9276,-0.8858 1.6491,-1.3288 -3.1951,-0.8858 z"
     fill="#ffebc8"
     id="path9" />
  <path
     fill-rule="evenodd"
     clip-rule="evenodd"
     d="m 39.64124,3.61279 -5.0925,6.11721 3.7365,5.4564 -4.417,4.7856 h 2.3305 c -0.2843,0.3758 -0.5586,0.7264 -0.8179,1.0576 l -0.0273,0.0348 c -0.4628,0.591 -0.8894,1.1359 -1.2171,1.6337 -0.662,1.0059 -1.074,2.0512 -0.346,3.1298 0.555,0.8221 1.3931,1.6414 2.0645,2.2378 0.3406,0.3024 0.6481,0.5562 0.871,0.7347 0.0361,0.029 0.0701,0.056 0.1016,0.0809 v 2.6821 c -0.0013,0.0138 -0.004,0.0389 -0.009,0.0812 -0.0125,0.1046 -0.038,0.3044 -0.0903,0.6782 -0.1043,0.7471 -0.3136,2.1797 -0.7329,4.9174 -0.2006,1.3098 -0.7672,3.1275 -1.4889,5.2476 -0.2266,0.6655 -0.4679,1.3596 -0.7158,2.0725 -0.5336,1.5342 -1.0976,3.1561 -1.6103,4.7705 -0.7519,2.3677 -1.407,4.7597 -1.7116,6.9107 -0.3018,2.1311 -0.2754,4.1224 0.435,5.633 1.7061,3.6278 2.1841,4.234 2.8644,5.0967 0.3366,0.4268 0.7228,0.9165 1.3318,1.8662 0.4366,0.681 0.7845,1.2519 1.0896,1.7526 1.0129,1.6623 1.5546,2.5514 3.3108,4.1284 l 0.059,0.053 4.1532,2.3668 1.0459,0.4051 1.1852,0.2065 2.1608,0.5812 5.1147,-0.419 -0.1873,1.1224 0.7241,0.1155 c 2.5348,0.4043 4.5582,0.5444 6.5797,0.4178 1.8076,-0.1133 3.5861,-0.4383 5.696,-0.9536 l 0.2782,0.8889 2.9444,-1.4804 0.6884,0.6999 1.6779,-1.2313 0.581,1.35 1.8291,-1.1593 v 0.8192 l 1.838,-1.2013 0.6332,0.7096 1.8924,-0.8246 0.8887,0.7745 2.0202,-0.7545 0.6724,0.8791 1.4192,-0.7951 0.7083,0.9259 1.0587,-0.9226 0.874,0.6855 0.4728,-0.2209 c 0.8466,-0.3954 1.5184,-0.8611 2.0061,-1.6573 0.4643,-0.7582 0.7291,-1.7655 0.9254,-3.1778 l -0.0258,-0.0032 c 0.0035,-0.0307 0.0073,-0.0639 0.0113,-0.1 0.0597,-0.53 0.1757,-1.5912 0.322,-3.2838 0.1435,-1.659 0.181,-2.1784 0.1556,-2.5409 -0.0087,-0.1246 -0.0269,-0.2458 -0.0449,-0.3652 -0.0075,-0.0497 -0.015,-0.0991 -0.0216,-0.1482 -0.0261,-0.1918 -0.0582,-0.4814 -0.0878,-1.0039 -0.1079,-1.9032 -0.6248,-3.0907 -1.577,-4.6023 h 3.0424 l -1.3755,-2.0978 2.1308,-0.4886 -2.0233,-2.0939 0.9238,-1.1629 -0.8158,-0.7899 2.0212,-1.6514 -3.7233,-1.0466 0.8022,-3.3788 -8.4104,3.9701 c -0.075,-0.0291 -0.1608,-0.0621 -0.2562,-0.0986 -0.3764,-0.1438 -0.9037,-0.3409 -1.508,-0.5545 -1.1987,-0.4237 -2.7367,-0.925 -4.0044,-1.1948 -0.5735,-0.1221 -1.3036,-0.2418 -1.8793,-0.3298 -0.2902,-0.0443 -0.5455,-0.0813 -0.7284,-0.1072 -0.0915,-0.0129 -0.165,-0.0231 -0.2159,-0.0301 l -0.0586,-0.008 -0.0155,-0.0021 -0.0052,-7e-4 c -1e-4,0 -5e-4,-1e-4 -0.1166,0.6576 l 0.1166,-0.6576 -0.0157,-0.0021 -6.3535,-0.6251 -7.5812,0.1839 v -2.1073 l 0.9123,0.6184 v -6.9674 h 0.7396 l 0.6759,-5.9891 6e-4,-0.0056 0.8226,-7.9752 -2.1822,-7.5204 3.4604,-4.8249 0.7547,-4.5102 -1.7494,-5.98093 -2.5413,2.95292 -2.6886,6.10851 h -1.5374 l -2.6974,-4.70147 -0.6204,2.59497 -2.118,-2.34914 -0.5967,1.69004 -4.2047,-1.36102 0.6251,1.90662 -2.0646,-0.5997 v 0.9645 h -1.8445 z m 4.9984,8.57791 2.8013,0.8137 -0.5914,-1.8037 2.8913,0.9359 0.2142,-0.6069 2.3424,2.598 0.3933,-1.6454 1.1547,2.0125 h 3.5311 l 2.9882,-6.78935 0.4998,-0.58074 0.8862,3.02989 -0.6644,3.9706 -3.6356,5.0694 2.2781,7.851 -0.7988,7.7439 -6e-4,0.0056 -0.5398,4.783 h -0.8824 v 5.5771 l -0.9124,-0.6184 v 6.1968 l 9.0437,-0.2194 6.216,0.6116 0.0037,5e-4 0.0557,0.0076 c 0.0244,0.0034 0.0545,0.0075 0.0895,0.0124 0.035,0.0049 0.075,0.0105 0.1195,0.0168 0.178,0.0252 0.4268,0.0612 0.7093,0.1043 0.5695,0.0871 1.2586,0.2007 1.7809,0.3119 1.1539,0.2455 2.6064,0.7159 3.7927,1.1352 0.5882,0.2079 1.1021,0.4 1.4687,0.5401 0.1832,0.07 0.3294,0.1269 0.4293,0.1661 0.05,0.0196 0.0884,0.0348 0.1141,0.045 l 0.0289,0.0115 0.0086,0.0034 0.3474,0.1394 6.1905,-2.9222 -0.4143,1.7451 2.5617,0.7201 -1.2226,0.999 1.0088,0.9768 -0.9008,1.134 1.2205,1.2631 -1.7213,0.3948 1.0574,1.6126 h -3.0562 l 0.6716,1.0012 c 1.3351,1.9903 1.9134,3.0199 2.0254,4.9975 0.031,0.5473 0.0657,0.8678 0.0965,1.0949 0.0133,0.0976 0.0238,0.1661 0.0322,0.2208 0.0132,0.0863 0.0212,0.1384 0.0266,0.2169 0.0173,0.2469 -0.0058,0.6454 -0.1541,2.3599 -0.1453,1.6809 -0.2602,2.7319 -0.319,3.2539 -0.0062,0.0551 -0.0119,0.1051 -0.0169,0.1496 -0.0068,0.0598 -0.0124,0.1096 -0.0167,0.1482 -0.0037,0.0336 -0.0069,0.063 -0.0091,0.0858 -0.001,0.0108 -0.0022,0.0248 -0.0031,0.0388 -5e-4,0.0067 -0.0011,0.0184 -0.0014,0.0323 0,8e-4 -7e-4,0.0203 0.0011,0.049 -0.1808,1.1208 -0.403,1.8083 -0.6923,2.2806 -0.2268,0.3705 -0.5103,0.6334 -0.9258,0.8759 l -1.1351,-0.8904 -0.766,0.6676 -0.5081,-0.6642 -1.4192,0.795 -0.544,-0.7111 -2.2375,0.8357 -0.9359,-0.8157 -1.757,0.7656 -0.786,-0.8806 -0.5949,0.3889 v -0.771 l -2.6312,1.6677 -0.6355,-1.4769 -2.1742,1.5956 -0.528,-0.5369 -2.3269,1.1699 -0.1653,-0.5282 -0.7465,0.1904 c -2.4018,0.6128 -4.2638,0.9737 -6.1241,1.0902 -1.6687,0.1046 -3.3638,0.0142 -5.4703,-0.2892 l 0.2541,-1.5225 -6.7456,0.5527 -1.9448,-0.523 -1.0956,-0.191 -0.7787,-0.3016 -3.9076,-2.2268 c -1.549,-1.3989 -1.989,-2.1203 -2.9558,-3.7051 -0.3105,-0.5091 -0.6754,-1.1072 -1.1488,-1.8455 -0.6947,-1.0833 -1.1002,-1.5931 -1.4369,-2.0166 -0.6389,-0.8032 -1.0304,-1.2954 -2.6794,-4.8018 -0.5567,-1.1838 -0.626,-2.8918 -0.3324,-4.9653 0.2908,-2.0534 0.9223,-4.3711 1.6678,-6.7187 0.5078,-1.599 1.0622,-3.1932 1.593,-4.7193 0.2494,-0.7173 0.4937,-1.4195 0.7254,-2.1002 0.717,-2.1065 1.3197,-4.0213 1.5385,-5.45 0.4196,-2.7395 0.6298,-4.178 0.7352,-4.9327 0.0527,-0.3771 0.0795,-0.5859 0.0933,-0.7021 0.0069,-0.058 0.0108,-0.0954 0.0131,-0.1206 0.0012,-0.0126 0.0021,-0.024 0.0027,-0.0344 3e-4,-0.0053 7e-4,-0.0111 9e-4,-0.0173 l 3e-4,-0.0104 1e-4,-0.006 v -0.0033 -0.0017 c 10e-5,-9e-4 10e-5,-0.0018 -0.7635,-0.0018 h 0.7636 v -3.3096 l -0.2665,-0.1991 -7e-4,-5e-4 -0.0035,-0.0026 -0.0158,-0.0119 c -0.0143,-0.0109 -0.0361,-0.0275 -0.0646,-0.0495 -0.0569,-0.0439 -0.1404,-0.109 -0.2443,-0.1922 -0.2079,-0.1666 -0.4959,-0.4042 -0.8143,-0.687 -0.6464,-0.5742 -1.3795,-1.3008 -1.8383,-1.9805 -0.2857,-0.4233 -0.2476,-0.8781 0.3544,-1.7929 0.2978,-0.4523 0.6959,-0.9608 1.1799,-1.579 l 0.0012,-0.0015 c 0.4786,-0.6112 1.0282,-1.3138 1.5996,-2.125 l 0.714,-1.0136 h -1.8994 l 3.0845,-3.3418 -3.765,-5.49792 2.4089,-2.89362 1.2117,5.73194 h 4.6431 z m 43.3807,60.5581 c 0.0391,-0.0442 0.1727,-0.183 0.4166,-0.2362 0.1217,-0.0177 0.3707,-1e-4 0.4912,0.0357 0.0948,0.0432 0.2401,0.1444 0.2925,0.1962 0.0546,0.0601 0.0887,0.1193 0.1094,0.1637 z"
     fill="#000000"
     id="path10" />
  <path
     d="m 35.12984,25.7962 c 0.5293,0.8657 0.1559,0.1864 0.3417,0.4412 0.1858,0.2547 0.1876,0.2459 1.1103,0.2459 0.8487,0 1.1679,-0.8603 0.8487,-1.3553 -0.706,-0.6593 -1.1105,-0.313 -1.7882,-0.313 -0.6835,0.313 -0.3417,-0.1154 -0.5125,0.9812 z"
     fill="#000000"
     id="path11" />
  <path
     fill-rule="evenodd"
     clip-rule="evenodd"
     d="m 36.62324,26.4827 c 0.8176,-0.0275 1.1213,-0.8678 0.8073,-1.3547 -0.5156,-0.4815 -0.8704,-0.4266 -1.2882,-0.362 -0.1543,0.0238 -0.3172,0.049 -0.5,0.049 -0.2987,0.1368 -0.4016,0.132 -0.437,0.1748 -4e-4,5e-4 -8e-4,0.001 -0.0012,0.0015 -0.0128,0.0165 -0.0162,0.0401 -0.0171,0.0809 -0.0021,0.0974 0.0099,0.2928 -0.0572,0.724 0.3239,0.5298 0.3098,0.4809 0.2926,0.4217 -0.0109,-0.0376 -0.023,-0.0794 0.0491,0.0195 0.1796,0.2462 0.1873,0.2462 1.0213,0.246 0.0287,0 0.0584,-10e-5 0.089,-10e-5 0.0032,0 0.0063,0 0.0094,0 0.0108,-10e-5 0.0215,-3e-4 0.032,-6e-4 z"
     fill="#000000"
     id="path12" />
  <path
     d="m 41.22314,26.181 c 0,0 -2.6145,1.7905 -4.7421,0.7064 -1.0744,-0.5474 1.0743,0.6641 1.6077,2.0527 0.1938,0.5046 0.3878,0.7187 1.0432,0.8524 0.4891,0.0101 1.8841,-1.3238 2.0912,-1.5806 0.6186,-0.883 0,-3.0022 0,-2.0309 z"
     fill="#ffbdbd"
     fill-opacity="0.9"
     id="path13" />
  <path
     d="m 43.60584,20.7657 c 0,0.7287 2.4665,1.3195 3.7434,1.3195 1.277,0 2.3121,-0.5908 2.3121,-1.3195 0,-0.7287 -1.0351,-1.3194 -2.3121,-1.3194 -1.2769,0 -3.7434,0.5907 -3.7434,1.3194 z"
     fill="#000000"
     id="path14" />
  <path
     d="m 36.13674,20.8179 c -0.7856,0.9505 -1.7974,1.2673 0,1.2673 1.7974,0 2.9082,-0.3156 3.3619,-1.2673 0.8931,-0.738 0.5677,-1.3716 -1.2297,-1.3716 -1.7974,0 -2.1322,0.3218 -2.1322,1.3716 z"
     fill="#000000"
     id="path15" />
  <path
     d="m 47.23914,20.7657 c 0,0.7287 0.5423,1.3195 1.2111,1.3195 0.6689,0 1.2111,-0.5908 1.2111,-1.3195 0,-0.7287 -0.5422,-1.3194 -1.2111,-1.3194 -0.6688,0 -1.2111,0.5907 -1.2111,1.3194 z"
     fill="#fcfcfc"
     id="path16" />
  <path
     d="m 47.23914,20.7657 c 0,0.7287 0.5423,1.3195 1.2111,1.3195 0.6689,0 1.2111,-0.5908 1.2111,-1.3195 0,-0.7287 -0.5422,-1.3194 -1.2111,-1.3194 -0.6688,0 -1.2111,0.5907 -1.2111,1.3194 z"
     fill="#fcfcfc"
     id="path17" />
  <path
     d="m 47.23914,20.7657 c 0,0.7287 0.5423,1.3195 1.2111,1.3195 0.6689,0 1.2111,-0.5908 1.2111,-1.3195 0,-0.7287 -0.5422,-1.3194 -1.2111,-1.3194 -0.6688,0 -1.2111,0.5907 -1.2111,1.3194 z"
     fill="#fcfcfc"
     id="path18" />
  <path
     d="m 47.23914,20.7657 c 0,0.7287 0.5423,1.3195 1.2111,1.3195 0.6689,0 1.2111,-0.5908 1.2111,-1.3195 0,-0.7287 -0.5422,-1.3194 -1.2111,-1.3194 -0.6688,0 -1.2111,0.5907 -1.2111,1.3194 z"
     fill="#fcfcfc"
     id="path19" />
  <path
     d="m 37.55574,20.3259 c 0,0.4858 0.2711,0.8796 0.6056,0.8796 0.3344,0 0.6055,-0.3938 0.6055,-0.8796 0,-0.4858 -0.2711,-0.8796 -0.6055,-0.8796 -0.3345,0 -0.6056,0.3938 -0.6056,0.8796 z"
     fill="#fcfcfc"
     id="path20" />
  <path
     d="m 37.55574,20.3259 c 0,0.4858 0.2711,0.8796 0.6056,0.8796 0.3344,0 0.6055,-0.3938 0.6055,-0.8796 0,-0.4858 -0.2711,-0.8796 -0.6055,-0.8796 -0.3345,0 -0.6056,0.3938 -0.6056,0.8796 z"
     fill="#fcfcfc"
     id="path21" />
  <path
     d="m 37.55574,20.3259 c 0,0.4858 0.2711,0.8796 0.6056,0.8796 0.3344,0 0.6055,-0.3938 0.6055,-0.8796 0,-0.4858 -0.2711,-0.8796 -0.6055,-0.8796 -0.3345,0 -0.6056,0.3938 -0.6056,0.8796 z"
     fill="#fcfcfc"
     id="path22" />
  <path
     d="m 37.55574,20.3259 c 0,0.4858 0.2711,0.8796 0.6056,0.8796 0.3344,0 0.6055,-0.3938 0.6055,-0.8796 0,-0.4858 -0.2711,-0.8796 -0.6055,-0.8796 -0.3345,0 -0.6056,0.3938 -0.6056,0.8796 z"
     fill="#fcfcfc"
     id="path23" />
  <path
     fill-rule="evenodd"
     clip-rule="evenodd"
     d="m 50.96024,16.8071 -1.412,1.2384 -0.9895,-1.1044 -2.7005,1.2753 -0.9014,-0.9223 -1.0905,0.7439 -0.4696,-0.7686 -1.0691,0.5834 v -1.0297 l -4.7779,1.6295 0.5962,1.1714 2.6314,-0.8975 v 1.4974 l 2.0182,-1.1013 0.5595,0.916 1.3793,-0.9408 0.7451,0.7624 2.6507,-1.2517 1.2745,1.4226 1.4695,-1.2886 2.4237,2.4628 1.2073,-0.7961 z"
     fill="#000000"
     id="path24" />
  <path
     fill-rule="evenodd"
     clip-rule="evenodd"
     d="m 57.22404,20.0921 0.8485,-1.5257 1.2802,0.7104 -1.0957,1.9701 -2.0134,0.838 -0.6405,-1.1881 -1.5852,0.895 -0.7207,-1.2735 2.8866,-1.6298 0.7205,1.3366 z"
     fill="#000000"
     id="path25" />
  <path
     fill-rule="evenodd"
     clip-rule="evenodd"
     d="m 40.42374,28.4642 c -0.1352,0.0727 -0.3633,0.1577 -0.7986,0.2927 -0.0936,0.029 -0.2224,0.0415 -0.4735,-0.0672 -0.278,-0.1203 -0.6198,-0.3563 -1.036,-0.7293 -0.409,-0.3666 -0.8358,-0.8152 -1.2997,-1.3165 -0.0901,-0.0973 -0.1817,-0.1968 -0.2746,-0.2976 -0.3752,-0.4073 -0.7714,-0.8375 -1.1753,-1.2452 -0.556,-0.5612 -0.5595,-0.8773 -0.5303,-0.983 0.0181,-0.0655 0.0952,-0.2112 0.4068,-0.3694 0.3802,0.19 0.7788,0.3363 1.1468,0.4623 0.1786,0.0612 0.3493,0.1175 0.5151,0.1722 0.3867,0.1275 0.7468,0.2462 1.119,0.3977 0.9632,0.392 1.7849,0.921 2.2526,2.0389 0.1158,0.5342 0.1887,0.9108 0.2176,1.1953 0.0278,0.2727 0.0044,0.3792 -0.0055,0.4095 -0.0094,0.0071 -0.0288,0.0205 -0.0644,0.0396 z m 0.8557,-1.8734 c 0.4923,2.26 0.4147,2.4675 -1.3019,2.9999 -1.3738,0.4261 -2.7547,-1.0729 -4.2545,-2.7011 -0.3742,-0.4061 -0.7557,-0.8203 -1.1464,-1.2147 -1.2997,-1.3118 -0.9511,-2.4052 0.7655,-2.9376 0.5071,0.3473 1.1795,0.5691 1.8976,0.8059 1.5221,0.5021 3.2492,1.0717 4.0397,3.0476 z"
     fill="#000000"
     id="path26" />
  <path
     fill-rule="evenodd"
     clip-rule="evenodd"
     d="m 37.31414,26.1863 2.0718,-1.5061 -0.3349,-0.3381 -2.0719,1.5061 z"
     fill="#000000"
     id="path27" />
</svg>
