<?xml version="1.0" encoding="UTF-8"?>
<!--Generator: Apple Native CoreSVG 326-->
<!DOCTYPE svg
PUBLIC "-//W3C//DTD SVG 1.1//EN"
       "http://www.w3.org/Graphics/SVG/1.1/DTD/svg11.dtd">
<svg version="1.1" xmlns="http://www.w3.org/2000/svg" xmlns:xlink="http://www.w3.org/1999/xlink" viewBox="0 0 574.658 685.25">
 <g>
  <rect height="685.25" opacity="0" width="574.658" x="0" y="0"/>
  <path d="M112.079 224.25C112.079 215.25 104.579 208 95.5791 208L16.5791 208C7.32909 208 0.0790921 215.25 0.0790921 224.25C0.0790921 233.25 7.32909 240.75 16.5791 240.75L95.5791 240.75C104.579 240.75 112.079 233.25 112.079 224.25ZM144.329 145.25C150.579 138.75 150.829 128.25 144.329 122L88.5791 65.5C82.0791 59.25 71.8291 59.5 65.3291 65.5C59.0791 72.25 58.8291 82.5 65.3291 88.75L121.079 145.25C127.829 151.5 137.829 151.25 144.329 145.25ZM224.579 112C233.579 112 240.829 104.5 240.829 95.5L241.079 16.25C241.079 7.25 233.579 0 224.579 0C215.579 0 208.329 7.25 208.329 16.25L208.079 95.5C208.079 104.5 215.579 112 224.579 112ZM304.829 145.25C311.329 151.25 321.329 151.5 327.829 145.25L383.829 89C390.329 82.75 390.079 72.25 383.829 65.75C377.329 59.75 367.079 59.5 360.579 65.75L304.829 122C298.329 128.25 298.579 138.75 304.829 145.25Z" fill="black"/>
  <path d="M458.079 639.75C557.329 603.75 599.579 512.5 559.829 402.75L541.079 351.25C521.329 297.25 484.079 275 440.329 290.25C428.829 275 410.579 269.75 391.079 276.75C383.829 279.5 377.579 283 371.579 287.75C358.829 271 339.079 265 318.579 272.5C313.079 274.5 307.829 277.5 302.829 281L274.329 203C263.579 173.25 236.829 160.75 208.829 170.75C180.829 181 168.329 207.75 179.079 237.5L250.579 433.5C250.829 434.75 250.579 435.75 249.329 436.25C248.329 436.5 247.579 436.25 246.829 435.25L217.579 403.5C202.829 388 185.829 383.5 168.829 389.5C146.079 397.5 131.079 419.5 140.579 445.25C143.079 452.5 148.329 461.25 153.829 468.25L237.579 569.5C301.079 646.25 375.079 670 458.079 639.75ZM447.329 607C381.829 631 320.329 618.75 262.579 549L178.829 448.25C176.329 445.25 174.579 442.5 173.079 438.25C170.079 430 173.579 421 183.329 417.5C191.079 414.75 197.329 417.75 203.579 424.5L261.579 484C271.329 494 279.829 495 288.079 492.25C297.829 488.5 302.079 478.25 298.329 467.5L209.579 224C205.829 214 210.079 204.75 220.079 201C229.579 197.5 238.829 202 242.329 212.25L305.579 386C308.829 394.25 317.829 397.75 326.079 394.75C334.079 392 338.579 383.25 335.579 375L312.579 312.5C316.079 309.25 320.829 305.75 325.579 304.5C337.329 300 347.079 305 351.579 317.5L371.329 372C374.579 380.75 383.829 384 391.829 381.25C399.829 378.25 404.579 370 401.329 361.25L385.079 316.75C388.329 313.5 393.329 310.25 397.829 308.5C409.829 304.25 419.579 309.25 424.079 321.5L437.579 358.5C440.579 367 449.829 370.25 457.829 367.25C465.579 364.5 470.329 356 467.329 347.5L457.579 320.5C478.329 312.75 497.829 330 511.579 367.5L527.079 410.25C561.579 504.75 530.579 576.5 447.329 607Z" fill="black"/>
 </g>
</svg>
