<svg width="485" height="485" viewBox="0 0 485 485" fill="none" xmlns="http://www.w3.org/2000/svg">
<circle cx="242.253" cy="242.253" r="242.253" fill="#F49F0A"/>
<path d="M348.895 380.363V350.51L314.35 344.055L317.965 380.363L323.99 388.028L332.425 440.876H344.476L348.895 436.035L344.476 389.641L348.895 380.363Z" fill="#E5C080" stroke="black" stroke-width="3"/>
<path d="M292.258 358.175L279.002 425.142L272.977 434.421H263.337V418.688L270.969 383.59L263.337 372.294V362.612L259.721 398.92L256.508 402.551L254.5 444.91L250.884 451.768L240.842 450.154L237.227 434.421V402.551L232.407 393.676L230.398 362.612M221.561 356.561V387.624L217.143 398.92L213.528 443.296H202.682L199.87 441.279V395.693L194.247 390.045L186.213 348.896" stroke="black" stroke-width="3"/>
<path d="M292.664 358.175L279.408 425.142L273.383 434.421H263.743V418.688L271.375 383.59L263.743 372.294V362.612L260.128 398.92L256.914 402.551L254.906 444.91L251.291 451.768L241.248 450.154L237.633 434.421V402.551L232.813 393.676L230.805 362.612L221.968 356.561V387.624L217.549 398.92L213.934 443.296H203.089L200.277 441.279V395.693L194.653 390.045L186.619 348.896L292.664 358.175Z" fill="#E5C080" stroke="black" stroke-width="3"/>
<path d="M348.895 352.123V382.691L344.476 389.238L348.895 436.438L344.476 440.472H332.827L324.68 387.647L318.329 380.625L315.153 352.123" stroke="black" stroke-width="3"/>
<path d="M362.958 228.677L334.037 244.41C334.037 244.41 319.933 237.888 310.337 235.535C305.995 234.47 299.09 233.404 299.09 233.404L274.186 230.58L241.248 231.501V212.54L244.863 215.364V186.721H248.076L250.486 162.112L253.7 126.208L244.863 91.1106L258.922 68.5191L261.734 49.1549L256.512 28.5805L250.486 36.6489L244.863 51.3737L239.239 66.0985H229.197L221.565 50.7686L219.557 60.4507L210.72 49.1549L209.113 54.3994L195.054 49.1549L197.464 57.6267L187.824 54.3994V57.6267H174.97L169.346 26.9668L154.484 47.5412L169.346 72.5532L154.484 91.1106H162.919C154.033 105.649 146.45 112.492 150.467 119.35C154.484 126.208 162.919 133.47 162.919 133.47V147.186C162.919 147.186 162.919 148.396 159.595 173.408C156.271 198.42 129.178 259.74 139.22 284.349C149.262 308.957 148.057 302.099 155.689 315.815C163.321 329.532 163.961 333.04 172.656 342.038L188.627 352.527L192.242 354.14L196.761 355.048L204.895 357.569L228.394 355.351L227.517 361.402C247.273 365.033 258.52 363.822 277.728 358.175L278.604 361.402L289.048 355.351L291.458 358.175L299.09 351.72L301.5 358.175L310.337 351.72V355.351L315.157 351.72L317.969 355.351L325.2 351.72L328.815 355.351L337.25 351.72L339.66 355.351L345.284 351.72L347.694 355.351L351.309 351.72L355.326 355.351C361.366 352.099 363.83 348.335 365.368 335.583C364.744 339.544 365.417 335.658 366.573 320.253C367.729 304.848 367.053 311.87 366.573 302.099C366.093 292.329 363.503 287.113 358.138 277.894H370.188L365.368 269.422L373 267.405L366.573 259.74L370.188 254.496L366.573 250.461L373 244.41L360.548 240.376L362.958 228.677Z" fill="#FFEBC8" stroke="black" stroke-width="3"/>
<path d="M152.828 122.425C153.051 122.792 153.231 123.086 153.376 123.318C153.38 123.321 153.384 123.322 153.388 123.324C153.557 123.41 153.675 123.51 153.729 123.557C153.917 123.723 154.08 123.947 154.184 124.091C154.44 124.448 154.512 124.531 154.559 124.572C154.57 124.576 154.602 124.589 154.67 124.603C154.867 124.646 155.205 124.679 155.856 124.695C156.409 124.708 157.112 124.708 158.046 124.708C158.189 124.708 158.336 124.708 158.49 124.708C160.018 124.708 160.97 123.956 161.449 123.034C161.931 122.106 161.918 121.053 161.53 120.319C160.108 119.02 159.132 118.82 158.234 118.833C157.716 118.841 157.193 118.923 156.507 119.03C156.461 119.038 156.413 119.045 156.365 119.052C155.726 119.152 154.983 119.262 154.151 119.286C153.697 119.487 153.333 119.623 153.047 119.722C153.046 119.777 153.046 119.833 153.044 119.889C153.032 120.467 152.985 121.274 152.828 122.425Z" fill="black" stroke="black" stroke-width="3"/>
<path d="M176.572 124.191C176.572 124.191 166.384 132.371 158.094 127.418C153.908 124.917 162.28 130.452 164.358 136.796C165.114 139.102 165.87 140.08 168.423 140.691C170.329 140.737 175.765 134.643 176.572 133.47C178.982 129.435 176.572 119.753 176.572 124.191Z" fill="#FFBDBD" fill-opacity="0.9"/>
<path d="M187.025 99.5824C187.025 103.593 196.023 106.844 200.682 106.844C205.341 106.844 209.117 103.593 209.117 99.5824C209.117 95.5719 205.341 92.3208 200.682 92.3208C196.023 92.3208 187.025 95.5719 187.025 99.5824Z" fill="black"/>
<path d="M156.533 99.4185C153.667 103.777 149.976 105.23 156.533 105.23C163.091 105.23 167.143 103.783 168.799 99.4185C172.057 96.0336 170.87 93.1277 164.312 93.1277C157.755 93.1277 156.533 94.6038 156.533 99.4185Z" fill="black"/>
<ellipse cx="4.41853" cy="4.43762" rx="4.41853" ry="4.43762" transform="matrix(-1 0 0 1 207.504 94.7413)" fill="#FCFCFC"/>
<ellipse cx="4.41853" cy="4.43762" rx="4.41853" ry="4.43762" transform="matrix(-1 0 0 1 207.504 94.7413)" fill="#FCFCFC"/>
<ellipse cx="4.41853" cy="4.43762" rx="4.41853" ry="4.43762" transform="matrix(-1 0 0 1 207.504 94.7413)" fill="#FCFCFC"/>
<ellipse cx="4.41853" cy="4.43762" rx="4.41853" ry="4.43762" transform="matrix(-1 0 0 1 207.504 94.7413)" fill="#FCFCFC"/>
<ellipse cx="2.81179" cy="2.82394" rx="2.81179" ry="2.82394" transform="matrix(-1 0 0 1 167.336 94.7413)" fill="#FCFCFC"/>
<ellipse cx="2.81179" cy="2.82394" rx="2.81179" ry="2.82394" transform="matrix(-1 0 0 1 167.336 94.7413)" fill="#FCFCFC"/>
<ellipse cx="2.81179" cy="2.82394" rx="2.81179" ry="2.82394" transform="matrix(-1 0 0 1 167.336 94.7413)" fill="#FCFCFC"/>
<ellipse cx="2.81179" cy="2.82394" rx="2.81179" ry="2.82394" transform="matrix(-1 0 0 1 167.336 94.7413)" fill="#FCFCFC"/>
<path d="M161.31 91.514L175.771 85.4627V91.514L181.796 87.4798L183.804 91.514L188.624 87.4798L191.838 91.514L202.282 85.4627L206.7 91.514L212.324 85.4627L223.973 99.9858" stroke="black" stroke-width="3"/>
<path d="M223.573 100.389L232.812 95.1448L235.624 100.389L240.444 98.3722L244.461 91.1106" stroke="black" stroke-width="3"/>
<path d="M171.405 138.828C173.084 138.218 174.261 137.734 175.098 137.207C175.897 136.702 176.329 136.193 176.571 135.532C176.83 134.825 176.912 133.839 176.779 132.307C176.648 130.798 176.322 128.871 175.848 126.321C173.69 120.057 169.706 117.079 165.43 115.038C163.871 114.294 162.303 113.688 160.75 113.087C160.126 112.846 159.505 112.606 158.887 112.358C156.963 111.585 155.092 110.743 153.516 109.591C150.658 110.739 149.165 112.326 148.756 114.061C148.319 115.915 149.021 118.341 151.463 121.231C152.998 123.048 154.499 124.958 155.957 126.815C156.324 127.281 156.687 127.744 157.048 128.201C158.856 130.491 160.596 132.641 162.297 134.428C164.005 136.223 165.619 137.594 167.16 138.376C168.675 139.145 170.058 139.318 171.405 138.828Z" stroke="black" stroke-width="2"/>
<path d="M168.773 116.564L160.7 123.446" stroke="black"/>
</svg>
