<svg width="251" height="251" viewBox="0 0 251 251" fill="none" xmlns="http://www.w3.org/2000/svg">
<circle cx="125.037" cy="125.037" r="125.037" fill="#00A6A6"/>
<path d="M125.243 151.111C84.6833 151.111 77.4981 110.688 76.2252 78.6271C75.8712 69.7089 75.6942 65.2497 79.044 61.124C82.3938 56.9984 86.4031 56.3219 94.4217 54.969C102.337 53.6335 112.684 52.5273 125.243 52.5273C137.802 52.5273 148.149 53.6335 156.064 54.969C164.082 56.3219 168.092 56.9984 171.441 61.124C174.791 65.2497 174.614 69.7089 174.26 78.6271C172.988 110.688 165.803 151.111 125.243 151.111Z" fill="#FFCD29"/>
<path d="M164.953 125.915L184.786 114.896C190.084 111.953 192.733 110.481 194.192 108.002C195.651 105.522 195.651 102.492 195.651 96.4307V95.92C195.652 88.5712 195.652 84.8968 193.658 82.1306C191.664 79.3643 188.179 78.2024 181.207 75.8785L174.527 73.6519L174.408 74.2479C174.375 75.5806 174.317 77.0323 174.254 78.6264C173.632 94.2899 171.599 111.949 164.953 125.915Z" fill="#F08700"/>
<path d="M76.2126 78.6266C76.8345 94.2907 78.8677 111.951 85.5147 125.917L65.6781 114.896C60.3799 111.953 57.7307 110.481 56.2717 108.002C54.8128 105.522 54.8127 102.492 54.8125 96.4307V95.92C54.8123 88.5713 54.8122 84.8968 56.806 82.1306C58.7998 79.3643 62.2855 78.2024 69.2572 75.8785L75.9371 73.6519L76.0592 74.2624C76.0921 75.5912 76.1495 77.0382 76.2126 78.6266Z" fill="#F08700"/>
<path fill-rule="evenodd" clip-rule="evenodd" d="M77.7031 193.361C77.7031 190.444 80.0676 188.08 82.9844 188.08H167.484C170.401 188.08 172.766 190.444 172.766 193.361C172.766 196.277 170.401 198.642 167.484 198.642H82.9844C80.0676 198.642 77.7031 196.277 77.7031 193.361Z" fill="#F49F0A"/>
<path d="M149.589 188.079H100.895L102.985 175.757C103.643 172.465 106.533 170.097 109.89 170.097H140.594C143.95 170.097 146.841 172.465 147.499 175.757L149.589 188.079Z" fill="#F08700"/>
<path d="M125.232 151.111C123.404 151.111 121.644 151.028 119.949 150.869V170.096H130.512V150.869C128.817 151.028 127.058 151.111 125.232 151.111Z" fill="#FFCD29"/>
<path d="M119.216 80.852C121.892 76.0519 123.23 73.6519 125.23 73.6519C127.231 73.6519 128.569 76.0519 131.245 80.852L131.937 82.0939C132.697 83.4579 133.077 84.14 133.67 84.59C134.263 85.04 135.001 85.207 136.477 85.5411L137.822 85.8453C143.018 87.0209 145.616 87.6088 146.234 89.5964C146.853 91.5841 145.081 93.6552 141.539 97.7976L140.622 98.8692C139.616 100.046 139.112 100.635 138.886 101.363C138.66 102.091 138.736 102.876 138.888 104.447L139.026 105.877C139.562 111.404 139.83 114.167 138.212 115.396C136.593 116.624 134.161 115.504 129.296 113.264L128.037 112.685C126.654 112.048 125.963 111.73 125.23 111.73C124.497 111.73 123.807 112.048 122.424 112.685L121.165 113.264C116.3 115.504 113.868 116.624 112.249 115.396C110.631 114.167 110.899 111.404 111.434 105.877L111.573 104.447C111.725 102.876 111.801 102.091 111.575 101.363C111.349 100.635 110.845 100.046 109.839 98.8692L108.922 97.7976C105.38 93.6552 103.609 91.5841 104.227 89.5964C104.845 87.6088 107.443 87.0209 112.639 85.8453L113.983 85.5411C115.46 85.207 116.198 85.04 116.791 84.59C117.384 84.14 117.764 83.4579 118.524 82.0939L119.216 80.852Z" fill="#F49F0A"/>
</svg>
