<svg width="615" height="615" viewBox="0 0 615 615" fill="none" xmlns="http://www.w3.org/2000/svg">
<path d="M615 307.43C615 477.219 477.328 614.86 307.5 614.86C137.672 614.86 0 477.219 0 307.43C0 137.641 137.672 0 307.5 0C477.328 0 615 137.641 615 307.43Z" fill="#EFCA08"/>
<path d="M191.512 449.967V590.866C214.5 612.861 348.737 631.856 425.104 590.866V449.967C442.673 439.838 442.074 342.434 439.578 294.998L456.549 276.26L453.055 263.093L461.54 236.252L453.055 209.917C501.37 96.0707 468.528 61.1942 446.067 57.9868L431.093 113.188C416.718 113.188 399.482 141.548 392.66 155.729L348.737 137.497H267.879L220.961 155.729C218.565 141.954 196.004 121.629 185.023 113.188L164.559 57.9868C114.647 64.8743 143.762 162.143 164.559 209.917L157.072 236.252V255.496L164.559 278.792L179.034 302.088C169.052 395.272 183.193 439.501 191.512 449.967Z" fill="#FFEBC8"/>
<path fill-rule="evenodd" clip-rule="evenodd" d="M271.07 343.181C271.479 341.01 273.571 339.583 275.742 339.992C282.783 341.319 292.839 345.675 300.753 354.468C308.782 363.388 314.402 376.655 312.694 395.275C312.492 397.475 310.545 399.094 308.345 398.892C306.145 398.691 304.525 396.744 304.727 394.545C306.239 378.066 301.293 367.024 294.806 359.818C288.206 352.485 279.797 348.895 274.259 347.852C272.089 347.442 270.661 345.351 271.07 343.181Z" fill="black"/>
<path fill-rule="evenodd" clip-rule="evenodd" d="M207.927 288.208C208.86 289.21 209.216 290.619 208.871 291.943C207.863 295.804 206.292 301.283 204.883 304.943C204.528 305.865 204.152 306.755 203.766 307.508C203.478 308.07 202.878 309.204 201.896 309.986C201.372 310.403 200.019 311.284 198.19 310.868C196.388 310.458 195.543 309.107 195.245 308.52C194.671 307.39 194.556 306.041 194.506 305.152C194.422 303.632 193.394 302.203 190.864 300.929C188.371 299.675 185.276 299.064 183.225 298.922C181.215 298.784 179.623 297.173 179.507 295.163C179.391 293.152 180.788 291.37 182.768 291.001L204.268 287.002C205.614 286.752 206.995 287.207 207.927 288.208ZM198.206 296.265C198.511 296.531 198.809 296.811 199.095 297.106C199.204 296.753 199.312 296.397 199.419 296.04L198.206 296.265ZM196.461 304.189C196.461 304.189 196.465 304.182 196.475 304.168C196.465 304.183 196.461 304.19 196.461 304.189Z" fill="black"/>
<path fill-rule="evenodd" clip-rule="evenodd" d="M221.694 294.005C205.318 291.653 186.612 292.184 174.401 293.413C172.203 293.634 170.242 292.032 170.02 289.835C169.799 287.637 171.402 285.676 173.6 285.455C186.222 284.185 205.616 283.616 222.832 286.088C231.426 287.322 239.712 289.346 246.392 292.566C253.041 295.772 258.636 300.435 260.809 307.208C261.484 309.311 260.326 311.563 258.222 312.238C256.118 312.912 253.866 311.754 253.191 309.651C251.964 305.827 248.589 302.505 242.918 299.771C237.278 297.052 229.895 295.183 221.694 294.005Z" fill="black"/>
<path fill-rule="evenodd" clip-rule="evenodd" d="M159.597 87.0549C162.593 86.5557 165.427 88.5793 165.926 91.5749C167.145 98.8852 169.563 110.179 172.819 120.198C174.45 125.218 176.237 129.747 178.107 133.247C180.098 136.974 181.724 138.647 182.62 139.132C189.26 142.728 193.024 149.819 195.17 155.981C196.222 159.001 196.983 162.079 197.512 164.937L219.474 153.58C222.172 152.185 225.491 153.24 226.886 155.938C228.282 158.635 227.226 161.953 224.528 163.348L195.528 178.345C193.86 179.207 191.868 179.159 190.244 178.219C188.62 177.278 187.588 175.574 187.506 173.699C187.358 170.302 186.584 164.77 184.782 159.597C182.911 154.228 180.342 150.405 177.381 148.802C173.477 146.688 170.579 142.5 168.404 138.428C166.108 134.13 164.089 128.924 162.357 123.596C158.888 112.92 156.357 101.069 155.076 93.3828C154.576 90.3873 156.6 87.5542 159.597 87.0549Z" fill="black"/>
<path fill-rule="evenodd" clip-rule="evenodd" d="M312.998 279.342C313.051 281.55 311.302 283.382 309.094 283.434C299.316 283.665 284.448 287.566 272.18 298.549C260.054 309.407 250.113 327.5 250.499 356.866C250.886 386.28 260.989 403.131 272.844 412.506C284.859 422.009 299.214 424.263 308.643 423.419C310.844 423.223 312.787 424.847 312.984 427.046C313.18 429.246 311.556 431.189 309.356 431.386C298.285 432.376 281.79 429.78 267.88 418.779C253.81 407.651 242.913 388.343 242.5 356.971C242.086 325.551 252.812 305.154 266.844 292.591C280.734 280.154 297.517 275.707 308.905 275.438C311.114 275.386 312.946 277.134 312.998 279.342Z" fill="black"/>
<path d="M231 302.931C231 311.214 222.717 317.928 212.5 317.928C202.283 317.928 194 311.214 194 302.931C194 294.649 202.283 287.935 212.5 287.935C222.717 287.935 231 294.649 231 302.931Z" fill="black"/>
<path d="M209 301.431C209 303.364 207.433 304.931 205.5 304.931C203.567 304.931 202 303.364 202 301.431C202 299.499 203.567 297.932 205.5 297.932C207.433 297.932 209 299.499 209 301.431Z" fill="#FCFCFC"/>
<path fill-rule="evenodd" clip-rule="evenodd" d="M408.073 288.208C407.14 289.21 406.784 290.619 407.129 291.943C408.137 295.804 409.708 301.283 411.117 304.943C411.472 305.865 411.848 306.755 412.234 307.508C412.522 308.07 413.122 309.204 414.104 309.986C414.628 310.403 415.981 311.284 417.81 310.868C419.612 310.458 420.457 309.107 420.755 308.52C421.329 307.39 421.444 306.041 421.494 305.152C421.578 303.632 422.606 302.203 425.136 300.929C427.629 299.675 430.724 299.064 432.775 298.922C434.785 298.784 436.377 297.173 436.493 295.163C436.609 293.152 435.212 291.37 433.232 291.001L411.732 287.002C410.386 286.752 409.005 287.207 408.073 288.208ZM417.794 296.265C417.489 296.531 417.191 296.811 416.905 297.106C416.796 296.753 416.688 296.397 416.581 296.04L417.794 296.265ZM419.539 304.189C419.539 304.189 419.535 304.182 419.525 304.168C419.535 304.183 419.539 304.19 419.539 304.189Z" fill="black"/>
<path fill-rule="evenodd" clip-rule="evenodd" d="M394.306 294.005C410.682 291.653 429.388 292.184 441.599 293.413C443.797 293.634 445.758 292.032 445.98 289.835C446.201 287.637 444.598 285.676 442.4 285.455C429.778 284.185 410.384 283.616 393.168 286.088C384.574 287.322 376.288 289.346 369.608 292.566C362.959 295.772 357.364 300.435 355.191 307.208C354.516 309.311 355.674 311.563 357.778 312.238C359.882 312.912 362.134 311.754 362.809 309.651C364.036 305.827 367.411 302.505 373.082 299.771C378.722 297.052 386.105 295.183 394.306 294.005Z" fill="#00A6A6"/>
<path fill-rule="evenodd" clip-rule="evenodd" d="M172.299 51.5877C173.498 52.4862 174.278 53.8348 174.459 55.3217C175.688 65.3971 178.243 80.5087 181.872 93.0926C183.697 99.4208 185.711 104.814 187.816 108.563C188.87 110.44 189.816 111.666 190.581 112.381C191.067 112.835 191.347 112.962 191.427 112.991C196.178 113.336 200.361 116.132 203.683 119.18C207.141 122.353 210.411 126.492 213.339 130.808C216.556 135.549 219.514 140.737 222 145.565C223.561 145.134 225.253 144.967 227 144.967C228.38 144.967 230.794 144.534 234.169 143.548C237.423 142.597 241.165 141.256 245.027 139.729C252.747 136.676 260.649 132.996 265.54 130.551C266.304 130.169 267.146 129.97 268 129.97H308C311.037 129.97 313.5 132.432 313.5 135.469C313.5 138.506 311.037 140.968 308 140.968H269.289C264.151 143.497 256.561 146.994 249.073 149.955C245.035 151.552 240.951 153.023 237.255 154.103C233.68 155.148 230.019 155.965 227 155.965C226.971 155.965 226.942 155.965 226.913 155.965C226.965 156.085 227.015 156.204 227.065 156.321C228.148 158.881 227.151 161.846 224.742 163.231C222.332 164.616 219.267 163.986 217.6 161.763C216.839 160.749 216.054 159.433 215.52 157.939C215.365 157.504 215.217 157.014 215.1 156.479C212.369 150.597 208.516 143.29 204.235 136.981C201.551 133.024 198.827 129.652 196.245 127.283C193.538 124.799 191.65 124.03 190.621 123.959C187.505 123.744 184.977 122.197 183.072 120.418C181.175 118.646 179.581 116.364 178.224 113.946C175.507 109.106 173.215 102.771 171.302 96.1394C168.176 85.2977 165.842 72.8721 164.396 63.0048C156.179 66.4229 147.129 74.9918 143.43 92.4088C138.802 114.198 142.61 149.935 168.005 205.673C168.604 206.987 168.661 208.484 168.166 209.84L161.365 228.448H163C164.906 228.448 166.676 229.435 167.678 231.056C168.68 232.677 168.771 234.701 167.919 236.406L162.399 247.444H163C164.789 247.444 166.467 248.314 167.497 249.778C168.527 251.241 168.781 253.114 168.177 254.798L163.571 267.643L166.355 266.117C168.287 265.058 170.664 265.253 172.396 266.614C174.129 267.974 174.883 270.236 174.312 272.363C173.552 275.196 173.151 279.405 174.072 282.815C174.512 284.446 175.196 285.681 176.077 286.556C176.913 287.386 178.193 288.164 180.349 288.5C183.277 288.958 185.316 291.653 184.96 294.595C182.313 316.419 179.715 349.978 180.498 379.669C180.889 394.538 182.125 408.201 184.536 418.86C185.741 424.189 187.2 428.58 188.884 431.929C190.588 435.317 192.329 437.256 193.891 438.222C195.513 439.224 196.499 440.994 196.499 442.899V578.368C196.499 581.405 194.037 583.867 190.999 583.867C187.962 583.867 185.499 581.405 185.499 578.368V445.633C182.842 443.288 180.743 440.223 179.056 436.868C176.832 432.446 175.127 427.123 173.807 421.286C171.166 409.613 169.901 395.133 169.501 379.958C168.754 351.598 171.013 319.99 173.501 297.88C171.519 297 169.79 295.814 168.325 294.358C165.751 291.803 164.266 288.695 163.452 285.681C163.008 284.035 162.746 282.356 162.624 280.705L156.144 284.258C154.14 285.356 151.666 285.102 149.928 283.618C148.19 282.135 147.551 279.731 148.322 277.581L155.185 258.441H153.499C151.593 258.441 149.823 257.454 148.821 255.833C147.819 254.212 147.728 252.188 148.58 250.483L154.1 239.446H153.499C151.704 239.446 150.021 238.569 148.992 237.098C147.963 235.627 147.717 233.746 148.334 232.06L157.063 208.175C132.073 152.666 127.395 114.961 132.67 90.1247C138.081 64.6418 154.011 52.8766 168.108 50.5613C169.587 50.3185 171.1 50.6891 172.299 51.5877ZM191.452 112.998C191.452 112.998 191.448 112.998 191.44 112.995C191.448 112.997 191.452 112.998 191.452 112.998Z" fill="black"/>
<path fill-rule="evenodd" clip-rule="evenodd" d="M344.932 343.181C344.523 341.01 342.431 339.583 340.26 339.992C333.219 341.319 323.163 345.675 315.249 354.468C307.22 363.388 301.6 376.655 303.308 395.275C303.51 397.475 305.457 399.094 307.657 398.892C309.857 398.691 311.477 396.744 311.275 394.545C309.763 378.066 314.709 367.024 321.195 359.818C327.796 352.485 336.205 348.895 341.743 347.852C343.913 347.442 345.341 345.351 344.932 343.181Z" fill="black"/>
<path fill-rule="evenodd" clip-rule="evenodd" d="M271.07 343.181C271.479 341.01 273.571 339.583 275.742 339.992C282.783 341.319 292.839 345.675 300.753 354.468C308.782 363.388 314.402 376.655 312.694 395.275C312.492 397.475 310.545 399.094 308.345 398.892C306.145 398.691 304.525 396.744 304.727 394.545C306.239 378.066 301.293 367.024 294.806 359.818C288.206 352.485 279.797 348.895 274.259 347.852C272.089 347.442 270.661 345.351 271.07 343.181Z" fill="black"/>
<path fill-rule="evenodd" clip-rule="evenodd" d="M207.927 288.208C208.86 289.21 209.216 290.619 208.871 291.943C207.863 295.804 206.292 301.283 204.883 304.943C204.528 305.865 204.152 306.755 203.766 307.508C203.478 308.07 202.878 309.204 201.896 309.986C201.372 310.403 200.019 311.284 198.19 310.868C196.388 310.458 195.543 309.107 195.245 308.52C194.671 307.39 194.556 306.041 194.506 305.152C194.422 303.632 193.394 302.203 190.864 300.929C188.371 299.675 185.276 299.064 183.225 298.922C181.215 298.784 179.623 297.173 179.507 295.163C179.391 293.152 180.788 291.37 182.768 291.001L204.268 287.002C205.614 286.752 206.995 287.207 207.927 288.208ZM198.206 296.265C198.511 296.531 198.809 296.811 199.095 297.106C199.204 296.753 199.312 296.397 199.419 296.04L198.206 296.265ZM196.461 304.189C196.461 304.189 196.465 304.182 196.475 304.168C196.465 304.183 196.461 304.19 196.461 304.189Z" fill="black"/>
<path fill-rule="evenodd" clip-rule="evenodd" d="M221.694 294.005C205.318 291.653 186.612 292.184 174.401 293.413C172.203 293.634 170.242 292.032 170.02 289.835C169.799 287.637 171.402 285.676 173.6 285.455C186.222 284.185 205.616 283.616 222.832 286.088C231.426 287.322 239.712 289.346 246.392 292.566C253.041 295.772 258.636 300.435 260.809 307.208C261.484 309.311 260.326 311.563 258.222 312.238C256.118 312.912 253.866 311.754 253.191 309.651C251.964 305.827 248.589 302.505 242.918 299.771C237.278 297.052 229.895 295.183 221.694 294.005Z" fill="#00A6A6"/>
<path fill-rule="evenodd" clip-rule="evenodd" d="M443.699 51.5877C442.5 52.4862 441.72 53.8348 441.539 55.3217C440.31 65.3971 437.755 80.5087 434.126 93.0926C432.301 99.4208 430.287 104.814 428.182 108.563C427.128 110.44 426.182 111.666 425.417 112.381C424.931 112.835 424.651 112.962 424.571 112.991C419.82 113.336 415.637 116.132 412.315 119.18C408.857 122.353 405.587 126.492 402.659 130.808C399.443 135.549 396.484 140.737 393.998 145.565C392.438 145.134 390.745 144.967 388.998 144.967C387.618 144.967 385.204 144.534 381.829 143.548C378.575 142.597 374.833 141.256 370.971 139.729C363.251 136.676 355.349 132.996 350.458 130.551C349.694 130.169 348.852 129.97 347.998 129.97H307.998C304.961 129.97 302.498 132.432 302.498 135.469C302.498 138.506 304.961 140.968 307.998 140.968H346.709C351.847 143.497 359.437 146.994 366.925 149.955C370.963 151.552 375.047 153.023 378.743 154.103C382.318 155.148 385.979 155.965 388.998 155.965C389.027 155.965 389.056 155.965 389.085 155.965C389.033 156.085 388.983 156.204 388.933 156.321C387.85 158.881 388.847 161.846 391.257 163.231C393.666 164.616 396.731 163.986 398.398 161.763C399.159 160.749 399.944 159.433 400.478 157.939C400.633 157.504 400.781 157.014 400.898 156.479C403.629 150.597 407.483 143.29 411.763 136.981C414.447 133.024 417.171 129.652 419.753 127.283C422.46 124.799 424.348 124.03 425.377 123.959C428.493 123.744 431.021 122.197 432.926 120.418C434.823 118.646 436.417 116.364 437.774 113.946C440.491 109.106 442.783 102.771 444.696 96.1394C447.822 85.2977 450.156 72.8721 451.602 63.0048C459.819 66.4229 468.87 74.9918 472.568 92.4088C477.196 114.198 473.389 149.935 447.993 205.673C447.395 206.987 447.337 208.484 447.832 209.84L454.633 228.448H452.998C451.092 228.448 449.322 229.435 448.32 231.056C447.318 232.677 447.227 234.701 448.079 236.406L453.599 247.444H452.998C451.209 247.444 449.531 248.314 448.501 249.778C447.471 251.241 447.217 253.114 447.821 254.798L452.427 267.643L449.643 266.117C447.711 265.058 445.334 265.253 443.602 266.614C441.869 267.974 441.115 270.236 441.686 272.363C442.447 275.196 442.847 279.405 441.926 282.815C441.486 284.446 440.802 285.681 439.921 286.556C439.085 287.386 437.805 288.164 435.65 288.5C432.721 288.958 430.682 291.653 431.039 294.595C433.685 316.419 436.283 349.978 435.5 379.669C435.109 394.538 433.873 408.201 431.462 418.86C430.257 424.189 428.798 428.58 427.114 431.929C425.41 435.317 423.669 437.256 422.107 438.222C420.485 439.224 419.499 440.994 419.499 442.899V578.368C419.499 581.405 421.961 583.867 424.999 583.867C428.036 583.867 430.499 581.405 430.499 578.368V445.633C433.156 443.288 435.256 440.223 436.942 436.868C439.166 432.446 440.871 427.123 442.191 421.286C444.832 409.613 446.097 395.133 446.497 379.958C447.244 351.598 444.986 319.99 442.497 297.88C444.479 297 446.208 295.814 447.673 294.358C450.247 291.803 451.732 288.695 452.546 285.681C452.99 284.035 453.252 282.356 453.374 280.705L459.854 284.258C461.858 285.356 464.332 285.102 466.07 283.618C467.808 282.135 468.447 279.731 467.676 277.581L460.813 258.441H462.499C464.405 258.441 466.175 257.454 467.177 255.833C468.179 254.212 468.27 252.188 467.418 250.483L461.898 239.446H462.499C464.294 239.446 465.977 238.569 467.006 237.098C468.035 235.627 468.281 233.746 467.665 232.06L458.935 208.175C483.925 152.666 488.603 114.961 483.328 90.1247C477.917 64.6418 461.987 52.8766 447.89 50.5613C446.412 50.3185 444.898 50.6891 443.699 51.5877ZM424.546 112.998C424.546 112.998 424.55 112.998 424.558 112.995C424.55 112.997 424.546 112.998 424.546 112.998Z" fill="black"/>
<path fill-rule="evenodd" clip-rule="evenodd" d="M172.299 51.5877C173.498 52.4862 174.278 53.8348 174.459 55.3217C175.688 65.3971 178.243 80.5087 181.872 93.0926C183.697 99.4208 185.711 104.814 187.816 108.563C188.87 110.44 189.816 111.666 190.581 112.381C191.067 112.835 191.347 112.962 191.427 112.991C196.178 113.336 200.361 116.132 203.683 119.18C207.141 122.353 210.411 126.492 213.339 130.808C216.556 135.549 219.514 140.737 222 145.565C223.561 145.134 225.253 144.967 227 144.967C228.38 144.967 230.794 144.534 234.169 143.548C237.423 142.597 241.165 141.256 245.027 139.729C252.747 136.676 260.649 132.996 265.54 130.551C266.304 130.169 267.146 129.97 268 129.97H308C311.037 129.97 313.5 132.432 313.5 135.469C313.5 138.506 311.037 140.968 308 140.968H269.289C264.151 143.497 256.561 146.994 249.073 149.955C245.035 151.552 240.951 153.023 237.255 154.103C233.68 155.148 230.019 155.965 227 155.965C226.971 155.965 226.942 155.965 226.913 155.965C226.965 156.085 227.015 156.204 227.065 156.321C228.148 158.881 227.151 161.846 224.742 163.231C222.332 164.616 219.267 163.986 217.6 161.763C216.839 160.749 216.054 159.433 215.52 157.939C215.365 157.504 215.217 157.014 215.1 156.479C212.369 150.597 208.516 143.29 204.235 136.981C201.551 133.024 198.827 129.652 196.245 127.283C193.538 124.799 191.65 124.03 190.621 123.959C187.505 123.744 184.977 122.197 183.072 120.418C181.175 118.646 179.581 116.364 178.224 113.946C175.507 109.106 173.215 102.771 171.302 96.1394C168.176 85.2977 165.842 72.8721 164.396 63.0048C156.179 66.4229 147.129 74.9918 143.43 92.4088C138.802 114.198 142.61 149.935 168.005 205.673C168.604 206.987 168.661 208.484 168.166 209.84L161.365 228.448H163C164.906 228.448 166.676 229.435 167.678 231.056C168.68 232.677 168.771 234.701 167.919 236.406L162.399 247.444H163C164.789 247.444 166.467 248.314 167.497 249.778C168.527 251.241 168.781 253.114 168.177 254.798L163.571 267.643L166.355 266.117C168.287 265.058 170.664 265.253 172.396 266.614C174.129 267.974 174.883 270.236 174.312 272.363C173.552 275.196 173.151 279.405 174.072 282.815C174.512 284.446 175.196 285.681 176.077 286.556C176.913 287.386 178.193 288.164 180.349 288.5C183.277 288.958 185.316 291.653 184.96 294.595C182.313 316.419 179.715 349.978 180.498 379.669C180.889 394.538 182.125 408.201 184.536 418.86C185.741 424.189 187.2 428.58 188.884 431.929C190.588 435.317 192.329 437.256 193.891 438.222C195.513 439.224 196.499 440.994 196.499 442.899V578.368C196.499 581.405 194.037 583.867 190.999 583.867C187.962 583.867 185.499 581.405 185.499 578.368V445.633C182.842 443.288 180.743 440.223 179.056 436.868C176.832 432.446 175.127 427.123 173.807 421.286C171.166 409.613 169.901 395.133 169.501 379.958C168.754 351.598 171.013 319.99 173.501 297.88C171.519 297 169.79 295.814 168.325 294.358C165.751 291.803 164.266 288.695 163.452 285.681C163.008 284.035 162.746 282.356 162.624 280.705L156.144 284.258C154.14 285.356 151.666 285.102 149.928 283.618C148.19 282.135 147.551 279.731 148.322 277.581L155.185 258.441H153.499C151.593 258.441 149.823 257.454 148.821 255.833C147.819 254.212 147.728 252.188 148.58 250.483L154.1 239.446H153.499C151.704 239.446 150.021 238.569 148.992 237.098C147.963 235.627 147.717 233.746 148.334 232.06L157.063 208.175C132.073 152.666 127.395 114.961 132.67 90.1247C138.081 64.6418 154.011 52.8766 168.108 50.5613C169.587 50.3185 171.1 50.6891 172.299 51.5877ZM191.452 112.998C191.452 112.998 191.448 112.998 191.44 112.995C191.448 112.997 191.452 112.998 191.452 112.998Z" fill="black"/>
<path fill-rule="evenodd" clip-rule="evenodd" d="M456.405 87.0549C453.409 86.5557 450.575 88.5793 450.076 91.5749C448.857 98.8852 446.439 110.179 443.183 120.198C441.552 125.218 439.764 129.747 437.895 133.247C435.904 136.974 434.278 138.647 433.382 139.132C426.742 142.728 422.978 149.819 420.832 155.981C419.78 159.001 419.019 162.079 418.49 164.937L396.528 153.58C393.83 152.185 390.511 153.24 389.116 155.938C387.72 158.635 388.776 161.953 391.474 163.348L420.474 178.345C422.142 179.207 424.133 179.159 425.758 178.219C427.382 177.278 428.414 175.574 428.496 173.699C428.644 170.302 429.418 164.77 431.22 159.597C433.09 154.228 435.66 150.405 438.621 148.802C442.525 146.688 445.423 142.5 447.598 138.428C449.894 134.13 451.913 128.924 453.644 123.596C457.114 112.92 459.645 101.069 460.926 93.3828C461.426 90.3873 459.402 87.5542 456.405 87.0549Z" fill="black"/>
<path fill-rule="evenodd" clip-rule="evenodd" d="M159.597 87.0549C162.593 86.5557 165.427 88.5793 165.926 91.5749C167.145 98.8852 169.563 110.179 172.819 120.198C174.45 125.218 176.237 129.747 178.107 133.247C180.098 136.974 181.724 138.647 182.62 139.132C189.26 142.728 193.024 149.819 195.17 155.981C196.222 159.001 196.983 162.079 197.512 164.937L219.474 153.58C222.172 152.185 225.491 153.24 226.886 155.938C228.282 158.635 227.226 161.953 224.528 163.348L195.528 178.345C193.86 179.207 191.868 179.159 190.244 178.219C188.62 177.278 187.588 175.574 187.506 173.699C187.358 170.302 186.584 164.77 184.782 159.597C182.911 154.228 180.342 150.405 177.381 148.802C173.477 146.688 170.579 142.5 168.404 138.428C166.108 134.13 164.089 128.924 162.357 123.596C158.888 112.92 156.357 101.069 155.076 93.3828C154.576 90.3873 156.6 87.5542 159.597 87.0549Z" fill="black"/>
<path fill-rule="evenodd" clip-rule="evenodd" d="M303.002 279.342C302.949 281.55 304.698 283.382 306.906 283.434C316.684 283.665 331.552 287.566 343.82 298.549C355.946 309.407 365.887 327.5 365.501 356.866C365.114 386.28 355.011 403.131 343.156 412.506C331.141 422.009 316.786 424.263 307.357 423.419C305.156 423.223 303.213 424.847 303.016 427.046C302.82 429.246 304.444 431.189 306.644 431.386C317.715 432.376 334.21 429.78 348.12 418.779C362.19 407.651 373.087 388.343 373.5 356.971C373.914 325.551 363.188 305.154 349.156 292.591C335.266 280.154 318.483 275.707 307.095 275.438C304.886 275.386 303.054 277.134 303.002 279.342Z" fill="black"/>
<path fill-rule="evenodd" clip-rule="evenodd" d="M312.998 279.342C313.051 281.55 311.302 283.382 309.094 283.434C299.316 283.665 284.448 287.566 272.18 298.549C260.054 309.407 250.113 327.5 250.499 356.866C250.886 386.28 260.989 403.131 272.844 412.506C284.859 422.009 299.214 424.263 308.643 423.419C310.844 423.223 312.787 424.847 312.984 427.046C313.18 429.246 311.556 431.189 309.356 431.386C298.285 432.376 281.79 429.78 267.88 418.779C253.81 407.651 242.913 388.343 242.5 356.971C242.086 325.551 252.812 305.154 266.844 292.591C280.734 280.154 297.517 275.707 308.905 275.438C311.114 275.386 312.946 277.134 312.998 279.342Z" fill="black"/>
<path d="M246 302.931C246 314.526 234.359 323.926 220 323.926C205.641 323.926 194 314.526 194 302.931C194 291.336 205.641 281.936 220 281.936C234.359 281.936 246 291.336 246 302.931Z" fill="black"/>
<path d="M218 300.932C218 305.349 214.418 308.93 210 308.93C205.582 308.93 202 305.349 202 300.932C202 296.514 205.582 292.933 210 292.933C214.418 292.933 218 296.514 218 300.932Z" fill="#FCFCFC"/>
<path d="M257 302.931C257 316.735 242.897 327.925 225.5 327.925C208.103 327.925 194 316.735 194 302.931C194 289.127 208.103 277.937 225.5 277.937C242.897 277.937 257 289.127 257 302.931Z" fill="black"/>
<path d="M221 297.432C221 302.678 216.747 306.93 211.5 306.93C206.253 306.93 202 302.678 202 297.432C202 292.187 206.253 287.935 211.5 287.935C216.747 287.935 221 292.187 221 297.432Z" fill="#FCFCFC"/>
<path d="M420.5 300.886C420.5 314.69 406.397 325.88 389 325.88C371.603 325.88 357.5 314.69 357.5 300.886C357.5 287.082 371.603 275.892 389 275.892C406.397 275.892 420.5 287.082 420.5 300.886Z" fill="black"/>
<path d="M383 296.933C383 301.902 378.971 305.93 374 305.93C369.029 305.93 365 301.902 365 296.933C365 291.963 369.029 287.935 374 287.935C378.971 287.935 383 291.963 383 296.933Z" fill="#FCFCFC"/>
<path d="M354.432 386.097C354.432 399.286 322.559 421.589 305.502 421.589C288.444 421.589 262.432 397.287 262.432 384.098C258.02 366.501 288.444 392.052 305.502 392.052C322.559 392.052 358.844 369.129 354.432 386.097Z" fill="#FCFCFC"/>
<path fill-rule="evenodd" clip-rule="evenodd" d="M349.585 384.87L349.432 385.458V386.097C349.432 387.598 348.388 390.317 345.328 394.026C342.422 397.55 338.257 401.288 333.454 404.723C328.667 408.148 323.399 411.161 318.382 413.3C313.287 415.473 308.809 416.59 305.502 416.59C302.335 416.59 298.322 415.43 293.861 413.139C289.461 410.88 284.958 407.69 280.904 404.064C276.846 400.434 273.369 396.484 270.947 392.783C268.434 388.943 267.432 385.947 267.432 384.098V383.48L267.417 383.418C267.601 383.476 267.798 383.541 268.006 383.612C269.634 384.168 271.582 384.995 273.841 386.025C275.209 386.648 276.702 387.353 278.271 388.094C281.677 389.702 285.441 391.48 289.061 392.961C294.326 395.116 300.197 397.051 305.502 397.051C310.644 397.051 316.785 395.371 322.525 393.484C325.471 392.516 328.468 391.438 331.348 390.393C331.654 390.282 331.959 390.171 332.263 390.061C334.836 389.127 337.297 388.234 339.623 387.446C342.228 386.563 344.545 385.853 346.521 385.393C347.816 385.092 348.826 384.932 349.585 384.87ZM350.957 384.891C350.964 384.893 350.967 384.894 350.967 384.894C350.967 384.894 350.964 384.893 350.957 384.891ZM262.432 384.098C262.432 397.287 288.444 421.589 305.502 421.589C322.559 421.589 354.432 399.286 354.432 386.097C357.131 375.717 344.601 380.265 330.559 385.362C321.646 388.596 312.125 392.052 305.502 392.052C298.357 392.052 288.868 387.57 280.575 383.653C269.069 378.218 259.868 373.871 262.432 384.098Z" fill="black"/>
</svg>
