<?xml version="1.0" encoding="UTF-8"?>
<!--Generator: Apple Native CoreSVG 326-->
<!DOCTYPE svg
PUBLIC "-//W3C//DTD SVG 1.1//EN"
       "http://www.w3.org/Graphics/SVG/1.1/DTD/svg11.dtd">
<svg version="1.1" xmlns="http://www.w3.org/2000/svg" xmlns:xlink="http://www.w3.org/1999/xlink" viewBox="0 0 379 472.25">
 <g>
  <rect height="472.25" opacity="0" width="379" x="0" y="0"/>
  <path d="M189.5 472.25C202.5 472.25 211.75 463.25 211.75 450.25L211.75 121L209.25 46.5L195 51.5L284.75 149.75L341.75 205.75C345.75 209.75 351.5 211.75 357.5 211.75C370 211.75 379 202.25 379 190C379 184 377 178.75 372.25 173.75L206.25 7.5C201.5 2.5 195.75 0 189.5 0C183.25 0 177.5 2.5 172.75 7.5L7 173.75C2.25 178.75 0 184 0 190C0 202.25 9 211.75 21.5 211.75C27.5 211.75 33.5 209.75 37.25 205.75L94.25 149.75L183.75 51.5L169.75 46.5L167.25 121L167.25 450.25C167.25 463.25 176.5 472.25 189.5 472.25Z" fill="black"/>
 </g>
</svg>
