<svg width="615" height="615" viewBox="0 0 615 615" fill="none" xmlns="http://www.w3.org/2000/svg">
<path d="M615 307.5C615 477.328 477.328 615 307.5 615C137.672 615 0 477.328 0 307.5C0 137.672 137.672 0 307.5 0C477.328 0 615 137.672 615 307.5Z" fill="#F49F0A"/>
<path d="M191.512 450.069V583.799C235.835 607.708 365.708 593.761 425.104 583.799V450.069C442.673 439.938 442.074 342.512 439.578 295.065L456.549 276.323L453.055 263.153L461.54 236.305L453.055 209.965C501.37 96.0925 468.528 61.2081 446.067 58L431.093 113.214C416.718 113.214 399.482 141.581 392.66 155.764L348.737 137.528H267.879L220.961 155.764C218.565 141.986 196.004 121.656 185.023 113.214L164.559 58C114.647 64.8891 143.762 162.18 164.559 209.965L157.072 236.305V255.554L164.559 278.856L179.034 302.157C169.052 395.362 183.193 439.601 191.512 450.069Z" fill="#FFEBC8"/>
<path fill-rule="evenodd" clip-rule="evenodd" d="M271.07 343.259C271.479 341.088 273.571 339.66 275.742 340.069C282.783 341.397 292.839 345.754 300.753 354.549C308.782 363.471 314.402 376.741 312.694 395.365C312.492 397.565 310.545 399.185 308.345 398.983C306.145 398.781 304.525 396.835 304.727 394.635C306.239 378.152 301.293 367.108 294.806 359.9C288.206 352.565 279.797 348.975 274.259 347.931C272.089 347.521 270.661 345.43 271.07 343.259Z" fill="black"/>
<path fill-rule="evenodd" clip-rule="evenodd" d="M207.927 288.274C208.86 289.276 209.216 290.685 208.871 292.01C207.863 295.872 206.292 301.351 204.883 305.012C204.528 305.934 204.152 306.825 203.766 307.579C203.478 308.14 202.878 309.274 201.896 310.056C201.372 310.474 200.019 311.355 198.19 310.939C196.388 310.529 195.543 309.177 195.245 308.59C194.671 307.46 194.556 306.111 194.506 305.222C194.422 303.701 193.394 302.272 190.864 300.998C188.371 299.743 185.276 299.132 183.225 298.991C181.215 298.852 179.623 297.241 179.507 295.23C179.391 293.219 180.788 291.436 182.768 291.068L204.268 287.068C205.614 286.817 206.995 287.272 207.927 288.274ZM198.206 296.333C198.511 296.599 198.809 296.879 199.095 297.174C199.204 296.821 199.312 296.465 199.419 296.107L198.206 296.333ZM196.461 304.259C196.461 304.258 196.465 304.251 196.475 304.238C196.465 304.252 196.461 304.259 196.461 304.259Z" fill="black"/>
<path fill-rule="evenodd" clip-rule="evenodd" d="M221.694 294.072C205.318 291.72 186.612 292.25 174.401 293.48C172.203 293.701 170.242 292.099 170.02 289.901C169.799 287.703 171.402 285.741 173.6 285.52C186.222 284.249 205.616 283.68 222.832 286.153C231.426 287.388 239.712 289.412 246.392 292.633C253.041 295.839 258.636 300.504 260.809 307.278C261.484 309.382 260.326 311.634 258.222 312.309C256.118 312.984 253.866 311.825 253.191 309.722C251.964 305.896 248.589 302.573 242.918 299.839C237.278 297.119 229.895 295.25 221.694 294.072Z" fill="black"/>
<path fill-rule="evenodd" clip-rule="evenodd" d="M159.597 87.0747C162.593 86.5753 165.427 88.5995 165.926 91.5957C167.145 98.9077 169.563 110.204 172.819 120.225C174.45 125.246 176.237 129.777 178.107 133.278C180.098 137.005 181.724 138.678 182.62 139.164C189.26 142.76 193.024 149.853 195.17 156.016C196.222 159.037 196.983 162.116 197.512 164.974L219.474 153.615C222.172 152.219 225.491 153.275 226.886 155.973C228.282 158.671 227.226 161.99 224.528 163.385L195.528 178.385C193.86 179.247 191.868 179.2 190.244 178.259C188.62 177.318 187.588 175.614 187.506 173.739C187.358 170.34 186.584 164.808 184.782 159.634C182.911 154.263 180.342 150.44 177.381 148.836C173.477 146.721 170.579 142.532 168.404 138.46C166.108 134.16 164.089 128.953 162.357 123.624C158.888 112.946 156.357 101.092 155.076 93.4041C154.576 90.4078 156.6 87.5741 159.597 87.0747Z" fill="black"/>
<path fill-rule="evenodd" clip-rule="evenodd" d="M312.998 279.406C313.051 281.614 311.302 283.447 309.094 283.499C299.316 283.73 284.448 287.632 272.18 298.617C260.054 309.477 250.113 327.575 250.499 356.947C250.886 386.368 260.989 403.223 272.844 412.6C284.859 422.106 299.214 424.359 308.643 423.516C310.844 423.319 312.787 424.943 312.984 427.144C313.18 429.344 311.556 431.287 309.356 431.484C298.285 432.474 281.79 429.878 267.88 418.875C253.81 407.744 242.913 388.432 242.5 357.053C242.086 325.625 252.812 305.223 266.844 292.658C280.734 280.218 297.517 275.77 308.905 275.501C311.114 275.449 312.946 277.197 312.998 279.406Z" fill="black"/>
<path d="M231 303C231 311.284 222.717 318 212.5 318C202.283 318 194 311.284 194 303C194 294.716 202.283 288 212.5 288C222.717 288 231 294.716 231 303Z" fill="black"/>
<path d="M209 301.5C209 303.433 207.433 305 205.5 305C203.567 305 202 303.433 202 301.5C202 299.567 203.567 298 205.5 298C207.433 298 209 299.567 209 301.5Z" fill="#FCFCFC"/>
<path fill-rule="evenodd" clip-rule="evenodd" d="M408.073 288.274C407.14 289.276 406.784 290.685 407.129 292.01C408.137 295.872 409.708 301.351 411.117 305.012C411.472 305.934 411.848 306.825 412.234 307.579C412.522 308.14 413.122 309.274 414.104 310.056C414.628 310.474 415.981 311.355 417.81 310.939C419.612 310.529 420.457 309.177 420.755 308.59C421.329 307.46 421.444 306.111 421.494 305.222C421.578 303.701 422.606 302.272 425.136 300.998C427.629 299.743 430.724 299.132 432.775 298.991C434.785 298.852 436.377 297.241 436.493 295.23C436.609 293.219 435.212 291.436 433.232 291.068L411.732 287.068C410.386 286.817 409.005 287.272 408.073 288.274ZM417.794 296.333C417.489 296.599 417.191 296.879 416.905 297.174C416.796 296.821 416.688 296.465 416.581 296.107L417.794 296.333ZM419.539 304.259C419.539 304.258 419.535 304.251 419.525 304.238C419.535 304.252 419.539 304.259 419.539 304.259Z" fill="black"/>
<path fill-rule="evenodd" clip-rule="evenodd" d="M394.306 294.072C410.682 291.72 429.388 292.25 441.599 293.48C443.797 293.701 445.758 292.099 445.98 289.901C446.201 287.703 444.598 285.741 442.4 285.52C429.778 284.249 410.384 283.68 393.168 286.153C384.574 287.388 376.288 289.412 369.608 292.633C362.959 295.839 357.364 300.504 355.191 307.278C354.516 309.382 355.674 311.634 357.778 312.309C359.882 312.984 362.134 311.825 362.809 309.722C364.036 305.896 367.411 302.573 373.082 299.839C378.722 297.119 386.105 295.25 394.306 294.072Z" fill="#00A6A6"/>
<path fill-rule="evenodd" clip-rule="evenodd" d="M172.299 51.5994C173.498 52.4981 174.278 53.847 174.459 55.3342C175.688 65.412 178.243 80.527 181.872 93.1138C183.697 99.4434 185.711 104.838 187.816 108.588C188.87 110.465 189.816 111.692 190.581 112.406C191.067 112.86 191.347 112.988 191.427 113.017C196.178 113.361 200.361 116.159 203.683 119.207C207.141 122.381 210.411 126.521 213.339 130.838C216.556 135.58 219.514 140.769 222 145.598C223.561 145.167 225.253 145 227 145C228.38 145 230.794 144.567 234.169 143.58C237.423 142.629 241.165 141.288 245.027 139.761C252.747 136.707 260.649 133.026 265.54 130.581C266.304 130.199 267.146 130 268 130H308C311.037 130 313.5 132.462 313.5 135.5C313.5 138.538 311.037 141 308 141H269.289C264.151 143.53 256.561 147.027 249.073 149.989C245.035 151.587 240.951 153.058 237.255 154.139C233.68 155.183 230.019 156 227 156C226.971 156 226.942 156 226.913 156C226.965 156.12 227.015 156.239 227.065 156.357C228.148 158.917 227.151 161.882 224.742 163.268C222.332 164.653 219.267 164.024 217.6 161.8C216.839 160.786 216.054 159.47 215.52 157.975C215.365 157.54 215.217 157.05 215.1 156.515C212.369 150.632 208.516 143.323 204.235 137.012C201.551 133.055 198.827 129.682 196.245 127.312C193.538 124.827 191.65 124.058 190.621 123.987C187.505 123.772 184.977 122.224 183.072 120.445C181.175 118.673 179.581 116.39 178.224 113.972C175.507 109.131 173.215 102.794 171.302 96.1613C168.176 85.3171 165.842 72.8887 164.396 63.0191C156.179 66.438 147.129 75.0088 143.43 92.4298C138.802 114.224 142.61 149.969 168.005 205.72C168.604 207.034 168.661 208.531 168.166 209.888L161.365 228.5H163C164.906 228.5 166.676 229.487 167.678 231.109C168.68 232.73 168.771 234.755 167.919 236.46L162.399 247.5H163C164.789 247.5 166.467 248.371 167.497 249.834C168.527 251.298 168.781 253.171 168.177 254.856L163.571 267.704L166.355 266.178C168.287 265.118 170.664 265.314 172.396 266.674C174.129 268.035 174.883 270.298 174.312 272.425C173.552 275.259 173.151 279.469 174.072 282.879C174.512 284.511 175.196 285.746 176.077 286.621C176.913 287.451 178.193 288.229 180.349 288.566C183.277 289.024 185.316 291.719 184.96 294.662C182.313 316.491 179.715 350.057 180.498 379.755C180.889 394.628 182.125 408.294 184.536 418.955C185.741 424.286 187.2 428.678 188.884 432.027C190.588 435.416 192.329 437.356 193.891 438.322C195.513 439.324 196.499 441.094 196.499 443V578.5C196.499 581.538 194.037 584 190.999 584C187.962 584 185.499 581.538 185.499 578.5V445.735C182.842 443.389 180.743 440.323 179.056 436.968C176.832 432.544 175.127 427.22 173.807 421.382C171.166 409.706 169.901 395.223 169.501 380.045C168.754 351.678 171.013 320.063 173.501 297.947C171.519 297.068 169.79 295.881 168.325 294.425C165.751 291.869 164.266 288.76 163.452 285.746C163.008 284.099 162.746 282.421 162.624 280.769L156.144 284.323C154.14 285.421 151.666 285.167 149.928 283.683C148.19 282.199 147.551 279.795 148.322 277.644L155.185 258.5H153.499C151.593 258.5 149.823 257.513 148.821 255.892C147.819 254.27 147.728 252.245 148.58 250.54L154.1 239.5H153.499C151.704 239.5 150.021 238.623 148.992 237.152C147.963 235.68 147.717 233.799 148.334 232.112L157.063 208.222C132.073 152.701 127.395 114.987 132.67 90.1452C138.081 64.6565 154.011 52.8886 168.108 50.5728C169.587 50.3299 171.1 50.7007 172.299 51.5994ZM191.452 113.024C191.452 113.024 191.448 113.023 191.44 113.021C191.448 113.023 191.452 113.024 191.452 113.024Z" fill="black"/>
<path fill-rule="evenodd" clip-rule="evenodd" d="M344.932 343.259C344.523 341.088 342.431 339.66 340.26 340.069C333.219 341.397 323.163 345.754 315.249 354.549C307.22 363.471 301.6 376.741 303.308 395.365C303.51 397.565 305.457 399.185 307.657 398.983C309.857 398.781 311.477 396.835 311.275 394.635C309.763 378.152 314.709 367.108 321.195 359.9C327.796 352.565 336.205 348.975 341.743 347.931C343.913 347.521 345.341 345.43 344.932 343.259Z" fill="black"/>
<path fill-rule="evenodd" clip-rule="evenodd" d="M271.07 343.259C271.479 341.088 273.571 339.66 275.742 340.069C282.783 341.397 292.839 345.754 300.753 354.549C308.782 363.471 314.402 376.741 312.694 395.365C312.492 397.565 310.545 399.185 308.345 398.983C306.145 398.781 304.525 396.835 304.727 394.635C306.239 378.152 301.293 367.108 294.806 359.9C288.206 352.565 279.797 348.975 274.259 347.931C272.089 347.521 270.661 345.43 271.07 343.259Z" fill="black"/>
<path fill-rule="evenodd" clip-rule="evenodd" d="M207.927 288.274C208.86 289.276 209.216 290.685 208.871 292.01C207.863 295.872 206.292 301.351 204.883 305.012C204.528 305.934 204.152 306.825 203.766 307.579C203.478 308.14 202.878 309.274 201.896 310.056C201.372 310.474 200.019 311.355 198.19 310.939C196.388 310.529 195.543 309.177 195.245 308.59C194.671 307.46 194.556 306.111 194.506 305.222C194.422 303.701 193.394 302.272 190.864 300.998C188.371 299.743 185.276 299.132 183.225 298.991C181.215 298.852 179.623 297.241 179.507 295.23C179.391 293.219 180.788 291.436 182.768 291.068L204.268 287.068C205.614 286.817 206.995 287.272 207.927 288.274ZM198.206 296.333C198.511 296.599 198.809 296.879 199.095 297.174C199.204 296.821 199.312 296.465 199.419 296.107L198.206 296.333ZM196.461 304.259C196.461 304.258 196.465 304.251 196.475 304.238C196.465 304.252 196.461 304.259 196.461 304.259Z" fill="black"/>
<path fill-rule="evenodd" clip-rule="evenodd" d="M221.694 294.072C205.318 291.72 186.612 292.25 174.401 293.48C172.203 293.701 170.242 292.099 170.02 289.901C169.799 287.703 171.402 285.741 173.6 285.52C186.222 284.249 205.616 283.68 222.832 286.153C231.426 287.388 239.712 289.412 246.392 292.633C253.041 295.839 258.636 300.504 260.809 307.278C261.484 309.382 260.326 311.634 258.222 312.309C256.118 312.984 253.866 311.825 253.191 309.722C251.964 305.896 248.589 302.573 242.918 299.839C237.278 297.119 229.895 295.25 221.694 294.072Z" fill="#00A6A6"/>
<path fill-rule="evenodd" clip-rule="evenodd" d="M443.699 51.5994C442.5 52.4981 441.72 53.847 441.539 55.3342C440.31 65.412 437.755 80.527 434.126 93.1138C432.301 99.4434 430.287 104.838 428.182 108.588C427.128 110.465 426.182 111.692 425.417 112.406C424.931 112.86 424.651 112.988 424.571 113.017C419.82 113.361 415.637 116.159 412.315 119.207C408.857 122.381 405.587 126.521 402.659 130.838C399.443 135.58 396.484 140.769 393.998 145.598C392.438 145.167 390.745 145 388.998 145C387.618 145 385.204 144.567 381.829 143.58C378.575 142.629 374.833 141.288 370.971 139.761C363.251 136.707 355.349 133.026 350.458 130.581C349.694 130.199 348.852 130 347.998 130H307.998C304.961 130 302.498 132.462 302.498 135.5C302.498 138.538 304.961 141 307.998 141H346.709C351.847 143.53 359.437 147.027 366.925 149.989C370.963 151.587 375.047 153.058 378.743 154.139C382.318 155.183 385.979 156 388.998 156C389.027 156 389.056 156 389.085 156C389.033 156.12 388.983 156.239 388.933 156.357C387.85 158.917 388.847 161.882 391.257 163.268C393.666 164.653 396.731 164.024 398.398 161.8C399.159 160.786 399.944 159.47 400.478 157.975C400.633 157.54 400.781 157.05 400.898 156.515C403.629 150.632 407.483 143.323 411.763 137.012C414.447 133.055 417.171 129.682 419.753 127.312C422.46 124.827 424.348 124.058 425.377 123.987C428.493 123.772 431.021 122.224 432.926 120.445C434.823 118.673 436.417 116.39 437.774 113.972C440.491 109.131 442.783 102.794 444.696 96.1613C447.822 85.3171 450.156 72.8887 451.602 63.0191C459.819 66.438 468.87 75.0088 472.568 92.4298C477.196 114.224 473.389 149.969 447.993 205.72C447.395 207.034 447.337 208.531 447.832 209.888L454.633 228.5H452.998C451.092 228.5 449.322 229.487 448.32 231.109C447.318 232.73 447.227 234.755 448.079 236.46L453.599 247.5H452.998C451.209 247.5 449.531 248.371 448.501 249.834C447.471 251.298 447.217 253.171 447.821 254.856L452.427 267.704L449.643 266.178C447.711 265.118 445.334 265.314 443.602 266.674C441.869 268.035 441.115 270.298 441.686 272.425C442.447 275.259 442.847 279.469 441.926 282.879C441.486 284.511 440.802 285.746 439.921 286.621C439.085 287.451 437.805 288.229 435.65 288.566C432.721 289.024 430.682 291.719 431.039 294.662C433.685 316.491 436.283 350.057 435.5 379.755C435.109 394.628 433.873 408.294 431.462 418.955C430.257 424.286 428.798 428.678 427.114 432.027C425.41 435.416 423.669 437.356 422.107 438.322C420.485 439.324 419.499 441.094 419.499 443V578.5C419.499 581.538 421.961 584 424.999 584C428.036 584 430.499 581.538 430.499 578.5V445.735C433.156 443.389 435.256 440.323 436.942 436.968C439.166 432.544 440.871 427.22 442.191 421.382C444.832 409.706 446.097 395.223 446.497 380.045C447.244 351.678 444.986 320.063 442.497 297.947C444.479 297.068 446.208 295.881 447.673 294.425C450.247 291.869 451.732 288.76 452.546 285.746C452.99 284.099 453.252 282.421 453.374 280.769L459.854 284.323C461.858 285.421 464.332 285.167 466.07 283.683C467.808 282.199 468.447 279.795 467.676 277.644L460.813 258.5H462.499C464.405 258.5 466.175 257.513 467.177 255.892C468.179 254.27 468.27 252.245 467.418 250.54L461.898 239.5H462.499C464.294 239.5 465.977 238.623 467.006 237.152C468.035 235.68 468.281 233.799 467.665 232.112L458.935 208.222C483.925 152.701 488.603 114.987 483.328 90.1452C477.917 64.6565 461.987 52.8886 447.89 50.5728C446.412 50.3299 444.898 50.7007 443.699 51.5994ZM424.546 113.024C424.546 113.024 424.55 113.023 424.558 113.021C424.55 113.023 424.546 113.024 424.546 113.024Z" fill="black"/>
<path fill-rule="evenodd" clip-rule="evenodd" d="M172.299 51.5994C173.498 52.4981 174.278 53.847 174.459 55.3342C175.688 65.412 178.243 80.527 181.872 93.1138C183.697 99.4434 185.711 104.838 187.816 108.588C188.87 110.465 189.816 111.692 190.581 112.406C191.067 112.86 191.347 112.988 191.427 113.017C196.178 113.361 200.361 116.159 203.683 119.207C207.141 122.381 210.411 126.521 213.339 130.838C216.556 135.58 219.514 140.769 222 145.598C223.561 145.167 225.253 145 227 145C228.38 145 230.794 144.567 234.169 143.58C237.423 142.629 241.165 141.288 245.027 139.761C252.747 136.707 260.649 133.026 265.54 130.581C266.304 130.199 267.146 130 268 130H308C311.037 130 313.5 132.462 313.5 135.5C313.5 138.538 311.037 141 308 141H269.289C264.151 143.53 256.561 147.027 249.073 149.989C245.035 151.587 240.951 153.058 237.255 154.139C233.68 155.183 230.019 156 227 156C226.971 156 226.942 156 226.913 156C226.965 156.12 227.015 156.239 227.065 156.357C228.148 158.917 227.151 161.882 224.742 163.268C222.332 164.653 219.267 164.024 217.6 161.8C216.839 160.786 216.054 159.47 215.52 157.975C215.365 157.54 215.217 157.05 215.1 156.515C212.369 150.632 208.516 143.323 204.235 137.012C201.551 133.055 198.827 129.682 196.245 127.312C193.538 124.827 191.65 124.058 190.621 123.987C187.505 123.772 184.977 122.224 183.072 120.445C181.175 118.673 179.581 116.39 178.224 113.972C175.507 109.131 173.215 102.794 171.302 96.1613C168.176 85.3171 165.842 72.8887 164.396 63.0191C156.179 66.438 147.129 75.0088 143.43 92.4298C138.802 114.224 142.61 149.969 168.005 205.72C168.604 207.034 168.661 208.531 168.166 209.888L161.365 228.5H163C164.906 228.5 166.676 229.487 167.678 231.109C168.68 232.73 168.771 234.755 167.919 236.46L162.399 247.5H163C164.789 247.5 166.467 248.371 167.497 249.834C168.527 251.298 168.781 253.171 168.177 254.856L163.571 267.704L166.355 266.178C168.287 265.118 170.664 265.314 172.396 266.674C174.129 268.035 174.883 270.298 174.312 272.425C173.552 275.259 173.151 279.469 174.072 282.879C174.512 284.511 175.196 285.746 176.077 286.621C176.913 287.451 178.193 288.229 180.349 288.566C183.277 289.024 185.316 291.719 184.96 294.662C182.313 316.491 179.715 350.057 180.498 379.755C180.889 394.628 182.125 408.294 184.536 418.955C185.741 424.286 187.2 428.678 188.884 432.027C190.588 435.416 192.329 437.356 193.891 438.322C195.513 439.324 196.499 441.094 196.499 443V578.5C196.499 581.538 194.037 584 190.999 584C187.962 584 185.499 581.538 185.499 578.5V445.735C182.842 443.389 180.743 440.323 179.056 436.968C176.832 432.544 175.127 427.22 173.807 421.382C171.166 409.706 169.901 395.223 169.501 380.045C168.754 351.678 171.013 320.063 173.501 297.947C171.519 297.068 169.79 295.881 168.325 294.425C165.751 291.869 164.266 288.76 163.452 285.746C163.008 284.099 162.746 282.421 162.624 280.769L156.144 284.323C154.14 285.421 151.666 285.167 149.928 283.683C148.19 282.199 147.551 279.795 148.322 277.644L155.185 258.5H153.499C151.593 258.5 149.823 257.513 148.821 255.892C147.819 254.27 147.728 252.245 148.58 250.54L154.1 239.5H153.499C151.704 239.5 150.021 238.623 148.992 237.152C147.963 235.68 147.717 233.799 148.334 232.112L157.063 208.222C132.073 152.701 127.395 114.987 132.67 90.1452C138.081 64.6565 154.011 52.8886 168.108 50.5728C169.587 50.3299 171.1 50.7007 172.299 51.5994ZM191.452 113.024C191.452 113.024 191.448 113.023 191.44 113.021C191.448 113.023 191.452 113.024 191.452 113.024Z" fill="black"/>
<path fill-rule="evenodd" clip-rule="evenodd" d="M456.405 87.0747C453.409 86.5753 450.575 88.5995 450.076 91.5957C448.857 98.9077 446.439 110.204 443.183 120.225C441.552 125.246 439.764 129.777 437.895 133.278C435.904 137.005 434.278 138.678 433.382 139.164C426.742 142.76 422.978 149.853 420.832 156.016C419.78 159.037 419.019 162.116 418.49 164.974L396.528 153.615C393.83 152.219 390.511 153.275 389.116 155.973C387.72 158.671 388.776 161.99 391.474 163.385L420.474 178.385C422.142 179.247 424.133 179.2 425.758 178.259C427.382 177.318 428.414 175.614 428.496 173.739C428.644 170.34 429.418 164.808 431.22 159.634C433.09 154.263 435.66 150.44 438.621 148.836C442.525 146.721 445.423 142.532 447.598 138.46C449.894 134.16 451.913 128.953 453.644 123.624C457.114 112.946 459.645 101.092 460.926 93.4041C461.426 90.4078 459.402 87.5741 456.405 87.0747Z" fill="black"/>
<path fill-rule="evenodd" clip-rule="evenodd" d="M159.597 87.0747C162.593 86.5753 165.427 88.5995 165.926 91.5957C167.145 98.9077 169.563 110.204 172.819 120.225C174.45 125.246 176.237 129.777 178.107 133.278C180.098 137.005 181.724 138.678 182.62 139.164C189.26 142.76 193.024 149.853 195.17 156.016C196.222 159.037 196.983 162.116 197.512 164.974L219.474 153.615C222.172 152.219 225.491 153.275 226.886 155.973C228.282 158.671 227.226 161.99 224.528 163.385L195.528 178.385C193.86 179.247 191.868 179.2 190.244 178.259C188.62 177.318 187.588 175.614 187.506 173.739C187.358 170.34 186.584 164.808 184.782 159.634C182.911 154.263 180.342 150.44 177.381 148.836C173.477 146.721 170.579 142.532 168.404 138.46C166.108 134.16 164.089 128.953 162.357 123.624C158.888 112.946 156.357 101.092 155.076 93.4041C154.576 90.4078 156.6 87.5741 159.597 87.0747Z" fill="black"/>
<path fill-rule="evenodd" clip-rule="evenodd" d="M303.002 279.406C302.949 281.614 304.698 283.447 306.906 283.499C316.684 283.73 331.552 287.632 343.82 298.617C355.946 309.477 365.887 327.575 365.501 356.947C365.114 386.368 355.011 403.223 343.156 412.6C331.141 422.106 316.786 424.359 307.357 423.516C305.156 423.319 303.213 424.943 303.016 427.144C302.82 429.344 304.444 431.287 306.644 431.484C317.715 432.474 334.21 429.878 348.12 418.875C362.19 407.744 373.087 388.432 373.5 357.053C373.914 325.625 363.188 305.223 349.156 292.658C335.266 280.218 318.483 275.77 307.095 275.501C304.886 275.449 303.054 277.197 303.002 279.406Z" fill="black"/>
<path fill-rule="evenodd" clip-rule="evenodd" d="M312.998 279.406C313.051 281.614 311.302 283.447 309.094 283.499C299.316 283.73 284.448 287.632 272.18 298.617C260.054 309.477 250.113 327.575 250.499 356.947C250.886 386.368 260.989 403.223 272.844 412.6C284.859 422.106 299.214 424.359 308.643 423.516C310.844 423.319 312.787 424.943 312.984 427.144C313.18 429.344 311.556 431.287 309.356 431.484C298.285 432.474 281.79 429.878 267.88 418.875C253.81 407.744 242.913 388.432 242.5 357.053C242.086 325.625 252.812 305.223 266.844 292.658C280.734 280.218 297.517 275.77 308.905 275.501C311.114 275.449 312.946 277.197 312.998 279.406Z" fill="black"/>
<path d="M246 303C246 314.598 234.359 324 220 324C205.641 324 194 314.598 194 303C194 291.402 205.641 282 220 282C234.359 282 246 291.402 246 303Z" fill="black"/>
<path d="M218 301C218 305.418 214.418 309 210 309C205.582 309 202 305.418 202 301C202 296.582 205.582 293 210 293C214.418 293 218 296.582 218 301Z" fill="#FCFCFC"/>
<path d="M257 303C257 316.807 242.897 328 225.5 328C208.103 328 194 316.807 194 303C194 289.193 208.103 278 225.5 278C242.897 278 257 289.193 257 303Z" fill="black"/>
<path d="M221 297.5C221 302.747 216.747 307 211.5 307C206.253 307 202 302.747 202 297.5C202 292.253 206.253 288 211.5 288C216.747 288 221 292.253 221 297.5Z" fill="#FCFCFC"/>
<path d="M420.5 300.954C420.5 314.761 406.397 325.954 389 325.954C371.603 325.954 357.5 314.761 357.5 300.954C357.5 287.147 371.603 275.954 389 275.954C406.397 275.954 420.5 287.147 420.5 300.954Z" fill="black"/>
<path d="M383 297C383 301.971 378.971 306 374 306C369.029 306 365 301.971 365 297C365 292.029 369.029 288 374 288C378.971 288 383 292.029 383 297Z" fill="#FCFCFC"/>
<path d="M615 307.5C615 477.328 477.328 615 307.5 615C137.672 615 0 477.328 0 307.5C0 137.672 137.672 0 307.5 0C477.328 0 615 137.672 615 307.5Z" fill="#F49F0A"/>
<path d="M191.512 450.069V589.5C220.5 614.5 356.396 631 429.5 589.5L425.104 450.069C442.673 439.938 442.074 342.512 439.578 295.065L456.549 276.323L453.055 263.153L461.54 236.305L453.055 209.965C501.37 96.0925 468.528 61.2081 446.067 58L431.093 113.214C416.718 113.214 399.482 141.581 392.66 155.764L348.737 137.528H267.879L220.961 155.764C218.565 141.986 196.004 121.656 185.023 113.214L164.559 58C114.647 64.8891 143.762 162.18 164.559 209.965L157.072 236.305V255.554L164.559 278.856L179.034 302.157C169.052 395.362 183.193 439.601 191.512 450.069Z" fill="#FFEBC8"/>
<path fill-rule="evenodd" clip-rule="evenodd" d="M271.07 343.259C271.479 341.088 273.571 339.66 275.742 340.069C282.783 341.397 292.839 345.754 300.753 354.549C308.782 363.471 314.402 376.741 312.694 395.365C312.492 397.565 310.545 399.185 308.345 398.983C306.145 398.781 304.525 396.835 304.727 394.635C306.239 378.152 301.293 367.108 294.806 359.9C288.206 352.565 279.797 348.975 274.259 347.931C272.089 347.521 270.661 345.43 271.07 343.259Z" fill="black"/>
<path fill-rule="evenodd" clip-rule="evenodd" d="M207.927 288.274C208.86 289.276 209.216 290.685 208.871 292.01C207.863 295.872 206.292 301.351 204.883 305.012C204.528 305.934 204.152 306.825 203.766 307.579C203.478 308.14 202.878 309.274 201.896 310.056C201.372 310.474 200.019 311.355 198.19 310.939C196.388 310.529 195.543 309.177 195.245 308.59C194.671 307.46 194.556 306.111 194.506 305.222C194.422 303.701 193.394 302.272 190.864 300.998C188.371 299.743 185.276 299.132 183.225 298.991C181.215 298.852 179.623 297.241 179.507 295.23C179.391 293.219 180.788 291.436 182.768 291.068L204.268 287.068C205.614 286.817 206.995 287.272 207.927 288.274ZM198.206 296.333C198.511 296.599 198.809 296.879 199.095 297.174C199.204 296.821 199.312 296.465 199.419 296.107L198.206 296.333ZM196.461 304.259C196.461 304.258 196.465 304.251 196.475 304.238C196.465 304.252 196.461 304.259 196.461 304.259Z" fill="black"/>
<path fill-rule="evenodd" clip-rule="evenodd" d="M221.694 294.072C205.318 291.72 186.612 292.25 174.401 293.48C172.203 293.701 170.242 292.099 170.02 289.901C169.799 287.703 171.402 285.741 173.6 285.52C186.222 284.249 205.616 283.68 222.832 286.153C231.426 287.388 239.712 289.412 246.392 292.633C253.041 295.839 258.636 300.504 260.809 307.278C261.484 309.382 260.326 311.634 258.222 312.309C256.118 312.984 253.866 311.825 253.191 309.722C251.964 305.896 248.589 302.573 242.918 299.839C237.278 297.119 229.895 295.25 221.694 294.072Z" fill="black"/>
<path fill-rule="evenodd" clip-rule="evenodd" d="M159.597 87.0747C162.593 86.5753 165.427 88.5995 165.926 91.5957C167.145 98.9077 169.563 110.204 172.819 120.225C174.45 125.246 176.237 129.777 178.107 133.278C180.098 137.005 181.724 138.678 182.62 139.164C189.26 142.76 193.024 149.853 195.17 156.016C196.222 159.037 196.983 162.116 197.512 164.974L219.474 153.615C222.172 152.219 225.491 153.275 226.886 155.973C228.282 158.671 227.226 161.99 224.528 163.385L195.528 178.385C193.86 179.247 191.868 179.2 190.244 178.259C188.62 177.318 187.588 175.614 187.506 173.739C187.358 170.34 186.584 164.808 184.782 159.634C182.911 154.263 180.342 150.44 177.381 148.836C173.477 146.721 170.579 142.532 168.404 138.46C166.108 134.16 164.089 128.953 162.357 123.624C158.888 112.946 156.357 101.092 155.076 93.4041C154.576 90.4078 156.6 87.5741 159.597 87.0747Z" fill="black"/>
<path fill-rule="evenodd" clip-rule="evenodd" d="M312.998 279.406C313.051 281.614 311.302 283.447 309.094 283.499C299.316 283.73 284.448 287.632 272.18 298.617C260.054 309.477 250.113 327.575 250.499 356.947C250.886 386.368 260.989 403.223 272.844 412.6C284.859 422.106 299.214 424.359 308.643 423.516C310.844 423.319 312.787 424.943 312.984 427.144C313.18 429.344 311.556 431.287 309.356 431.484C298.285 432.474 281.79 429.878 267.88 418.875C253.81 407.744 242.913 388.432 242.5 357.053C242.086 325.625 252.812 305.223 266.844 292.658C280.734 280.218 297.517 275.77 308.905 275.501C311.114 275.449 312.946 277.197 312.998 279.406Z" fill="black"/>
<path fill-rule="evenodd" clip-rule="evenodd" d="M408.073 288.274C407.14 289.276 406.784 290.685 407.129 292.01C408.137 295.872 409.708 301.351 411.117 305.012C411.472 305.934 411.848 306.825 412.234 307.579C412.522 308.14 413.122 309.274 414.104 310.056C414.628 310.474 415.981 311.355 417.81 310.939C419.612 310.529 420.457 309.177 420.755 308.59C421.329 307.46 421.444 306.111 421.494 305.222C421.578 303.701 422.606 302.272 425.136 300.998C427.629 299.743 430.724 299.132 432.775 298.991C434.785 298.852 436.377 297.241 436.493 295.23C436.609 293.219 435.212 291.436 433.232 291.068L411.732 287.068C410.386 286.817 409.005 287.272 408.073 288.274ZM417.794 296.333C417.489 296.599 417.191 296.879 416.905 297.174C416.796 296.821 416.688 296.465 416.581 296.107L417.794 296.333ZM419.539 304.259C419.539 304.258 419.535 304.251 419.525 304.238C419.535 304.252 419.539 304.259 419.539 304.259Z" fill="black"/>
<path fill-rule="evenodd" clip-rule="evenodd" d="M394.306 294.072C410.682 291.72 429.388 292.25 441.599 293.48C443.797 293.701 445.758 292.099 445.98 289.901C446.201 287.703 444.598 285.741 442.4 285.52C429.778 284.249 410.384 283.68 393.168 286.153C384.574 287.388 376.288 289.412 369.608 292.633C362.959 295.839 357.364 300.504 355.191 307.278C354.516 309.382 355.674 311.634 357.778 312.309C359.882 312.984 362.134 311.825 362.809 309.722C364.036 305.896 367.411 302.573 373.082 299.839C378.722 297.119 386.105 295.25 394.306 294.072Z" fill="#00A6A6"/>
<path fill-rule="evenodd" clip-rule="evenodd" d="M172.299 51.5994C173.498 52.4981 174.278 53.847 174.459 55.3342C175.688 65.412 178.243 80.527 181.872 93.1138C183.697 99.4434 185.711 104.838 187.816 108.588C188.87 110.465 189.816 111.692 190.581 112.406C191.067 112.86 191.347 112.988 191.427 113.017C196.178 113.361 200.361 116.159 203.683 119.207C207.141 122.381 210.411 126.521 213.339 130.838C216.556 135.58 219.514 140.769 222 145.598C223.561 145.167 225.253 145 227 145C228.38 145 230.794 144.567 234.169 143.58C237.423 142.629 241.165 141.288 245.027 139.761C252.747 136.707 260.649 133.026 265.54 130.581C266.304 130.199 267.146 130 268 130H308C311.037 130 313.5 132.462 313.5 135.5C313.5 138.538 311.037 141 308 141H269.289C264.151 143.53 256.561 147.027 249.073 149.989C245.035 151.587 240.951 153.058 237.255 154.139C233.68 155.183 230.019 156 227 156C226.971 156 226.942 156 226.913 156C226.965 156.12 227.015 156.239 227.065 156.357C228.148 158.917 227.151 161.882 224.742 163.268C222.332 164.653 219.267 164.024 217.6 161.8C216.839 160.786 216.054 159.47 215.52 157.975C215.365 157.54 215.217 157.05 215.1 156.515C212.369 150.632 208.516 143.323 204.235 137.012C201.551 133.055 198.827 129.682 196.245 127.312C193.538 124.827 191.65 124.058 190.621 123.987C187.505 123.772 184.977 122.224 183.072 120.445C181.175 118.673 179.581 116.39 178.224 113.972C175.507 109.131 173.215 102.794 171.302 96.1613C168.176 85.3171 165.842 72.8887 164.396 63.0191C156.179 66.438 147.129 75.0088 143.43 92.4298C138.802 114.224 142.61 149.969 168.005 205.72C168.604 207.034 168.661 208.531 168.166 209.888L161.365 228.5H163C164.906 228.5 166.676 229.487 167.678 231.109C168.68 232.73 168.771 234.755 167.919 236.46L162.399 247.5H163C164.789 247.5 166.467 248.371 167.497 249.834C168.527 251.298 168.781 253.171 168.177 254.856L163.571 267.704L166.355 266.178C168.287 265.118 170.664 265.314 172.396 266.674C174.129 268.035 174.883 270.298 174.312 272.425C173.552 275.259 173.151 279.469 174.072 282.879C174.512 284.511 175.196 285.746 176.077 286.621C176.913 287.451 178.193 288.229 180.349 288.566C183.277 289.024 185.316 291.719 184.96 294.662C182.313 316.491 179.715 350.057 180.498 379.755C180.889 394.628 182.125 408.294 184.536 418.955C185.741 424.286 187.2 428.678 188.884 432.027C190.588 435.416 192.329 437.356 193.891 438.322C195.513 439.324 196.499 441.094 196.499 443V578.5C196.499 581.538 194.037 584 190.999 584C187.962 584 185.499 581.538 185.499 578.5V445.735C182.842 443.389 180.743 440.323 179.056 436.968C176.832 432.544 175.127 427.22 173.807 421.382C171.166 409.706 169.901 395.223 169.501 380.045C168.754 351.678 171.013 320.063 173.501 297.947C171.519 297.068 169.79 295.881 168.325 294.425C165.751 291.869 164.266 288.76 163.452 285.746C163.008 284.099 162.746 282.421 162.624 280.769L156.144 284.323C154.14 285.421 151.666 285.167 149.928 283.683C148.19 282.199 147.551 279.795 148.322 277.644L155.185 258.5H153.499C151.593 258.5 149.823 257.513 148.821 255.892C147.819 254.27 147.728 252.245 148.58 250.54L154.1 239.5H153.499C151.704 239.5 150.021 238.623 148.992 237.152C147.963 235.68 147.717 233.799 148.334 232.112L157.063 208.222C132.073 152.701 127.395 114.987 132.67 90.1452C138.081 64.6565 154.011 52.8886 168.108 50.5728C169.587 50.3299 171.1 50.7007 172.299 51.5994ZM191.452 113.024C191.452 113.024 191.448 113.023 191.44 113.021C191.448 113.023 191.452 113.024 191.452 113.024Z" fill="black"/>
<path fill-rule="evenodd" clip-rule="evenodd" d="M344.932 343.259C344.523 341.088 342.431 339.66 340.26 340.069C333.219 341.397 323.163 345.754 315.249 354.549C307.22 363.471 301.6 376.741 303.308 395.365C303.51 397.565 305.457 399.185 307.657 398.983C309.857 398.781 311.477 396.835 311.275 394.635C309.763 378.152 314.709 367.108 321.195 359.9C327.796 352.565 336.205 348.975 341.743 347.931C343.913 347.521 345.341 345.43 344.932 343.259Z" fill="black"/>
<path fill-rule="evenodd" clip-rule="evenodd" d="M271.07 343.259C271.479 341.088 273.571 339.66 275.742 340.069C282.783 341.397 292.839 345.754 300.753 354.549C308.782 363.471 314.402 376.741 312.694 395.365C312.492 397.565 310.545 399.185 308.345 398.983C306.145 398.781 304.525 396.835 304.727 394.635C306.239 378.152 301.293 367.108 294.806 359.9C288.206 352.565 279.797 348.975 274.259 347.931C272.089 347.521 270.661 345.43 271.07 343.259Z" fill="black"/>
<path fill-rule="evenodd" clip-rule="evenodd" d="M207.927 288.274C208.86 289.276 209.216 290.685 208.871 292.01C207.863 295.872 206.292 301.351 204.883 305.012C204.528 305.934 204.152 306.825 203.766 307.579C203.478 308.14 202.878 309.274 201.896 310.056C201.372 310.474 200.019 311.355 198.19 310.939C196.388 310.529 195.543 309.177 195.245 308.59C194.671 307.46 194.556 306.111 194.506 305.222C194.422 303.701 193.394 302.272 190.864 300.998C188.371 299.743 185.276 299.132 183.225 298.991C181.215 298.852 179.623 297.241 179.507 295.23C179.391 293.219 180.788 291.436 182.768 291.068L204.268 287.068C205.614 286.817 206.995 287.272 207.927 288.274ZM198.206 296.333C198.511 296.599 198.809 296.879 199.095 297.174C199.204 296.821 199.312 296.465 199.419 296.107L198.206 296.333ZM196.461 304.259C196.461 304.258 196.465 304.251 196.475 304.238C196.465 304.252 196.461 304.259 196.461 304.259Z" fill="black"/>
<path fill-rule="evenodd" clip-rule="evenodd" d="M221.694 294.072C205.318 291.72 186.612 292.25 174.401 293.48C172.203 293.701 170.242 292.099 170.02 289.901C169.799 287.703 171.402 285.741 173.6 285.52C186.222 284.249 205.616 283.68 222.832 286.153C231.426 287.388 239.712 289.412 246.392 292.633C253.041 295.839 258.636 300.504 260.809 307.278C261.484 309.382 260.326 311.634 258.222 312.309C256.118 312.984 253.866 311.825 253.191 309.722C251.964 305.896 248.589 302.573 242.918 299.839C237.278 297.119 229.895 295.25 221.694 294.072Z" fill="#00A6A6"/>
<path fill-rule="evenodd" clip-rule="evenodd" d="M443.699 51.5994C442.5 52.4981 441.72 53.847 441.539 55.3342C440.31 65.412 437.755 80.527 434.126 93.1138C432.301 99.4434 430.287 104.838 428.182 108.588C427.128 110.465 426.182 111.692 425.417 112.406C424.931 112.86 424.651 112.988 424.571 113.017C419.82 113.361 415.637 116.159 412.315 119.207C408.857 122.381 405.587 126.521 402.659 130.838C399.443 135.58 396.484 140.769 393.998 145.598C392.438 145.167 390.745 145 388.998 145C387.618 145 385.204 144.567 381.829 143.58C378.575 142.629 374.833 141.288 370.971 139.761C363.251 136.707 355.349 133.026 350.458 130.581C349.694 130.199 348.852 130 347.998 130H307.998C304.961 130 302.498 132.462 302.498 135.5C302.498 138.538 304.961 141 307.998 141H346.709C351.847 143.53 359.437 147.027 366.925 149.989C370.963 151.587 375.047 153.058 378.743 154.139C382.318 155.183 385.979 156 388.998 156C389.027 156 389.056 156 389.085 156C389.033 156.12 388.983 156.239 388.933 156.357C387.85 158.917 388.847 161.882 391.257 163.268C393.666 164.653 396.731 164.024 398.398 161.8C399.159 160.786 399.944 159.47 400.478 157.975C400.633 157.54 400.781 157.05 400.898 156.515C403.629 150.632 407.483 143.323 411.763 137.012C414.447 133.055 417.171 129.682 419.753 127.312C422.46 124.827 424.348 124.058 425.377 123.987C428.493 123.772 431.021 122.224 432.926 120.445C434.823 118.673 436.417 116.39 437.774 113.972C440.491 109.131 442.783 102.794 444.696 96.1613C447.822 85.3171 450.156 72.8887 451.602 63.0191C459.819 66.438 468.87 75.0088 472.568 92.4298C477.196 114.224 473.389 149.969 447.993 205.72C447.395 207.034 447.337 208.531 447.832 209.888L454.633 228.5H452.998C451.092 228.5 449.322 229.487 448.32 231.109C447.318 232.73 447.227 234.755 448.079 236.46L453.599 247.5H452.998C451.209 247.5 449.531 248.371 448.501 249.834C447.471 251.298 447.217 253.171 447.821 254.856L452.427 267.704L449.643 266.178C447.711 265.118 445.334 265.314 443.602 266.674C441.869 268.035 441.115 270.298 441.686 272.425C442.447 275.259 442.847 279.469 441.926 282.879C441.486 284.511 440.802 285.746 439.921 286.621C439.085 287.451 437.805 288.229 435.65 288.566C432.721 289.024 430.682 291.719 431.039 294.662C433.685 316.491 436.283 350.057 435.5 379.755C435.109 394.628 433.873 408.294 431.462 418.955C430.257 424.286 428.798 428.678 427.114 432.027C425.41 435.416 423.669 437.356 422.107 438.322C420.485 439.324 419.499 441.094 419.499 443V578.5C419.499 581.538 421.961 584 424.999 584C428.036 584 430.499 581.538 430.499 578.5V445.735C433.156 443.389 435.256 440.323 436.942 436.968C439.166 432.544 440.871 427.22 442.191 421.382C444.832 409.706 446.097 395.223 446.497 380.045C447.244 351.678 444.986 320.063 442.497 297.947C444.479 297.068 446.208 295.881 447.673 294.425C450.247 291.869 451.732 288.76 452.546 285.746C452.99 284.099 453.252 282.421 453.374 280.769L459.854 284.323C461.858 285.421 464.332 285.167 466.07 283.683C467.808 282.199 468.447 279.795 467.676 277.644L460.813 258.5H462.499C464.405 258.5 466.175 257.513 467.177 255.892C468.179 254.27 468.27 252.245 467.418 250.54L461.898 239.5H462.499C464.294 239.5 465.977 238.623 467.006 237.152C468.035 235.68 468.281 233.799 467.665 232.112L458.935 208.222C483.925 152.701 488.603 114.987 483.328 90.1452C477.917 64.6565 461.987 52.8886 447.89 50.5728C446.412 50.3299 444.898 50.7007 443.699 51.5994ZM424.546 113.024C424.546 113.024 424.55 113.023 424.558 113.021C424.55 113.023 424.546 113.024 424.546 113.024Z" fill="black"/>
<path fill-rule="evenodd" clip-rule="evenodd" d="M172.299 51.5994C173.498 52.4981 174.278 53.847 174.459 55.3342C175.688 65.412 178.243 80.527 181.872 93.1138C183.697 99.4434 185.711 104.838 187.816 108.588C188.87 110.465 189.816 111.692 190.581 112.406C191.067 112.86 191.347 112.988 191.427 113.017C196.178 113.361 200.361 116.159 203.683 119.207C207.141 122.381 210.411 126.521 213.339 130.838C216.556 135.58 219.514 140.769 222 145.598C223.561 145.167 225.253 145 227 145C228.38 145 230.794 144.567 234.169 143.58C237.423 142.629 241.165 141.288 245.027 139.761C252.747 136.707 260.649 133.026 265.54 130.581C266.304 130.199 267.146 130 268 130H308C311.037 130 313.5 132.462 313.5 135.5C313.5 138.538 311.037 141 308 141H269.289C264.151 143.53 256.561 147.027 249.073 149.989C245.035 151.587 240.951 153.058 237.255 154.139C233.68 155.183 230.019 156 227 156C226.971 156 226.942 156 226.913 156C226.965 156.12 227.015 156.239 227.065 156.357C228.148 158.917 227.151 161.882 224.742 163.268C222.332 164.653 219.267 164.024 217.6 161.8C216.839 160.786 216.054 159.47 215.52 157.975C215.365 157.54 215.217 157.05 215.1 156.515C212.369 150.632 208.516 143.323 204.235 137.012C201.551 133.055 198.827 129.682 196.245 127.312C193.538 124.827 191.65 124.058 190.621 123.987C187.505 123.772 184.977 122.224 183.072 120.445C181.175 118.673 179.581 116.39 178.224 113.972C175.507 109.131 173.215 102.794 171.302 96.1613C168.176 85.3171 165.842 72.8887 164.396 63.0191C156.179 66.438 147.129 75.0088 143.43 92.4298C138.802 114.224 142.61 149.969 168.005 205.72C168.604 207.034 168.661 208.531 168.166 209.888L161.365 228.5H163C164.906 228.5 166.676 229.487 167.678 231.109C168.68 232.73 168.771 234.755 167.919 236.46L162.399 247.5H163C164.789 247.5 166.467 248.371 167.497 249.834C168.527 251.298 168.781 253.171 168.177 254.856L163.571 267.704L166.355 266.178C168.287 265.118 170.664 265.314 172.396 266.674C174.129 268.035 174.883 270.298 174.312 272.425C173.552 275.259 173.151 279.469 174.072 282.879C174.512 284.511 175.196 285.746 176.077 286.621C176.913 287.451 178.193 288.229 180.349 288.566C183.277 289.024 185.316 291.719 184.96 294.662C182.313 316.491 179.715 350.057 180.498 379.755C180.889 394.628 182.125 408.294 184.536 418.955C185.741 424.286 187.2 428.678 188.884 432.027C190.588 435.416 192.329 437.356 193.891 438.322C195.513 439.324 196.499 441.094 196.499 443V578.5C196.499 581.538 194.037 584 190.999 584C187.962 584 185.499 581.538 185.499 578.5V445.735C182.842 443.389 180.743 440.323 179.056 436.968C176.832 432.544 175.127 427.22 173.807 421.382C171.166 409.706 169.901 395.223 169.501 380.045C168.754 351.678 171.013 320.063 173.501 297.947C171.519 297.068 169.79 295.881 168.325 294.425C165.751 291.869 164.266 288.76 163.452 285.746C163.008 284.099 162.746 282.421 162.624 280.769L156.144 284.323C154.14 285.421 151.666 285.167 149.928 283.683C148.19 282.199 147.551 279.795 148.322 277.644L155.185 258.5H153.499C151.593 258.5 149.823 257.513 148.821 255.892C147.819 254.27 147.728 252.245 148.58 250.54L154.1 239.5H153.499C151.704 239.5 150.021 238.623 148.992 237.152C147.963 235.68 147.717 233.799 148.334 232.112L157.063 208.222C132.073 152.701 127.395 114.987 132.67 90.1452C138.081 64.6565 154.011 52.8886 168.108 50.5728C169.587 50.3299 171.1 50.7007 172.299 51.5994ZM191.452 113.024C191.452 113.024 191.448 113.023 191.44 113.021C191.448 113.023 191.452 113.024 191.452 113.024Z" fill="black"/>
<path fill-rule="evenodd" clip-rule="evenodd" d="M456.405 87.0747C453.409 86.5753 450.575 88.5995 450.076 91.5957C448.857 98.9077 446.439 110.204 443.183 120.225C441.552 125.246 439.764 129.777 437.895 133.278C435.904 137.005 434.278 138.678 433.382 139.164C426.742 142.76 422.978 149.853 420.832 156.016C419.78 159.037 419.019 162.116 418.49 164.974L396.528 153.615C393.83 152.219 390.511 153.275 389.116 155.973C387.72 158.671 388.776 161.99 391.474 163.385L420.474 178.385C422.142 179.247 424.133 179.2 425.758 178.259C427.382 177.318 428.414 175.614 428.496 173.739C428.644 170.34 429.418 164.808 431.22 159.634C433.09 154.263 435.66 150.44 438.621 148.836C442.525 146.721 445.423 142.532 447.598 138.46C449.894 134.16 451.913 128.953 453.644 123.624C457.114 112.946 459.645 101.092 460.926 93.4041C461.426 90.4078 459.402 87.5741 456.405 87.0747Z" fill="black"/>
<path fill-rule="evenodd" clip-rule="evenodd" d="M159.597 87.0747C162.593 86.5753 165.427 88.5995 165.926 91.5957C167.145 98.9077 169.563 110.204 172.819 120.225C174.45 125.246 176.237 129.777 178.107 133.278C180.098 137.005 181.724 138.678 182.62 139.164C189.26 142.76 193.024 149.853 195.17 156.016C196.222 159.037 196.983 162.116 197.512 164.974L219.474 153.615C222.172 152.219 225.491 153.275 226.886 155.973C228.282 158.671 227.226 161.99 224.528 163.385L195.528 178.385C193.86 179.247 191.868 179.2 190.244 178.259C188.62 177.318 187.588 175.614 187.506 173.739C187.358 170.34 186.584 164.808 184.782 159.634C182.911 154.263 180.342 150.44 177.381 148.836C173.477 146.721 170.579 142.532 168.404 138.46C166.108 134.16 164.089 128.953 162.357 123.624C158.888 112.946 156.357 101.092 155.076 93.4041C154.576 90.4078 156.6 87.5741 159.597 87.0747Z" fill="black"/>
<path fill-rule="evenodd" clip-rule="evenodd" d="M303.002 279.406C302.949 281.614 304.698 283.447 306.906 283.499C316.684 283.73 331.552 287.632 343.82 298.617C355.946 309.477 365.887 327.575 365.501 356.947C365.114 386.368 355.011 403.223 343.156 412.6C331.141 422.106 316.786 424.359 307.357 423.516C305.156 423.319 303.213 424.943 303.016 427.144C302.82 429.344 304.444 431.287 306.644 431.484C317.715 432.474 334.21 429.878 348.12 418.875C362.19 407.744 373.087 388.432 373.5 357.053C373.914 325.625 363.188 305.223 349.156 292.658C335.266 280.218 318.483 275.77 307.095 275.501C304.886 275.449 303.054 277.197 303.002 279.406Z" fill="black"/>
<path fill-rule="evenodd" clip-rule="evenodd" d="M312.998 279.406C313.051 281.614 311.302 283.447 309.094 283.499C299.316 283.73 284.448 287.632 272.18 298.617C260.054 309.477 250.113 327.575 250.499 356.947C250.886 386.368 260.989 403.223 272.844 412.6C284.859 422.106 299.214 424.359 308.643 423.516C310.844 423.319 312.787 424.943 312.984 427.144C313.18 429.344 311.556 431.287 309.356 431.484C298.285 432.474 281.79 429.878 267.88 418.875C253.81 407.744 242.913 388.432 242.5 357.053C242.086 325.625 252.812 305.223 266.844 292.658C280.734 280.218 297.517 275.77 308.905 275.501C311.114 275.449 312.946 277.197 312.998 279.406Z" fill="black"/>
<path d="M355.501 386.5C355.501 399.692 323.628 422 306.57 422C289.512 422 263.501 397.692 263.501 384.5C259.088 366.9 289.512 392.457 306.57 392.457C323.628 392.457 359.913 369.528 355.501 386.5Z" fill="#FCFCFC"/>
<path fill-rule="evenodd" clip-rule="evenodd" d="M350.654 385.273L350.501 385.861V386.5C350.501 388.002 349.456 390.721 346.397 394.431C343.49 397.955 339.326 401.694 334.523 405.131C329.735 408.556 324.467 411.569 319.45 413.709C314.355 415.882 309.877 417 306.57 417C303.403 417 299.39 415.84 294.929 413.548C290.53 411.288 286.026 408.098 281.973 404.471C277.915 400.84 274.438 396.889 272.015 393.187C269.502 389.347 268.501 386.349 268.501 384.5V383.883L268.485 383.821C268.67 383.879 268.866 383.943 269.074 384.014C270.702 384.571 272.651 385.398 274.909 386.427C276.277 387.051 277.77 387.756 279.34 388.498C282.746 390.106 286.51 391.884 290.13 393.366C295.395 395.521 301.265 397.457 306.57 397.457C311.712 397.457 317.854 395.776 323.594 393.889C326.539 392.921 329.536 391.842 332.416 390.797C332.723 390.686 333.028 390.575 333.331 390.465C335.904 389.531 338.366 388.638 340.691 387.849C343.297 386.966 345.613 386.256 347.589 385.796C348.884 385.494 349.895 385.335 350.654 385.273ZM352.026 385.294C352.032 385.295 352.036 385.296 352.035 385.296C352.035 385.296 352.032 385.296 352.026 385.294ZM263.501 384.5C263.501 397.692 289.512 422 306.57 422C323.628 422 355.501 399.692 355.501 386.5C358.2 376.118 345.669 380.667 331.628 385.764C322.715 389 313.193 392.457 306.57 392.457C299.425 392.457 289.936 387.973 281.644 384.055C270.138 378.619 260.936 374.272 263.501 384.5Z" fill="black"/>
<path d="M184 268C184 265.791 185.791 264 188 264H279.711C281.92 264 283.711 265.791 283.711 268V331C283.711 333.209 281.92 335 279.711 335H188C185.791 335 184 333.209 184 331V268Z" fill="black"/>
<path d="M333.289 270.762C333.289 267.027 336.316 264 340.049 264H426.24C429.973 264 433 267.027 433 270.762V328.238C433 331.973 429.973 335 426.24 335H340.049C336.316 335 333.289 331.973 333.289 328.238V270.762Z" fill="black"/>
</svg>
