<?xml version="1.0" encoding="UTF-8"?>
<!--Generator: Apple Native CoreSVG 326-->
<!DOCTYPE svg
PUBLIC "-//W3C//DTD SVG 1.1//EN"
       "http://www.w3.org/Graphics/SVG/1.1/DTD/svg11.dtd">
<svg version="1.1" xmlns="http://www.w3.org/2000/svg" xmlns:xlink="http://www.w3.org/1999/xlink" viewBox="0 0 509.25 558.25">
 <g>
  <rect height="558.25" opacity="0" width="509.25" x="0" y="0"/>
  <path d="M0 368.25C0 449 52.75 517 116.5 517L196.25 517C228 533.75 266.5 543.5 309.5 543.5L343 543.5C373 543.5 399 541.75 416.25 537.5C449.75 529.25 470.75 506 470.75 476.5C470.75 470.25 469.75 464.75 468.25 459.25C484.75 446.75 494 428.5 494 408.5C494 398.75 492 389 488.5 381.25C499.75 369.75 506 353 506 335.5C506 324.25 503.25 312.25 498.5 303.5C505.25 293.75 509.25 280 509.25 265.5C509.25 229.5 481 201 445 201L353.75 201C348.25 201 344.75 198.5 344.75 193.75C344.75 167.75 385.75 106.75 385.75 57.75C385.75 24 362.25 0 330 0C306.25 0 290.25 12.25 274.5 42.25C245.25 98.5 210.25 149 153.25 218.5L107.5 218.5C48 218.5 0 285.75 0 368.25ZM140.75 367C140.75 314.75 152.5 281.5 185 237.75C221.25 189.25 271.5 131.25 307.75 59.25C316.75 41 322.75 37 331.5 37C341.75 37 348.75 44.25 348.75 57.75C348.75 96.75 307.75 155.75 307.75 193.75C307.75 221.25 330.25 238 359 238L445 238C460.5 238 472.25 249.75 472.25 265.5C472.25 277 468.5 284.25 459.25 293.75C454.75 297.75 454.25 302.75 458 307.5C465.75 319 469 326 469 335.5C469 346.75 463.75 356.5 452.75 364.75C446.75 369.5 444.25 375.75 447.75 383.25C454 394.5 457 399.75 457 408.5C457 421.25 448.75 431 431.25 440C425.75 443.25 424.5 447.75 426.75 453C432.75 468 433.5 470.25 433.5 476.5C433.5 488 425 497.25 407.5 501.75C393.25 505.25 370.5 506.75 343.25 506.75L312.25 506.75C209.25 506.75 140.75 448.25 140.75 367ZM37 368.25C37 306 70.5 255.5 107.5 255.5C114.75 255.5 122 255.5 129.25 255.5C111.5 289 103.75 324 103.75 366.25C103.75 411 119.75 450 148.5 479.75C137.75 479.75 127.25 479.75 116.5 479.75C74.25 479.75 37 428.75 37 368.25Z" fill="black"/>
 </g>
</svg>
