<?xml version="1.0" encoding="UTF-8"?>
<!--Generator: Apple Native CoreSVG 326-->
<!DOCTYPE svg
PUBLIC "-//W3C//DTD SVG 1.1//EN"
       "http://www.w3.org/Graphics/SVG/1.1/DTD/svg11.dtd">
<svg version="1.1" xmlns="http://www.w3.org/2000/svg" xmlns:xlink="http://www.w3.org/1999/xlink" viewBox="0 0 293 460.25">
 <g>
  <rect height="460.25" opacity="0" width="293" x="0" y="0"/>
  <path d="M293 41.25L293 45.5C293 106.25 229.25 170 194.25 204.5C178.5 220.25 177.25 237.75 194.25 254.75C229.25 289.5 293 353.5 293 413.75L293 418.75C293 445.5 277.5 459.75 252.25 459.75L40.75 459.75C15.5 459.75 0 445.5 0 418.75L0 413.75C0 353.5 64 289.5 98.75 254.75C116 237.75 114.75 220.25 98.75 204.5C64 170 0 106.25 0 45.5L0 41.25C0 14.5 15.5 0 40.75 0L252.25 0C277.5 0 293 14.5 293 41.25ZM76.25 121.75C68.5 121.75 65 129.75 71.5 136.25C87 152.5 110.5 173 127.25 187.25C135.75 194.5 138 200.25 138 211.75L138 322.5C138 326.5 136.75 327.75 133.75 330.5L54 406.5C46.75 413.25 49.25 425.75 60 425.75L233 425.75C243.75 425.75 246.25 413.25 239 406.5L159.25 330.5C156.25 327.75 155.25 326.5 155.25 322.5L155.25 211.75C155.25 200.25 157.25 194.5 165.75 187.25C182.75 173 206.25 152.5 221.5 136.25C228 129.75 224.5 121.75 216.75 121.75Z" fill="black"/>
 </g>
</svg>
